%TF.GenerationSoftware,KiCad,Pcbnew,5.1.12-84ad8e8a86~92~ubuntu18.04.1*%
%TF.CreationDate,2022-10-23T22:52:00+01:00*%
%TF.ProjectId,nascom_ng,6e617363-6f6d-45f6-9e67-2e6b69636164,rev?*%
%TF.SameCoordinates,Original*%
%TF.FileFunction,Soldermask,Bot*%
%TF.FilePolarity,Negative*%
%FSLAX46Y46*%
G04 Gerber Fmt 4.6, Leading zero omitted, Abs format (unit mm)*
G04 Created by KiCad (PCBNEW 5.1.12-84ad8e8a86~92~ubuntu18.04.1) date 2022-10-23 22:52:00*
%MOMM*%
%LPD*%
G01*
G04 APERTURE LIST*
%ADD10O,1.800000X1.800000*%
%ADD11C,1.800000*%
%ADD12C,2.000000*%
%ADD13O,2.000000X2.000000*%
%ADD14O,2.100000X2.100000*%
%ADD15O,4.400000X2.400000*%
%ADD16O,2.400000X3.900000*%
%ADD17O,2.000000X1.839000*%
%ADD18C,2.200000*%
%ADD19O,2.700000X2.500000*%
%ADD20C,2.100000*%
%ADD21C,3.600000*%
%ADD22C,2.400000*%
%ADD23O,2.000000X1.950000*%
%ADD24C,2.800000*%
%ADD25C,1.840000*%
%ADD26C,4.400000*%
%ADD27O,2.100000X2.000000*%
G04 APERTURE END LIST*
%TO.C,J100*%
G36*
G01*
X145635000Y-148805000D02*
X145635000Y-147105000D01*
G75*
G02*
X145835000Y-146905000I200000J0D01*
G01*
X147535000Y-146905000D01*
G75*
G02*
X147735000Y-147105000I0J-200000D01*
G01*
X147735000Y-148805000D01*
G75*
G02*
X147535000Y-149005000I-200000J0D01*
G01*
X145835000Y-149005000D01*
G75*
G02*
X145635000Y-148805000I0J200000D01*
G01*
G37*
%TD*%
D10*
%TO.C,R101*%
X162560000Y-111760000D03*
D11*
X154940000Y-111760000D03*
%TD*%
D10*
%TO.C,R100*%
X162560000Y-109220000D03*
D11*
X154940000Y-109220000D03*
%TD*%
D10*
%TO.C,R102*%
X113030000Y-53340000D03*
D11*
X113030000Y-45720000D03*
%TD*%
D12*
%TO.C,C2*%
X132715000Y-42505000D03*
G36*
G01*
X131915000Y-39005000D02*
X133515000Y-39005000D01*
G75*
G02*
X133715000Y-39205000I0J-200000D01*
G01*
X133715000Y-40805000D01*
G75*
G02*
X133515000Y-41005000I-200000J0D01*
G01*
X131915000Y-41005000D01*
G75*
G02*
X131715000Y-40805000I0J200000D01*
G01*
X131715000Y-39205000D01*
G75*
G02*
X131915000Y-39005000I200000J0D01*
G01*
G37*
%TD*%
%TO.C,C3*%
X193040000Y-43775000D03*
G36*
G01*
X192240000Y-40275000D02*
X193840000Y-40275000D01*
G75*
G02*
X194040000Y-40475000I0J-200000D01*
G01*
X194040000Y-42075000D01*
G75*
G02*
X193840000Y-42275000I-200000J0D01*
G01*
X192240000Y-42275000D01*
G75*
G02*
X192040000Y-42075000I0J200000D01*
G01*
X192040000Y-40475000D01*
G75*
G02*
X192240000Y-40275000I200000J0D01*
G01*
G37*
%TD*%
D13*
%TO.C,U15*%
X113030000Y-105410000D03*
X105410000Y-120650000D03*
X113030000Y-107950000D03*
X105410000Y-118110000D03*
X113030000Y-110490000D03*
X105410000Y-115570000D03*
X113030000Y-113030000D03*
X105410000Y-113030000D03*
X113030000Y-115570000D03*
X105410000Y-110490000D03*
X113030000Y-118110000D03*
X105410000Y-107950000D03*
X113030000Y-120650000D03*
G36*
G01*
X104410000Y-106210000D02*
X104410000Y-104610000D01*
G75*
G02*
X104610000Y-104410000I200000J0D01*
G01*
X106210000Y-104410000D01*
G75*
G02*
X106410000Y-104610000I0J-200000D01*
G01*
X106410000Y-106210000D01*
G75*
G02*
X106210000Y-106410000I-200000J0D01*
G01*
X104610000Y-106410000D01*
G75*
G02*
X104410000Y-106210000I0J200000D01*
G01*
G37*
%TD*%
D12*
%TO.C,C29*%
X73025000Y-156170000D03*
G36*
G01*
X72225000Y-152670000D02*
X73825000Y-152670000D01*
G75*
G02*
X74025000Y-152870000I0J-200000D01*
G01*
X74025000Y-154470000D01*
G75*
G02*
X73825000Y-154670000I-200000J0D01*
G01*
X72225000Y-154670000D01*
G75*
G02*
X72025000Y-154470000I0J200000D01*
G01*
X72025000Y-152870000D01*
G75*
G02*
X72225000Y-152670000I200000J0D01*
G01*
G37*
%TD*%
%TO.C,C20*%
X31750000Y-102830000D03*
G36*
G01*
X30950000Y-99330000D02*
X32550000Y-99330000D01*
G75*
G02*
X32750000Y-99530000I0J-200000D01*
G01*
X32750000Y-101130000D01*
G75*
G02*
X32550000Y-101330000I-200000J0D01*
G01*
X30950000Y-101330000D01*
G75*
G02*
X30750000Y-101130000I0J200000D01*
G01*
X30750000Y-99530000D01*
G75*
G02*
X30950000Y-99330000I200000J0D01*
G01*
G37*
%TD*%
D14*
%TO.C,J15*%
X50800000Y-154940000D03*
X48260000Y-154940000D03*
X45720000Y-154940000D03*
G36*
G01*
X44030000Y-155990000D02*
X42330000Y-155990000D01*
G75*
G02*
X42130000Y-155790000I0J200000D01*
G01*
X42130000Y-154090000D01*
G75*
G02*
X42330000Y-153890000I200000J0D01*
G01*
X44030000Y-153890000D01*
G75*
G02*
X44230000Y-154090000I0J-200000D01*
G01*
X44230000Y-155790000D01*
G75*
G02*
X44030000Y-155990000I-200000J0D01*
G01*
G37*
%TD*%
D13*
%TO.C,U1*%
X69850000Y-36830000D03*
X54610000Y-69850000D03*
X69850000Y-39370000D03*
X54610000Y-67310000D03*
X69850000Y-41910000D03*
X54610000Y-64770000D03*
X69850000Y-44450000D03*
X54610000Y-62230000D03*
X69850000Y-46990000D03*
X54610000Y-59690000D03*
X69850000Y-49530000D03*
X54610000Y-57150000D03*
X69850000Y-52070000D03*
X54610000Y-54610000D03*
X69850000Y-54610000D03*
X54610000Y-52070000D03*
X69850000Y-57150000D03*
X54610000Y-49530000D03*
X69850000Y-59690000D03*
X54610000Y-46990000D03*
X69850000Y-62230000D03*
X54610000Y-44450000D03*
X69850000Y-64770000D03*
X54610000Y-41910000D03*
X69850000Y-67310000D03*
X54610000Y-39370000D03*
X69850000Y-69850000D03*
G36*
G01*
X53610000Y-37630000D02*
X53610000Y-36030000D01*
G75*
G02*
X53810000Y-35830000I200000J0D01*
G01*
X55410000Y-35830000D01*
G75*
G02*
X55610000Y-36030000I0J-200000D01*
G01*
X55610000Y-37630000D01*
G75*
G02*
X55410000Y-37830000I-200000J0D01*
G01*
X53810000Y-37830000D01*
G75*
G02*
X53610000Y-37630000I0J200000D01*
G01*
G37*
%TD*%
%TO.C,U10*%
X83820000Y-72390000D03*
X76200000Y-90170000D03*
X83820000Y-74930000D03*
X76200000Y-87630000D03*
X83820000Y-77470000D03*
X76200000Y-85090000D03*
X83820000Y-80010000D03*
X76200000Y-82550000D03*
X83820000Y-82550000D03*
X76200000Y-80010000D03*
X83820000Y-85090000D03*
X76200000Y-77470000D03*
X83820000Y-87630000D03*
X76200000Y-74930000D03*
X83820000Y-90170000D03*
G36*
G01*
X75200000Y-73190000D02*
X75200000Y-71590000D01*
G75*
G02*
X75400000Y-71390000I200000J0D01*
G01*
X77000000Y-71390000D01*
G75*
G02*
X77200000Y-71590000I0J-200000D01*
G01*
X77200000Y-73190000D01*
G75*
G02*
X77000000Y-73390000I-200000J0D01*
G01*
X75400000Y-73390000D01*
G75*
G02*
X75200000Y-73190000I0J200000D01*
G01*
G37*
%TD*%
D15*
%TO.C,J13*%
X159990000Y-161130000D03*
D12*
X156590000Y-154680000D03*
X163390000Y-154680000D03*
X156590000Y-157480000D03*
X163390000Y-157480000D03*
X158690000Y-157480000D03*
G36*
G01*
X160290000Y-158280000D02*
X160290000Y-156680000D01*
G75*
G02*
X160490000Y-156480000I200000J0D01*
G01*
X162090000Y-156480000D01*
G75*
G02*
X162290000Y-156680000I0J-200000D01*
G01*
X162290000Y-158280000D01*
G75*
G02*
X162090000Y-158480000I-200000J0D01*
G01*
X160490000Y-158480000D01*
G75*
G02*
X160290000Y-158280000I0J200000D01*
G01*
G37*
D16*
X166840000Y-160330000D03*
X153140000Y-160330000D03*
%TD*%
D10*
%TO.C,R19*%
X116205000Y-135255000D03*
D11*
X123825000Y-135255000D03*
%TD*%
D10*
%TO.C,R10*%
X125095000Y-71755000D03*
D11*
X132715000Y-71755000D03*
%TD*%
D12*
%TO.C,C12*%
X88900000Y-77390000D03*
G36*
G01*
X88100000Y-71390000D02*
X89700000Y-71390000D01*
G75*
G02*
X89900000Y-71590000I0J-200000D01*
G01*
X89900000Y-73190000D01*
G75*
G02*
X89700000Y-73390000I-200000J0D01*
G01*
X88100000Y-73390000D01*
G75*
G02*
X87900000Y-73190000I0J200000D01*
G01*
X87900000Y-71590000D01*
G75*
G02*
X88100000Y-71390000I200000J0D01*
G01*
G37*
%TD*%
D14*
%TO.C,J16*%
X63500000Y-154940000D03*
X60960000Y-154940000D03*
X58420000Y-154940000D03*
G36*
G01*
X56730000Y-155990000D02*
X55030000Y-155990000D01*
G75*
G02*
X54830000Y-155790000I0J200000D01*
G01*
X54830000Y-154090000D01*
G75*
G02*
X55030000Y-153890000I200000J0D01*
G01*
X56730000Y-153890000D01*
G75*
G02*
X56930000Y-154090000I0J-200000D01*
G01*
X56930000Y-155790000D01*
G75*
G02*
X56730000Y-155990000I-200000J0D01*
G01*
G37*
%TD*%
%TO.C,J2*%
X66040000Y-29210000D03*
X63500000Y-29210000D03*
X60960000Y-29210000D03*
G36*
G01*
X59270000Y-30260000D02*
X57570000Y-30260000D01*
G75*
G02*
X57370000Y-30060000I0J200000D01*
G01*
X57370000Y-28360000D01*
G75*
G02*
X57570000Y-28160000I200000J0D01*
G01*
X59270000Y-28160000D01*
G75*
G02*
X59470000Y-28360000I0J-200000D01*
G01*
X59470000Y-30060000D01*
G75*
G02*
X59270000Y-30260000I-200000J0D01*
G01*
G37*
%TD*%
%TO.C,J1*%
X53340000Y-29210000D03*
X50800000Y-29210000D03*
X48260000Y-29210000D03*
G36*
G01*
X46570000Y-30260000D02*
X44870000Y-30260000D01*
G75*
G02*
X44670000Y-30060000I0J200000D01*
G01*
X44670000Y-28360000D01*
G75*
G02*
X44870000Y-28160000I200000J0D01*
G01*
X46570000Y-28160000D01*
G75*
G02*
X46770000Y-28360000I0J-200000D01*
G01*
X46770000Y-30060000D01*
G75*
G02*
X46570000Y-30260000I-200000J0D01*
G01*
G37*
%TD*%
%TO.C,J14*%
X38100000Y-154940000D03*
X35560000Y-154940000D03*
X33020000Y-154940000D03*
G36*
G01*
X31330000Y-155990000D02*
X29630000Y-155990000D01*
G75*
G02*
X29430000Y-155790000I0J200000D01*
G01*
X29430000Y-154090000D01*
G75*
G02*
X29630000Y-153890000I200000J0D01*
G01*
X31330000Y-153890000D01*
G75*
G02*
X31530000Y-154090000I0J-200000D01*
G01*
X31530000Y-155790000D01*
G75*
G02*
X31330000Y-155990000I-200000J0D01*
G01*
G37*
%TD*%
D10*
%TO.C,R5*%
X149225000Y-45720000D03*
D11*
X149225000Y-38100000D03*
%TD*%
D12*
%TO.C,C5*%
X101640000Y-41275000D03*
X104140000Y-41275000D03*
%TD*%
D13*
%TO.C,U6*%
X123825000Y-45720000D03*
X116205000Y-68580000D03*
X123825000Y-48260000D03*
X116205000Y-66040000D03*
X123825000Y-50800000D03*
X116205000Y-63500000D03*
X123825000Y-53340000D03*
X116205000Y-60960000D03*
X123825000Y-55880000D03*
X116205000Y-58420000D03*
X123825000Y-58420000D03*
X116205000Y-55880000D03*
X123825000Y-60960000D03*
X116205000Y-53340000D03*
X123825000Y-63500000D03*
X116205000Y-50800000D03*
D17*
X123825000Y-66040000D03*
D13*
X116205000Y-48260000D03*
D17*
X123825000Y-68580000D03*
G36*
G01*
X115205000Y-46520000D02*
X115205000Y-44920000D01*
G75*
G02*
X115405000Y-44720000I200000J0D01*
G01*
X117005000Y-44720000D01*
G75*
G02*
X117205000Y-44920000I0J-200000D01*
G01*
X117205000Y-46520000D01*
G75*
G02*
X117005000Y-46720000I-200000J0D01*
G01*
X115405000Y-46720000D01*
G75*
G02*
X115205000Y-46520000I0J200000D01*
G01*
G37*
%TD*%
D13*
%TO.C,U5*%
X140335000Y-45720000D03*
X132715000Y-68580000D03*
X140335000Y-48260000D03*
X132715000Y-66040000D03*
X140335000Y-50800000D03*
X132715000Y-63500000D03*
X140335000Y-53340000D03*
X132715000Y-60960000D03*
X140335000Y-55880000D03*
X132715000Y-58420000D03*
X140335000Y-58420000D03*
X132715000Y-55880000D03*
X140335000Y-60960000D03*
X132715000Y-53340000D03*
X140335000Y-63500000D03*
X132715000Y-50800000D03*
X140335000Y-66040000D03*
X132715000Y-48260000D03*
X140335000Y-68580000D03*
G36*
G01*
X131715000Y-46520000D02*
X131715000Y-44920000D01*
G75*
G02*
X131915000Y-44720000I200000J0D01*
G01*
X133515000Y-44720000D01*
G75*
G02*
X133715000Y-44920000I0J-200000D01*
G01*
X133715000Y-46520000D01*
G75*
G02*
X133515000Y-46720000I-200000J0D01*
G01*
X131915000Y-46720000D01*
G75*
G02*
X131715000Y-46520000I0J200000D01*
G01*
G37*
%TD*%
%TO.C,U16*%
X137160000Y-126365000D03*
X129540000Y-149225000D03*
X137160000Y-128905000D03*
X129540000Y-146685000D03*
X137160000Y-131445000D03*
X129540000Y-144145000D03*
X137160000Y-133985000D03*
X129540000Y-141605000D03*
X137160000Y-136525000D03*
X129540000Y-139065000D03*
X137160000Y-139065000D03*
X129540000Y-136525000D03*
X137160000Y-141605000D03*
X129540000Y-133985000D03*
X137160000Y-144145000D03*
X129540000Y-131445000D03*
X137160000Y-146685000D03*
X129540000Y-128905000D03*
X137160000Y-149225000D03*
G36*
G01*
X128540000Y-127165000D02*
X128540000Y-125565000D01*
G75*
G02*
X128740000Y-125365000I200000J0D01*
G01*
X130340000Y-125365000D01*
G75*
G02*
X130540000Y-125565000I0J-200000D01*
G01*
X130540000Y-127165000D01*
G75*
G02*
X130340000Y-127365000I-200000J0D01*
G01*
X128740000Y-127365000D01*
G75*
G02*
X128540000Y-127165000I0J200000D01*
G01*
G37*
%TD*%
%TO.C,SW1*%
G36*
G01*
X123360000Y-27570000D02*
X123360000Y-25770000D01*
G75*
G02*
X123560000Y-25570000I200000J0D01*
G01*
X125360000Y-25570000D01*
G75*
G02*
X125560000Y-25770000I0J-200000D01*
G01*
X125560000Y-27570000D01*
G75*
G02*
X125360000Y-27770000I-200000J0D01*
G01*
X123560000Y-27770000D01*
G75*
G02*
X123360000Y-27570000I0J200000D01*
G01*
G37*
D18*
X128960000Y-26670000D03*
D19*
X123210000Y-29170000D03*
X130210000Y-29170000D03*
%TD*%
%TO.C,SW2*%
G36*
G01*
X134770000Y-27570000D02*
X134770000Y-25770000D01*
G75*
G02*
X134970000Y-25570000I200000J0D01*
G01*
X136770000Y-25570000D01*
G75*
G02*
X136970000Y-25770000I0J-200000D01*
G01*
X136970000Y-27570000D01*
G75*
G02*
X136770000Y-27770000I-200000J0D01*
G01*
X134970000Y-27770000D01*
G75*
G02*
X134770000Y-27570000I0J200000D01*
G01*
G37*
D18*
X140370000Y-26670000D03*
D19*
X134620000Y-29170000D03*
X141620000Y-29170000D03*
%TD*%
%TO.C,SW3*%
G36*
G01*
X146220000Y-27570000D02*
X146220000Y-25770000D01*
G75*
G02*
X146420000Y-25570000I200000J0D01*
G01*
X148220000Y-25570000D01*
G75*
G02*
X148420000Y-25770000I0J-200000D01*
G01*
X148420000Y-27570000D01*
G75*
G02*
X148220000Y-27770000I-200000J0D01*
G01*
X146420000Y-27770000D01*
G75*
G02*
X146220000Y-27570000I0J200000D01*
G01*
G37*
D18*
X151820000Y-26670000D03*
D19*
X146070000Y-29170000D03*
X153070000Y-29170000D03*
%TD*%
D20*
%TO.C,J11*%
X132080000Y-97790000D03*
X132080000Y-100330000D03*
X132080000Y-102870000D03*
X132080000Y-105410000D03*
X132080000Y-107950000D03*
X132080000Y-110490000D03*
X132080000Y-113030000D03*
X132080000Y-115570000D03*
X134620000Y-97790000D03*
X134620000Y-100330000D03*
X134620000Y-102870000D03*
X134620000Y-105410000D03*
X134620000Y-107950000D03*
X134620000Y-110490000D03*
X134620000Y-113030000D03*
G36*
G01*
X135670000Y-114828823D02*
X135670000Y-116311177D01*
G75*
G02*
X135361177Y-116620000I-308823J0D01*
G01*
X133878823Y-116620000D01*
G75*
G02*
X133570000Y-116311177I0J308823D01*
G01*
X133570000Y-114828823D01*
G75*
G02*
X133878823Y-114520000I308823J0D01*
G01*
X135361177Y-114520000D01*
G75*
G02*
X135670000Y-114828823I0J-308823D01*
G01*
G37*
%TD*%
D21*
%TO.C,H4*%
X192000000Y-162000000D03*
%TD*%
%TO.C,H2*%
X192000000Y-27000000D03*
%TD*%
%TO.C,H3*%
X32000000Y-162000000D03*
%TD*%
%TO.C,H1*%
X32000000Y-27000000D03*
%TD*%
D13*
%TO.C,U9*%
X190500000Y-83820000D03*
X152400000Y-68580000D03*
X187960000Y-83820000D03*
X154940000Y-68580000D03*
X185420000Y-83820000D03*
X157480000Y-68580000D03*
X182880000Y-83820000D03*
X160020000Y-68580000D03*
X180340000Y-83820000D03*
X162560000Y-68580000D03*
X177800000Y-83820000D03*
X165100000Y-68580000D03*
X175260000Y-83820000D03*
X167640000Y-68580000D03*
X172720000Y-83820000D03*
X170180000Y-68580000D03*
X170180000Y-83820000D03*
X172720000Y-68580000D03*
X167640000Y-83820000D03*
X175260000Y-68580000D03*
X165100000Y-83820000D03*
X177800000Y-68580000D03*
X162560000Y-83820000D03*
X180340000Y-68580000D03*
X160020000Y-83820000D03*
X182880000Y-68580000D03*
X157480000Y-83820000D03*
X185420000Y-68580000D03*
X154940000Y-83820000D03*
X187960000Y-68580000D03*
X152400000Y-83820000D03*
G36*
G01*
X189700000Y-67580000D02*
X191300000Y-67580000D01*
G75*
G02*
X191500000Y-67780000I0J-200000D01*
G01*
X191500000Y-69380000D01*
G75*
G02*
X191300000Y-69580000I-200000J0D01*
G01*
X189700000Y-69580000D01*
G75*
G02*
X189500000Y-69380000I0J200000D01*
G01*
X189500000Y-67780000D01*
G75*
G02*
X189700000Y-67580000I200000J0D01*
G01*
G37*
%TD*%
D10*
%TO.C,R17*%
X162560000Y-123190000D03*
D11*
X154940000Y-123190000D03*
%TD*%
D10*
%TO.C,R18*%
X162560000Y-125730000D03*
D11*
X154940000Y-125730000D03*
%TD*%
D13*
%TO.C,D5*%
X154940000Y-128270000D03*
G36*
G01*
X163560000Y-127470000D02*
X163560000Y-129070000D01*
G75*
G02*
X163360000Y-129270000I-200000J0D01*
G01*
X161760000Y-129270000D01*
G75*
G02*
X161560000Y-129070000I0J200000D01*
G01*
X161560000Y-127470000D01*
G75*
G02*
X161760000Y-127270000I200000J0D01*
G01*
X163360000Y-127270000D01*
G75*
G02*
X163560000Y-127470000I0J-200000D01*
G01*
G37*
%TD*%
%TO.C,D6*%
X154940000Y-130810000D03*
G36*
G01*
X163560000Y-130010000D02*
X163560000Y-131610000D01*
G75*
G02*
X163360000Y-131810000I-200000J0D01*
G01*
X161760000Y-131810000D01*
G75*
G02*
X161560000Y-131610000I0J200000D01*
G01*
X161560000Y-130010000D01*
G75*
G02*
X161760000Y-129810000I200000J0D01*
G01*
X163360000Y-129810000D01*
G75*
G02*
X163560000Y-130010000I0J-200000D01*
G01*
G37*
%TD*%
D10*
%TO.C,R1*%
X189230000Y-45720000D03*
D11*
X189230000Y-38100000D03*
%TD*%
D18*
%TO.C,D4*%
X180340000Y-26670000D03*
G36*
G01*
X183980000Y-25770000D02*
X183980000Y-27570000D01*
G75*
G02*
X183780000Y-27770000I-200000J0D01*
G01*
X181980000Y-27770000D01*
G75*
G02*
X181780000Y-27570000I0J200000D01*
G01*
X181780000Y-25770000D01*
G75*
G02*
X181980000Y-25570000I200000J0D01*
G01*
X183780000Y-25570000D01*
G75*
G02*
X183980000Y-25770000I0J-200000D01*
G01*
G37*
%TD*%
D10*
%TO.C,R22*%
X56515000Y-149860000D03*
D11*
X48895000Y-149860000D03*
%TD*%
D13*
%TO.C,U7*%
X190500000Y-64770000D03*
X152400000Y-49530000D03*
X187960000Y-64770000D03*
X154940000Y-49530000D03*
X185420000Y-64770000D03*
X157480000Y-49530000D03*
X182880000Y-64770000D03*
X160020000Y-49530000D03*
X180340000Y-64770000D03*
X162560000Y-49530000D03*
X177800000Y-64770000D03*
X165100000Y-49530000D03*
X175260000Y-64770000D03*
X167640000Y-49530000D03*
X172720000Y-64770000D03*
X170180000Y-49530000D03*
X170180000Y-64770000D03*
X172720000Y-49530000D03*
X167640000Y-64770000D03*
X175260000Y-49530000D03*
X165100000Y-64770000D03*
X177800000Y-49530000D03*
X162560000Y-64770000D03*
X180340000Y-49530000D03*
X160020000Y-64770000D03*
X182880000Y-49530000D03*
X157480000Y-64770000D03*
X185420000Y-49530000D03*
X154940000Y-64770000D03*
X187960000Y-49530000D03*
X152400000Y-64770000D03*
G36*
G01*
X189700000Y-48530000D02*
X191300000Y-48530000D01*
G75*
G02*
X191500000Y-48730000I0J-200000D01*
G01*
X191500000Y-50330000D01*
G75*
G02*
X191300000Y-50530000I-200000J0D01*
G01*
X189700000Y-50530000D01*
G75*
G02*
X189500000Y-50330000I0J200000D01*
G01*
X189500000Y-48730000D01*
G75*
G02*
X189700000Y-48530000I200000J0D01*
G01*
G37*
%TD*%
%TO.C,J19*%
G36*
G01*
X184570000Y-147540000D02*
X186270000Y-147540000D01*
G75*
G02*
X186470000Y-147740000I0J-200000D01*
G01*
X186470000Y-149440000D01*
G75*
G02*
X186270000Y-149640000I-200000J0D01*
G01*
X184570000Y-149640000D01*
G75*
G02*
X184370000Y-149440000I0J200000D01*
G01*
X184370000Y-147740000D01*
G75*
G02*
X184570000Y-147540000I200000J0D01*
G01*
G37*
D14*
X182880000Y-148590000D03*
X180340000Y-148590000D03*
X177800000Y-148590000D03*
X175260000Y-148590000D03*
X172720000Y-148590000D03*
%TD*%
D12*
%TO.C,C8*%
X88900000Y-46990000D03*
G36*
G01*
X88100000Y-40990000D02*
X89700000Y-40990000D01*
G75*
G02*
X89900000Y-41190000I0J-200000D01*
G01*
X89900000Y-42790000D01*
G75*
G02*
X89700000Y-42990000I-200000J0D01*
G01*
X88100000Y-42990000D01*
G75*
G02*
X87900000Y-42790000I0J200000D01*
G01*
X87900000Y-41190000D01*
G75*
G02*
X88100000Y-40990000I200000J0D01*
G01*
G37*
%TD*%
%TO.C,C10*%
X88900000Y-64690000D03*
G36*
G01*
X88100000Y-58690000D02*
X89700000Y-58690000D01*
G75*
G02*
X89900000Y-58890000I0J-200000D01*
G01*
X89900000Y-60490000D01*
G75*
G02*
X89700000Y-60690000I-200000J0D01*
G01*
X88100000Y-60690000D01*
G75*
G02*
X87900000Y-60490000I0J200000D01*
G01*
X87900000Y-58890000D01*
G75*
G02*
X88100000Y-58690000I200000J0D01*
G01*
G37*
%TD*%
D22*
%TO.C,C24*%
X87075000Y-138430000D03*
X92075000Y-138430000D03*
%TD*%
D12*
%TO.C,C32*%
X193675000Y-154265000D03*
G36*
G01*
X192875000Y-150765000D02*
X194475000Y-150765000D01*
G75*
G02*
X194675000Y-150965000I0J-200000D01*
G01*
X194675000Y-152565000D01*
G75*
G02*
X194475000Y-152765000I-200000J0D01*
G01*
X192875000Y-152765000D01*
G75*
G02*
X192675000Y-152565000I0J200000D01*
G01*
X192675000Y-150965000D01*
G75*
G02*
X192875000Y-150765000I200000J0D01*
G01*
G37*
%TD*%
%TO.C,C13*%
X93980000Y-88860000D03*
X93980000Y-86360000D03*
%TD*%
%TO.C,C21*%
X107990000Y-101600000D03*
X110490000Y-101600000D03*
%TD*%
%TO.C,C14*%
X96520000Y-88860000D03*
X96520000Y-86360000D03*
%TD*%
%TO.C,C23*%
X107990000Y-123825000D03*
X110490000Y-123825000D03*
%TD*%
%TO.C,C28*%
X107990000Y-147955000D03*
X110490000Y-147955000D03*
%TD*%
D23*
%TO.C,C31*%
X67945000Y-156210000D03*
X67945000Y-153710000D03*
%TD*%
D12*
%TO.C,C27*%
X94575000Y-147955000D03*
X92075000Y-147955000D03*
%TD*%
%TO.C,C1*%
X50800000Y-36790000D03*
X50800000Y-34290000D03*
%TD*%
%TO.C,C26*%
X68620000Y-147955000D03*
X71120000Y-147955000D03*
%TD*%
%TO.C,C16*%
X31750000Y-96480000D03*
X31750000Y-93980000D03*
%TD*%
%TO.C,C9*%
X93980000Y-62190000D03*
X93980000Y-59690000D03*
%TD*%
%TO.C,C33*%
X43180000Y-147320000D03*
X43180000Y-149820000D03*
%TD*%
%TO.C,C18*%
X95290000Y-92075000D03*
X97790000Y-92075000D03*
%TD*%
%TO.C,C19*%
X182920000Y-95250000D03*
X185420000Y-95250000D03*
%TD*%
%TO.C,C6*%
X116245000Y-42545000D03*
X118745000Y-42545000D03*
%TD*%
%TO.C,C30*%
X189230000Y-154265000D03*
X189230000Y-151765000D03*
%TD*%
%TO.C,C17*%
X190500000Y-88940000D03*
X190500000Y-91440000D03*
%TD*%
%TO.C,C22*%
X132120000Y-123190000D03*
X134620000Y-123190000D03*
%TD*%
%TO.C,C4*%
X178435000Y-43775000D03*
X178435000Y-41275000D03*
%TD*%
%TO.C,C11*%
X194310000Y-62230000D03*
X194310000Y-64730000D03*
%TD*%
%TO.C,C7*%
X137835000Y-42545000D03*
X140335000Y-42545000D03*
%TD*%
D24*
%TO.C,C25*%
X86995000Y-133273800D03*
X94495000Y-130770000D03*
X86995000Y-128270000D03*
%TD*%
D25*
%TO.C,RV1*%
X88265000Y-123190000D03*
X88265000Y-120650000D03*
X88265000Y-118110000D03*
%TD*%
%TO.C,RV2*%
X62230000Y-140970000D03*
X62230000Y-138430000D03*
X62230000Y-135890000D03*
%TD*%
D20*
%TO.C,J20*%
X120650000Y-85725000D03*
X120650000Y-88265000D03*
X120650000Y-90805000D03*
X120650000Y-93345000D03*
X120650000Y-95885000D03*
X120650000Y-98425000D03*
X120650000Y-100965000D03*
X120650000Y-103505000D03*
X120650000Y-106045000D03*
X120650000Y-108585000D03*
X120650000Y-111125000D03*
X120650000Y-113665000D03*
X120650000Y-116205000D03*
X120650000Y-118745000D03*
X120650000Y-121285000D03*
X120650000Y-123825000D03*
X120650000Y-126365000D03*
X123190000Y-85725000D03*
X123190000Y-88265000D03*
X123190000Y-90805000D03*
X123190000Y-93345000D03*
X123190000Y-95885000D03*
X123190000Y-98425000D03*
X123190000Y-100965000D03*
X123190000Y-103505000D03*
X123190000Y-106045000D03*
X123190000Y-108585000D03*
X123190000Y-111125000D03*
X123190000Y-113665000D03*
X123190000Y-116205000D03*
X123190000Y-118745000D03*
X123190000Y-121285000D03*
X123190000Y-123825000D03*
G36*
G01*
X124240000Y-125623823D02*
X124240000Y-127106177D01*
G75*
G02*
X123931177Y-127415000I-308823J0D01*
G01*
X122448823Y-127415000D01*
G75*
G02*
X122140000Y-127106177I0J308823D01*
G01*
X122140000Y-125623823D01*
G75*
G02*
X122448823Y-125315000I308823J0D01*
G01*
X123931177Y-125315000D01*
G75*
G02*
X124240000Y-125623823I0J-308823D01*
G01*
G37*
%TD*%
%TO.C,J4*%
X43180000Y-38100000D03*
X43180000Y-40640000D03*
X43180000Y-43180000D03*
X43180000Y-45720000D03*
X43180000Y-48260000D03*
X43180000Y-50800000D03*
X43180000Y-53340000D03*
X43180000Y-55880000D03*
X45720000Y-38100000D03*
X45720000Y-40640000D03*
X45720000Y-43180000D03*
X45720000Y-45720000D03*
X45720000Y-48260000D03*
X45720000Y-50800000D03*
X45720000Y-53340000D03*
G36*
G01*
X46770000Y-55138823D02*
X46770000Y-56621177D01*
G75*
G02*
X46461177Y-56930000I-308823J0D01*
G01*
X44978823Y-56930000D01*
G75*
G02*
X44670000Y-56621177I0J308823D01*
G01*
X44670000Y-55138823D01*
G75*
G02*
X44978823Y-54830000I308823J0D01*
G01*
X46461177Y-54830000D01*
G75*
G02*
X46770000Y-55138823I0J-308823D01*
G01*
G37*
%TD*%
%TO.C,PL4*%
X31750000Y-113030000D03*
X31750000Y-115570000D03*
X31750000Y-118110000D03*
X31750000Y-120650000D03*
X31750000Y-123190000D03*
X31750000Y-125730000D03*
X31750000Y-128270000D03*
X31750000Y-130810000D03*
X31750000Y-133350000D03*
X31750000Y-135890000D03*
X31750000Y-138430000D03*
X31750000Y-140970000D03*
X31750000Y-143510000D03*
X34290000Y-113030000D03*
X34290000Y-115570000D03*
X34290000Y-118110000D03*
X34290000Y-120650000D03*
X34290000Y-123190000D03*
X34290000Y-125730000D03*
X34290000Y-128270000D03*
X34290000Y-130810000D03*
X34290000Y-133350000D03*
X34290000Y-135890000D03*
X34290000Y-138430000D03*
X34290000Y-140970000D03*
G36*
G01*
X35340000Y-142768823D02*
X35340000Y-144251177D01*
G75*
G02*
X35031177Y-144560000I-308823J0D01*
G01*
X33548823Y-144560000D01*
G75*
G02*
X33240000Y-144251177I0J308823D01*
G01*
X33240000Y-142768823D01*
G75*
G02*
X33548823Y-142460000I308823J0D01*
G01*
X35031177Y-142460000D01*
G75*
G02*
X35340000Y-142768823I0J-308823D01*
G01*
G37*
%TD*%
%TO.C,PL3*%
X31750000Y-68580000D03*
X31750000Y-71120000D03*
X31750000Y-73660000D03*
X31750000Y-76200000D03*
X31750000Y-78740000D03*
X31750000Y-81280000D03*
X31750000Y-83820000D03*
X31750000Y-86360000D03*
X34290000Y-68580000D03*
X34290000Y-71120000D03*
X34290000Y-73660000D03*
X34290000Y-76200000D03*
X34290000Y-78740000D03*
X34290000Y-81280000D03*
X34290000Y-83820000D03*
G36*
G01*
X35340000Y-85618823D02*
X35340000Y-87101177D01*
G75*
G02*
X35031177Y-87410000I-308823J0D01*
G01*
X33548823Y-87410000D01*
G75*
G02*
X33240000Y-87101177I0J308823D01*
G01*
X33240000Y-85618823D01*
G75*
G02*
X33548823Y-85310000I308823J0D01*
G01*
X35031177Y-85310000D01*
G75*
G02*
X35340000Y-85618823I0J-308823D01*
G01*
G37*
%TD*%
%TO.C,PL2*%
X31750000Y-38100000D03*
X31750000Y-40640000D03*
X31750000Y-43180000D03*
X31750000Y-45720000D03*
X31750000Y-48260000D03*
X31750000Y-50800000D03*
X31750000Y-53340000D03*
X31750000Y-55880000D03*
X34290000Y-38100000D03*
X34290000Y-40640000D03*
X34290000Y-43180000D03*
X34290000Y-45720000D03*
X34290000Y-48260000D03*
X34290000Y-50800000D03*
X34290000Y-53340000D03*
G36*
G01*
X35340000Y-55138823D02*
X35340000Y-56621177D01*
G75*
G02*
X35031177Y-56930000I-308823J0D01*
G01*
X33548823Y-56930000D01*
G75*
G02*
X33240000Y-56621177I0J308823D01*
G01*
X33240000Y-55138823D01*
G75*
G02*
X33548823Y-54830000I308823J0D01*
G01*
X35031177Y-54830000D01*
G75*
G02*
X35340000Y-55138823I0J-308823D01*
G01*
G37*
%TD*%
D13*
%TO.C,U3*%
X83820000Y-44450000D03*
X76200000Y-62230000D03*
X83820000Y-46990000D03*
X76200000Y-59690000D03*
X83820000Y-49530000D03*
X76200000Y-57150000D03*
X83820000Y-52070000D03*
X76200000Y-54610000D03*
X83820000Y-54610000D03*
X76200000Y-52070000D03*
X83820000Y-57150000D03*
X76200000Y-49530000D03*
X83820000Y-59690000D03*
X76200000Y-46990000D03*
X83820000Y-62230000D03*
G36*
G01*
X75200000Y-45250000D02*
X75200000Y-43650000D01*
G75*
G02*
X75400000Y-43450000I200000J0D01*
G01*
X77000000Y-43450000D01*
G75*
G02*
X77200000Y-43650000I0J-200000D01*
G01*
X77200000Y-45250000D01*
G75*
G02*
X77000000Y-45450000I-200000J0D01*
G01*
X75400000Y-45450000D01*
G75*
G02*
X75200000Y-45250000I0J200000D01*
G01*
G37*
%TD*%
%TO.C,U4*%
X104140000Y-44450000D03*
X96520000Y-59690000D03*
X104140000Y-46990000D03*
X96520000Y-57150000D03*
X104140000Y-49530000D03*
X96520000Y-54610000D03*
X104140000Y-52070000D03*
X96520000Y-52070000D03*
X104140000Y-54610000D03*
X96520000Y-49530000D03*
X104140000Y-57150000D03*
X96520000Y-46990000D03*
X104140000Y-59690000D03*
G36*
G01*
X95520000Y-45250000D02*
X95520000Y-43650000D01*
G75*
G02*
X95720000Y-43450000I200000J0D01*
G01*
X97320000Y-43450000D01*
G75*
G02*
X97520000Y-43650000I0J-200000D01*
G01*
X97520000Y-45250000D01*
G75*
G02*
X97320000Y-45450000I-200000J0D01*
G01*
X95720000Y-45450000D01*
G75*
G02*
X95520000Y-45250000I0J200000D01*
G01*
G37*
%TD*%
%TO.C,U14*%
X97790000Y-95250000D03*
X90170000Y-113030000D03*
X97790000Y-97790000D03*
X90170000Y-110490000D03*
X97790000Y-100330000D03*
X90170000Y-107950000D03*
X97790000Y-102870000D03*
X90170000Y-105410000D03*
X97790000Y-105410000D03*
X90170000Y-102870000D03*
X97790000Y-107950000D03*
X90170000Y-100330000D03*
X97790000Y-110490000D03*
X90170000Y-97790000D03*
X97790000Y-113030000D03*
G36*
G01*
X89170000Y-96050000D02*
X89170000Y-94450000D01*
G75*
G02*
X89370000Y-94250000I200000J0D01*
G01*
X90970000Y-94250000D01*
G75*
G02*
X91170000Y-94450000I0J-200000D01*
G01*
X91170000Y-96050000D01*
G75*
G02*
X90970000Y-96250000I-200000J0D01*
G01*
X89370000Y-96250000D01*
G75*
G02*
X89170000Y-96050000I0J200000D01*
G01*
G37*
%TD*%
%TO.C,U17*%
X113030000Y-128905000D03*
X105410000Y-144145000D03*
X113030000Y-131445000D03*
X105410000Y-141605000D03*
X113030000Y-133985000D03*
X105410000Y-139065000D03*
X113030000Y-136525000D03*
X105410000Y-136525000D03*
X113030000Y-139065000D03*
X105410000Y-133985000D03*
X113030000Y-141605000D03*
X105410000Y-131445000D03*
X113030000Y-144145000D03*
G36*
G01*
X104410000Y-129705000D02*
X104410000Y-128105000D01*
G75*
G02*
X104610000Y-127905000I200000J0D01*
G01*
X106210000Y-127905000D01*
G75*
G02*
X106410000Y-128105000I0J-200000D01*
G01*
X106410000Y-129705000D01*
G75*
G02*
X106210000Y-129905000I-200000J0D01*
G01*
X104610000Y-129905000D01*
G75*
G02*
X104410000Y-129705000I0J200000D01*
G01*
G37*
%TD*%
%TO.C,U8*%
X48260000Y-66040000D03*
X40640000Y-88900000D03*
X48260000Y-68580000D03*
X40640000Y-86360000D03*
X48260000Y-71120000D03*
X40640000Y-83820000D03*
X48260000Y-73660000D03*
X40640000Y-81280000D03*
X48260000Y-76200000D03*
X40640000Y-78740000D03*
X48260000Y-78740000D03*
X40640000Y-76200000D03*
X48260000Y-81280000D03*
X40640000Y-73660000D03*
X48260000Y-83820000D03*
X40640000Y-71120000D03*
X48260000Y-86360000D03*
X40640000Y-68580000D03*
X48260000Y-88900000D03*
G36*
G01*
X39640000Y-66840000D02*
X39640000Y-65240000D01*
G75*
G02*
X39840000Y-65040000I200000J0D01*
G01*
X41440000Y-65040000D01*
G75*
G02*
X41640000Y-65240000I0J-200000D01*
G01*
X41640000Y-66840000D01*
G75*
G02*
X41440000Y-67040000I-200000J0D01*
G01*
X39840000Y-67040000D01*
G75*
G02*
X39640000Y-66840000I0J200000D01*
G01*
G37*
%TD*%
%TO.C,U11*%
X113030000Y-80645000D03*
X105410000Y-98425000D03*
X113030000Y-83185000D03*
X105410000Y-95885000D03*
X113030000Y-85725000D03*
X105410000Y-93345000D03*
X113030000Y-88265000D03*
X105410000Y-90805000D03*
X113030000Y-90805000D03*
X105410000Y-88265000D03*
X113030000Y-93345000D03*
X105410000Y-85725000D03*
X113030000Y-95885000D03*
X105410000Y-83185000D03*
X113030000Y-98425000D03*
G36*
G01*
X104410000Y-81445000D02*
X104410000Y-79845000D01*
G75*
G02*
X104610000Y-79645000I200000J0D01*
G01*
X106210000Y-79645000D01*
G75*
G02*
X106410000Y-79845000I0J-200000D01*
G01*
X106410000Y-81445000D01*
G75*
G02*
X106210000Y-81645000I-200000J0D01*
G01*
X104610000Y-81645000D01*
G75*
G02*
X104410000Y-81445000I0J200000D01*
G01*
G37*
%TD*%
%TO.C,U2*%
X152400000Y-38100000D03*
X175260000Y-45720000D03*
X154940000Y-38100000D03*
X172720000Y-45720000D03*
X157480000Y-38100000D03*
X170180000Y-45720000D03*
X160020000Y-38100000D03*
X167640000Y-45720000D03*
X162560000Y-38100000D03*
X165100000Y-45720000D03*
X165100000Y-38100000D03*
X162560000Y-45720000D03*
X167640000Y-38100000D03*
X160020000Y-45720000D03*
X170180000Y-38100000D03*
X157480000Y-45720000D03*
X172720000Y-38100000D03*
X154940000Y-45720000D03*
X175260000Y-38100000D03*
G36*
G01*
X153200000Y-46720000D02*
X151600000Y-46720000D01*
G75*
G02*
X151400000Y-46520000I0J200000D01*
G01*
X151400000Y-44920000D01*
G75*
G02*
X151600000Y-44720000I200000J0D01*
G01*
X153200000Y-44720000D01*
G75*
G02*
X153400000Y-44920000I0J-200000D01*
G01*
X153400000Y-46520000D01*
G75*
G02*
X153200000Y-46720000I-200000J0D01*
G01*
G37*
%TD*%
%TO.C,U13*%
X83820000Y-95250000D03*
X68580000Y-143510000D03*
X83820000Y-97790000D03*
X68580000Y-140970000D03*
X83820000Y-100330000D03*
X68580000Y-138430000D03*
X83820000Y-102870000D03*
X68580000Y-135890000D03*
X83820000Y-105410000D03*
X68580000Y-133350000D03*
X83820000Y-107950000D03*
X68580000Y-130810000D03*
X83820000Y-110490000D03*
X68580000Y-128270000D03*
X83820000Y-113030000D03*
X68580000Y-125730000D03*
X83820000Y-115570000D03*
X68580000Y-123190000D03*
X83820000Y-118110000D03*
X68580000Y-120650000D03*
X83820000Y-120650000D03*
X68580000Y-118110000D03*
X83820000Y-123190000D03*
X68580000Y-115570000D03*
X83820000Y-125730000D03*
X68580000Y-113030000D03*
X83820000Y-128270000D03*
X68580000Y-110490000D03*
X83820000Y-130810000D03*
X68580000Y-107950000D03*
X83820000Y-133350000D03*
X68580000Y-105410000D03*
X83820000Y-135890000D03*
X68580000Y-102870000D03*
X83820000Y-138430000D03*
X68580000Y-100330000D03*
X83820000Y-140970000D03*
X68580000Y-97790000D03*
X83820000Y-143510000D03*
G36*
G01*
X67580000Y-96050000D02*
X67580000Y-94450000D01*
G75*
G02*
X67780000Y-94250000I200000J0D01*
G01*
X69380000Y-94250000D01*
G75*
G02*
X69580000Y-94450000I0J-200000D01*
G01*
X69580000Y-96050000D01*
G75*
G02*
X69380000Y-96250000I-200000J0D01*
G01*
X67780000Y-96250000D01*
G75*
G02*
X67580000Y-96050000I0J200000D01*
G01*
G37*
%TD*%
%TO.C,U12*%
X58420000Y-95250000D03*
X43180000Y-143510000D03*
X58420000Y-97790000D03*
X43180000Y-140970000D03*
X58420000Y-100330000D03*
X43180000Y-138430000D03*
X58420000Y-102870000D03*
X43180000Y-135890000D03*
X58420000Y-105410000D03*
X43180000Y-133350000D03*
X58420000Y-107950000D03*
X43180000Y-130810000D03*
X58420000Y-110490000D03*
X43180000Y-128270000D03*
X58420000Y-113030000D03*
X43180000Y-125730000D03*
X58420000Y-115570000D03*
X43180000Y-123190000D03*
X58420000Y-118110000D03*
X43180000Y-120650000D03*
X58420000Y-120650000D03*
X43180000Y-118110000D03*
X58420000Y-123190000D03*
X43180000Y-115570000D03*
X58420000Y-125730000D03*
X43180000Y-113030000D03*
X58420000Y-128270000D03*
X43180000Y-110490000D03*
X58420000Y-130810000D03*
X43180000Y-107950000D03*
X58420000Y-133350000D03*
X43180000Y-105410000D03*
X58420000Y-135890000D03*
X43180000Y-102870000D03*
X58420000Y-138430000D03*
X43180000Y-100330000D03*
X58420000Y-140970000D03*
X43180000Y-97790000D03*
X58420000Y-143510000D03*
G36*
G01*
X42180000Y-96050000D02*
X42180000Y-94450000D01*
G75*
G02*
X42380000Y-94250000I200000J0D01*
G01*
X43980000Y-94250000D01*
G75*
G02*
X44180000Y-94450000I0J-200000D01*
G01*
X44180000Y-96050000D01*
G75*
G02*
X43980000Y-96250000I-200000J0D01*
G01*
X42380000Y-96250000D01*
G75*
G02*
X42180000Y-96050000I0J200000D01*
G01*
G37*
%TD*%
D10*
%TO.C,R7*%
X91440000Y-49530000D03*
D11*
X91440000Y-57150000D03*
%TD*%
D10*
%TO.C,R9*%
X88900000Y-49530000D03*
D11*
X88900000Y-57150000D03*
%TD*%
D10*
%TO.C,R8*%
X86360000Y-49530000D03*
D11*
X86360000Y-57150000D03*
%TD*%
D10*
%TO.C,R6*%
X93980000Y-57150000D03*
D11*
X93980000Y-49530000D03*
%TD*%
D10*
%TO.C,R16*%
X86360000Y-80010000D03*
D11*
X86360000Y-87630000D03*
%TD*%
D10*
%TO.C,R11*%
X88900000Y-87630000D03*
D11*
X88900000Y-80010000D03*
%TD*%
D10*
%TO.C,R20*%
X94615000Y-144145000D03*
D11*
X86995000Y-144145000D03*
%TD*%
D10*
%TO.C,R13*%
X130810000Y-89535000D03*
D11*
X130810000Y-81915000D03*
%TD*%
D10*
%TO.C,R15*%
X135890000Y-89535000D03*
D11*
X135890000Y-81915000D03*
%TD*%
D10*
%TO.C,R12*%
X128270000Y-89535000D03*
D11*
X128270000Y-81915000D03*
%TD*%
D10*
%TO.C,R14*%
X133350000Y-89535000D03*
D11*
X133350000Y-81915000D03*
%TD*%
D10*
%TO.C,R3*%
X184150000Y-45720000D03*
D11*
X184150000Y-38100000D03*
%TD*%
D10*
%TO.C,R4*%
X186690000Y-45720000D03*
D11*
X186690000Y-38100000D03*
%TD*%
D10*
%TO.C,R2*%
X181610000Y-45720000D03*
D11*
X181610000Y-38100000D03*
%TD*%
D10*
%TO.C,R21*%
X56515000Y-147320000D03*
D11*
X48895000Y-147320000D03*
%TD*%
D10*
%TO.C,R26*%
X127635000Y-155575000D03*
D11*
X120015000Y-155575000D03*
%TD*%
D10*
%TO.C,R27*%
X137795000Y-155575000D03*
D11*
X130175000Y-155575000D03*
%TD*%
D10*
%TO.C,R28*%
X147955000Y-155575000D03*
D11*
X140335000Y-155575000D03*
%TD*%
D10*
%TO.C,R23*%
X92075000Y-155575000D03*
D11*
X84455000Y-155575000D03*
%TD*%
D10*
%TO.C,R24*%
X102235000Y-155575000D03*
D11*
X94615000Y-155575000D03*
%TD*%
D10*
%TO.C,R25*%
X112395000Y-155575000D03*
D11*
X104775000Y-155575000D03*
%TD*%
D14*
%TO.C,J5*%
X71120000Y-90170000D03*
X68580000Y-90170000D03*
X71120000Y-87630000D03*
G36*
G01*
X67530000Y-88480000D02*
X67530000Y-86780000D01*
G75*
G02*
X67730000Y-86580000I200000J0D01*
G01*
X69430000Y-86580000D01*
G75*
G02*
X69630000Y-86780000I0J-200000D01*
G01*
X69630000Y-88480000D01*
G75*
G02*
X69430000Y-88680000I-200000J0D01*
G01*
X67730000Y-88680000D01*
G75*
G02*
X67530000Y-88480000I0J200000D01*
G01*
G37*
%TD*%
%TO.C,J3*%
X101600000Y-63500000D03*
G36*
G01*
X98010000Y-64350000D02*
X98010000Y-62650000D01*
G75*
G02*
X98210000Y-62450000I200000J0D01*
G01*
X99910000Y-62450000D01*
G75*
G02*
X100110000Y-62650000I0J-200000D01*
G01*
X100110000Y-64350000D01*
G75*
G02*
X99910000Y-64550000I-200000J0D01*
G01*
X98210000Y-64550000D01*
G75*
G02*
X98010000Y-64350000I0J200000D01*
G01*
G37*
%TD*%
%TO.C,J10*%
X120650000Y-142875000D03*
X118110000Y-142875000D03*
X120650000Y-140335000D03*
G36*
G01*
X117060000Y-141185000D02*
X117060000Y-139485000D01*
G75*
G02*
X117260000Y-139285000I200000J0D01*
G01*
X118960000Y-139285000D01*
G75*
G02*
X119160000Y-139485000I0J-200000D01*
G01*
X119160000Y-141185000D01*
G75*
G02*
X118960000Y-141385000I-200000J0D01*
G01*
X117260000Y-141385000D01*
G75*
G02*
X117060000Y-141185000I0J200000D01*
G01*
G37*
%TD*%
%TO.C,J12*%
X166370000Y-149860000D03*
X163830000Y-149860000D03*
G36*
G01*
X162140000Y-150910000D02*
X160440000Y-150910000D01*
G75*
G02*
X160240000Y-150710000I0J200000D01*
G01*
X160240000Y-149010000D01*
G75*
G02*
X160440000Y-148810000I200000J0D01*
G01*
X162140000Y-148810000D01*
G75*
G02*
X162340000Y-149010000I0J-200000D01*
G01*
X162340000Y-150710000D01*
G75*
G02*
X162140000Y-150910000I-200000J0D01*
G01*
G37*
%TD*%
D26*
%TO.C,J18*%
X145980000Y-161435000D03*
X120980000Y-161435000D03*
D12*
X128635000Y-163345000D03*
X130925000Y-163345000D03*
X133215000Y-163345000D03*
X135505000Y-163345000D03*
X137795000Y-163345000D03*
X129780000Y-161365000D03*
X132070000Y-161365000D03*
X134360000Y-161365000D03*
X136650000Y-161365000D03*
X138940000Y-161365000D03*
X128635000Y-159385000D03*
X130925000Y-159385000D03*
X133215000Y-159385000D03*
X135505000Y-159385000D03*
G36*
G01*
X136795000Y-160185000D02*
X136795000Y-158585000D01*
G75*
G02*
X136995000Y-158385000I200000J0D01*
G01*
X138595000Y-158385000D01*
G75*
G02*
X138795000Y-158585000I0J-200000D01*
G01*
X138795000Y-160185000D01*
G75*
G02*
X138595000Y-160385000I-200000J0D01*
G01*
X136995000Y-160385000D01*
G75*
G02*
X136795000Y-160185000I0J200000D01*
G01*
G37*
%TD*%
D26*
%TO.C,J17*%
X110420000Y-161435000D03*
X85420000Y-161435000D03*
D12*
X93075000Y-163345000D03*
X95365000Y-163345000D03*
X97655000Y-163345000D03*
X99945000Y-163345000D03*
X102235000Y-163345000D03*
X94220000Y-161365000D03*
X96510000Y-161365000D03*
X98800000Y-161365000D03*
X101090000Y-161365000D03*
X103380000Y-161365000D03*
X93075000Y-159385000D03*
X95365000Y-159385000D03*
X97655000Y-159385000D03*
X99945000Y-159385000D03*
G36*
G01*
X101235000Y-160185000D02*
X101235000Y-158585000D01*
G75*
G02*
X101435000Y-158385000I200000J0D01*
G01*
X103035000Y-158385000D01*
G75*
G02*
X103235000Y-158585000I0J-200000D01*
G01*
X103235000Y-160185000D01*
G75*
G02*
X103035000Y-160385000I-200000J0D01*
G01*
X101435000Y-160385000D01*
G75*
G02*
X101235000Y-160185000I0J200000D01*
G01*
G37*
%TD*%
D14*
%TO.C,J7*%
X190500000Y-129540000D03*
X193040000Y-129540000D03*
X190500000Y-127000000D03*
X193040000Y-127000000D03*
X190500000Y-124460000D03*
X193040000Y-124460000D03*
X190500000Y-121920000D03*
X193040000Y-121920000D03*
X190500000Y-119380000D03*
X193040000Y-119380000D03*
X190500000Y-116840000D03*
X193040000Y-116840000D03*
X190500000Y-114300000D03*
X193040000Y-114300000D03*
X190500000Y-111760000D03*
X193040000Y-111760000D03*
X190500000Y-109220000D03*
X193040000Y-109220000D03*
X190500000Y-106680000D03*
X193040000Y-106680000D03*
X190500000Y-104140000D03*
X193040000Y-104140000D03*
X190500000Y-101600000D03*
X193040000Y-101600000D03*
X190500000Y-99060000D03*
X193040000Y-99060000D03*
X190500000Y-96520000D03*
G36*
G01*
X191990000Y-97370000D02*
X191990000Y-95670000D01*
G75*
G02*
X192190000Y-95470000I200000J0D01*
G01*
X193890000Y-95470000D01*
G75*
G02*
X194090000Y-95670000I0J-200000D01*
G01*
X194090000Y-97370000D01*
G75*
G02*
X193890000Y-97570000I-200000J0D01*
G01*
X192190000Y-97570000D01*
G75*
G02*
X191990000Y-97370000I0J200000D01*
G01*
G37*
%TD*%
%TO.C,J6*%
X185420000Y-91440000D03*
X185420000Y-88900000D03*
X182880000Y-91440000D03*
X182880000Y-88900000D03*
X180340000Y-91440000D03*
X180340000Y-88900000D03*
X177800000Y-91440000D03*
X177800000Y-88900000D03*
X175260000Y-91440000D03*
X175260000Y-88900000D03*
X172720000Y-91440000D03*
X172720000Y-88900000D03*
X170180000Y-91440000D03*
X170180000Y-88900000D03*
X167640000Y-91440000D03*
X167640000Y-88900000D03*
X165100000Y-91440000D03*
X165100000Y-88900000D03*
X162560000Y-91440000D03*
X162560000Y-88900000D03*
X160020000Y-91440000D03*
X160020000Y-88900000D03*
X157480000Y-91440000D03*
X157480000Y-88900000D03*
X154940000Y-91440000D03*
X154940000Y-88900000D03*
X152400000Y-91440000D03*
G36*
G01*
X153250000Y-89950000D02*
X151550000Y-89950000D01*
G75*
G02*
X151350000Y-89750000I0J200000D01*
G01*
X151350000Y-88050000D01*
G75*
G02*
X151550000Y-87850000I200000J0D01*
G01*
X153250000Y-87850000D01*
G75*
G02*
X153450000Y-88050000I0J-200000D01*
G01*
X153450000Y-89750000D01*
G75*
G02*
X153250000Y-89950000I-200000J0D01*
G01*
G37*
%TD*%
%TO.C,J8*%
X147320000Y-96520000D03*
X144780000Y-96520000D03*
X147320000Y-99060000D03*
X144780000Y-99060000D03*
X147320000Y-101600000D03*
X144780000Y-101600000D03*
X147320000Y-104140000D03*
X144780000Y-104140000D03*
X147320000Y-106680000D03*
X144780000Y-106680000D03*
X147320000Y-109220000D03*
X144780000Y-109220000D03*
X147320000Y-111760000D03*
X144780000Y-111760000D03*
X147320000Y-114300000D03*
X144780000Y-114300000D03*
X147320000Y-116840000D03*
X144780000Y-116840000D03*
X147320000Y-119380000D03*
X144780000Y-119380000D03*
X147320000Y-121920000D03*
X144780000Y-121920000D03*
X147320000Y-124460000D03*
X144780000Y-124460000D03*
D27*
X147320000Y-127000000D03*
X144780000Y-127000000D03*
X147320000Y-129540000D03*
G36*
G01*
X145830000Y-128740000D02*
X145830000Y-130340000D01*
G75*
G02*
X145630000Y-130540000I-200000J0D01*
G01*
X143930000Y-130540000D01*
G75*
G02*
X143730000Y-130340000I0J200000D01*
G01*
X143730000Y-128740000D01*
G75*
G02*
X143930000Y-128540000I200000J0D01*
G01*
X145630000Y-128540000D01*
G75*
G02*
X145830000Y-128740000I0J-200000D01*
G01*
G37*
%TD*%
D14*
%TO.C,J9*%
X152400000Y-134620000D03*
X152400000Y-137160000D03*
X154940000Y-134620000D03*
X154940000Y-137160000D03*
X157480000Y-134620000D03*
X157480000Y-137160000D03*
X160020000Y-134620000D03*
X160020000Y-137160000D03*
X162560000Y-134620000D03*
X162560000Y-137160000D03*
X165100000Y-134620000D03*
X165100000Y-137160000D03*
X167640000Y-134620000D03*
X167640000Y-137160000D03*
X170180000Y-134620000D03*
X170180000Y-137160000D03*
X172720000Y-134620000D03*
X172720000Y-137160000D03*
X175260000Y-134620000D03*
X175260000Y-137160000D03*
X177800000Y-134620000D03*
X177800000Y-137160000D03*
X180340000Y-134620000D03*
X180340000Y-137160000D03*
X182880000Y-134620000D03*
X182880000Y-137160000D03*
X185420000Y-134620000D03*
G36*
G01*
X184570000Y-136110000D02*
X186270000Y-136110000D01*
G75*
G02*
X186470000Y-136310000I0J-200000D01*
G01*
X186470000Y-138010000D01*
G75*
G02*
X186270000Y-138210000I-200000J0D01*
G01*
X184570000Y-138210000D01*
G75*
G02*
X184370000Y-138010000I0J200000D01*
G01*
X184370000Y-136310000D01*
G75*
G02*
X184570000Y-136110000I200000J0D01*
G01*
G37*
%TD*%
D13*
%TO.C,D7*%
X94615000Y-141605000D03*
G36*
G01*
X85995000Y-142405000D02*
X85995000Y-140805000D01*
G75*
G02*
X86195000Y-140605000I200000J0D01*
G01*
X87795000Y-140605000D01*
G75*
G02*
X87995000Y-140805000I0J-200000D01*
G01*
X87995000Y-142405000D01*
G75*
G02*
X87795000Y-142605000I-200000J0D01*
G01*
X86195000Y-142605000D01*
G75*
G02*
X85995000Y-142405000I0J200000D01*
G01*
G37*
%TD*%
D18*
%TO.C,D2*%
X165100000Y-26670000D03*
G36*
G01*
X168740000Y-25770000D02*
X168740000Y-27570000D01*
G75*
G02*
X168540000Y-27770000I-200000J0D01*
G01*
X166740000Y-27770000D01*
G75*
G02*
X166540000Y-27570000I0J200000D01*
G01*
X166540000Y-25770000D01*
G75*
G02*
X166740000Y-25570000I200000J0D01*
G01*
X168540000Y-25570000D01*
G75*
G02*
X168740000Y-25770000I0J-200000D01*
G01*
G37*
%TD*%
%TO.C,D3*%
X172720000Y-26670000D03*
G36*
G01*
X176360000Y-25770000D02*
X176360000Y-27570000D01*
G75*
G02*
X176160000Y-27770000I-200000J0D01*
G01*
X174360000Y-27770000D01*
G75*
G02*
X174160000Y-27570000I0J200000D01*
G01*
X174160000Y-25770000D01*
G75*
G02*
X174360000Y-25570000I200000J0D01*
G01*
X176160000Y-25570000D01*
G75*
G02*
X176360000Y-25770000I0J-200000D01*
G01*
G37*
%TD*%
%TO.C,D1*%
X157480000Y-26670000D03*
G36*
G01*
X161120000Y-25770000D02*
X161120000Y-27570000D01*
G75*
G02*
X160920000Y-27770000I-200000J0D01*
G01*
X159120000Y-27770000D01*
G75*
G02*
X158920000Y-27570000I0J200000D01*
G01*
X158920000Y-25770000D01*
G75*
G02*
X159120000Y-25570000I200000J0D01*
G01*
X160920000Y-25570000D01*
G75*
G02*
X161120000Y-25770000I0J-200000D01*
G01*
G37*
%TD*%
D12*
%TO.C,C15*%
X91440000Y-86360000D03*
X91440000Y-88860000D03*
%TD*%
M02*
