M48
INCH,TZ
T1C0.0157
T2C0.0276
T3C0.0315
T4C0.0354
T5C0.0394
T6C0.0512
T7C0.1260
T8C0.1260
%
G90
G05
T1
X12500Y-24500
X12500Y-25000
X13000Y-14000
X13000Y-24500
X13000Y-25000
X14000Y-14000
X14500Y-14000
X14500Y-17500
X14500Y-20000
X14500Y-45000
X14500Y-55500
X14750Y-21000
X14750Y-25500
X14750Y-30500
X15000Y-14000
X15000Y-21500
X15000Y-22000
X15000Y-48000
X15000Y-55000
X15250Y-27500
X15250Y-36000
X15500Y-14000
X15500Y-44000
X15500Y-54500
X15750Y-15500
X16000Y-14000
X16000Y-46000
X16000Y-56500
X16250Y-17500
X16250Y-22000
X16500Y-14000
X16500Y-21500
X16500Y-24000
X17000Y-24500
X17500Y-28000
X18000Y-38500
X18000Y-50000
X18000Y-50500
X18000Y-53000
X18500Y-40500
X18500Y-42000
X18500Y-49500
X18500Y-54000
X19000Y-37500
X19000Y-45500
X19000Y-48500
X19000Y-55000
X19250Y-46500
X19250Y-56000
X19500Y-17500
X19500Y-44500
X19500Y-56500
X19750Y-38250
X20000Y-16000
X20000Y-32500
X20000Y-37500
X20000Y-43000
X20000Y-55500
X20274Y-16500
X20500Y-31500
X20500Y-38500
X20500Y-40000
X20500Y-52000
X20500Y-56500
X21000Y-31000
X21000Y-39500
X21250Y-53500
X21500Y-41500
X21750Y-55500
X22250Y-54500
X22500Y-24000
X22500Y-28000
X23000Y-29500
X23500Y-14500
X23500Y-25000
X23500Y-27500
X23750Y-20250
X23750Y-40500
X23750Y-51000
X24000Y-16500
X24000Y-34000
X24250Y-41500
X24500Y-17500
X24500Y-33500
X24750Y-41000
X25000Y-23500
X25000Y-39000
X25250Y-53000
X25500Y-24500
X25750Y-57250
X26500Y-22000
X26750Y-20000
X27016Y-58984
X27500Y-36750
X27750Y-38000
X28000Y-39000
X28250Y-40000
X28500Y-48500
X28746Y-57750
X28750Y-27000
X28750Y-36000
X28750Y-42000
X29250Y-25500
X29250Y-36750
X29250Y-55500
X29500Y-39500
X29500Y-55000
X30000Y-38500
X30000Y-56000
X30500Y-40000
X30500Y-43500
X30750Y-17000
X31000Y-32500
X31000Y-41000
X31000Y-44500
X31250Y-23000
X31250Y-27250
X31500Y-31500
X31500Y-36500
X31500Y-53500
X32000Y-31000
X32000Y-43000
X32000Y-45500
X32000Y-46000
X32000Y-52500
X33500Y-58250
X33750Y-35750
X33750Y-43500
X34000Y-28000
X34250Y-38500
X34250Y-45000
X34500Y-27500
X34500Y-39500
X36500Y-41500
X36750Y-36500
X36750Y-42000
X37250Y-38000
X37250Y-40500
X37750Y-46500
X38000Y-55750
X38500Y-50750
X38500Y-51250
X38500Y-53500
X39250Y-43000
X39250Y-48000
X39500Y-29750
X39500Y-34250
X39500Y-42000
X39500Y-42500
X39500Y-47000
X39500Y-53500
X39750Y-30250
X39750Y-44500
X40000Y-49500
X40250Y-36750
X40250Y-41500
X40250Y-53000
X40500Y-44000
X40750Y-33750
X40750Y-35750
X40750Y-43500
X40750Y-53250
X41000Y-31000
X41750Y-13000
X41750Y-24000
X42250Y-12750
X42250Y-23000
X42250Y-23500
X42250Y-26250
X42500Y-59000
X42750Y-12500
X42750Y-21000
X42750Y-22500
X42750Y-26500
X43000Y-33250
X43000Y-36250
X43000Y-42500
X43000Y-46000
X43000Y-49750
X43000Y-55750
X43250Y-12250
X43250Y-25000
X43250Y-44500
X43250Y-48250
X43750Y-12000
X43750Y-20500
X45000Y-29250
X45250Y-29750
X45250Y-56250
X45749Y-45000
X45750Y-50750
X46500Y-33750
X46500Y-36500
X46500Y-37000
X46500Y-40250
X46500Y-46750
X46750Y-31000
X46811Y-19000
X47250Y-22000
X47250Y-30000
X47750Y-26000
X47750Y-29500
X48000Y-38250
X48000Y-52250
X48250Y-30500
X48250Y-59750
X48750Y-28000
X48750Y-59750
X49250Y-29000
X49250Y-44250
X49250Y-56750
X49250Y-59750
X49500Y-17250
X49750Y-15750
X49750Y-21500
X49750Y-24000
X49750Y-29000
X49750Y-45250
X49750Y-49250
X50250Y-20500
X50250Y-28750
X50250Y-46000
X50250Y-57500
X50750Y-30250
X51250Y-15500
X51250Y-26000
X51250Y-28750
X53000Y-50250
X53500Y-20000
X53500Y-31500
X53750Y-44250
X53750Y-46500
X54000Y-19000
X54000Y-20500
X54000Y-31000
X54000Y-40500
X54250Y-24500
X54500Y-22500
X54500Y-30500
X54500Y-40000
X54750Y-45500
X55000Y-30000
X55000Y-41500
X55250Y-49500
X55250Y-54250
X55500Y-29500
X55500Y-41000
X55750Y-44000
X55750Y-49000
X56000Y-43500
X56250Y-31500
X56250Y-43000
X56500Y-42500
X56750Y-29000
X57000Y-28750
X57250Y-24000
X57500Y-21500
X57500Y-37500
X57750Y-25500
X57750Y-37250
X58000Y-23500
X58000Y-37000
X58250Y-27000
X58250Y-36750
X58750Y-46000
X58750Y-51750
X59250Y-39500
X59250Y-45000
X59500Y-20000
X60000Y-16500
X60000Y-38000
X60000Y-44500
X60000Y-57250
X60000Y-57750
X60000Y-57750
X60500Y-16500
X60500Y-38000
X61000Y-16500
X61000Y-20500
X61000Y-38000
X61750Y-63750
X61750Y-64250
X61750Y-64750
X62000Y-13500
X62000Y-21250
X62000Y-37500
X62500Y-37250
X63000Y-14000
X63000Y-21750
X63000Y-37000
X63500Y-36750
X64000Y-13807
X65500Y-22500
X65500Y-37000
X65500Y-47500
X67500Y-14000
X68000Y-23000
X68500Y-14000
X69000Y-23000
X69000Y-37250
X69000Y-44000
X69500Y-14000
X70000Y-37250
X70000Y-42500
X70500Y-37250
X70500Y-45000
X71000Y-23000
X72000Y-31500
X73000Y-30750
X73750Y-39000
X74000Y-49000
X75000Y-30000
X76500Y-14750
X76500Y-15250
X76500Y-15750
X76500Y-16250
X76500Y-28250
X77000Y-28500
X77000Y-29000
T2
X58750Y-15000
X58750Y-18000
X52500Y-32250
X52500Y-35250
X61000Y-49500
X64000Y-49500
X73500Y-15000
X73500Y-18000
X45750Y-53250
X48750Y-53250
X55250Y-61250
X58250Y-61250
X50500Y-32250
X50500Y-35250
X36000Y-19500
X36000Y-22500
X49250Y-28250
X52250Y-28250
X34000Y-19500
X34000Y-22500
X35000Y-31500
X35000Y-34500
X71500Y-15000
X71500Y-18000
X33250Y-61250
X36250Y-61250
X51500Y-32250
X51500Y-35250
X19250Y-59000
X22250Y-59000
X35000Y-19500
X35000Y-22500
X51250Y-61250
X54250Y-61250
X37000Y-19500
X37000Y-22500
X53500Y-32250
X53500Y-35250
X41250Y-61250
X44250Y-61250
X61000Y-48500
X64000Y-48500
X74500Y-15000
X74500Y-18000
X19250Y-58000
X22250Y-58000
X47250Y-61250
X50250Y-61250
X72500Y-15000
X72500Y-18000
X34000Y-31500
X34000Y-34500
X34250Y-56750
X37250Y-56750
X37250Y-61250
X40250Y-61250
T3
X17000Y-58000
X17000Y-58984
X36250Y-58250
X37234Y-58250
X41500Y-50750
X41500Y-51750
X41500Y-52750
X41500Y-53750
X41500Y-54750
X41500Y-55750
X41500Y-56750
X44500Y-50750
X44500Y-51750
X44500Y-52750
X44500Y-53750
X44500Y-54750
X44500Y-55750
X44500Y-56750
X21500Y-14500
X21500Y-15500
X21500Y-16500
X21500Y-17500
X21500Y-18500
X21500Y-19500
X21500Y-20500
X21500Y-21500
X21500Y-22500
X21500Y-23500
X21500Y-24500
X21500Y-25500
X21500Y-26500
X21500Y-27500
X27500Y-14500
X27500Y-15500
X27500Y-16500
X27500Y-17500
X27500Y-18500
X27500Y-19500
X27500Y-20500
X27500Y-21500
X27500Y-22500
X27500Y-23500
X27500Y-24500
X27500Y-25500
X27500Y-26500
X27500Y-27500
X24500Y-53500
X24500Y-54500
X24500Y-55500
X76250Y-59750
X76250Y-60734
X30000Y-28500
X30000Y-29500
X30000Y-30500
X30000Y-31500
X30000Y-32500
X30000Y-33500
X30000Y-34500
X30000Y-35500
X33000Y-28500
X33000Y-29500
X33000Y-30500
X33000Y-31500
X33000Y-32500
X33000Y-33500
X33000Y-34500
X33000Y-35500
X38000Y-34000
X38000Y-34984
X17000Y-37500
X17000Y-38500
X17000Y-39500
X17000Y-40500
X17000Y-41500
X17000Y-42500
X17000Y-43500
X17000Y-44500
X17000Y-45500
X17000Y-46500
X17000Y-47500
X17000Y-48500
X17000Y-49500
X17000Y-50500
X17000Y-51500
X17000Y-52500
X17000Y-53500
X17000Y-54500
X17000Y-55500
X17000Y-56500
X23000Y-37500
X23000Y-38500
X23000Y-39500
X23000Y-40500
X23000Y-41500
X23000Y-42500
X23000Y-43500
X23000Y-44500
X23000Y-45500
X23000Y-46500
X23000Y-47500
X23000Y-48500
X23000Y-49500
X23000Y-50500
X23000Y-51500
X23000Y-52500
X23000Y-53500
X23000Y-54500
X23000Y-55500
X23000Y-56500
X52016Y-48500
X53000Y-48500
X60000Y-27000
X60000Y-33000
X61000Y-27000
X61000Y-33000
X62000Y-27000
X62000Y-33000
X63000Y-27000
X63000Y-33000
X64000Y-27000
X64000Y-33000
X65000Y-27000
X65000Y-33000
X66000Y-27000
X66000Y-33000
X67000Y-27000
X67000Y-33000
X68000Y-27000
X68000Y-33000
X69000Y-27000
X69000Y-33000
X70000Y-27000
X70000Y-33000
X71000Y-27000
X71000Y-33000
X72000Y-27000
X72000Y-33000
X73000Y-27000
X73000Y-33000
X74000Y-27000
X74000Y-33000
X75000Y-27000
X75000Y-33000
X27000Y-37500
X27000Y-38500
X27000Y-39500
X27000Y-40500
X27000Y-41500
X27000Y-42500
X27000Y-43500
X27000Y-44500
X27000Y-45500
X27000Y-46500
X27000Y-47500
X27000Y-48500
X27000Y-49500
X27000Y-50500
X27000Y-51500
X27000Y-52500
X27000Y-53500
X27000Y-54500
X27000Y-55500
X27000Y-56500
X33000Y-37500
X33000Y-38500
X33000Y-39500
X33000Y-40500
X33000Y-41500
X33000Y-42500
X33000Y-43500
X33000Y-44500
X33000Y-45500
X33000Y-46500
X33000Y-47500
X33000Y-48500
X33000Y-49500
X33000Y-50500
X33000Y-51500
X33000Y-52500
X33000Y-53500
X33000Y-54500
X33000Y-55500
X33000Y-56500
X42516Y-40000
X43500Y-40000
X54266Y-16750
X55250Y-16750
X76000Y-16250
X76000Y-17234
X52250Y-18000
X52250Y-19000
X52250Y-20000
X52250Y-21000
X52250Y-22000
X52250Y-23000
X52250Y-24000
X52250Y-25000
X52250Y-26000
X52250Y-27000
X55250Y-18000
X55250Y-19000
X55250Y-20000
X55250Y-21000
X55250Y-22000
X55250Y-23000
X55250Y-24000
X55250Y-25000
X55250Y-26000
X55250Y-27000
X37516Y-36250
X38500Y-36250
X41500Y-41500
X41500Y-42500
X41500Y-43500
X41500Y-44500
X41500Y-45500
X41500Y-46500
X41500Y-47500
X44500Y-41500
X44500Y-42500
X44500Y-43500
X44500Y-44500
X44500Y-45500
X44500Y-46500
X44500Y-47500
X37000Y-23500
X37000Y-24484
X27016Y-58250
X28000Y-58250
X26750Y-60516
X26750Y-61500
X35000Y-23500
X35000Y-25469
X61000Y-51500
X64000Y-51500
X61000Y-50500
X64000Y-50500
X72016Y-37500
X73000Y-37500
X36000Y-34000
X36000Y-34984
X61650Y-60898
X61650Y-62000
X62476Y-62000
X63500Y-62000
X64327Y-60898
X64327Y-62000
X42516Y-58250
X43500Y-58250
X12500Y-37000
X12500Y-37984
X34250Y-55750
X37250Y-55750
X12500Y-39500
X12500Y-40484
X76500Y-24500
X76500Y-25484
X51000Y-49750
X51000Y-50750
X51000Y-51750
X51000Y-52750
X51000Y-53750
X51000Y-54750
X51000Y-55750
X51000Y-56750
X51000Y-57750
X51000Y-58750
X54000Y-49750
X54000Y-50750
X54000Y-51750
X54000Y-52750
X54000Y-53750
X54000Y-54750
X54000Y-55750
X54000Y-56750
X54000Y-57750
X54000Y-58750
X34750Y-46500
X34750Y-47500
X34750Y-48500
X52250Y-15750
X52250Y-16734
X35000Y-16531
X35000Y-18500
X20000Y-13500
X20000Y-14484
X75000Y-35016
X75000Y-36000
X16000Y-26000
X16000Y-27000
X16000Y-28000
X16000Y-29000
X16000Y-30000
X16000Y-31000
X16000Y-32000
X16000Y-33000
X16000Y-34000
X16000Y-35000
X19000Y-26000
X19000Y-27000
X19000Y-28000
X19000Y-29000
X19000Y-30000
X19000Y-31000
X19000Y-32000
X19000Y-33000
X19000Y-34000
X19000Y-35000
X60000Y-15000
X60000Y-18000
X61000Y-15000
X61000Y-18000
X62000Y-15000
X62000Y-18000
X63000Y-15000
X63000Y-18000
X64000Y-15000
X64000Y-18000
X65000Y-15000
X65000Y-18000
X66000Y-15000
X66000Y-18000
X67000Y-15000
X67000Y-18000
X68000Y-15000
X68000Y-18000
X69000Y-15000
X69000Y-18000
X60000Y-19500
X60000Y-25500
X61000Y-19500
X61000Y-25500
X62000Y-19500
X62000Y-25500
X63000Y-19500
X63000Y-25500
X64000Y-19500
X64000Y-25500
X65000Y-19500
X65000Y-25500
X66000Y-19500
X66000Y-25500
X67000Y-19500
X67000Y-25500
X68000Y-19500
X68000Y-25500
X69000Y-19500
X69000Y-25500
X70000Y-19500
X70000Y-25500
X71000Y-19500
X71000Y-25500
X72000Y-19500
X72000Y-25500
X73000Y-19500
X73000Y-25500
X74000Y-19500
X74000Y-25500
X75000Y-19500
X75000Y-25500
X45750Y-18000
X45750Y-19000
X45750Y-20000
X45750Y-21000
X45750Y-22000
X45750Y-23000
X45750Y-24000
X45750Y-25000
X45750Y-26000
X45750Y-27000
X48750Y-18000
X48750Y-19000
X48750Y-20000
X48750Y-21000
X48750Y-22000
X48750Y-23000
X48750Y-24000
X48750Y-25000
X48750Y-26000
X48750Y-27000
X74500Y-59750
X74500Y-60734
X38000Y-17500
X38000Y-18500
X38000Y-19500
X38000Y-20500
X38000Y-21500
X38000Y-22500
X38000Y-23500
X41000Y-17500
X41000Y-18500
X41000Y-19500
X41000Y-20500
X41000Y-21500
X41000Y-22500
X41000Y-23500
X28750Y-60500
X28750Y-61484
X70250Y-16250
X70250Y-17234
X35000Y-28500
X35000Y-30469
X40016Y-16250
X41000Y-16250
X41500Y-31750
X41500Y-32750
X41500Y-33750
X41500Y-34750
X41500Y-35750
X41500Y-36750
X41500Y-37750
X41500Y-38750
X44500Y-31750
X44500Y-32750
X44500Y-33750
X44500Y-34750
X44500Y-35750
X44500Y-36750
X44500Y-37750
X44500Y-38750
X37000Y-34000
X37000Y-34984
X35500Y-37500
X35500Y-38500
X35500Y-39500
X35500Y-40500
X35500Y-41500
X35500Y-42500
X35500Y-43500
X35500Y-44500
X38500Y-37500
X38500Y-38500
X38500Y-39500
X38500Y-40500
X38500Y-41500
X38500Y-42500
X38500Y-43500
X38500Y-44500
X42516Y-48750
X43500Y-48750
X45766Y-16750
X46750Y-16750
X30000Y-17500
X30000Y-18500
X30000Y-19500
X30000Y-20500
X30000Y-21500
X30000Y-22500
X30000Y-23500
X30000Y-24500
X33000Y-17500
X33000Y-18500
X33000Y-19500
X33000Y-20500
X33000Y-21500
X33000Y-22500
X33000Y-23500
X33000Y-24500
T4
X65000Y-11000
X66000Y-11000
X62000Y-11000
X63000Y-11000
X68000Y-11000
X69000Y-11000
X71000Y-11000
X72000Y-11000
T5
X50644Y-62750
X50644Y-64309
X51094Y-63530
X51545Y-62750
X51545Y-64309
X51996Y-63530
X52447Y-62750
X52447Y-64309
X52898Y-63530
X53348Y-62750
X53348Y-64309
X53799Y-63530
X54250Y-62750
X54250Y-64309
X54701Y-63530
X58000Y-10500
X59772Y-10500
X68000Y-58500
X69000Y-58500
X70000Y-58500
X71000Y-58500
X72000Y-58500
X73000Y-58500
X60000Y-53000
X60000Y-54000
X61000Y-53000
X61000Y-54000
X62000Y-53000
X62000Y-54000
X63000Y-53000
X63000Y-54000
X64000Y-53000
X64000Y-54000
X65000Y-53000
X65000Y-54000
X66000Y-53000
X66000Y-54000
X67000Y-53000
X67000Y-54000
X68000Y-53000
X68000Y-54000
X69000Y-53000
X69000Y-54000
X70000Y-53000
X70000Y-54000
X71000Y-53000
X71000Y-54000
X72000Y-53000
X72000Y-54000
X73000Y-53000
X73000Y-54000
X12500Y-44500
X12500Y-45500
X12500Y-46500
X12500Y-47500
X12500Y-48500
X12500Y-49500
X12500Y-50500
X12500Y-51500
X12500Y-52500
X12500Y-53500
X12500Y-54500
X12500Y-55500
X12500Y-56500
X13500Y-44500
X13500Y-45500
X13500Y-46500
X13500Y-47500
X13500Y-48500
X13500Y-49500
X13500Y-50500
X13500Y-51500
X13500Y-52500
X13500Y-53500
X13500Y-54500
X13500Y-55500
X13500Y-56500
X17000Y-15000
X17000Y-16000
X17000Y-17000
X17000Y-18000
X17000Y-19000
X17000Y-20000
X17000Y-21000
X17000Y-22000
X18000Y-15000
X18000Y-16000
X18000Y-17000
X18000Y-18000
X18000Y-19000
X18000Y-20000
X18000Y-21000
X18000Y-22000
X17000Y-61000
X18000Y-61000
X19000Y-61000
X20000Y-61000
X18000Y-11500
X19000Y-11500
X20000Y-11500
X21000Y-11500
X46500Y-55250
X46500Y-56250
X47500Y-55250
X47500Y-56250
X53492Y-10500
X55264Y-10500
X34281Y-54500
X36250Y-54500
X23000Y-11500
X24000Y-11500
X25000Y-11500
X26000Y-11500
X27000Y-34500
X27000Y-35500
X28000Y-34500
X28000Y-35500
X36644Y-62750
X36644Y-64309
X37094Y-63530
X37545Y-62750
X37545Y-64309
X37996Y-63530
X38447Y-62750
X38447Y-64309
X38898Y-63530
X39348Y-62750
X39348Y-64309
X39799Y-63530
X40250Y-62750
X40250Y-64309
X40701Y-63530
X47500Y-33750
X47500Y-34750
X47500Y-35750
X47500Y-36750
X47500Y-37750
X47500Y-38750
X47500Y-39750
X47500Y-40750
X47500Y-41750
X47500Y-42750
X47500Y-43750
X47500Y-44750
X47500Y-45750
X47500Y-46750
X47500Y-47750
X47500Y-48750
X47500Y-49750
X48500Y-33750
X48500Y-34750
X48500Y-35750
X48500Y-36750
X48500Y-37750
X48500Y-38750
X48500Y-39750
X48500Y-40750
X48500Y-41750
X48500Y-42750
X48500Y-43750
X48500Y-44750
X48500Y-45750
X48500Y-46750
X48500Y-47750
X48500Y-48750
X48500Y-49750
X60000Y-35000
X60000Y-36000
X61000Y-35000
X61000Y-36000
X62000Y-35000
X62000Y-36000
X63000Y-35000
X63000Y-36000
X64000Y-35000
X64000Y-36000
X65000Y-35000
X65000Y-36000
X66000Y-35000
X66000Y-36000
X67000Y-35000
X67000Y-36000
X68000Y-35000
X68000Y-36000
X69000Y-35000
X69000Y-36000
X70000Y-35000
X70000Y-36000
X71000Y-35000
X71000Y-36000
X72000Y-35000
X72000Y-36000
X73000Y-35000
X73000Y-36000
X75000Y-38000
X75000Y-39000
X75000Y-40000
X75000Y-41000
X75000Y-42000
X75000Y-43000
X75000Y-44000
X75000Y-45000
X75000Y-46000
X75000Y-47000
X75000Y-48000
X75000Y-49000
X75000Y-50000
X75000Y-51000
X76000Y-38000
X76000Y-39000
X76000Y-40000
X76000Y-41000
X76000Y-42000
X76000Y-43000
X76000Y-44000
X76000Y-45000
X76000Y-46000
X76000Y-47000
X76000Y-48000
X76000Y-49000
X76000Y-50000
X76000Y-51000
X49000Y-10500
X50772Y-10500
X12500Y-15000
X12500Y-16000
X12500Y-17000
X12500Y-18000
X12500Y-19000
X12500Y-20000
X12500Y-21000
X12500Y-22000
X13500Y-15000
X13500Y-16000
X13500Y-17000
X13500Y-18000
X13500Y-19000
X13500Y-20000
X13500Y-21000
X13500Y-22000
X12000Y-61000
X13000Y-61000
X14000Y-61000
X15000Y-61000
X12500Y-27000
X12500Y-28000
X12500Y-29000
X12500Y-30000
X12500Y-31000
X12500Y-32000
X12500Y-33000
X12500Y-34000
X13500Y-27000
X13500Y-28000
X13500Y-29000
X13500Y-30000
X13500Y-31000
X13500Y-32000
X13500Y-33000
X13500Y-34000
X57000Y-38000
X57000Y-39000
X57000Y-40000
X57000Y-41000
X57000Y-42000
X57000Y-43000
X57000Y-44000
X57000Y-45000
X57000Y-46000
X57000Y-47000
X57000Y-48000
X57000Y-49000
X57000Y-50000
X57000Y-51000
X58000Y-38000
X58000Y-39000
X58000Y-40000
X58000Y-41000
X58000Y-42000
X58000Y-43000
X58000Y-44000
X58000Y-45000
X58000Y-46000
X58000Y-47000
X58000Y-48000
X58000Y-49000
X58000Y-50000
X58000Y-51000
X63500Y-59000
X64500Y-59000
X65500Y-59000
X22000Y-61000
X23000Y-61000
X24000Y-61000
X25000Y-61000
X52000Y-38500
X52000Y-39500
X52000Y-40500
X52000Y-41500
X52000Y-42500
X52000Y-43500
X52000Y-44500
X52000Y-45500
X53000Y-38500
X53000Y-39500
X53000Y-40500
X53000Y-41500
X53000Y-42500
X53000Y-43500
X53000Y-44500
X53000Y-45500
X39000Y-25000
X40000Y-25000
T6
X57508Y-11484
X60264Y-11484
X34250Y-50500
X34250Y-52470
X37203Y-51484
X53000Y-11484
X55756Y-11484
X48508Y-11484
X51264Y-11484
T7
X33630Y-63557
X43472Y-63557
X47630Y-63557
X57472Y-63557
T8
X12598Y-63780
X75591Y-63780
X75591Y-10630
X12598Y-10630
T5
G00X60291Y-62827
M15
G01X60291Y-63417
M16
G05
G00X62594Y-63437
M15
G01X63382Y-63437
M16
G05
G00X65685Y-62827
M15
G01X65685Y-63417
M16
G05
T0
M30
