%TF.GenerationSoftware,KiCad,Pcbnew,5.1.6-c6e7f7d~87~ubuntu18.04.1*%
%TF.CreationDate,2021-02-14T23:24:49+00:00*%
%TF.ProjectId,nascom_ng,6e617363-6f6d-45f6-9e67-2e6b69636164,rev?*%
%TF.SameCoordinates,Original*%
%TF.FileFunction,Legend,Bot*%
%TF.FilePolarity,Positive*%
%FSLAX46Y46*%
G04 Gerber Fmt 4.6, Leading zero omitted, Abs format (unit mm)*
G04 Created by KiCad (PCBNEW 5.1.6-c6e7f7d~87~ubuntu18.04.1) date 2021-02-14 23:24:49*
%MOMM*%
%LPD*%
G01*
G04 APERTURE LIST*
%ADD10C,0.150000*%
G04 APERTURE END LIST*
D10*
X180941071Y-100323571D02*
X181274404Y-100323571D01*
X181274404Y-100847380D02*
X181274404Y-99847380D01*
X180798214Y-99847380D01*
X180417261Y-100847380D02*
X180417261Y-99847380D01*
X180179166Y-99847380D01*
X180036309Y-99895000D01*
X179941071Y-99990238D01*
X179893452Y-100085476D01*
X179845833Y-100275952D01*
X179845833Y-100418809D01*
X179893452Y-100609285D01*
X179941071Y-100704523D01*
X180036309Y-100799761D01*
X180179166Y-100847380D01*
X180417261Y-100847380D01*
X179417261Y-100847380D02*
X179417261Y-99847380D01*
X179179166Y-99847380D01*
X179036309Y-99895000D01*
X178941071Y-99990238D01*
X178893452Y-100085476D01*
X178845833Y-100275952D01*
X178845833Y-100418809D01*
X178893452Y-100609285D01*
X178941071Y-100704523D01*
X179036309Y-100799761D01*
X179179166Y-100847380D01*
X179417261Y-100847380D01*
X177083928Y-100847380D02*
X177417261Y-100371190D01*
X177655357Y-100847380D02*
X177655357Y-99847380D01*
X177274404Y-99847380D01*
X177179166Y-99895000D01*
X177131547Y-99942619D01*
X177083928Y-100037857D01*
X177083928Y-100180714D01*
X177131547Y-100275952D01*
X177179166Y-100323571D01*
X177274404Y-100371190D01*
X177655357Y-100371190D01*
X176655357Y-100323571D02*
X176322023Y-100323571D01*
X176179166Y-100847380D02*
X176655357Y-100847380D01*
X176655357Y-99847380D01*
X176179166Y-99847380D01*
X175798214Y-100561666D02*
X175322023Y-100561666D01*
X175893452Y-100847380D02*
X175560119Y-99847380D01*
X175226785Y-100847380D01*
X174893452Y-100847380D02*
X174893452Y-99847380D01*
X174655357Y-99847380D01*
X174512500Y-99895000D01*
X174417261Y-99990238D01*
X174369642Y-100085476D01*
X174322023Y-100275952D01*
X174322023Y-100418809D01*
X174369642Y-100609285D01*
X174417261Y-100704523D01*
X174512500Y-100799761D01*
X174655357Y-100847380D01*
X174893452Y-100847380D01*
X173702976Y-100371190D02*
X173702976Y-100847380D01*
X174036309Y-99847380D02*
X173702976Y-100371190D01*
X173369642Y-99847380D01*
X172322023Y-99799761D02*
X173179166Y-101085476D01*
X172036309Y-100799761D02*
X171893452Y-100847380D01*
X171655357Y-100847380D01*
X171560119Y-100799761D01*
X171512500Y-100752142D01*
X171464880Y-100656904D01*
X171464880Y-100561666D01*
X171512500Y-100466428D01*
X171560119Y-100418809D01*
X171655357Y-100371190D01*
X171845833Y-100323571D01*
X171941071Y-100275952D01*
X171988690Y-100228333D01*
X172036309Y-100133095D01*
X172036309Y-100037857D01*
X171988690Y-99942619D01*
X171941071Y-99895000D01*
X171845833Y-99847380D01*
X171607738Y-99847380D01*
X171464880Y-99895000D01*
X170560119Y-100847380D02*
X171036309Y-100847380D01*
X171036309Y-99847380D01*
X170369642Y-99847380D02*
X169798214Y-99847380D01*
X170083928Y-100847380D02*
X170083928Y-99847380D01*
X169036309Y-100180714D02*
X169036309Y-100847380D01*
X169274404Y-99799761D02*
X169512500Y-100514047D01*
X168893452Y-100514047D01*
X181417261Y-101497380D02*
X180845833Y-101497380D01*
X181131547Y-102497380D02*
X181131547Y-101497380D01*
X180131547Y-102449761D02*
X180226785Y-102497380D01*
X180417261Y-102497380D01*
X180512500Y-102449761D01*
X180560119Y-102354523D01*
X180560119Y-101973571D01*
X180512500Y-101878333D01*
X180417261Y-101830714D01*
X180226785Y-101830714D01*
X180131547Y-101878333D01*
X180083928Y-101973571D01*
X180083928Y-102068809D01*
X180560119Y-102164047D01*
X179226785Y-102497380D02*
X179226785Y-101973571D01*
X179274404Y-101878333D01*
X179369642Y-101830714D01*
X179560119Y-101830714D01*
X179655357Y-101878333D01*
X179226785Y-102449761D02*
X179322023Y-102497380D01*
X179560119Y-102497380D01*
X179655357Y-102449761D01*
X179702976Y-102354523D01*
X179702976Y-102259285D01*
X179655357Y-102164047D01*
X179560119Y-102116428D01*
X179322023Y-102116428D01*
X179226785Y-102068809D01*
X178322023Y-102449761D02*
X178417261Y-102497380D01*
X178607738Y-102497380D01*
X178702976Y-102449761D01*
X178750595Y-102402142D01*
X178798214Y-102306904D01*
X178798214Y-102021190D01*
X178750595Y-101925952D01*
X178702976Y-101878333D01*
X178607738Y-101830714D01*
X178417261Y-101830714D01*
X178322023Y-101878333D01*
X176798214Y-101973571D02*
X177131547Y-101973571D01*
X177131547Y-102497380D02*
X177131547Y-101497380D01*
X176655357Y-101497380D01*
X176274404Y-102497380D02*
X176274404Y-101497380D01*
X176036309Y-101497380D01*
X175893452Y-101545000D01*
X175798214Y-101640238D01*
X175750595Y-101735476D01*
X175702976Y-101925952D01*
X175702976Y-102068809D01*
X175750595Y-102259285D01*
X175798214Y-102354523D01*
X175893452Y-102449761D01*
X176036309Y-102497380D01*
X176274404Y-102497380D01*
X175274404Y-102116428D02*
X174512500Y-102116428D01*
X173560119Y-101497380D02*
X174036309Y-101497380D01*
X174083928Y-101973571D01*
X174036309Y-101925952D01*
X173941071Y-101878333D01*
X173702976Y-101878333D01*
X173607738Y-101925952D01*
X173560119Y-101973571D01*
X173512500Y-102068809D01*
X173512500Y-102306904D01*
X173560119Y-102402142D01*
X173607738Y-102449761D01*
X173702976Y-102497380D01*
X173941071Y-102497380D01*
X174036309Y-102449761D01*
X174083928Y-102402142D01*
X172607738Y-101497380D02*
X173083928Y-101497380D01*
X173131547Y-101973571D01*
X173083928Y-101925952D01*
X172988690Y-101878333D01*
X172750595Y-101878333D01*
X172655357Y-101925952D01*
X172607738Y-101973571D01*
X172560119Y-102068809D01*
X172560119Y-102306904D01*
X172607738Y-102402142D01*
X172655357Y-102449761D01*
X172750595Y-102497380D01*
X172988690Y-102497380D01*
X173083928Y-102449761D01*
X173131547Y-102402142D01*
X172131547Y-102402142D02*
X172083928Y-102449761D01*
X172131547Y-102497380D01*
X172179166Y-102449761D01*
X172131547Y-102402142D01*
X172131547Y-102497380D01*
X172131547Y-101878333D02*
X172083928Y-101925952D01*
X172131547Y-101973571D01*
X172179166Y-101925952D01*
X172131547Y-101878333D01*
X172131547Y-101973571D01*
X170369642Y-102497380D02*
X170941071Y-102497380D01*
X170655357Y-102497380D02*
X170655357Y-101497380D01*
X170750595Y-101640238D01*
X170845833Y-101735476D01*
X170941071Y-101783095D01*
X169941071Y-102116428D02*
X169179166Y-102116428D01*
X168750595Y-101592619D02*
X168702976Y-101545000D01*
X168607738Y-101497380D01*
X168369642Y-101497380D01*
X168274404Y-101545000D01*
X168226785Y-101592619D01*
X168179166Y-101687857D01*
X168179166Y-101783095D01*
X168226785Y-101925952D01*
X168798214Y-102497380D01*
X168179166Y-102497380D01*
X167702976Y-102449761D02*
X167702976Y-102497380D01*
X167750595Y-102592619D01*
X167798214Y-102640238D01*
X166607738Y-101497380D02*
X165988690Y-101497380D01*
X166322023Y-101878333D01*
X166179166Y-101878333D01*
X166083928Y-101925952D01*
X166036309Y-101973571D01*
X165988690Y-102068809D01*
X165988690Y-102306904D01*
X166036309Y-102402142D01*
X166083928Y-102449761D01*
X166179166Y-102497380D01*
X166464880Y-102497380D01*
X166560119Y-102449761D01*
X166607738Y-102402142D01*
X165560119Y-102116428D02*
X164798214Y-102116428D01*
X163893452Y-101830714D02*
X163893452Y-102497380D01*
X164131547Y-101449761D02*
X164369642Y-102164047D01*
X163750595Y-102164047D01*
X181274404Y-104147380D02*
X181274404Y-103147380D01*
X180893452Y-103147380D01*
X180798214Y-103195000D01*
X180750595Y-103242619D01*
X180702976Y-103337857D01*
X180702976Y-103480714D01*
X180750595Y-103575952D01*
X180798214Y-103623571D01*
X180893452Y-103671190D01*
X181274404Y-103671190D01*
X179893452Y-104099761D02*
X179988690Y-104147380D01*
X180179166Y-104147380D01*
X180274404Y-104099761D01*
X180322023Y-104004523D01*
X180322023Y-103623571D01*
X180274404Y-103528333D01*
X180179166Y-103480714D01*
X179988690Y-103480714D01*
X179893452Y-103528333D01*
X179845833Y-103623571D01*
X179845833Y-103718809D01*
X180322023Y-103814047D01*
X179417261Y-104147380D02*
X179417261Y-103480714D01*
X179417261Y-103671190D02*
X179369642Y-103575952D01*
X179322023Y-103528333D01*
X179226785Y-103480714D01*
X179131547Y-103480714D01*
X178941071Y-103480714D02*
X178560119Y-103480714D01*
X178798214Y-103147380D02*
X178798214Y-104004523D01*
X178750595Y-104099761D01*
X178655357Y-104147380D01*
X178560119Y-104147380D01*
X177845833Y-104099761D02*
X177941071Y-104147380D01*
X178131547Y-104147380D01*
X178226785Y-104099761D01*
X178274404Y-104004523D01*
X178274404Y-103623571D01*
X178226785Y-103528333D01*
X178131547Y-103480714D01*
X177941071Y-103480714D01*
X177845833Y-103528333D01*
X177798214Y-103623571D01*
X177798214Y-103718809D01*
X178274404Y-103814047D01*
X176941071Y-104099761D02*
X177036309Y-104147380D01*
X177226785Y-104147380D01*
X177322023Y-104099761D01*
X177369642Y-104052142D01*
X177417261Y-103956904D01*
X177417261Y-103671190D01*
X177369642Y-103575952D01*
X177322023Y-103528333D01*
X177226785Y-103480714D01*
X177036309Y-103480714D01*
X176941071Y-103528333D01*
X175417261Y-103623571D02*
X175750595Y-103623571D01*
X175750595Y-104147380D02*
X175750595Y-103147380D01*
X175274404Y-103147380D01*
X174893452Y-104147380D02*
X174893452Y-103147380D01*
X174655357Y-103147380D01*
X174512500Y-103195000D01*
X174417261Y-103290238D01*
X174369642Y-103385476D01*
X174322023Y-103575952D01*
X174322023Y-103718809D01*
X174369642Y-103909285D01*
X174417261Y-104004523D01*
X174512500Y-104099761D01*
X174655357Y-104147380D01*
X174893452Y-104147380D01*
X173941071Y-103242619D02*
X173893452Y-103195000D01*
X173798214Y-103147380D01*
X173560119Y-103147380D01*
X173464880Y-103195000D01*
X173417261Y-103242619D01*
X173369642Y-103337857D01*
X173369642Y-103433095D01*
X173417261Y-103575952D01*
X173988690Y-104147380D01*
X173369642Y-104147380D01*
X172464880Y-103147380D02*
X172941071Y-103147380D01*
X172988690Y-103623571D01*
X172941071Y-103575952D01*
X172845833Y-103528333D01*
X172607738Y-103528333D01*
X172512500Y-103575952D01*
X172464880Y-103623571D01*
X172417261Y-103718809D01*
X172417261Y-103956904D01*
X172464880Y-104052142D01*
X172512500Y-104099761D01*
X172607738Y-104147380D01*
X172845833Y-104147380D01*
X172941071Y-104099761D01*
X172988690Y-104052142D01*
X171798214Y-103147380D02*
X171702976Y-103147380D01*
X171607738Y-103195000D01*
X171560119Y-103242619D01*
X171512500Y-103337857D01*
X171464880Y-103528333D01*
X171464880Y-103766428D01*
X171512500Y-103956904D01*
X171560119Y-104052142D01*
X171607738Y-104099761D01*
X171702976Y-104147380D01*
X171798214Y-104147380D01*
X171893452Y-104099761D01*
X171941071Y-104052142D01*
X171988690Y-103956904D01*
X172036309Y-103766428D01*
X172036309Y-103528333D01*
X171988690Y-103337857D01*
X171941071Y-103242619D01*
X171893452Y-103195000D01*
X171798214Y-103147380D01*
X171036309Y-104052142D02*
X170988690Y-104099761D01*
X171036309Y-104147380D01*
X171083928Y-104099761D01*
X171036309Y-104052142D01*
X171036309Y-104147380D01*
X171036309Y-103528333D02*
X170988690Y-103575952D01*
X171036309Y-103623571D01*
X171083928Y-103575952D01*
X171036309Y-103528333D01*
X171036309Y-103623571D01*
X169274404Y-104147380D02*
X169845833Y-104147380D01*
X169560119Y-104147380D02*
X169560119Y-103147380D01*
X169655357Y-103290238D01*
X169750595Y-103385476D01*
X169845833Y-103433095D01*
X168845833Y-103766428D02*
X168083928Y-103766428D01*
X167655357Y-103242619D02*
X167607738Y-103195000D01*
X167512500Y-103147380D01*
X167274404Y-103147380D01*
X167179166Y-103195000D01*
X167131547Y-103242619D01*
X167083928Y-103337857D01*
X167083928Y-103433095D01*
X167131547Y-103575952D01*
X167702976Y-104147380D01*
X167083928Y-104147380D01*
X181274404Y-105797380D02*
X181274404Y-104797380D01*
X180941071Y-105511666D01*
X180607738Y-104797380D01*
X180607738Y-105797380D01*
X180131547Y-105797380D02*
X180131547Y-105130714D01*
X180131547Y-104797380D02*
X180179166Y-104845000D01*
X180131547Y-104892619D01*
X180083928Y-104845000D01*
X180131547Y-104797380D01*
X180131547Y-104892619D01*
X179226785Y-105749761D02*
X179322023Y-105797380D01*
X179512500Y-105797380D01*
X179607738Y-105749761D01*
X179655357Y-105702142D01*
X179702976Y-105606904D01*
X179702976Y-105321190D01*
X179655357Y-105225952D01*
X179607738Y-105178333D01*
X179512500Y-105130714D01*
X179322023Y-105130714D01*
X179226785Y-105178333D01*
X178798214Y-105797380D02*
X178798214Y-105130714D01*
X178798214Y-105321190D02*
X178750595Y-105225952D01*
X178702976Y-105178333D01*
X178607738Y-105130714D01*
X178512500Y-105130714D01*
X178036309Y-105797380D02*
X178131547Y-105749761D01*
X178179166Y-105702142D01*
X178226785Y-105606904D01*
X178226785Y-105321190D01*
X178179166Y-105225952D01*
X178131547Y-105178333D01*
X178036309Y-105130714D01*
X177893452Y-105130714D01*
X177798214Y-105178333D01*
X177750595Y-105225952D01*
X177702976Y-105321190D01*
X177702976Y-105606904D01*
X177750595Y-105702142D01*
X177798214Y-105749761D01*
X177893452Y-105797380D01*
X178036309Y-105797380D01*
X177274404Y-105130714D02*
X177274404Y-106130714D01*
X177274404Y-105178333D02*
X177179166Y-105130714D01*
X176988690Y-105130714D01*
X176893452Y-105178333D01*
X176845833Y-105225952D01*
X176798214Y-105321190D01*
X176798214Y-105606904D01*
X176845833Y-105702142D01*
X176893452Y-105749761D01*
X176988690Y-105797380D01*
X177179166Y-105797380D01*
X177274404Y-105749761D01*
X176226785Y-105797380D02*
X176322023Y-105749761D01*
X176369642Y-105702142D01*
X176417261Y-105606904D01*
X176417261Y-105321190D01*
X176369642Y-105225952D01*
X176322023Y-105178333D01*
X176226785Y-105130714D01*
X176083928Y-105130714D01*
X175988690Y-105178333D01*
X175941071Y-105225952D01*
X175893452Y-105321190D01*
X175893452Y-105606904D01*
X175941071Y-105702142D01*
X175988690Y-105749761D01*
X176083928Y-105797380D01*
X176226785Y-105797380D01*
X175322023Y-105797380D02*
X175417261Y-105749761D01*
X175464880Y-105654523D01*
X175464880Y-104797380D01*
X174941071Y-105797380D02*
X174941071Y-105130714D01*
X174941071Y-104797380D02*
X174988690Y-104845000D01*
X174941071Y-104892619D01*
X174893452Y-104845000D01*
X174941071Y-104797380D01*
X174941071Y-104892619D01*
X174512500Y-105749761D02*
X174417261Y-105797380D01*
X174226785Y-105797380D01*
X174131547Y-105749761D01*
X174083928Y-105654523D01*
X174083928Y-105606904D01*
X174131547Y-105511666D01*
X174226785Y-105464047D01*
X174369642Y-105464047D01*
X174464880Y-105416428D01*
X174512500Y-105321190D01*
X174512500Y-105273571D01*
X174464880Y-105178333D01*
X174369642Y-105130714D01*
X174226785Y-105130714D01*
X174131547Y-105178333D01*
X172369642Y-105797380D02*
X172941071Y-105797380D01*
X172655357Y-105797380D02*
X172655357Y-104797380D01*
X172750595Y-104940238D01*
X172845833Y-105035476D01*
X172941071Y-105083095D01*
X171750595Y-104797380D02*
X171655357Y-104797380D01*
X171560119Y-104845000D01*
X171512500Y-104892619D01*
X171464880Y-104987857D01*
X171417261Y-105178333D01*
X171417261Y-105416428D01*
X171464880Y-105606904D01*
X171512500Y-105702142D01*
X171560119Y-105749761D01*
X171655357Y-105797380D01*
X171750595Y-105797380D01*
X171845833Y-105749761D01*
X171893452Y-105702142D01*
X171941071Y-105606904D01*
X171988690Y-105416428D01*
X171988690Y-105178333D01*
X171941071Y-104987857D01*
X171893452Y-104892619D01*
X171845833Y-104845000D01*
X171750595Y-104797380D01*
X170464880Y-105797380D02*
X171036309Y-105797380D01*
X170750595Y-105797380D02*
X170750595Y-104797380D01*
X170845833Y-104940238D01*
X170941071Y-105035476D01*
X171036309Y-105083095D01*
X169560119Y-104797380D02*
X170036309Y-104797380D01*
X170083928Y-105273571D01*
X170036309Y-105225952D01*
X169941071Y-105178333D01*
X169702976Y-105178333D01*
X169607738Y-105225952D01*
X169560119Y-105273571D01*
X169512500Y-105368809D01*
X169512500Y-105606904D01*
X169560119Y-105702142D01*
X169607738Y-105749761D01*
X169702976Y-105797380D01*
X169941071Y-105797380D01*
X170036309Y-105749761D01*
X170083928Y-105702142D01*
X169083928Y-105702142D02*
X169036309Y-105749761D01*
X169083928Y-105797380D01*
X169131547Y-105749761D01*
X169083928Y-105702142D01*
X169083928Y-105797380D01*
X169083928Y-105178333D02*
X169036309Y-105225952D01*
X169083928Y-105273571D01*
X169131547Y-105225952D01*
X169083928Y-105178333D01*
X169083928Y-105273571D01*
X167893452Y-104892619D02*
X167845833Y-104845000D01*
X167750595Y-104797380D01*
X167512500Y-104797380D01*
X167417261Y-104845000D01*
X167369642Y-104892619D01*
X167322023Y-104987857D01*
X167322023Y-105083095D01*
X167369642Y-105225952D01*
X167941071Y-105797380D01*
X167322023Y-105797380D01*
X166893452Y-105416428D02*
X166131547Y-105416428D01*
X165750595Y-104797380D02*
X165131547Y-104797380D01*
X165464880Y-105178333D01*
X165322023Y-105178333D01*
X165226785Y-105225952D01*
X165179166Y-105273571D01*
X165131547Y-105368809D01*
X165131547Y-105606904D01*
X165179166Y-105702142D01*
X165226785Y-105749761D01*
X165322023Y-105797380D01*
X165607738Y-105797380D01*
X165702976Y-105749761D01*
X165750595Y-105702142D01*
X164655357Y-105749761D02*
X164655357Y-105797380D01*
X164702976Y-105892619D01*
X164750595Y-105940238D01*
X162941071Y-105797380D02*
X163512500Y-105797380D01*
X163226785Y-105797380D02*
X163226785Y-104797380D01*
X163322023Y-104940238D01*
X163417261Y-105035476D01*
X163512500Y-105083095D01*
X162512500Y-105416428D02*
X161750595Y-105416428D01*
X160845833Y-105130714D02*
X160845833Y-105797380D01*
X161083928Y-104749761D02*
X161322023Y-105464047D01*
X160702976Y-105464047D01*
X181093571Y-22312380D02*
X181093571Y-22502857D01*
X180712619Y-22312380D02*
X180712619Y-22502857D01*
X180284047Y-23312380D02*
X180284047Y-22312380D01*
X179712619Y-23312380D01*
X179712619Y-22312380D01*
X179284047Y-23026666D02*
X178807857Y-23026666D01*
X179379285Y-23312380D02*
X179045952Y-22312380D01*
X178712619Y-23312380D01*
X178426904Y-23264761D02*
X178284047Y-23312380D01*
X178045952Y-23312380D01*
X177950714Y-23264761D01*
X177903095Y-23217142D01*
X177855476Y-23121904D01*
X177855476Y-23026666D01*
X177903095Y-22931428D01*
X177950714Y-22883809D01*
X178045952Y-22836190D01*
X178236428Y-22788571D01*
X178331666Y-22740952D01*
X178379285Y-22693333D01*
X178426904Y-22598095D01*
X178426904Y-22502857D01*
X178379285Y-22407619D01*
X178331666Y-22360000D01*
X178236428Y-22312380D01*
X177998333Y-22312380D01*
X177855476Y-22360000D01*
X176855476Y-23217142D02*
X176903095Y-23264761D01*
X177045952Y-23312380D01*
X177141190Y-23312380D01*
X177284047Y-23264761D01*
X177379285Y-23169523D01*
X177426904Y-23074285D01*
X177474523Y-22883809D01*
X177474523Y-22740952D01*
X177426904Y-22550476D01*
X177379285Y-22455238D01*
X177284047Y-22360000D01*
X177141190Y-22312380D01*
X177045952Y-22312380D01*
X176903095Y-22360000D01*
X176855476Y-22407619D01*
X176236428Y-22312380D02*
X176045952Y-22312380D01*
X175950714Y-22360000D01*
X175855476Y-22455238D01*
X175807857Y-22645714D01*
X175807857Y-22979047D01*
X175855476Y-23169523D01*
X175950714Y-23264761D01*
X176045952Y-23312380D01*
X176236428Y-23312380D01*
X176331666Y-23264761D01*
X176426904Y-23169523D01*
X176474523Y-22979047D01*
X176474523Y-22645714D01*
X176426904Y-22455238D01*
X176331666Y-22360000D01*
X176236428Y-22312380D01*
X175379285Y-23312380D02*
X175379285Y-22312380D01*
X175045952Y-23026666D01*
X174712619Y-22312380D01*
X174712619Y-23312380D01*
X173045952Y-22645714D02*
X173045952Y-23312380D01*
X173284047Y-22264761D02*
X173522142Y-22979047D01*
X172903095Y-22979047D01*
X172569761Y-22312380D02*
X172569761Y-22502857D01*
X172188809Y-22312380D02*
X172188809Y-22502857D01*
X170998333Y-22931428D02*
X170236428Y-22931428D01*
X168569761Y-23312380D02*
X168569761Y-22788571D01*
X168617380Y-22693333D01*
X168712619Y-22645714D01*
X168903095Y-22645714D01*
X168998333Y-22693333D01*
X168569761Y-23264761D02*
X168664999Y-23312380D01*
X168903095Y-23312380D01*
X168998333Y-23264761D01*
X169045952Y-23169523D01*
X169045952Y-23074285D01*
X168998333Y-22979047D01*
X168903095Y-22931428D01*
X168664999Y-22931428D01*
X168569761Y-22883809D01*
X168093571Y-22645714D02*
X168093571Y-23312380D01*
X168093571Y-22740952D02*
X168045952Y-22693333D01*
X167950714Y-22645714D01*
X167807857Y-22645714D01*
X167712619Y-22693333D01*
X167664999Y-22788571D01*
X167664999Y-23312380D01*
X166093571Y-22788571D02*
X166426904Y-22788571D01*
X166426904Y-23312380D02*
X166426904Y-22312380D01*
X165950714Y-22312380D01*
X165569761Y-23312380D02*
X165569761Y-22312380D01*
X165188809Y-22312380D01*
X165093571Y-22360000D01*
X165045952Y-22407619D01*
X164998333Y-22502857D01*
X164998333Y-22645714D01*
X165045952Y-22740952D01*
X165093571Y-22788571D01*
X165188809Y-22836190D01*
X165569761Y-22836190D01*
X164045952Y-22360000D02*
X164141190Y-22312380D01*
X164284047Y-22312380D01*
X164426904Y-22360000D01*
X164522142Y-22455238D01*
X164569761Y-22550476D01*
X164617380Y-22740952D01*
X164617380Y-22883809D01*
X164569761Y-23074285D01*
X164522142Y-23169523D01*
X164426904Y-23264761D01*
X164284047Y-23312380D01*
X164188809Y-23312380D01*
X164045952Y-23264761D01*
X163998333Y-23217142D01*
X163998333Y-22883809D01*
X164188809Y-22883809D01*
X163617380Y-23026666D02*
X163141190Y-23026666D01*
X163712619Y-23312380D02*
X163379285Y-22312380D01*
X163045952Y-23312380D01*
X162712619Y-22931428D02*
X161950714Y-22931428D01*
X161474523Y-23312380D02*
X161474523Y-22312380D01*
X161474523Y-22693333D02*
X161379285Y-22645714D01*
X161188809Y-22645714D01*
X161093571Y-22693333D01*
X161045952Y-22740952D01*
X160998333Y-22836190D01*
X160998333Y-23121904D01*
X161045952Y-23217142D01*
X161093571Y-23264761D01*
X161188809Y-23312380D01*
X161379285Y-23312380D01*
X161474523Y-23264761D01*
X160141190Y-23312380D02*
X160141190Y-22788571D01*
X160188809Y-22693333D01*
X160284047Y-22645714D01*
X160474523Y-22645714D01*
X160569761Y-22693333D01*
X160141190Y-23264761D02*
X160236428Y-23312380D01*
X160474523Y-23312380D01*
X160569761Y-23264761D01*
X160617380Y-23169523D01*
X160617380Y-23074285D01*
X160569761Y-22979047D01*
X160474523Y-22931428D01*
X160236428Y-22931428D01*
X160141190Y-22883809D01*
X159712619Y-23264761D02*
X159617380Y-23312380D01*
X159426904Y-23312380D01*
X159331666Y-23264761D01*
X159284047Y-23169523D01*
X159284047Y-23121904D01*
X159331666Y-23026666D01*
X159426904Y-22979047D01*
X159569761Y-22979047D01*
X159664999Y-22931428D01*
X159712619Y-22836190D01*
X159712619Y-22788571D01*
X159664999Y-22693333D01*
X159569761Y-22645714D01*
X159426904Y-22645714D01*
X159331666Y-22693333D01*
X158474523Y-23264761D02*
X158569761Y-23312380D01*
X158760238Y-23312380D01*
X158855476Y-23264761D01*
X158903095Y-23169523D01*
X158903095Y-22788571D01*
X158855476Y-22693333D01*
X158760238Y-22645714D01*
X158569761Y-22645714D01*
X158474523Y-22693333D01*
X158426904Y-22788571D01*
X158426904Y-22883809D01*
X158903095Y-22979047D01*
X157569761Y-23312380D02*
X157569761Y-22312380D01*
X157569761Y-23264761D02*
X157664999Y-23312380D01*
X157855476Y-23312380D01*
X157950714Y-23264761D01*
X157998333Y-23217142D01*
X158045952Y-23121904D01*
X158045952Y-22836190D01*
X157998333Y-22740952D01*
X157950714Y-22693333D01*
X157855476Y-22645714D01*
X157664999Y-22645714D01*
X157569761Y-22693333D01*
X156331666Y-23312380D02*
X156331666Y-22312380D01*
X155760238Y-23312380D01*
X155760238Y-22312380D01*
X155331666Y-23026666D02*
X154855476Y-23026666D01*
X155426904Y-23312380D02*
X155093571Y-22312380D01*
X154760238Y-23312380D01*
X154474523Y-23264761D02*
X154331666Y-23312380D01*
X154093571Y-23312380D01*
X153998333Y-23264761D01*
X153950714Y-23217142D01*
X153903095Y-23121904D01*
X153903095Y-23026666D01*
X153950714Y-22931428D01*
X153998333Y-22883809D01*
X154093571Y-22836190D01*
X154284047Y-22788571D01*
X154379285Y-22740952D01*
X154426904Y-22693333D01*
X154474523Y-22598095D01*
X154474523Y-22502857D01*
X154426904Y-22407619D01*
X154379285Y-22360000D01*
X154284047Y-22312380D01*
X154045952Y-22312380D01*
X153903095Y-22360000D01*
X152903095Y-23217142D02*
X152950714Y-23264761D01*
X153093571Y-23312380D01*
X153188809Y-23312380D01*
X153331666Y-23264761D01*
X153426904Y-23169523D01*
X153474523Y-23074285D01*
X153522142Y-22883809D01*
X153522142Y-22740952D01*
X153474523Y-22550476D01*
X153426904Y-22455238D01*
X153331666Y-22360000D01*
X153188809Y-22312380D01*
X153093571Y-22312380D01*
X152950714Y-22360000D01*
X152903095Y-22407619D01*
X152284047Y-22312380D02*
X152093571Y-22312380D01*
X151998333Y-22360000D01*
X151903095Y-22455238D01*
X151855476Y-22645714D01*
X151855476Y-22979047D01*
X151903095Y-23169523D01*
X151998333Y-23264761D01*
X152093571Y-23312380D01*
X152284047Y-23312380D01*
X152379285Y-23264761D01*
X152474523Y-23169523D01*
X152522142Y-22979047D01*
X152522142Y-22645714D01*
X152474523Y-22455238D01*
X152379285Y-22360000D01*
X152284047Y-22312380D01*
X151426904Y-23312380D02*
X151426904Y-22312380D01*
X151093571Y-23026666D01*
X150760238Y-22312380D01*
X150760238Y-23312380D01*
X149522142Y-23312380D02*
X149522142Y-22645714D01*
X149522142Y-22836190D02*
X149474523Y-22740952D01*
X149426904Y-22693333D01*
X149331666Y-22645714D01*
X149236428Y-22645714D01*
X148522142Y-23264761D02*
X148617380Y-23312380D01*
X148807857Y-23312380D01*
X148903095Y-23264761D01*
X148950714Y-23169523D01*
X148950714Y-22788571D01*
X148903095Y-22693333D01*
X148807857Y-22645714D01*
X148617380Y-22645714D01*
X148522142Y-22693333D01*
X148474523Y-22788571D01*
X148474523Y-22883809D01*
X148950714Y-22979047D01*
X147617380Y-23264761D02*
X147712619Y-23312380D01*
X147903095Y-23312380D01*
X147998333Y-23264761D01*
X148045952Y-23217142D01*
X148093571Y-23121904D01*
X148093571Y-22836190D01*
X148045952Y-22740952D01*
X147998333Y-22693333D01*
X147903095Y-22645714D01*
X147712619Y-22645714D01*
X147617380Y-22693333D01*
X147188809Y-23312380D02*
X147188809Y-22645714D01*
X147188809Y-22836190D02*
X147141190Y-22740952D01*
X147093571Y-22693333D01*
X146998333Y-22645714D01*
X146903095Y-22645714D01*
X146188809Y-23264761D02*
X146284047Y-23312380D01*
X146474523Y-23312380D01*
X146569761Y-23264761D01*
X146617380Y-23169523D01*
X146617380Y-22788571D01*
X146569761Y-22693333D01*
X146474523Y-22645714D01*
X146284047Y-22645714D01*
X146188809Y-22693333D01*
X146141190Y-22788571D01*
X146141190Y-22883809D01*
X146617380Y-22979047D01*
X145284047Y-23312380D02*
X145284047Y-22788571D01*
X145331666Y-22693333D01*
X145426904Y-22645714D01*
X145617380Y-22645714D01*
X145712619Y-22693333D01*
X145284047Y-23264761D02*
X145379285Y-23312380D01*
X145617380Y-23312380D01*
X145712619Y-23264761D01*
X145760238Y-23169523D01*
X145760238Y-23074285D01*
X145712619Y-22979047D01*
X145617380Y-22931428D01*
X145379285Y-22931428D01*
X145284047Y-22883809D01*
X144950714Y-22645714D02*
X144569761Y-22645714D01*
X144807857Y-22312380D02*
X144807857Y-23169523D01*
X144760238Y-23264761D01*
X144664999Y-23312380D01*
X144569761Y-23312380D01*
X144236428Y-23312380D02*
X144236428Y-22645714D01*
X144236428Y-22312380D02*
X144284047Y-22360000D01*
X144236428Y-22407619D01*
X144188809Y-22360000D01*
X144236428Y-22312380D01*
X144236428Y-22407619D01*
X143617380Y-23312380D02*
X143712619Y-23264761D01*
X143760238Y-23217142D01*
X143807857Y-23121904D01*
X143807857Y-22836190D01*
X143760238Y-22740952D01*
X143712619Y-22693333D01*
X143617380Y-22645714D01*
X143474523Y-22645714D01*
X143379285Y-22693333D01*
X143331666Y-22740952D01*
X143284047Y-22836190D01*
X143284047Y-23121904D01*
X143331666Y-23217142D01*
X143379285Y-23264761D01*
X143474523Y-23312380D01*
X143617380Y-23312380D01*
X142855476Y-22645714D02*
X142855476Y-23312380D01*
X142855476Y-22740952D02*
X142807857Y-22693333D01*
X142712619Y-22645714D01*
X142569761Y-22645714D01*
X142474523Y-22693333D01*
X142426904Y-22788571D01*
X142426904Y-23312380D01*
X141284047Y-22645714D02*
X141093571Y-23312380D01*
X140903095Y-22836190D01*
X140712619Y-23312380D01*
X140522142Y-22645714D01*
X140141190Y-23312380D02*
X140141190Y-22645714D01*
X140141190Y-22312380D02*
X140188809Y-22360000D01*
X140141190Y-22407619D01*
X140093571Y-22360000D01*
X140141190Y-22312380D01*
X140141190Y-22407619D01*
X139807857Y-22645714D02*
X139426904Y-22645714D01*
X139664999Y-22312380D02*
X139664999Y-23169523D01*
X139617380Y-23264761D01*
X139522142Y-23312380D01*
X139426904Y-23312380D01*
X139093571Y-23312380D02*
X139093571Y-22312380D01*
X138664999Y-23312380D02*
X138664999Y-22788571D01*
X138712619Y-22693333D01*
X138807857Y-22645714D01*
X138950714Y-22645714D01*
X139045952Y-22693333D01*
X139093571Y-22740952D01*
X137569761Y-22645714D02*
X137188809Y-22645714D01*
X137426904Y-22312380D02*
X137426904Y-23169523D01*
X137379285Y-23264761D01*
X137284047Y-23312380D01*
X137188809Y-23312380D01*
X136855476Y-23312380D02*
X136855476Y-22312380D01*
X136426904Y-23312380D02*
X136426904Y-22788571D01*
X136474523Y-22693333D01*
X136569761Y-22645714D01*
X136712619Y-22645714D01*
X136807857Y-22693333D01*
X136855476Y-22740952D01*
X135569761Y-23264761D02*
X135664999Y-23312380D01*
X135855476Y-23312380D01*
X135950714Y-23264761D01*
X135998333Y-23169523D01*
X135998333Y-22788571D01*
X135950714Y-22693333D01*
X135855476Y-22645714D01*
X135664999Y-22645714D01*
X135569761Y-22693333D01*
X135522142Y-22788571D01*
X135522142Y-22883809D01*
X135998333Y-22979047D01*
X134474523Y-22645714D02*
X134093571Y-22645714D01*
X134331666Y-23312380D02*
X134331666Y-22455238D01*
X134284047Y-22360000D01*
X134188809Y-22312380D01*
X134093571Y-22312380D01*
X133331666Y-22645714D02*
X133331666Y-23312380D01*
X133760238Y-22645714D02*
X133760238Y-23169523D01*
X133712619Y-23264761D01*
X133617380Y-23312380D01*
X133474523Y-23312380D01*
X133379285Y-23264761D01*
X133331666Y-23217142D01*
X132855476Y-22645714D02*
X132855476Y-23312380D01*
X132855476Y-22740952D02*
X132807857Y-22693333D01*
X132712619Y-22645714D01*
X132569761Y-22645714D01*
X132474523Y-22693333D01*
X132426904Y-22788571D01*
X132426904Y-23312380D01*
X131522142Y-23264761D02*
X131617380Y-23312380D01*
X131807857Y-23312380D01*
X131903095Y-23264761D01*
X131950714Y-23217142D01*
X131998333Y-23121904D01*
X131998333Y-22836190D01*
X131950714Y-22740952D01*
X131903095Y-22693333D01*
X131807857Y-22645714D01*
X131617380Y-22645714D01*
X131522142Y-22693333D01*
X131236428Y-22645714D02*
X130855476Y-22645714D01*
X131093571Y-22312380D02*
X131093571Y-23169523D01*
X131045952Y-23264761D01*
X130950714Y-23312380D01*
X130855476Y-23312380D01*
X130522142Y-23312380D02*
X130522142Y-22645714D01*
X130522142Y-22312380D02*
X130569761Y-22360000D01*
X130522142Y-22407619D01*
X130474523Y-22360000D01*
X130522142Y-22312380D01*
X130522142Y-22407619D01*
X129903095Y-23312380D02*
X129998333Y-23264761D01*
X130045952Y-23217142D01*
X130093571Y-23121904D01*
X130093571Y-22836190D01*
X130045952Y-22740952D01*
X129998333Y-22693333D01*
X129903095Y-22645714D01*
X129760238Y-22645714D01*
X129664999Y-22693333D01*
X129617380Y-22740952D01*
X129569761Y-22836190D01*
X129569761Y-23121904D01*
X129617380Y-23217142D01*
X129664999Y-23264761D01*
X129760238Y-23312380D01*
X129903095Y-23312380D01*
X129141190Y-22645714D02*
X129141190Y-23312380D01*
X129141190Y-22740952D02*
X129093571Y-22693333D01*
X128998333Y-22645714D01*
X128855476Y-22645714D01*
X128760238Y-22693333D01*
X128712619Y-22788571D01*
X128712619Y-23312380D01*
X127807857Y-23312380D02*
X127807857Y-22788571D01*
X127855476Y-22693333D01*
X127950714Y-22645714D01*
X128141190Y-22645714D01*
X128236428Y-22693333D01*
X127807857Y-23264761D02*
X127903095Y-23312380D01*
X128141190Y-23312380D01*
X128236428Y-23264761D01*
X128284047Y-23169523D01*
X128284047Y-23074285D01*
X128236428Y-22979047D01*
X128141190Y-22931428D01*
X127903095Y-22931428D01*
X127807857Y-22883809D01*
X127188809Y-23312380D02*
X127284047Y-23264761D01*
X127331666Y-23169523D01*
X127331666Y-22312380D01*
X126807857Y-23312380D02*
X126807857Y-22645714D01*
X126807857Y-22312380D02*
X126855476Y-22360000D01*
X126807857Y-22407619D01*
X126760238Y-22360000D01*
X126807857Y-22312380D01*
X126807857Y-22407619D01*
X126474523Y-22645714D02*
X126093571Y-22645714D01*
X126331666Y-22312380D02*
X126331666Y-23169523D01*
X126284047Y-23264761D01*
X126188809Y-23312380D01*
X126093571Y-23312380D01*
X125855476Y-22645714D02*
X125617380Y-23312380D01*
X125379285Y-22645714D02*
X125617380Y-23312380D01*
X125712619Y-23550476D01*
X125760238Y-23598095D01*
X125855476Y-23645714D01*
X124093571Y-23312380D02*
X124188809Y-23264761D01*
X124236428Y-23217142D01*
X124284047Y-23121904D01*
X124284047Y-22836190D01*
X124236428Y-22740952D01*
X124188809Y-22693333D01*
X124093571Y-22645714D01*
X123950714Y-22645714D01*
X123855476Y-22693333D01*
X123807857Y-22740952D01*
X123760238Y-22836190D01*
X123760238Y-23121904D01*
X123807857Y-23217142D01*
X123855476Y-23264761D01*
X123950714Y-23312380D01*
X124093571Y-23312380D01*
X123474523Y-22645714D02*
X123093571Y-22645714D01*
X123331666Y-23312380D02*
X123331666Y-22455238D01*
X123284047Y-22360000D01*
X123188809Y-22312380D01*
X123093571Y-22312380D01*
X121569761Y-23312380D02*
X121569761Y-22788571D01*
X121617380Y-22693333D01*
X121712619Y-22645714D01*
X121903095Y-22645714D01*
X121998333Y-22693333D01*
X121569761Y-23264761D02*
X121664999Y-23312380D01*
X121903095Y-23312380D01*
X121998333Y-23264761D01*
X122045952Y-23169523D01*
X122045952Y-23074285D01*
X121998333Y-22979047D01*
X121903095Y-22931428D01*
X121664999Y-22931428D01*
X121569761Y-22883809D01*
X119569761Y-23312380D02*
X119569761Y-22312380D01*
X118998333Y-23312380D01*
X118998333Y-22312380D01*
X118569761Y-23026666D02*
X118093571Y-23026666D01*
X118664999Y-23312380D02*
X118331666Y-22312380D01*
X117998333Y-23312380D01*
X117712619Y-23264761D02*
X117569761Y-23312380D01*
X117331666Y-23312380D01*
X117236428Y-23264761D01*
X117188809Y-23217142D01*
X117141190Y-23121904D01*
X117141190Y-23026666D01*
X117188809Y-22931428D01*
X117236428Y-22883809D01*
X117331666Y-22836190D01*
X117522142Y-22788571D01*
X117617380Y-22740952D01*
X117664999Y-22693333D01*
X117712619Y-22598095D01*
X117712619Y-22502857D01*
X117664999Y-22407619D01*
X117617380Y-22360000D01*
X117522142Y-22312380D01*
X117284047Y-22312380D01*
X117141190Y-22360000D01*
X116141190Y-23217142D02*
X116188809Y-23264761D01*
X116331666Y-23312380D01*
X116426904Y-23312380D01*
X116569761Y-23264761D01*
X116664999Y-23169523D01*
X116712619Y-23074285D01*
X116760238Y-22883809D01*
X116760238Y-22740952D01*
X116712619Y-22550476D01*
X116664999Y-22455238D01*
X116569761Y-22360000D01*
X116426904Y-22312380D01*
X116331666Y-22312380D01*
X116188809Y-22360000D01*
X116141190Y-22407619D01*
X115522142Y-22312380D02*
X115331666Y-22312380D01*
X115236428Y-22360000D01*
X115141190Y-22455238D01*
X115093571Y-22645714D01*
X115093571Y-22979047D01*
X115141190Y-23169523D01*
X115236428Y-23264761D01*
X115331666Y-23312380D01*
X115522142Y-23312380D01*
X115617380Y-23264761D01*
X115712619Y-23169523D01*
X115760238Y-22979047D01*
X115760238Y-22645714D01*
X115712619Y-22455238D01*
X115617380Y-22360000D01*
X115522142Y-22312380D01*
X114664999Y-23312380D02*
X114664999Y-22312380D01*
X114331666Y-23026666D01*
X113998333Y-22312380D01*
X113998333Y-23312380D01*
X112807857Y-22407619D02*
X112760238Y-22360000D01*
X112664999Y-22312380D01*
X112426904Y-22312380D01*
X112331666Y-22360000D01*
X112284047Y-22407619D01*
X112236428Y-22502857D01*
X112236428Y-22598095D01*
X112284047Y-22740952D01*
X112855476Y-23312380D01*
X112236428Y-23312380D01*
X110664999Y-23264761D02*
X110760238Y-23312380D01*
X110950714Y-23312380D01*
X111045952Y-23264761D01*
X111093571Y-23169523D01*
X111093571Y-22788571D01*
X111045952Y-22693333D01*
X110950714Y-22645714D01*
X110760238Y-22645714D01*
X110664999Y-22693333D01*
X110617380Y-22788571D01*
X110617380Y-22883809D01*
X111093571Y-22979047D01*
X110284047Y-23312380D02*
X109760238Y-22645714D01*
X110284047Y-22645714D02*
X109760238Y-23312380D01*
X109379285Y-22645714D02*
X109379285Y-23645714D01*
X109379285Y-22693333D02*
X109284047Y-22645714D01*
X109093571Y-22645714D01*
X108998333Y-22693333D01*
X108950714Y-22740952D01*
X108903095Y-22836190D01*
X108903095Y-23121904D01*
X108950714Y-23217142D01*
X108998333Y-23264761D01*
X109093571Y-23312380D01*
X109284047Y-23312380D01*
X109379285Y-23264761D01*
X108045952Y-23312380D02*
X108045952Y-22788571D01*
X108093571Y-22693333D01*
X108188809Y-22645714D01*
X108379285Y-22645714D01*
X108474523Y-22693333D01*
X108045952Y-23264761D02*
X108141190Y-23312380D01*
X108379285Y-23312380D01*
X108474523Y-23264761D01*
X108522142Y-23169523D01*
X108522142Y-23074285D01*
X108474523Y-22979047D01*
X108379285Y-22931428D01*
X108141190Y-22931428D01*
X108045952Y-22883809D01*
X107569761Y-22645714D02*
X107569761Y-23312380D01*
X107569761Y-22740952D02*
X107522142Y-22693333D01*
X107426904Y-22645714D01*
X107284047Y-22645714D01*
X107188809Y-22693333D01*
X107141190Y-22788571D01*
X107141190Y-23312380D01*
X106236428Y-23312380D02*
X106236428Y-22312380D01*
X106236428Y-23264761D02*
X106331666Y-23312380D01*
X106522142Y-23312380D01*
X106617380Y-23264761D01*
X106664999Y-23217142D01*
X106712619Y-23121904D01*
X106712619Y-22836190D01*
X106664999Y-22740952D01*
X106617380Y-22693333D01*
X106522142Y-22645714D01*
X106331666Y-22645714D01*
X106236428Y-22693333D01*
X105379285Y-23264761D02*
X105474523Y-23312380D01*
X105664999Y-23312380D01*
X105760238Y-23264761D01*
X105807857Y-23169523D01*
X105807857Y-22788571D01*
X105760238Y-22693333D01*
X105664999Y-22645714D01*
X105474523Y-22645714D01*
X105379285Y-22693333D01*
X105331666Y-22788571D01*
X105331666Y-22883809D01*
X105807857Y-22979047D01*
X104474523Y-23312380D02*
X104474523Y-22312380D01*
X104474523Y-23264761D02*
X104569761Y-23312380D01*
X104760238Y-23312380D01*
X104855476Y-23264761D01*
X104903095Y-23217142D01*
X104950714Y-23121904D01*
X104950714Y-22836190D01*
X104903095Y-22740952D01*
X104855476Y-22693333D01*
X104760238Y-22645714D01*
X104569761Y-22645714D01*
X104474523Y-22693333D01*
X103331666Y-22645714D02*
X103141190Y-23312380D01*
X102950714Y-22836190D01*
X102760238Y-23312380D01*
X102569761Y-22645714D01*
X102188809Y-23312380D02*
X102188809Y-22645714D01*
X102188809Y-22312380D02*
X102236428Y-22360000D01*
X102188809Y-22407619D01*
X102141190Y-22360000D01*
X102188809Y-22312380D01*
X102188809Y-22407619D01*
X101855476Y-22645714D02*
X101474523Y-22645714D01*
X101712619Y-22312380D02*
X101712619Y-23169523D01*
X101664999Y-23264761D01*
X101569761Y-23312380D01*
X101474523Y-23312380D01*
X101141190Y-23312380D02*
X101141190Y-22312380D01*
X100712619Y-23312380D02*
X100712619Y-22788571D01*
X100760238Y-22693333D01*
X100855476Y-22645714D01*
X100998333Y-22645714D01*
X101093571Y-22693333D01*
X101141190Y-22740952D01*
X98903095Y-23312380D02*
X99236428Y-22836190D01*
X99474523Y-23312380D02*
X99474523Y-22312380D01*
X99093571Y-22312380D01*
X98998333Y-22360000D01*
X98950714Y-22407619D01*
X98903095Y-22502857D01*
X98903095Y-22645714D01*
X98950714Y-22740952D01*
X98998333Y-22788571D01*
X99093571Y-22836190D01*
X99474523Y-22836190D01*
X98522142Y-23026666D02*
X98045952Y-23026666D01*
X98617380Y-23312380D02*
X98284047Y-22312380D01*
X97950714Y-23312380D01*
X97617380Y-23312380D02*
X97617380Y-22312380D01*
X97284047Y-23026666D01*
X96950714Y-22312380D01*
X96950714Y-23312380D01*
X95426904Y-23693333D02*
X95474523Y-23645714D01*
X95569761Y-23502857D01*
X95617380Y-23407619D01*
X95664999Y-23264761D01*
X95712619Y-23026666D01*
X95712619Y-22836190D01*
X95664999Y-22598095D01*
X95617380Y-22455238D01*
X95569761Y-22360000D01*
X95474523Y-22217142D01*
X95426904Y-22169523D01*
X94617380Y-22645714D02*
X94617380Y-23312380D01*
X94855476Y-22264761D02*
X95093571Y-22979047D01*
X94474523Y-22979047D01*
X93331666Y-23312380D02*
X93331666Y-22312380D01*
X92998333Y-23026666D01*
X92664999Y-22312380D01*
X92664999Y-23312380D01*
X92236428Y-23026666D02*
X91760238Y-23026666D01*
X92331666Y-23312380D02*
X91998333Y-22312380D01*
X91664999Y-23312380D01*
X91331666Y-23312380D02*
X91331666Y-22312380D01*
X90950714Y-22312380D01*
X90855476Y-22360000D01*
X90807857Y-22407619D01*
X90760238Y-22502857D01*
X90760238Y-22645714D01*
X90807857Y-22740952D01*
X90855476Y-22788571D01*
X90950714Y-22836190D01*
X91331666Y-22836190D01*
X90188809Y-22740952D02*
X90284047Y-22693333D01*
X90331666Y-22645714D01*
X90379285Y-22550476D01*
X90379285Y-22502857D01*
X90331666Y-22407619D01*
X90284047Y-22360000D01*
X90188809Y-22312380D01*
X89998333Y-22312380D01*
X89903095Y-22360000D01*
X89855476Y-22407619D01*
X89807857Y-22502857D01*
X89807857Y-22550476D01*
X89855476Y-22645714D01*
X89903095Y-22693333D01*
X89998333Y-22740952D01*
X90188809Y-22740952D01*
X90284047Y-22788571D01*
X90331666Y-22836190D01*
X90379285Y-22931428D01*
X90379285Y-23121904D01*
X90331666Y-23217142D01*
X90284047Y-23264761D01*
X90188809Y-23312380D01*
X89998333Y-23312380D01*
X89903095Y-23264761D01*
X89855476Y-23217142D01*
X89807857Y-23121904D01*
X89807857Y-22931428D01*
X89855476Y-22836190D01*
X89903095Y-22788571D01*
X89998333Y-22740952D01*
X89188809Y-22312380D02*
X89093571Y-22312380D01*
X88998333Y-22360000D01*
X88950714Y-22407619D01*
X88903095Y-22502857D01*
X88855476Y-22693333D01*
X88855476Y-22931428D01*
X88903095Y-23121904D01*
X88950714Y-23217142D01*
X88998333Y-23264761D01*
X89093571Y-23312380D01*
X89188809Y-23312380D01*
X89284047Y-23264761D01*
X89331666Y-23217142D01*
X89379285Y-23121904D01*
X89426904Y-22931428D01*
X89426904Y-22693333D01*
X89379285Y-22502857D01*
X89331666Y-22407619D01*
X89284047Y-22360000D01*
X89188809Y-22312380D01*
X87712619Y-22407619D02*
X87664999Y-22360000D01*
X87569761Y-22312380D01*
X87331666Y-22312380D01*
X87236428Y-22360000D01*
X87188809Y-22407619D01*
X87141190Y-22502857D01*
X87141190Y-22598095D01*
X87188809Y-22740952D01*
X87760238Y-23312380D01*
X87141190Y-23312380D01*
X86236428Y-22312380D02*
X86712619Y-22312380D01*
X86760238Y-22788571D01*
X86712619Y-22740952D01*
X86617380Y-22693333D01*
X86379285Y-22693333D01*
X86284047Y-22740952D01*
X86236428Y-22788571D01*
X86188809Y-22883809D01*
X86188809Y-23121904D01*
X86236428Y-23217142D01*
X86284047Y-23264761D01*
X86379285Y-23312380D01*
X86617380Y-23312380D01*
X86712619Y-23264761D01*
X86760238Y-23217142D01*
X85331666Y-22312380D02*
X85522142Y-22312380D01*
X85617380Y-22360000D01*
X85664999Y-22407619D01*
X85760238Y-22550476D01*
X85807857Y-22740952D01*
X85807857Y-23121904D01*
X85760238Y-23217142D01*
X85712619Y-23264761D01*
X85617380Y-23312380D01*
X85426904Y-23312380D01*
X85331666Y-23264761D01*
X85284047Y-23217142D01*
X85236428Y-23121904D01*
X85236428Y-22883809D01*
X85284047Y-22788571D01*
X85331666Y-22740952D01*
X85426904Y-22693333D01*
X85617380Y-22693333D01*
X85712619Y-22740952D01*
X85760238Y-22788571D01*
X85807857Y-22883809D01*
X84807857Y-23312380D02*
X84807857Y-22312380D01*
X84236428Y-23312380D02*
X84664999Y-22740952D01*
X84236428Y-22312380D02*
X84807857Y-22883809D01*
X83045952Y-23312380D02*
X83045952Y-22312380D01*
X83045952Y-22693333D02*
X82950714Y-22645714D01*
X82760238Y-22645714D01*
X82664999Y-22693333D01*
X82617380Y-22740952D01*
X82569761Y-22836190D01*
X82569761Y-23121904D01*
X82617380Y-23217142D01*
X82664999Y-23264761D01*
X82760238Y-23312380D01*
X82950714Y-23312380D01*
X83045952Y-23264761D01*
X81998333Y-23312380D02*
X82093571Y-23264761D01*
X82141190Y-23217142D01*
X82188809Y-23121904D01*
X82188809Y-22836190D01*
X82141190Y-22740952D01*
X82093571Y-22693333D01*
X81998333Y-22645714D01*
X81855476Y-22645714D01*
X81760238Y-22693333D01*
X81712619Y-22740952D01*
X81664999Y-22836190D01*
X81664999Y-23121904D01*
X81712619Y-23217142D01*
X81760238Y-23264761D01*
X81855476Y-23312380D01*
X81998333Y-23312380D01*
X80807857Y-23312380D02*
X80807857Y-22788571D01*
X80855476Y-22693333D01*
X80950714Y-22645714D01*
X81141190Y-22645714D01*
X81236428Y-22693333D01*
X80807857Y-23264761D02*
X80903095Y-23312380D01*
X81141190Y-23312380D01*
X81236428Y-23264761D01*
X81284047Y-23169523D01*
X81284047Y-23074285D01*
X81236428Y-22979047D01*
X81141190Y-22931428D01*
X80903095Y-22931428D01*
X80807857Y-22883809D01*
X80331666Y-23312380D02*
X80331666Y-22645714D01*
X80331666Y-22836190D02*
X80284047Y-22740952D01*
X80236428Y-22693333D01*
X80141190Y-22645714D01*
X80045952Y-22645714D01*
X79284047Y-23312380D02*
X79284047Y-22312380D01*
X79284047Y-23264761D02*
X79379285Y-23312380D01*
X79569761Y-23312380D01*
X79664999Y-23264761D01*
X79712619Y-23217142D01*
X79760238Y-23121904D01*
X79760238Y-22836190D01*
X79712619Y-22740952D01*
X79664999Y-22693333D01*
X79569761Y-22645714D01*
X79379285Y-22645714D01*
X79284047Y-22693333D01*
X78855476Y-23264761D02*
X78760238Y-23312380D01*
X78569761Y-23312380D01*
X78474523Y-23264761D01*
X78426904Y-23169523D01*
X78426904Y-23121904D01*
X78474523Y-23026666D01*
X78569761Y-22979047D01*
X78712619Y-22979047D01*
X78807857Y-22931428D01*
X78855476Y-22836190D01*
X78855476Y-22788571D01*
X78807857Y-22693333D01*
X78712619Y-22645714D01*
X78569761Y-22645714D01*
X78474523Y-22693333D01*
X78093571Y-23693333D02*
X78045952Y-23645714D01*
X77950714Y-23502857D01*
X77903095Y-23407619D01*
X77855476Y-23264761D01*
X77807857Y-23026666D01*
X77807857Y-22836190D01*
X77855476Y-22598095D01*
X77903095Y-22455238D01*
X77950714Y-22360000D01*
X78045952Y-22217142D01*
X78093571Y-22169523D01*
X77284047Y-23264761D02*
X77284047Y-23312380D01*
X77331666Y-23407619D01*
X77379285Y-23455238D01*
X75664999Y-23312380D02*
X75664999Y-22312380D01*
X75664999Y-23264761D02*
X75760238Y-23312380D01*
X75950714Y-23312380D01*
X76045952Y-23264761D01*
X76093571Y-23217142D01*
X76141190Y-23121904D01*
X76141190Y-22836190D01*
X76093571Y-22740952D01*
X76045952Y-22693333D01*
X75950714Y-22645714D01*
X75760238Y-22645714D01*
X75664999Y-22693333D01*
X75188809Y-23312380D02*
X75188809Y-22645714D01*
X75188809Y-22312380D02*
X75236428Y-22360000D01*
X75188809Y-22407619D01*
X75141190Y-22360000D01*
X75188809Y-22312380D01*
X75188809Y-22407619D01*
X74760238Y-23264761D02*
X74664999Y-23312380D01*
X74474523Y-23312380D01*
X74379285Y-23264761D01*
X74331666Y-23169523D01*
X74331666Y-23121904D01*
X74379285Y-23026666D01*
X74474523Y-22979047D01*
X74617380Y-22979047D01*
X74712619Y-22931428D01*
X74760238Y-22836190D01*
X74760238Y-22788571D01*
X74712619Y-22693333D01*
X74617380Y-22645714D01*
X74474523Y-22645714D01*
X74379285Y-22693333D01*
X73903095Y-23312380D02*
X73903095Y-22312380D01*
X73807857Y-22931428D02*
X73522142Y-23312380D01*
X73522142Y-22645714D02*
X73903095Y-23026666D01*
X73141190Y-23264761D02*
X73045952Y-23312380D01*
X72855476Y-23312380D01*
X72760238Y-23264761D01*
X72712619Y-23169523D01*
X72712619Y-23121904D01*
X72760238Y-23026666D01*
X72855476Y-22979047D01*
X72998333Y-22979047D01*
X73093571Y-22931428D01*
X73141190Y-22836190D01*
X73141190Y-22788571D01*
X73093571Y-22693333D01*
X72998333Y-22645714D01*
X72855476Y-22645714D01*
X72760238Y-22693333D01*
X71093571Y-23312380D02*
X71093571Y-22788571D01*
X71141190Y-22693333D01*
X71236428Y-22645714D01*
X71426904Y-22645714D01*
X71522142Y-22693333D01*
X71093571Y-23264761D02*
X71188809Y-23312380D01*
X71426904Y-23312380D01*
X71522142Y-23264761D01*
X71569761Y-23169523D01*
X71569761Y-23074285D01*
X71522142Y-22979047D01*
X71426904Y-22931428D01*
X71188809Y-22931428D01*
X71093571Y-22883809D01*
X70617380Y-22645714D02*
X70617380Y-23312380D01*
X70617380Y-22740952D02*
X70569761Y-22693333D01*
X70474523Y-22645714D01*
X70331666Y-22645714D01*
X70236428Y-22693333D01*
X70188809Y-22788571D01*
X70188809Y-23312380D01*
X69284047Y-23312380D02*
X69284047Y-22312380D01*
X69284047Y-23264761D02*
X69379285Y-23312380D01*
X69569761Y-23312380D01*
X69664999Y-23264761D01*
X69712619Y-23217142D01*
X69760238Y-23121904D01*
X69760238Y-22836190D01*
X69712619Y-22740952D01*
X69664999Y-22693333D01*
X69569761Y-22645714D01*
X69379285Y-22645714D01*
X69284047Y-22693333D01*
X67903095Y-22740952D02*
X67998333Y-22693333D01*
X68045952Y-22645714D01*
X68093571Y-22550476D01*
X68093571Y-22502857D01*
X68045952Y-22407619D01*
X67998333Y-22360000D01*
X67903095Y-22312380D01*
X67712619Y-22312380D01*
X67617380Y-22360000D01*
X67569761Y-22407619D01*
X67522142Y-22502857D01*
X67522142Y-22550476D01*
X67569761Y-22645714D01*
X67617380Y-22693333D01*
X67712619Y-22740952D01*
X67903095Y-22740952D01*
X67998333Y-22788571D01*
X68045952Y-22836190D01*
X68093571Y-22931428D01*
X68093571Y-23121904D01*
X68045952Y-23217142D01*
X67998333Y-23264761D01*
X67903095Y-23312380D01*
X67712619Y-23312380D01*
X67617380Y-23264761D01*
X67569761Y-23217142D01*
X67522142Y-23121904D01*
X67522142Y-22931428D01*
X67569761Y-22836190D01*
X67617380Y-22788571D01*
X67712619Y-22740952D01*
X66903095Y-22312380D02*
X66807857Y-22312380D01*
X66712619Y-22360000D01*
X66664999Y-22407619D01*
X66617380Y-22502857D01*
X66569761Y-22693333D01*
X66569761Y-22931428D01*
X66617380Y-23121904D01*
X66664999Y-23217142D01*
X66712619Y-23264761D01*
X66807857Y-23312380D01*
X66903095Y-23312380D01*
X66998333Y-23264761D01*
X67045952Y-23217142D01*
X67093571Y-23121904D01*
X67141190Y-22931428D01*
X67141190Y-22693333D01*
X67093571Y-22502857D01*
X67045952Y-22407619D01*
X66998333Y-22360000D01*
X66903095Y-22312380D01*
X66141190Y-22931428D02*
X65379285Y-22931428D01*
X64474523Y-23264761D02*
X64569761Y-23312380D01*
X64760238Y-23312380D01*
X64855476Y-23264761D01*
X64903095Y-23217142D01*
X64950714Y-23121904D01*
X64950714Y-22836190D01*
X64903095Y-22740952D01*
X64855476Y-22693333D01*
X64760238Y-22645714D01*
X64569761Y-22645714D01*
X64474523Y-22693333D01*
X63903095Y-23312380D02*
X63998333Y-23264761D01*
X64045952Y-23217142D01*
X64093571Y-23121904D01*
X64093571Y-22836190D01*
X64045952Y-22740952D01*
X63998333Y-22693333D01*
X63903095Y-22645714D01*
X63760238Y-22645714D01*
X63664999Y-22693333D01*
X63617380Y-22740952D01*
X63569761Y-22836190D01*
X63569761Y-23121904D01*
X63617380Y-23217142D01*
X63664999Y-23264761D01*
X63760238Y-23312380D01*
X63903095Y-23312380D01*
X62998333Y-23312380D02*
X63093571Y-23264761D01*
X63141190Y-23169523D01*
X63141190Y-22312380D01*
X61950714Y-22645714D02*
X61712619Y-23312380D01*
X61474523Y-22645714D01*
X61093571Y-23312380D02*
X61093571Y-22645714D01*
X61093571Y-22312380D02*
X61141190Y-22360000D01*
X61093571Y-22407619D01*
X61045952Y-22360000D01*
X61093571Y-22312380D01*
X61093571Y-22407619D01*
X60188809Y-23312380D02*
X60188809Y-22312380D01*
X60188809Y-23264761D02*
X60284047Y-23312380D01*
X60474523Y-23312380D01*
X60569761Y-23264761D01*
X60617380Y-23217142D01*
X60664999Y-23121904D01*
X60664999Y-22836190D01*
X60617380Y-22740952D01*
X60569761Y-22693333D01*
X60474523Y-22645714D01*
X60284047Y-22645714D01*
X60188809Y-22693333D01*
X59331666Y-23264761D02*
X59426904Y-23312380D01*
X59617380Y-23312380D01*
X59712619Y-23264761D01*
X59760238Y-23169523D01*
X59760238Y-22788571D01*
X59712619Y-22693333D01*
X59617380Y-22645714D01*
X59426904Y-22645714D01*
X59331666Y-22693333D01*
X59284047Y-22788571D01*
X59284047Y-22883809D01*
X59760238Y-22979047D01*
X58712619Y-23312380D02*
X58807857Y-23264761D01*
X58855476Y-23217142D01*
X58903095Y-23121904D01*
X58903095Y-22836190D01*
X58855476Y-22740952D01*
X58807857Y-22693333D01*
X58712619Y-22645714D01*
X58569761Y-22645714D01*
X58474523Y-22693333D01*
X58426904Y-22740952D01*
X58379285Y-22836190D01*
X58379285Y-23121904D01*
X58426904Y-23217142D01*
X58474523Y-23264761D01*
X58569761Y-23312380D01*
X58712619Y-23312380D01*
X56903095Y-23693333D02*
X56950714Y-23645714D01*
X57045952Y-23502857D01*
X57093571Y-23407619D01*
X57141190Y-23264761D01*
X57188809Y-23026666D01*
X57188809Y-22836190D01*
X57141190Y-22598095D01*
X57093571Y-22455238D01*
X57045952Y-22360000D01*
X56950714Y-22217142D01*
X56903095Y-22169523D01*
X56093571Y-23312380D02*
X56093571Y-22788571D01*
X56141190Y-22693333D01*
X56236428Y-22645714D01*
X56426904Y-22645714D01*
X56522142Y-22693333D01*
X56093571Y-23264761D02*
X56188809Y-23312380D01*
X56426904Y-23312380D01*
X56522142Y-23264761D01*
X56569761Y-23169523D01*
X56569761Y-23074285D01*
X56522142Y-22979047D01*
X56426904Y-22931428D01*
X56188809Y-22931428D01*
X56093571Y-22883809D01*
X54855476Y-23312380D02*
X54855476Y-22312380D01*
X54522142Y-23026666D01*
X54188809Y-22312380D01*
X54188809Y-23312380D01*
X53760238Y-23026666D02*
X53284047Y-23026666D01*
X53855476Y-23312380D02*
X53522142Y-22312380D01*
X53188809Y-23312380D01*
X52855476Y-23312380D02*
X52855476Y-22312380D01*
X52474523Y-22312380D01*
X52379285Y-22360000D01*
X52331666Y-22407619D01*
X52284047Y-22502857D01*
X52284047Y-22645714D01*
X52331666Y-22740952D01*
X52379285Y-22788571D01*
X52474523Y-22836190D01*
X52855476Y-22836190D01*
X51712619Y-22740952D02*
X51807857Y-22693333D01*
X51855476Y-22645714D01*
X51903095Y-22550476D01*
X51903095Y-22502857D01*
X51855476Y-22407619D01*
X51807857Y-22360000D01*
X51712619Y-22312380D01*
X51522142Y-22312380D01*
X51426904Y-22360000D01*
X51379285Y-22407619D01*
X51331666Y-22502857D01*
X51331666Y-22550476D01*
X51379285Y-22645714D01*
X51426904Y-22693333D01*
X51522142Y-22740952D01*
X51712619Y-22740952D01*
X51807857Y-22788571D01*
X51855476Y-22836190D01*
X51903095Y-22931428D01*
X51903095Y-23121904D01*
X51855476Y-23217142D01*
X51807857Y-23264761D01*
X51712619Y-23312380D01*
X51522142Y-23312380D01*
X51426904Y-23264761D01*
X51379285Y-23217142D01*
X51331666Y-23121904D01*
X51331666Y-22931428D01*
X51379285Y-22836190D01*
X51426904Y-22788571D01*
X51522142Y-22740952D01*
X50712619Y-22312380D02*
X50617380Y-22312380D01*
X50522142Y-22360000D01*
X50474523Y-22407619D01*
X50426904Y-22502857D01*
X50379285Y-22693333D01*
X50379285Y-22931428D01*
X50426904Y-23121904D01*
X50474523Y-23217142D01*
X50522142Y-23264761D01*
X50617380Y-23312380D01*
X50712619Y-23312380D01*
X50807857Y-23264761D01*
X50855476Y-23217142D01*
X50903095Y-23121904D01*
X50950714Y-22931428D01*
X50950714Y-22693333D01*
X50903095Y-22502857D01*
X50855476Y-22407619D01*
X50807857Y-22360000D01*
X50712619Y-22312380D01*
X49331666Y-22312380D02*
X48998333Y-23312380D01*
X48664999Y-22312380D01*
X47998333Y-22788571D02*
X48331666Y-22788571D01*
X48331666Y-23312380D02*
X48331666Y-22312380D01*
X47855476Y-22312380D01*
X46903095Y-23217142D02*
X46950714Y-23264761D01*
X47093571Y-23312380D01*
X47188809Y-23312380D01*
X47331666Y-23264761D01*
X47426904Y-23169523D01*
X47474523Y-23074285D01*
X47522142Y-22883809D01*
X47522142Y-22740952D01*
X47474523Y-22550476D01*
X47426904Y-22455238D01*
X47331666Y-22360000D01*
X47188809Y-22312380D01*
X47093571Y-22312380D01*
X46950714Y-22360000D01*
X46903095Y-22407619D01*
X46569761Y-23693333D02*
X46522142Y-23645714D01*
X46426904Y-23502857D01*
X46379285Y-23407619D01*
X46331666Y-23264761D01*
X46284047Y-23026666D01*
X46284047Y-22836190D01*
X46331666Y-22598095D01*
X46379285Y-22455238D01*
X46426904Y-22360000D01*
X46522142Y-22217142D01*
X46569761Y-22169523D01*
X146717142Y-85147380D02*
X146240952Y-85147380D01*
X146193333Y-85623571D01*
X146240952Y-85575952D01*
X146336190Y-85528333D01*
X146574285Y-85528333D01*
X146669523Y-85575952D01*
X146717142Y-85623571D01*
X146764761Y-85718809D01*
X146764761Y-85956904D01*
X146717142Y-86052142D01*
X146669523Y-86099761D01*
X146574285Y-86147380D01*
X146336190Y-86147380D01*
X146240952Y-86099761D01*
X146193333Y-86052142D01*
X147193333Y-86052142D02*
X147240952Y-86099761D01*
X147193333Y-86147380D01*
X147145714Y-86099761D01*
X147193333Y-86052142D01*
X147193333Y-86147380D01*
X147860000Y-85147380D02*
X147955238Y-85147380D01*
X148050476Y-85195000D01*
X148098095Y-85242619D01*
X148145714Y-85337857D01*
X148193333Y-85528333D01*
X148193333Y-85766428D01*
X148145714Y-85956904D01*
X148098095Y-86052142D01*
X148050476Y-86099761D01*
X147955238Y-86147380D01*
X147860000Y-86147380D01*
X147764761Y-86099761D01*
X147717142Y-86052142D01*
X147669523Y-85956904D01*
X147621904Y-85766428D01*
X147621904Y-85528333D01*
X147669523Y-85337857D01*
X147717142Y-85242619D01*
X147764761Y-85195000D01*
X147860000Y-85147380D01*
X148764761Y-85575952D02*
X148669523Y-85528333D01*
X148621904Y-85480714D01*
X148574285Y-85385476D01*
X148574285Y-85337857D01*
X148621904Y-85242619D01*
X148669523Y-85195000D01*
X148764761Y-85147380D01*
X148955238Y-85147380D01*
X149050476Y-85195000D01*
X149098095Y-85242619D01*
X149145714Y-85337857D01*
X149145714Y-85385476D01*
X149098095Y-85480714D01*
X149050476Y-85528333D01*
X148955238Y-85575952D01*
X148764761Y-85575952D01*
X148669523Y-85623571D01*
X148621904Y-85671190D01*
X148574285Y-85766428D01*
X148574285Y-85956904D01*
X148621904Y-86052142D01*
X148669523Y-86099761D01*
X148764761Y-86147380D01*
X148955238Y-86147380D01*
X149050476Y-86099761D01*
X149098095Y-86052142D01*
X149145714Y-85956904D01*
X149145714Y-85766428D01*
X149098095Y-85671190D01*
X149050476Y-85623571D01*
X148955238Y-85575952D01*
X149764761Y-85147380D02*
X149860000Y-85147380D01*
X149955238Y-85195000D01*
X150002857Y-85242619D01*
X150050476Y-85337857D01*
X150098095Y-85528333D01*
X150098095Y-85766428D01*
X150050476Y-85956904D01*
X150002857Y-86052142D01*
X149955238Y-86099761D01*
X149860000Y-86147380D01*
X149764761Y-86147380D01*
X149669523Y-86099761D01*
X149621904Y-86052142D01*
X149574285Y-85956904D01*
X149526666Y-85766428D01*
X149526666Y-85528333D01*
X149574285Y-85337857D01*
X149621904Y-85242619D01*
X149669523Y-85195000D01*
X149764761Y-85147380D01*
X151288571Y-86147380D02*
X151288571Y-85480714D01*
X151288571Y-85575952D02*
X151336190Y-85528333D01*
X151431428Y-85480714D01*
X151574285Y-85480714D01*
X151669523Y-85528333D01*
X151717142Y-85623571D01*
X151717142Y-86147380D01*
X151717142Y-85623571D02*
X151764761Y-85528333D01*
X151860000Y-85480714D01*
X152002857Y-85480714D01*
X152098095Y-85528333D01*
X152145714Y-85623571D01*
X152145714Y-86147380D01*
X152621904Y-86147380D02*
X152621904Y-85480714D01*
X152621904Y-85575952D02*
X152669523Y-85528333D01*
X152764761Y-85480714D01*
X152907619Y-85480714D01*
X153002857Y-85528333D01*
X153050476Y-85623571D01*
X153050476Y-86147380D01*
X153050476Y-85623571D02*
X153098095Y-85528333D01*
X153193333Y-85480714D01*
X153336190Y-85480714D01*
X153431428Y-85528333D01*
X153479047Y-85623571D01*
X153479047Y-86147380D01*
X147320000Y-86995000D02*
X152400000Y-86995000D01*
X147320000Y-87630000D02*
X147320000Y-86408579D01*
X152400000Y-87630000D02*
X152400000Y-86408579D01*
X152400000Y-86995000D02*
X151273496Y-87581421D01*
X152400000Y-86995000D02*
X151273496Y-86408579D01*
X147320000Y-86995000D02*
X148446504Y-87581421D01*
X147320000Y-86995000D02*
X148446504Y-86408579D01*
X140392380Y-97122857D02*
X140392380Y-97599047D01*
X140868571Y-97646666D01*
X140820952Y-97599047D01*
X140773333Y-97503809D01*
X140773333Y-97265714D01*
X140820952Y-97170476D01*
X140868571Y-97122857D01*
X140963809Y-97075238D01*
X141201904Y-97075238D01*
X141297142Y-97122857D01*
X141344761Y-97170476D01*
X141392380Y-97265714D01*
X141392380Y-97503809D01*
X141344761Y-97599047D01*
X141297142Y-97646666D01*
X141297142Y-96646666D02*
X141344761Y-96599047D01*
X141392380Y-96646666D01*
X141344761Y-96694285D01*
X141297142Y-96646666D01*
X141392380Y-96646666D01*
X140392380Y-95980000D02*
X140392380Y-95884761D01*
X140440000Y-95789523D01*
X140487619Y-95741904D01*
X140582857Y-95694285D01*
X140773333Y-95646666D01*
X141011428Y-95646666D01*
X141201904Y-95694285D01*
X141297142Y-95741904D01*
X141344761Y-95789523D01*
X141392380Y-95884761D01*
X141392380Y-95980000D01*
X141344761Y-96075238D01*
X141297142Y-96122857D01*
X141201904Y-96170476D01*
X141011428Y-96218095D01*
X140773333Y-96218095D01*
X140582857Y-96170476D01*
X140487619Y-96122857D01*
X140440000Y-96075238D01*
X140392380Y-95980000D01*
X140820952Y-95075238D02*
X140773333Y-95170476D01*
X140725714Y-95218095D01*
X140630476Y-95265714D01*
X140582857Y-95265714D01*
X140487619Y-95218095D01*
X140440000Y-95170476D01*
X140392380Y-95075238D01*
X140392380Y-94884761D01*
X140440000Y-94789523D01*
X140487619Y-94741904D01*
X140582857Y-94694285D01*
X140630476Y-94694285D01*
X140725714Y-94741904D01*
X140773333Y-94789523D01*
X140820952Y-94884761D01*
X140820952Y-95075238D01*
X140868571Y-95170476D01*
X140916190Y-95218095D01*
X141011428Y-95265714D01*
X141201904Y-95265714D01*
X141297142Y-95218095D01*
X141344761Y-95170476D01*
X141392380Y-95075238D01*
X141392380Y-94884761D01*
X141344761Y-94789523D01*
X141297142Y-94741904D01*
X141201904Y-94694285D01*
X141011428Y-94694285D01*
X140916190Y-94741904D01*
X140868571Y-94789523D01*
X140820952Y-94884761D01*
X140392380Y-94075238D02*
X140392380Y-93980000D01*
X140440000Y-93884761D01*
X140487619Y-93837142D01*
X140582857Y-93789523D01*
X140773333Y-93741904D01*
X141011428Y-93741904D01*
X141201904Y-93789523D01*
X141297142Y-93837142D01*
X141344761Y-93884761D01*
X141392380Y-93980000D01*
X141392380Y-94075238D01*
X141344761Y-94170476D01*
X141297142Y-94218095D01*
X141201904Y-94265714D01*
X141011428Y-94313333D01*
X140773333Y-94313333D01*
X140582857Y-94265714D01*
X140487619Y-94218095D01*
X140440000Y-94170476D01*
X140392380Y-94075238D01*
X141392380Y-92551428D02*
X140725714Y-92551428D01*
X140820952Y-92551428D02*
X140773333Y-92503809D01*
X140725714Y-92408571D01*
X140725714Y-92265714D01*
X140773333Y-92170476D01*
X140868571Y-92122857D01*
X141392380Y-92122857D01*
X140868571Y-92122857D02*
X140773333Y-92075238D01*
X140725714Y-91980000D01*
X140725714Y-91837142D01*
X140773333Y-91741904D01*
X140868571Y-91694285D01*
X141392380Y-91694285D01*
X141392380Y-91218095D02*
X140725714Y-91218095D01*
X140820952Y-91218095D02*
X140773333Y-91170476D01*
X140725714Y-91075238D01*
X140725714Y-90932380D01*
X140773333Y-90837142D01*
X140868571Y-90789523D01*
X141392380Y-90789523D01*
X140868571Y-90789523D02*
X140773333Y-90741904D01*
X140725714Y-90646666D01*
X140725714Y-90503809D01*
X140773333Y-90408571D01*
X140868571Y-90360952D01*
X141392380Y-90360952D01*
X142240000Y-96520000D02*
X142240000Y-91440000D01*
X143510000Y-96520000D02*
X141653579Y-96520000D01*
X143510000Y-91440000D02*
X141653579Y-91440000D01*
X142240000Y-91440000D02*
X142826421Y-92566504D01*
X142240000Y-91440000D02*
X141653579Y-92566504D01*
X142240000Y-96520000D02*
X142826421Y-95393496D01*
X142240000Y-96520000D02*
X141653579Y-95393496D01*
%TO.C,J19*%
X184420000Y-164880000D02*
X171720000Y-164880000D01*
X171720000Y-164880000D02*
X171720000Y-150910000D01*
X171720000Y-150910000D02*
X181880000Y-150910000D01*
X181880000Y-150910000D02*
X181880000Y-157260000D01*
X181880000Y-157260000D02*
X183150000Y-158530000D01*
X183150000Y-158530000D02*
X181880000Y-159800000D01*
X181880000Y-159800000D02*
X184420000Y-161070000D01*
X184420000Y-161070000D02*
X184420000Y-164880000D01*
X187960000Y-165100000D02*
X187960000Y-147320000D01*
X187960000Y-147320000D02*
X170180000Y-147320000D01*
X170180000Y-147320000D02*
X170180000Y-165100000D01*
X170180000Y-165100000D02*
X187960000Y-165100000D01*
X178522380Y-158480595D02*
X177522380Y-158480595D01*
X178236666Y-158813928D01*
X177522380Y-159147261D01*
X178522380Y-159147261D01*
X178522380Y-159623452D02*
X177855714Y-159623452D01*
X177522380Y-159623452D02*
X177570000Y-159575833D01*
X177617619Y-159623452D01*
X177570000Y-159671071D01*
X177522380Y-159623452D01*
X177617619Y-159623452D01*
X178474761Y-160528214D02*
X178522380Y-160432976D01*
X178522380Y-160242500D01*
X178474761Y-160147261D01*
X178427142Y-160099642D01*
X178331904Y-160052023D01*
X178046190Y-160052023D01*
X177950952Y-160099642D01*
X177903333Y-160147261D01*
X177855714Y-160242500D01*
X177855714Y-160432976D01*
X177903333Y-160528214D01*
X178522380Y-160956785D02*
X177855714Y-160956785D01*
X178046190Y-160956785D02*
X177950952Y-161004404D01*
X177903333Y-161052023D01*
X177855714Y-161147261D01*
X177855714Y-161242500D01*
X178522380Y-161718690D02*
X178474761Y-161623452D01*
X178427142Y-161575833D01*
X178331904Y-161528214D01*
X178046190Y-161528214D01*
X177950952Y-161575833D01*
X177903333Y-161623452D01*
X177855714Y-161718690D01*
X177855714Y-161861547D01*
X177903333Y-161956785D01*
X177950952Y-162004404D01*
X178046190Y-162052023D01*
X178331904Y-162052023D01*
X178427142Y-162004404D01*
X178474761Y-161956785D01*
X178522380Y-161861547D01*
X178522380Y-161718690D01*
X175934761Y-160480595D02*
X175982380Y-160623452D01*
X175982380Y-160861547D01*
X175934761Y-160956785D01*
X175887142Y-161004404D01*
X175791904Y-161052023D01*
X175696666Y-161052023D01*
X175601428Y-161004404D01*
X175553809Y-160956785D01*
X175506190Y-160861547D01*
X175458571Y-160671071D01*
X175410952Y-160575833D01*
X175363333Y-160528214D01*
X175268095Y-160480595D01*
X175172857Y-160480595D01*
X175077619Y-160528214D01*
X175030000Y-160575833D01*
X174982380Y-160671071D01*
X174982380Y-160909166D01*
X175030000Y-161052023D01*
X175982380Y-161480595D02*
X174982380Y-161480595D01*
X174982380Y-161718690D01*
X175030000Y-161861547D01*
X175125238Y-161956785D01*
X175220476Y-162004404D01*
X175410952Y-162052023D01*
X175553809Y-162052023D01*
X175744285Y-162004404D01*
X175839523Y-161956785D01*
X175934761Y-161861547D01*
X175982380Y-161718690D01*
X175982380Y-161480595D01*
X184872380Y-152223452D02*
X184872380Y-152842500D01*
X185253333Y-152509166D01*
X185253333Y-152652023D01*
X185300952Y-152747261D01*
X185348571Y-152794880D01*
X185443809Y-152842500D01*
X185681904Y-152842500D01*
X185777142Y-152794880D01*
X185824761Y-152747261D01*
X185872380Y-152652023D01*
X185872380Y-152366309D01*
X185824761Y-152271071D01*
X185777142Y-152223452D01*
X184872380Y-153128214D02*
X185872380Y-153461547D01*
X184872380Y-153794880D01*
X184872380Y-154032976D02*
X184872380Y-154652023D01*
X185253333Y-154318690D01*
X185253333Y-154461547D01*
X185300952Y-154556785D01*
X185348571Y-154604404D01*
X185443809Y-154652023D01*
X185681904Y-154652023D01*
X185777142Y-154604404D01*
X185824761Y-154556785D01*
X185872380Y-154461547D01*
X185872380Y-154175833D01*
X185824761Y-154080595D01*
X185777142Y-154032976D01*
X183237142Y-151890119D02*
X183284761Y-151842500D01*
X183332380Y-151699642D01*
X183332380Y-151604404D01*
X183284761Y-151461547D01*
X183189523Y-151366309D01*
X183094285Y-151318690D01*
X182903809Y-151271071D01*
X182760952Y-151271071D01*
X182570476Y-151318690D01*
X182475238Y-151366309D01*
X182380000Y-151461547D01*
X182332380Y-151604404D01*
X182332380Y-151699642D01*
X182380000Y-151842500D01*
X182427619Y-151890119D01*
X183284761Y-152271071D02*
X183332380Y-152413928D01*
X183332380Y-152652023D01*
X183284761Y-152747261D01*
X183237142Y-152794880D01*
X183141904Y-152842500D01*
X183046666Y-152842500D01*
X182951428Y-152794880D01*
X182903809Y-152747261D01*
X182856190Y-152652023D01*
X182808571Y-152461547D01*
X182760952Y-152366309D01*
X182713333Y-152318690D01*
X182618095Y-152271071D01*
X182522857Y-152271071D01*
X182427619Y-152318690D01*
X182380000Y-152366309D01*
X182332380Y-152461547D01*
X182332380Y-152699642D01*
X182380000Y-152842500D01*
X183427619Y-153032976D02*
X183427619Y-153794880D01*
X183332380Y-154032976D02*
X182332380Y-154032976D01*
X183332380Y-154604404D01*
X182332380Y-154604404D01*
X180792380Y-151461547D02*
X179792380Y-151461547D01*
X180506666Y-151794880D01*
X179792380Y-152128214D01*
X180792380Y-152128214D01*
X179792380Y-152794880D02*
X179792380Y-152985357D01*
X179840000Y-153080595D01*
X179935238Y-153175833D01*
X180125714Y-153223452D01*
X180459047Y-153223452D01*
X180649523Y-153175833D01*
X180744761Y-153080595D01*
X180792380Y-152985357D01*
X180792380Y-152794880D01*
X180744761Y-152699642D01*
X180649523Y-152604404D01*
X180459047Y-152556785D01*
X180125714Y-152556785D01*
X179935238Y-152604404D01*
X179840000Y-152699642D01*
X179792380Y-152794880D01*
X180744761Y-153604404D02*
X180792380Y-153747261D01*
X180792380Y-153985357D01*
X180744761Y-154080595D01*
X180697142Y-154128214D01*
X180601904Y-154175833D01*
X180506666Y-154175833D01*
X180411428Y-154128214D01*
X180363809Y-154080595D01*
X180316190Y-153985357D01*
X180268571Y-153794880D01*
X180220952Y-153699642D01*
X180173333Y-153652023D01*
X180078095Y-153604404D01*
X179982857Y-153604404D01*
X179887619Y-153652023D01*
X179840000Y-153699642D01*
X179792380Y-153794880D01*
X179792380Y-154032976D01*
X179840000Y-154175833D01*
X180792380Y-154604404D02*
X179792380Y-154604404D01*
X178204761Y-151271071D02*
X178252380Y-151413928D01*
X178252380Y-151652023D01*
X178204761Y-151747261D01*
X178157142Y-151794880D01*
X178061904Y-151842500D01*
X177966666Y-151842500D01*
X177871428Y-151794880D01*
X177823809Y-151747261D01*
X177776190Y-151652023D01*
X177728571Y-151461547D01*
X177680952Y-151366309D01*
X177633333Y-151318690D01*
X177538095Y-151271071D01*
X177442857Y-151271071D01*
X177347619Y-151318690D01*
X177300000Y-151366309D01*
X177252380Y-151461547D01*
X177252380Y-151699642D01*
X177300000Y-151842500D01*
X178157142Y-152842500D02*
X178204761Y-152794880D01*
X178252380Y-152652023D01*
X178252380Y-152556785D01*
X178204761Y-152413928D01*
X178109523Y-152318690D01*
X178014285Y-152271071D01*
X177823809Y-152223452D01*
X177680952Y-152223452D01*
X177490476Y-152271071D01*
X177395238Y-152318690D01*
X177300000Y-152413928D01*
X177252380Y-152556785D01*
X177252380Y-152652023D01*
X177300000Y-152794880D01*
X177347619Y-152842500D01*
X178252380Y-153747261D02*
X178252380Y-153271071D01*
X177252380Y-153271071D01*
X178252380Y-154080595D02*
X177252380Y-154080595D01*
X178252380Y-154652023D02*
X177680952Y-154223452D01*
X177252380Y-154652023D02*
X177823809Y-154080595D01*
X175712380Y-151461547D02*
X174712380Y-151461547D01*
X175426666Y-151794880D01*
X174712380Y-152128214D01*
X175712380Y-152128214D01*
X175712380Y-152604404D02*
X174712380Y-152604404D01*
X175664761Y-153032976D02*
X175712380Y-153175833D01*
X175712380Y-153413928D01*
X175664761Y-153509166D01*
X175617142Y-153556785D01*
X175521904Y-153604404D01*
X175426666Y-153604404D01*
X175331428Y-153556785D01*
X175283809Y-153509166D01*
X175236190Y-153413928D01*
X175188571Y-153223452D01*
X175140952Y-153128214D01*
X175093333Y-153080595D01*
X174998095Y-153032976D01*
X174902857Y-153032976D01*
X174807619Y-153080595D01*
X174760000Y-153128214D01*
X174712380Y-153223452D01*
X174712380Y-153461547D01*
X174760000Y-153604404D01*
X174712380Y-154223452D02*
X174712380Y-154413928D01*
X174760000Y-154509166D01*
X174855238Y-154604404D01*
X175045714Y-154652023D01*
X175379047Y-154652023D01*
X175569523Y-154604404D01*
X175664761Y-154509166D01*
X175712380Y-154413928D01*
X175712380Y-154223452D01*
X175664761Y-154128214D01*
X175569523Y-154032976D01*
X175379047Y-153985357D01*
X175045714Y-153985357D01*
X174855238Y-154032976D01*
X174760000Y-154128214D01*
X174712380Y-154223452D01*
X172220000Y-152556785D02*
X172172380Y-152461547D01*
X172172380Y-152318690D01*
X172220000Y-152175833D01*
X172315238Y-152080595D01*
X172410476Y-152032976D01*
X172600952Y-151985357D01*
X172743809Y-151985357D01*
X172934285Y-152032976D01*
X173029523Y-152080595D01*
X173124761Y-152175833D01*
X173172380Y-152318690D01*
X173172380Y-152413928D01*
X173124761Y-152556785D01*
X173077142Y-152604404D01*
X172743809Y-152604404D01*
X172743809Y-152413928D01*
X173172380Y-153032976D02*
X172172380Y-153032976D01*
X173172380Y-153604404D01*
X172172380Y-153604404D01*
X173172380Y-154080595D02*
X172172380Y-154080595D01*
X172172380Y-154318690D01*
X172220000Y-154461547D01*
X172315238Y-154556785D01*
X172410476Y-154604404D01*
X172600952Y-154652023D01*
X172743809Y-154652023D01*
X172934285Y-154604404D01*
X173029523Y-154556785D01*
X173124761Y-154461547D01*
X173172380Y-154318690D01*
X173172380Y-154080595D01*
X184872380Y-152223452D02*
X184872380Y-152842500D01*
X185253333Y-152509166D01*
X185253333Y-152652023D01*
X185300952Y-152747261D01*
X185348571Y-152794880D01*
X185443809Y-152842500D01*
X185681904Y-152842500D01*
X185777142Y-152794880D01*
X185824761Y-152747261D01*
X185872380Y-152652023D01*
X185872380Y-152366309D01*
X185824761Y-152271071D01*
X185777142Y-152223452D01*
X184872380Y-153128214D02*
X185872380Y-153461547D01*
X184872380Y-153794880D01*
X184872380Y-154032976D02*
X184872380Y-154652023D01*
X185253333Y-154318690D01*
X185253333Y-154461547D01*
X185300952Y-154556785D01*
X185348571Y-154604404D01*
X185443809Y-154652023D01*
X185681904Y-154652023D01*
X185777142Y-154604404D01*
X185824761Y-154556785D01*
X185872380Y-154461547D01*
X185872380Y-154175833D01*
X185824761Y-154080595D01*
X185777142Y-154032976D01*
X183237142Y-151890119D02*
X183284761Y-151842500D01*
X183332380Y-151699642D01*
X183332380Y-151604404D01*
X183284761Y-151461547D01*
X183189523Y-151366309D01*
X183094285Y-151318690D01*
X182903809Y-151271071D01*
X182760952Y-151271071D01*
X182570476Y-151318690D01*
X182475238Y-151366309D01*
X182380000Y-151461547D01*
X182332380Y-151604404D01*
X182332380Y-151699642D01*
X182380000Y-151842500D01*
X182427619Y-151890119D01*
X183284761Y-152271071D02*
X183332380Y-152413928D01*
X183332380Y-152652023D01*
X183284761Y-152747261D01*
X183237142Y-152794880D01*
X183141904Y-152842500D01*
X183046666Y-152842500D01*
X182951428Y-152794880D01*
X182903809Y-152747261D01*
X182856190Y-152652023D01*
X182808571Y-152461547D01*
X182760952Y-152366309D01*
X182713333Y-152318690D01*
X182618095Y-152271071D01*
X182522857Y-152271071D01*
X182427619Y-152318690D01*
X182380000Y-152366309D01*
X182332380Y-152461547D01*
X182332380Y-152699642D01*
X182380000Y-152842500D01*
X183427619Y-153032976D02*
X183427619Y-153794880D01*
X183332380Y-154032976D02*
X182332380Y-154032976D01*
X183332380Y-154604404D01*
X182332380Y-154604404D01*
X180792380Y-151461547D02*
X179792380Y-151461547D01*
X180506666Y-151794880D01*
X179792380Y-152128214D01*
X180792380Y-152128214D01*
X179792380Y-152794880D02*
X179792380Y-152985357D01*
X179840000Y-153080595D01*
X179935238Y-153175833D01*
X180125714Y-153223452D01*
X180459047Y-153223452D01*
X180649523Y-153175833D01*
X180744761Y-153080595D01*
X180792380Y-152985357D01*
X180792380Y-152794880D01*
X180744761Y-152699642D01*
X180649523Y-152604404D01*
X180459047Y-152556785D01*
X180125714Y-152556785D01*
X179935238Y-152604404D01*
X179840000Y-152699642D01*
X179792380Y-152794880D01*
X180744761Y-153604404D02*
X180792380Y-153747261D01*
X180792380Y-153985357D01*
X180744761Y-154080595D01*
X180697142Y-154128214D01*
X180601904Y-154175833D01*
X180506666Y-154175833D01*
X180411428Y-154128214D01*
X180363809Y-154080595D01*
X180316190Y-153985357D01*
X180268571Y-153794880D01*
X180220952Y-153699642D01*
X180173333Y-153652023D01*
X180078095Y-153604404D01*
X179982857Y-153604404D01*
X179887619Y-153652023D01*
X179840000Y-153699642D01*
X179792380Y-153794880D01*
X179792380Y-154032976D01*
X179840000Y-154175833D01*
X180792380Y-154604404D02*
X179792380Y-154604404D01*
X178204761Y-151271071D02*
X178252380Y-151413928D01*
X178252380Y-151652023D01*
X178204761Y-151747261D01*
X178157142Y-151794880D01*
X178061904Y-151842500D01*
X177966666Y-151842500D01*
X177871428Y-151794880D01*
X177823809Y-151747261D01*
X177776190Y-151652023D01*
X177728571Y-151461547D01*
X177680952Y-151366309D01*
X177633333Y-151318690D01*
X177538095Y-151271071D01*
X177442857Y-151271071D01*
X177347619Y-151318690D01*
X177300000Y-151366309D01*
X177252380Y-151461547D01*
X177252380Y-151699642D01*
X177300000Y-151842500D01*
X178157142Y-152842500D02*
X178204761Y-152794880D01*
X178252380Y-152652023D01*
X178252380Y-152556785D01*
X178204761Y-152413928D01*
X178109523Y-152318690D01*
X178014285Y-152271071D01*
X177823809Y-152223452D01*
X177680952Y-152223452D01*
X177490476Y-152271071D01*
X177395238Y-152318690D01*
X177300000Y-152413928D01*
X177252380Y-152556785D01*
X177252380Y-152652023D01*
X177300000Y-152794880D01*
X177347619Y-152842500D01*
X178252380Y-153747261D02*
X178252380Y-153271071D01*
X177252380Y-153271071D01*
X178252380Y-154080595D02*
X177252380Y-154080595D01*
X178252380Y-154652023D02*
X177680952Y-154223452D01*
X177252380Y-154652023D02*
X177823809Y-154080595D01*
X175712380Y-151461547D02*
X174712380Y-151461547D01*
X175426666Y-151794880D01*
X174712380Y-152128214D01*
X175712380Y-152128214D01*
X175712380Y-152604404D02*
X174712380Y-152604404D01*
X175664761Y-153032976D02*
X175712380Y-153175833D01*
X175712380Y-153413928D01*
X175664761Y-153509166D01*
X175617142Y-153556785D01*
X175521904Y-153604404D01*
X175426666Y-153604404D01*
X175331428Y-153556785D01*
X175283809Y-153509166D01*
X175236190Y-153413928D01*
X175188571Y-153223452D01*
X175140952Y-153128214D01*
X175093333Y-153080595D01*
X174998095Y-153032976D01*
X174902857Y-153032976D01*
X174807619Y-153080595D01*
X174760000Y-153128214D01*
X174712380Y-153223452D01*
X174712380Y-153461547D01*
X174760000Y-153604404D01*
X174712380Y-154223452D02*
X174712380Y-154413928D01*
X174760000Y-154509166D01*
X174855238Y-154604404D01*
X175045714Y-154652023D01*
X175379047Y-154652023D01*
X175569523Y-154604404D01*
X175664761Y-154509166D01*
X175712380Y-154413928D01*
X175712380Y-154223452D01*
X175664761Y-154128214D01*
X175569523Y-154032976D01*
X175379047Y-153985357D01*
X175045714Y-153985357D01*
X174855238Y-154032976D01*
X174760000Y-154128214D01*
X174712380Y-154223452D01*
X172220000Y-152556785D02*
X172172380Y-152461547D01*
X172172380Y-152318690D01*
X172220000Y-152175833D01*
X172315238Y-152080595D01*
X172410476Y-152032976D01*
X172600952Y-151985357D01*
X172743809Y-151985357D01*
X172934285Y-152032976D01*
X173029523Y-152080595D01*
X173124761Y-152175833D01*
X173172380Y-152318690D01*
X173172380Y-152413928D01*
X173124761Y-152556785D01*
X173077142Y-152604404D01*
X172743809Y-152604404D01*
X172743809Y-152413928D01*
X173172380Y-153032976D02*
X172172380Y-153032976D01*
X173172380Y-153604404D01*
X172172380Y-153604404D01*
X173172380Y-154080595D02*
X172172380Y-154080595D01*
X172172380Y-154318690D01*
X172220000Y-154461547D01*
X172315238Y-154556785D01*
X172410476Y-154604404D01*
X172600952Y-154652023D01*
X172743809Y-154652023D01*
X172934285Y-154604404D01*
X173029523Y-154556785D01*
X173124761Y-154461547D01*
X173172380Y-154318690D01*
X173172380Y-154080595D01*
X178522380Y-158480595D02*
X177522380Y-158480595D01*
X178236666Y-158813928D01*
X177522380Y-159147261D01*
X178522380Y-159147261D01*
X178522380Y-159623452D02*
X177855714Y-159623452D01*
X177522380Y-159623452D02*
X177570000Y-159575833D01*
X177617619Y-159623452D01*
X177570000Y-159671071D01*
X177522380Y-159623452D01*
X177617619Y-159623452D01*
X178474761Y-160528214D02*
X178522380Y-160432976D01*
X178522380Y-160242500D01*
X178474761Y-160147261D01*
X178427142Y-160099642D01*
X178331904Y-160052023D01*
X178046190Y-160052023D01*
X177950952Y-160099642D01*
X177903333Y-160147261D01*
X177855714Y-160242500D01*
X177855714Y-160432976D01*
X177903333Y-160528214D01*
X178522380Y-160956785D02*
X177855714Y-160956785D01*
X178046190Y-160956785D02*
X177950952Y-161004404D01*
X177903333Y-161052023D01*
X177855714Y-161147261D01*
X177855714Y-161242500D01*
X178522380Y-161718690D02*
X178474761Y-161623452D01*
X178427142Y-161575833D01*
X178331904Y-161528214D01*
X178046190Y-161528214D01*
X177950952Y-161575833D01*
X177903333Y-161623452D01*
X177855714Y-161718690D01*
X177855714Y-161861547D01*
X177903333Y-161956785D01*
X177950952Y-162004404D01*
X178046190Y-162052023D01*
X178331904Y-162052023D01*
X178427142Y-162004404D01*
X178474761Y-161956785D01*
X178522380Y-161861547D01*
X178522380Y-161718690D01*
X175934761Y-160480595D02*
X175982380Y-160623452D01*
X175982380Y-160861547D01*
X175934761Y-160956785D01*
X175887142Y-161004404D01*
X175791904Y-161052023D01*
X175696666Y-161052023D01*
X175601428Y-161004404D01*
X175553809Y-160956785D01*
X175506190Y-160861547D01*
X175458571Y-160671071D01*
X175410952Y-160575833D01*
X175363333Y-160528214D01*
X175268095Y-160480595D01*
X175172857Y-160480595D01*
X175077619Y-160528214D01*
X175030000Y-160575833D01*
X174982380Y-160671071D01*
X174982380Y-160909166D01*
X175030000Y-161052023D01*
X175982380Y-161480595D02*
X174982380Y-161480595D01*
X174982380Y-161718690D01*
X175030000Y-161861547D01*
X175125238Y-161956785D01*
X175220476Y-162004404D01*
X175410952Y-162052023D01*
X175553809Y-162052023D01*
X175744285Y-162004404D01*
X175839523Y-161956785D01*
X175934761Y-161861547D01*
X175982380Y-161718690D01*
X175982380Y-161480595D01*
%TD*%
M02*
