%TF.GenerationSoftware,KiCad,Pcbnew,5.1.6-c6e7f7d~87~ubuntu18.04.1*%
%TF.CreationDate,2021-02-14T23:24:49+00:00*%
%TF.ProjectId,nascom_ng,6e617363-6f6d-45f6-9e67-2e6b69636164,rev?*%
%TF.SameCoordinates,Original*%
%TF.FileFunction,Copper,L1,Top*%
%TF.FilePolarity,Positive*%
%FSLAX46Y46*%
G04 Gerber Fmt 4.6, Leading zero omitted, Abs format (unit mm)*
G04 Created by KiCad (PCBNEW 5.1.6-c6e7f7d~87~ubuntu18.04.1) date 2021-02-14 23:24:49*
%MOMM*%
%LPD*%
G01*
G04 APERTURE LIST*
%TA.AperFunction,ComponentPad*%
%ADD10C,1.600000*%
%TD*%
%TA.AperFunction,ComponentPad*%
%ADD11R,1.600000X1.600000*%
%TD*%
%TA.AperFunction,ComponentPad*%
%ADD12O,1.600000X1.600000*%
%TD*%
%TA.AperFunction,ComponentPad*%
%ADD13O,1.700000X1.700000*%
%TD*%
%TA.AperFunction,ComponentPad*%
%ADD14R,1.700000X1.700000*%
%TD*%
%TA.AperFunction,ComponentPad*%
%ADD15O,4.000000X2.000000*%
%TD*%
%TA.AperFunction,ComponentPad*%
%ADD16O,2.000000X3.500000*%
%TD*%
%TA.AperFunction,ComponentPad*%
%ADD17O,1.400000X1.400000*%
%TD*%
%TA.AperFunction,ComponentPad*%
%ADD18C,1.400000*%
%TD*%
%TA.AperFunction,ComponentPad*%
%ADD19O,1.600000X1.439000*%
%TD*%
%TA.AperFunction,ComponentPad*%
%ADD20R,1.800000X1.800000*%
%TD*%
%TA.AperFunction,ComponentPad*%
%ADD21C,1.800000*%
%TD*%
%TA.AperFunction,ComponentPad*%
%ADD22O,2.300000X2.100000*%
%TD*%
%TA.AperFunction,ComponentPad*%
%ADD23C,1.700000*%
%TD*%
%TA.AperFunction,ComponentPad*%
%ADD24C,2.000000*%
%TD*%
%TA.AperFunction,ComponentPad*%
%ADD25O,1.600000X1.550000*%
%TD*%
%TA.AperFunction,ComponentPad*%
%ADD26C,2.400000*%
%TD*%
%TA.AperFunction,ComponentPad*%
%ADD27C,1.440000*%
%TD*%
%TA.AperFunction,SMDPad,CuDef*%
%ADD28C,0.100000*%
%TD*%
%TA.AperFunction,ComponentPad*%
%ADD29C,4.000000*%
%TD*%
%TA.AperFunction,ComponentPad*%
%ADD30O,1.700000X1.600000*%
%TD*%
%TA.AperFunction,ComponentPad*%
%ADD31R,1.700000X1.600000*%
%TD*%
%TA.AperFunction,ViaPad*%
%ADD32C,0.600000*%
%TD*%
%TA.AperFunction,Conductor*%
%ADD33C,0.250000*%
%TD*%
%TA.AperFunction,Conductor*%
%ADD34C,0.500000*%
%TD*%
%TA.AperFunction,Conductor*%
%ADD35C,1.500000*%
%TD*%
%TA.AperFunction,Conductor*%
%ADD36C,0.700000*%
%TD*%
G04 APERTURE END LIST*
D10*
%TO.P,C2,2*%
%TO.N,GND*%
X132715000Y-42505000D03*
D11*
%TO.P,C2,1*%
%TO.N,+3V3*%
X132715000Y-40005000D03*
%TD*%
D10*
%TO.P,C3,2*%
%TO.N,GND*%
X193040000Y-43775000D03*
D11*
%TO.P,C3,1*%
%TO.N,+3V3*%
X193040000Y-41275000D03*
%TD*%
D12*
%TO.P,U15,14*%
%TO.N,+5V*%
X113030000Y-105410000D03*
%TO.P,U15,7*%
%TO.N,GND*%
X105410000Y-120650000D03*
%TO.P,U15,13*%
%TO.N,Net-(U13-Pad31)*%
X113030000Y-107950000D03*
%TO.P,U15,6*%
%TO.N,/nascom_ng_fdc/IDIR*%
X105410000Y-118110000D03*
%TO.P,U15,12*%
%TO.N,/nascom_ng_fdc/IWDATA*%
X113030000Y-110490000D03*
%TO.P,U15,5*%
%TO.N,Net-(U13-Pad16)*%
X105410000Y-115570000D03*
%TO.P,U15,11*%
%TO.N,Net-(U13-Pad15)*%
X113030000Y-113030000D03*
%TO.P,U15,4*%
%TO.N,/nascom_ng_fdc/IWAT*%
X105410000Y-113030000D03*
%TO.P,U15,10*%
%TO.N,/nascom_ng_fdc/ISTEP*%
X113030000Y-115570000D03*
%TO.P,U15,3*%
%TO.N,Net-(U13-Pad30)*%
X105410000Y-110490000D03*
%TO.P,U15,9*%
%TO.N,DRIVE_ENABLE*%
X113030000Y-118110000D03*
%TO.P,U15,2*%
%TO.N,/nascom_ng_fdc/ISSLT*%
X105410000Y-107950000D03*
%TO.P,U15,8*%
%TO.N,/nascom_ng_fdc/IDEN*%
X113030000Y-120650000D03*
D11*
%TO.P,U15,1*%
%TO.N,Net-(U13-Pad25)*%
X105410000Y-105410000D03*
%TD*%
D10*
%TO.P,C29,2*%
%TO.N,GND*%
X73025000Y-156170000D03*
D11*
%TO.P,C29,1*%
%TO.N,+5V*%
X73025000Y-153670000D03*
%TD*%
D10*
%TO.P,C20,2*%
%TO.N,GND*%
X31750000Y-102830000D03*
D11*
%TO.P,C20,1*%
%TO.N,+5V*%
X31750000Y-100330000D03*
%TD*%
D13*
%TO.P,J15,4*%
%TO.N,+5V*%
X50800000Y-154940000D03*
%TO.P,J15,3*%
X48260000Y-154940000D03*
%TO.P,J15,2*%
X45720000Y-154940000D03*
D14*
%TO.P,J15,1*%
X43180000Y-154940000D03*
%TD*%
D12*
%TO.P,U1,28*%
%TO.N,D3_5V*%
X69850000Y-36830000D03*
%TO.P,U1,14*%
%TO.N,~M1_5V*%
X54610000Y-69850000D03*
%TO.P,U1,27*%
%TO.N,D2_5V*%
X69850000Y-39370000D03*
%TO.P,U1,13*%
%TO.N,/nascom_ng_pio/PIO_EIO*%
X54610000Y-67310000D03*
%TO.P,U1,26*%
%TO.N,D1_5V*%
X69850000Y-41910000D03*
%TO.P,U1,12*%
%TO.N,~INT_5V*%
X54610000Y-64770000D03*
%TO.P,U1,25*%
%TO.N,D0_5V*%
X69850000Y-44450000D03*
%TO.P,U1,11*%
%TO.N,N/C*%
X54610000Y-62230000D03*
%TO.P,U1,24*%
%TO.N,+5V*%
X69850000Y-46990000D03*
%TO.P,U1,10*%
%TO.N,~IORQ_5V*%
X54610000Y-59690000D03*
%TO.P,U1,23*%
%TO.N,/nascom_ng_pio/CLK_TRG0*%
X69850000Y-49530000D03*
%TO.P,U1,9*%
%TO.N,/nascom_ng_pio/ZC_TO2*%
X54610000Y-57150000D03*
%TO.P,U1,22*%
%TO.N,/nascom_ng_pio/CLK_TRG1*%
X69850000Y-52070000D03*
%TO.P,U1,8*%
%TO.N,/nascom_ng_pio/ZC_TO1*%
X54610000Y-54610000D03*
%TO.P,U1,21*%
%TO.N,/nascom_ng_pio/CLK_TRG2*%
X69850000Y-54610000D03*
%TO.P,U1,7*%
%TO.N,/nascom_ng_pio/ZC_TO0*%
X54610000Y-52070000D03*
%TO.P,U1,20*%
%TO.N,/nascom_ng_pio/CLK_TRG3*%
X69850000Y-57150000D03*
%TO.P,U1,6*%
%TO.N,~RD_5V*%
X54610000Y-49530000D03*
%TO.P,U1,19*%
%TO.N,A1_5V*%
X69850000Y-59690000D03*
%TO.P,U1,5*%
%TO.N,GND*%
X54610000Y-46990000D03*
%TO.P,U1,18*%
%TO.N,A0_5V*%
X69850000Y-62230000D03*
%TO.P,U1,4*%
%TO.N,D7_5V*%
X54610000Y-44450000D03*
%TO.P,U1,17*%
%TO.N,~IO_RESET_5V*%
X69850000Y-64770000D03*
%TO.P,U1,3*%
%TO.N,D6_5V*%
X54610000Y-41910000D03*
%TO.P,U1,16*%
%TO.N,~CTC_CS_5V*%
X69850000Y-67310000D03*
%TO.P,U1,2*%
%TO.N,D5_5V*%
X54610000Y-39370000D03*
%TO.P,U1,15*%
%TO.N,CLK4_5V*%
X69850000Y-69850000D03*
D11*
%TO.P,U1,1*%
%TO.N,D4_5V*%
X54610000Y-36830000D03*
%TD*%
D12*
%TO.P,U10,16*%
%TO.N,+5V*%
X83820000Y-72390000D03*
%TO.P,U10,8*%
%TO.N,GND*%
X76200000Y-90170000D03*
%TO.P,U10,15*%
%TO.N,Net-(C12-Pad1)*%
X83820000Y-74930000D03*
%TO.P,U10,7*%
%TO.N,Net-(C15-Pad2)*%
X76200000Y-87630000D03*
%TO.P,U10,14*%
%TO.N,GND*%
X83820000Y-77470000D03*
%TO.P,U10,6*%
X76200000Y-85090000D03*
%TO.P,U10,13*%
%TO.N,N/C*%
X83820000Y-80010000D03*
%TO.P,U10,5*%
X76200000Y-82550000D03*
%TO.P,U10,12*%
%TO.N,/nascom_ng_fdc/~RAW_READ*%
X83820000Y-82550000D03*
%TO.P,U10,4*%
%TO.N,/nascom_ng_fdc/HLT*%
X76200000Y-80010000D03*
%TO.P,U10,11*%
%TO.N,+5V*%
X83820000Y-85090000D03*
%TO.P,U10,3*%
X76200000Y-77470000D03*
%TO.P,U10,10*%
X83820000Y-87630000D03*
%TO.P,U10,2*%
%TO.N,/nascom_ng_fdc/BHEAD_LOAD*%
X76200000Y-74930000D03*
%TO.P,U10,9*%
%TO.N,/nascom_ng_fdc/BIRDATA*%
X83820000Y-90170000D03*
D11*
%TO.P,U10,1*%
%TO.N,GND*%
X76200000Y-72390000D03*
%TD*%
D15*
%TO.P,J13,7*%
%TO.N,Net-(J13-Pad7)*%
X159990000Y-161130000D03*
D10*
%TO.P,J13,6*%
%TO.N,PIN44_KCLK*%
X156590000Y-154680000D03*
%TO.P,J13,5*%
%TO.N,N/C*%
X163390000Y-154680000D03*
%TO.P,J13,4*%
%TO.N,GND*%
X156590000Y-157480000D03*
%TO.P,J13,3*%
%TO.N,Net-(J12-Pad2)*%
X163390000Y-157480000D03*
%TO.P,J13,2*%
%TO.N,PIN45_KDAT*%
X158690000Y-157480000D03*
D11*
%TO.P,J13,1*%
%TO.N,N/C*%
X161290000Y-157480000D03*
D16*
%TO.P,J13,7*%
%TO.N,Net-(J13-Pad7)*%
X166840000Y-160330000D03*
X153140000Y-160330000D03*
%TD*%
D17*
%TO.P,R19,2*%
%TO.N,CLK1_5V*%
X116205000Y-135255000D03*
D18*
%TO.P,R19,1*%
%TO.N,Net-(R19-Pad1)*%
X123825000Y-135255000D03*
%TD*%
D17*
%TO.P,R10,2*%
%TO.N,CLK4_5V*%
X125095000Y-71755000D03*
D18*
%TO.P,R10,1*%
%TO.N,Net-(R10-Pad1)*%
X132715000Y-71755000D03*
%TD*%
D10*
%TO.P,C12,2*%
%TO.N,GND*%
X88900000Y-77390000D03*
D11*
%TO.P,C12,1*%
%TO.N,Net-(C12-Pad1)*%
X88900000Y-72390000D03*
%TD*%
D13*
%TO.P,J16,4*%
%TO.N,+3V3*%
X63500000Y-154940000D03*
%TO.P,J16,3*%
X60960000Y-154940000D03*
%TO.P,J16,2*%
X58420000Y-154940000D03*
D14*
%TO.P,J16,1*%
X55880000Y-154940000D03*
%TD*%
D13*
%TO.P,J2,4*%
%TO.N,+5V*%
X66040000Y-29210000D03*
%TO.P,J2,3*%
X63500000Y-29210000D03*
%TO.P,J2,2*%
X60960000Y-29210000D03*
D14*
%TO.P,J2,1*%
X58420000Y-29210000D03*
%TD*%
D13*
%TO.P,J1,4*%
%TO.N,GND*%
X53340000Y-29210000D03*
%TO.P,J1,3*%
X50800000Y-29210000D03*
%TO.P,J1,2*%
X48260000Y-29210000D03*
D14*
%TO.P,J1,1*%
X45720000Y-29210000D03*
%TD*%
D13*
%TO.P,J14,4*%
%TO.N,GND*%
X38100000Y-154940000D03*
%TO.P,J14,3*%
X35560000Y-154940000D03*
%TO.P,J14,2*%
X33020000Y-154940000D03*
D14*
%TO.P,J14,1*%
X30480000Y-154940000D03*
%TD*%
D17*
%TO.P,R5,2*%
%TO.N,~PIN104_IOBUFOE*%
X149225000Y-45720000D03*
D18*
%TO.P,R5,1*%
%TO.N,+3V3*%
X149225000Y-38100000D03*
%TD*%
D10*
%TO.P,C5,2*%
%TO.N,GND*%
X101640000Y-41275000D03*
%TO.P,C5,1*%
%TO.N,+5V*%
X104140000Y-41275000D03*
%TD*%
D12*
%TO.P,U6,20*%
%TO.N,+3V3*%
X123825000Y-45720000D03*
%TO.P,U6,10*%
%TO.N,GND*%
X116205000Y-68580000D03*
%TO.P,U6,19*%
X123825000Y-48260000D03*
%TO.P,U6,9*%
%TO.N,~PIN99_KBDRST*%
X116205000Y-66040000D03*
%TO.P,U6,18*%
%TO.N,TX_5V*%
X123825000Y-50800000D03*
%TO.P,U6,8*%
%TO.N,RXBAUDCLK_5V*%
X116205000Y-63500000D03*
%TO.P,U6,17*%
%TO.N,~READY_5V*%
X123825000Y-53340000D03*
%TO.P,U6,7*%
%TO.N,TAPE_DRIVE_5V*%
X116205000Y-60960000D03*
%TO.P,U6,16*%
%TO.N,PIN101_RX*%
X123825000Y-55880000D03*
%TO.P,U6,6*%
%TO.N,TXBAUDCLK_5V*%
X116205000Y-58420000D03*
%TO.P,U6,15*%
%TO.N,~KBDCLK_5V*%
X123825000Y-58420000D03*
%TO.P,U6,5*%
%TO.N,~PIN100_KBDCLK*%
X116205000Y-55880000D03*
%TO.P,U6,14*%
%TO.N,PIN94_TXBAUDCLK*%
X123825000Y-60960000D03*
%TO.P,U6,4*%
%TO.N,RX_5V*%
X116205000Y-53340000D03*
%TO.P,U6,13*%
%TO.N,PIN7_TAPE_DRIVE*%
X123825000Y-63500000D03*
%TO.P,U6,3*%
%TO.N,~PIN22_IN_READY*%
X116205000Y-50800000D03*
D19*
%TO.P,U6,12*%
%TO.N,PIN93_RXBAUDCLK*%
X123825000Y-66040000D03*
D12*
%TO.P,U6,2*%
%TO.N,PIN103_TX*%
X116205000Y-48260000D03*
D19*
%TO.P,U6,11*%
%TO.N,~KBDRST_5V*%
X123825000Y-68580000D03*
D11*
%TO.P,U6,1*%
%TO.N,GND*%
X116205000Y-45720000D03*
%TD*%
D12*
%TO.P,U5,20*%
%TO.N,+3V3*%
X140335000Y-45720000D03*
%TO.P,U5,10*%
%TO.N,GND*%
X132715000Y-68580000D03*
%TO.P,U5,19*%
X140335000Y-48260000D03*
%TO.P,U5,9*%
%TO.N,Net-(R10-Pad1)*%
X132715000Y-66040000D03*
%TO.P,U5,18*%
%TO.N,A0_5V*%
X140335000Y-50800000D03*
%TO.P,U5,8*%
%TO.N,~PIN71_CTC_CS*%
X132715000Y-63500000D03*
%TO.P,U5,17*%
%TO.N,DRQ_5V*%
X140335000Y-53340000D03*
%TO.P,U5,7*%
%TO.N,A1_5V*%
X132715000Y-60960000D03*
%TO.P,U5,16*%
%TO.N,~IO_RESET_5V*%
X140335000Y-55880000D03*
%TO.P,U5,6*%
%TO.N,~INT_5V*%
X132715000Y-58420000D03*
%TO.P,U5,15*%
%TO.N,PIN70_PORTE4_WR*%
X140335000Y-58420000D03*
%TO.P,U5,5*%
%TO.N,PORTE4_WR_5V*%
X132715000Y-55880000D03*
%TO.P,U5,14*%
%TO.N,~PIN97_INT*%
X140335000Y-60960000D03*
%TO.P,U5,4*%
%TO.N,~PIN72_IO_RESET*%
X132715000Y-53340000D03*
%TO.P,U5,13*%
%TO.N,PIN125_A1*%
X140335000Y-63500000D03*
%TO.P,U5,3*%
%TO.N,PIN91_IN_DRQ*%
X132715000Y-50800000D03*
%TO.P,U5,12*%
%TO.N,~CTC_CS_5V*%
X140335000Y-66040000D03*
%TO.P,U5,2*%
%TO.N,PIN121_A0*%
X132715000Y-48260000D03*
%TO.P,U5,11*%
%TO.N,PIN69_CLK4*%
X140335000Y-68580000D03*
D11*
%TO.P,U5,1*%
%TO.N,GND*%
X132715000Y-45720000D03*
%TD*%
D12*
%TO.P,U16,20*%
%TO.N,+3V3*%
X137160000Y-126365000D03*
%TO.P,U16,10*%
%TO.N,GND*%
X129540000Y-149225000D03*
%TO.P,U16,19*%
X137160000Y-128905000D03*
%TO.P,U16,9*%
%TO.N,~PIO_CS_5V*%
X129540000Y-146685000D03*
%TO.P,U16,18*%
%TO.N,PIN88_IN_INTRQ*%
X137160000Y-131445000D03*
%TO.P,U16,8*%
%TO.N,~PIN60_WR*%
X129540000Y-144145000D03*
%TO.P,U16,17*%
%TO.N,~PIN63_IORQ*%
X137160000Y-133985000D03*
%TO.P,U16,7*%
%TO.N,~M1_5V*%
X129540000Y-141605000D03*
%TO.P,U16,16*%
%TO.N,Net-(R19-Pad1)*%
X137160000Y-136525000D03*
%TO.P,U16,6*%
%TO.N,~PIN59_RD*%
X129540000Y-139065000D03*
%TO.P,U16,15*%
%TO.N,~PIN64_FDC_CS*%
X137160000Y-139065000D03*
%TO.P,U16,5*%
%TO.N,~FDC_CS_5V*%
X129540000Y-136525000D03*
%TO.P,U16,14*%
%TO.N,~RD_5V*%
X137160000Y-141605000D03*
%TO.P,U16,4*%
%TO.N,PIN67_CLK1*%
X129540000Y-133985000D03*
%TO.P,U16,13*%
%TO.N,~PIN57_M1*%
X137160000Y-144145000D03*
%TO.P,U16,3*%
%TO.N,~IORQ_5V*%
X129540000Y-131445000D03*
%TO.P,U16,12*%
%TO.N,~WR_5V*%
X137160000Y-146685000D03*
%TO.P,U16,2*%
%TO.N,INTRQ_5V*%
X129540000Y-128905000D03*
%TO.P,U16,11*%
%TO.N,~PIN58_PIO_CS*%
X137160000Y-149225000D03*
D11*
%TO.P,U16,1*%
%TO.N,GND*%
X129540000Y-126365000D03*
%TD*%
D20*
%TO.P,SW1,1*%
%TO.N,GND*%
X124460000Y-26670000D03*
D21*
%TO.P,SW1,2*%
%TO.N,PIN21_IN_NMI*%
X128960000Y-26670000D03*
D22*
%TO.P,SW1,*%
%TO.N,*%
X123210000Y-29170000D03*
X130210000Y-29170000D03*
%TD*%
D20*
%TO.P,SW2,1*%
%TO.N,GND*%
X135870000Y-26670000D03*
D21*
%TO.P,SW2,2*%
%TO.N,PIN18_IN_WARMRST*%
X140370000Y-26670000D03*
D22*
%TO.P,SW2,*%
%TO.N,*%
X134620000Y-29170000D03*
X141620000Y-29170000D03*
%TD*%
D20*
%TO.P,SW3,1*%
%TO.N,GND*%
X147320000Y-26670000D03*
D21*
%TO.P,SW3,2*%
%TO.N,PIN144_RST*%
X151820000Y-26670000D03*
D22*
%TO.P,SW3,*%
%TO.N,*%
X146070000Y-29170000D03*
X153070000Y-29170000D03*
%TD*%
D23*
%TO.P,J11,16*%
%TO.N,+5V*%
X132080000Y-97790000D03*
%TO.P,J11,14*%
%TO.N,GND*%
X132080000Y-100330000D03*
%TO.P,J11,12*%
X132080000Y-102870000D03*
%TO.P,J11,10*%
X132080000Y-105410000D03*
%TO.P,J11,8*%
X132080000Y-107950000D03*
%TO.P,J11,6*%
X132080000Y-110490000D03*
%TO.P,J11,4*%
%TO.N,+3V3*%
X132080000Y-113030000D03*
%TO.P,J11,2*%
X132080000Y-115570000D03*
%TO.P,J11,15*%
%TO.N,N/C*%
X134620000Y-97790000D03*
%TO.P,J11,13*%
%TO.N,PIN90_IN_NC*%
X134620000Y-100330000D03*
%TO.P,J11,11*%
%TO.N,PIN92_TVSYNCH*%
X134620000Y-102870000D03*
%TO.P,J11,9*%
%TO.N,PIN75_RCLK*%
X134620000Y-105410000D03*
%TO.P,J11,7*%
%TO.N,PIN74_RX*%
X134620000Y-107950000D03*
%TO.P,J11,5*%
%TO.N,PIN86_TX*%
X134620000Y-110490000D03*
%TO.P,J11,3*%
%TO.N,PIN89_IN_NC*%
X134620000Y-113030000D03*
%TO.P,J11,1*%
%TO.N,PIN65_TVVID*%
%TA.AperFunction,ComponentPad*%
G36*
G01*
X135470000Y-114970000D02*
X135470000Y-116170000D01*
G75*
G02*
X135220000Y-116420000I-250000J0D01*
G01*
X134020000Y-116420000D01*
G75*
G02*
X133770000Y-116170000I0J250000D01*
G01*
X133770000Y-114970000D01*
G75*
G02*
X134020000Y-114720000I250000J0D01*
G01*
X135220000Y-114720000D01*
G75*
G02*
X135470000Y-114970000I0J-250000D01*
G01*
G37*
%TD.AperFunction*%
%TD*%
D12*
%TO.P,U9,32*%
%TO.N,+3V3*%
X190500000Y-83820000D03*
%TO.P,U9,16*%
%TO.N,GND*%
X152400000Y-68580000D03*
%TO.P,U9,31*%
%TO.N,PIN8_A15*%
X187960000Y-83820000D03*
%TO.P,U9,15*%
%TO.N,PIN113_D2*%
X154940000Y-68580000D03*
%TO.P,U9,30*%
%TO.N,PIN31_A17*%
X185420000Y-83820000D03*
%TO.P,U9,14*%
%TO.N,PIN115_D1*%
X157480000Y-68580000D03*
%TO.P,U9,29*%
%TO.N,PIN4_WR*%
X182880000Y-83820000D03*
%TO.P,U9,13*%
%TO.N,PIN119_D0*%
X160020000Y-68580000D03*
%TO.P,U9,28*%
%TO.N,PIN24_A13*%
X180340000Y-83820000D03*
%TO.P,U9,12*%
%TO.N,PIN121_A0*%
X162560000Y-68580000D03*
%TO.P,U9,27*%
%TO.N,PIN142_A8*%
X177800000Y-83820000D03*
%TO.P,U9,11*%
%TO.N,PIN125_A1*%
X165100000Y-68580000D03*
%TO.P,U9,26*%
%TO.N,PIN139_A9*%
X175260000Y-83820000D03*
%TO.P,U9,10*%
%TO.N,PIN129_A2*%
X167640000Y-68580000D03*
%TO.P,U9,25*%
%TO.N,PIN136_A11*%
X172720000Y-83820000D03*
%TO.P,U9,9*%
%TO.N,PIN133_A3*%
X170180000Y-68580000D03*
%TO.P,U9,24*%
%TO.N,PIN134_RD*%
X170180000Y-83820000D03*
%TO.P,U9,8*%
%TO.N,PIN135_A4*%
X172720000Y-68580000D03*
%TO.P,U9,23*%
%TO.N,PIN132_A10*%
X167640000Y-83820000D03*
%TO.P,U9,7*%
%TO.N,PIN137_A5*%
X175260000Y-68580000D03*
%TO.P,U9,22*%
%TO.N,PIN126_CS1*%
X165100000Y-83820000D03*
%TO.P,U9,6*%
%TO.N,PIN141_A6*%
X177800000Y-68580000D03*
%TO.P,U9,21*%
%TO.N,PIN122_D7*%
X162560000Y-83820000D03*
%TO.P,U9,5*%
%TO.N,PIN143_A7*%
X180340000Y-68580000D03*
%TO.P,U9,20*%
%TO.N,PIN120_D6*%
X160020000Y-83820000D03*
%TO.P,U9,4*%
%TO.N,PIN28_A12*%
X182880000Y-68580000D03*
%TO.P,U9,19*%
%TO.N,PIN118_D5*%
X157480000Y-83820000D03*
%TO.P,U9,3*%
%TO.N,PIN30_A14*%
X185420000Y-68580000D03*
%TO.P,U9,18*%
%TO.N,PIN114_D4*%
X154940000Y-83820000D03*
%TO.P,U9,2*%
%TO.N,PIN25_A16*%
X187960000Y-68580000D03*
%TO.P,U9,17*%
%TO.N,PIN112_D3*%
X152400000Y-83820000D03*
D11*
%TO.P,U9,1*%
%TO.N,PIN32_A18*%
X190500000Y-68580000D03*
%TD*%
D17*
%TO.P,R17,2*%
%TO.N,PIN44_KCLK*%
X162560000Y-123190000D03*
D18*
%TO.P,R17,1*%
%TO.N,+3V3*%
X154940000Y-123190000D03*
%TD*%
D17*
%TO.P,R18,2*%
%TO.N,PIN45_KDAT*%
X162560000Y-125730000D03*
D18*
%TO.P,R18,1*%
%TO.N,+3V3*%
X154940000Y-125730000D03*
%TD*%
D12*
%TO.P,D5,2*%
%TO.N,GND*%
X154940000Y-128270000D03*
D11*
%TO.P,D5,1*%
%TO.N,PIN44_KCLK*%
X162560000Y-128270000D03*
%TD*%
D12*
%TO.P,D6,2*%
%TO.N,GND*%
X154940000Y-130810000D03*
D11*
%TO.P,D6,1*%
%TO.N,PIN45_KDAT*%
X162560000Y-130810000D03*
%TD*%
D17*
%TO.P,R1,2*%
%TO.N,GND*%
X181610000Y-45720000D03*
D18*
%TO.P,R1,1*%
%TO.N,Net-(D4-Pad1)*%
X181610000Y-38100000D03*
%TD*%
D21*
%TO.P,D4,2*%
%TO.N,+3V3*%
X180340000Y-27940000D03*
D20*
%TO.P,D4,1*%
%TO.N,Net-(D4-Pad1)*%
X182880000Y-27940000D03*
%TD*%
D17*
%TO.P,R22,2*%
%TO.N,/nascom_ng_pio/PUP_EIE*%
X56515000Y-149860000D03*
D18*
%TO.P,R22,1*%
%TO.N,+5V*%
X48895000Y-149860000D03*
%TD*%
D12*
%TO.P,U7,32*%
%TO.N,+3V3*%
X190500000Y-64770000D03*
%TO.P,U7,16*%
%TO.N,GND*%
X152400000Y-49530000D03*
%TO.P,U7,31*%
%TO.N,PIN8_A15*%
X187960000Y-64770000D03*
%TO.P,U7,15*%
%TO.N,PIN113_D2*%
X154940000Y-49530000D03*
%TO.P,U7,30*%
%TO.N,PIN31_A17*%
X185420000Y-64770000D03*
%TO.P,U7,14*%
%TO.N,PIN115_D1*%
X157480000Y-49530000D03*
%TO.P,U7,29*%
%TO.N,PIN4_WR*%
X182880000Y-64770000D03*
%TO.P,U7,13*%
%TO.N,PIN119_D0*%
X160020000Y-49530000D03*
%TO.P,U7,28*%
%TO.N,PIN24_A13*%
X180340000Y-64770000D03*
%TO.P,U7,12*%
%TO.N,PIN121_A0*%
X162560000Y-49530000D03*
%TO.P,U7,27*%
%TO.N,PIN142_A8*%
X177800000Y-64770000D03*
%TO.P,U7,11*%
%TO.N,PIN125_A1*%
X165100000Y-49530000D03*
%TO.P,U7,26*%
%TO.N,PIN139_A9*%
X175260000Y-64770000D03*
%TO.P,U7,10*%
%TO.N,PIN129_A2*%
X167640000Y-49530000D03*
%TO.P,U7,25*%
%TO.N,PIN136_A11*%
X172720000Y-64770000D03*
%TO.P,U7,9*%
%TO.N,PIN133_A3*%
X170180000Y-49530000D03*
%TO.P,U7,24*%
%TO.N,PIN134_RD*%
X170180000Y-64770000D03*
%TO.P,U7,8*%
%TO.N,PIN135_A4*%
X172720000Y-49530000D03*
%TO.P,U7,23*%
%TO.N,PIN132_A10*%
X167640000Y-64770000D03*
%TO.P,U7,7*%
%TO.N,PIN137_A5*%
X175260000Y-49530000D03*
%TO.P,U7,22*%
%TO.N,PIN79_CS2*%
X165100000Y-64770000D03*
%TO.P,U7,6*%
%TO.N,PIN141_A6*%
X177800000Y-49530000D03*
%TO.P,U7,21*%
%TO.N,PIN122_D7*%
X162560000Y-64770000D03*
%TO.P,U7,5*%
%TO.N,PIN143_A7*%
X180340000Y-49530000D03*
%TO.P,U7,20*%
%TO.N,PIN120_D6*%
X160020000Y-64770000D03*
%TO.P,U7,4*%
%TO.N,PIN28_A12*%
X182880000Y-49530000D03*
%TO.P,U7,19*%
%TO.N,PIN118_D5*%
X157480000Y-64770000D03*
%TO.P,U7,3*%
%TO.N,PIN30_A14*%
X185420000Y-49530000D03*
%TO.P,U7,18*%
%TO.N,PIN114_D4*%
X154940000Y-64770000D03*
%TO.P,U7,2*%
%TO.N,PIN25_A16*%
X187960000Y-49530000D03*
%TO.P,U7,17*%
%TO.N,PIN112_D3*%
X152400000Y-64770000D03*
D11*
%TO.P,U7,1*%
%TO.N,PIN32_A18*%
X190500000Y-49530000D03*
%TD*%
D14*
%TO.P,J19,1*%
%TO.N,+3V3*%
X185420000Y-148590000D03*
D13*
%TO.P,J19,2*%
%TO.N,PIN41_SDCS*%
X182880000Y-148590000D03*
%TO.P,J19,3*%
%TO.N,PIN40_SDDO*%
X180340000Y-148590000D03*
%TO.P,J19,4*%
%TO.N,PIN43_SDCLK*%
X177800000Y-148590000D03*
%TO.P,J19,5*%
%TO.N,PIN42_SDDI*%
X175260000Y-148590000D03*
%TO.P,J19,6*%
%TO.N,GND*%
X172720000Y-148590000D03*
%TD*%
D10*
%TO.P,C8,2*%
%TO.N,GND*%
X88900000Y-46990000D03*
D11*
%TO.P,C8,1*%
%TO.N,Net-(C8-Pad1)*%
X88900000Y-41990000D03*
%TD*%
D10*
%TO.P,C10,2*%
%TO.N,GND*%
X88900000Y-64690000D03*
D11*
%TO.P,C10,1*%
%TO.N,Net-(C10-Pad1)*%
X88900000Y-59690000D03*
%TD*%
D24*
%TO.P,C24,2*%
%TO.N,Net-(C24-Pad2)*%
X87075000Y-138430000D03*
%TO.P,C24,1*%
%TO.N,Net-(C24-Pad1)*%
X92075000Y-138430000D03*
%TD*%
D10*
%TO.P,C32,2*%
%TO.N,GND*%
X193675000Y-154265000D03*
D11*
%TO.P,C32,1*%
%TO.N,+3V3*%
X193675000Y-151765000D03*
%TD*%
D10*
%TO.P,C13,2*%
%TO.N,GND*%
X93980000Y-88860000D03*
%TO.P,C13,1*%
%TO.N,+5V*%
X93980000Y-86360000D03*
%TD*%
%TO.P,C21,2*%
%TO.N,GND*%
X107990000Y-101600000D03*
%TO.P,C21,1*%
%TO.N,+5V*%
X110490000Y-101600000D03*
%TD*%
%TO.P,C14,2*%
%TO.N,GND*%
X96520000Y-88860000D03*
%TO.P,C14,1*%
%TO.N,+5V*%
X96520000Y-86360000D03*
%TD*%
%TO.P,C23,2*%
%TO.N,GND*%
X107990000Y-123825000D03*
%TO.P,C23,1*%
%TO.N,+5V*%
X110490000Y-123825000D03*
%TD*%
%TO.P,C28,2*%
%TO.N,GND*%
X107990000Y-147955000D03*
%TO.P,C28,1*%
%TO.N,+5V*%
X110490000Y-147955000D03*
%TD*%
D25*
%TO.P,C31,2*%
%TO.N,GND*%
X67945000Y-156210000D03*
%TO.P,C31,1*%
%TO.N,+5V*%
X67945000Y-153710000D03*
%TD*%
D10*
%TO.P,C27,2*%
%TO.N,GND*%
X94575000Y-147955000D03*
%TO.P,C27,1*%
%TO.N,+5V*%
X92075000Y-147955000D03*
%TD*%
%TO.P,C1,2*%
%TO.N,GND*%
X50800000Y-36790000D03*
%TO.P,C1,1*%
%TO.N,+5V*%
X50800000Y-34290000D03*
%TD*%
%TO.P,C26,2*%
%TO.N,GND*%
X68620000Y-147955000D03*
%TO.P,C26,1*%
%TO.N,+5V*%
X71120000Y-147955000D03*
%TD*%
%TO.P,C16,2*%
%TO.N,GND*%
X31750000Y-96480000D03*
%TO.P,C16,1*%
%TO.N,+5V*%
X31750000Y-93980000D03*
%TD*%
%TO.P,C9,2*%
%TO.N,GND*%
X93980000Y-62190000D03*
%TO.P,C9,1*%
%TO.N,+5V*%
X93980000Y-59690000D03*
%TD*%
%TO.P,C33,2*%
%TO.N,GND*%
X43180000Y-147320000D03*
%TO.P,C33,1*%
%TO.N,+5V*%
X43180000Y-149820000D03*
%TD*%
%TO.P,C18,2*%
%TO.N,GND*%
X95290000Y-92075000D03*
%TO.P,C18,1*%
%TO.N,+5V*%
X97790000Y-92075000D03*
%TD*%
%TO.P,C19,2*%
%TO.N,GND*%
X182920000Y-95250000D03*
%TO.P,C19,1*%
%TO.N,+3V3*%
X185420000Y-95250000D03*
%TD*%
%TO.P,C6,2*%
%TO.N,GND*%
X116245000Y-42545000D03*
%TO.P,C6,1*%
%TO.N,+3V3*%
X118745000Y-42545000D03*
%TD*%
%TO.P,C30,2*%
%TO.N,GND*%
X189230000Y-154265000D03*
%TO.P,C30,1*%
%TO.N,+3V3*%
X189230000Y-151765000D03*
%TD*%
%TO.P,C17,2*%
%TO.N,GND*%
X190500000Y-88940000D03*
%TO.P,C17,1*%
%TO.N,+3V3*%
X190500000Y-91440000D03*
%TD*%
%TO.P,C22,2*%
%TO.N,GND*%
X132120000Y-123190000D03*
%TO.P,C22,1*%
%TO.N,+3V3*%
X134620000Y-123190000D03*
%TD*%
%TO.P,C4,2*%
%TO.N,GND*%
X178435000Y-43775000D03*
%TO.P,C4,1*%
%TO.N,+3V3*%
X178435000Y-41275000D03*
%TD*%
%TO.P,C11,2*%
%TO.N,GND*%
X194310000Y-62230000D03*
%TO.P,C11,1*%
%TO.N,+3V3*%
X194310000Y-64730000D03*
%TD*%
%TO.P,C7,2*%
%TO.N,GND*%
X137835000Y-42545000D03*
%TO.P,C7,1*%
%TO.N,+3V3*%
X140335000Y-42545000D03*
%TD*%
D26*
%TO.P,C25,1*%
%TO.N,Net-(C25-Pad1)*%
X86995000Y-133273800D03*
%TO.P,C25,2*%
%TO.N,GND*%
X94495000Y-130770000D03*
%TO.P,C25,1*%
%TO.N,Net-(C25-Pad1)*%
X86995000Y-128270000D03*
%TD*%
D27*
%TO.P,RV1,3*%
%TO.N,GND*%
X88265000Y-123190000D03*
%TO.P,RV1,2*%
%TO.N,Net-(RV1-Pad2)*%
X88265000Y-120650000D03*
%TO.P,RV1,1*%
%TO.N,+5V*%
X88265000Y-118110000D03*
%TD*%
%TO.P,RV2,3*%
%TO.N,GND*%
X62230000Y-140970000D03*
%TO.P,RV2,2*%
%TO.N,Net-(RV2-Pad2)*%
X62230000Y-138430000D03*
%TO.P,RV2,1*%
%TO.N,+5V*%
X62230000Y-135890000D03*
%TD*%
D23*
%TO.P,J20,34*%
%TO.N,/nascom_ng_fdc/SPACE_READY*%
X120650000Y-85725000D03*
%TO.P,J20,32*%
%TO.N,/nascom_ng_fdc/ISSLT*%
X120650000Y-88265000D03*
%TO.P,J20,30*%
%TO.N,/nascom_ng_fdc/IRDATA*%
X120650000Y-90805000D03*
%TO.P,J20,28*%
%TO.N,/nascom_ng_fdc/IWPROT*%
X120650000Y-93345000D03*
%TO.P,J20,26*%
%TO.N,/nascom_ng_fdc/ITRK0*%
X120650000Y-95885000D03*
%TO.P,J20,24*%
%TO.N,/nascom_ng_fdc/IWAT*%
X120650000Y-98425000D03*
%TO.P,J20,22*%
%TO.N,/nascom_ng_fdc/IWDATA*%
X120650000Y-100965000D03*
%TO.P,J20,20*%
%TO.N,/nascom_ng_fdc/ISTEP*%
X120650000Y-103505000D03*
%TO.P,J20,18*%
%TO.N,/nascom_ng_fdc/IDIR*%
X120650000Y-106045000D03*
%TO.P,J20,16*%
%TO.N,/nascom_ng_fdc/IDEN*%
X120650000Y-108585000D03*
%TO.P,J20,14*%
%TO.N,/nascom_ng_fdc/ISLT2*%
X120650000Y-111125000D03*
%TO.P,J20,12*%
%TO.N,/nascom_ng_fdc/ISLT1*%
X120650000Y-113665000D03*
%TO.P,J20,10*%
%TO.N,/nascom_ng_fdc/ISLT0*%
X120650000Y-116205000D03*
%TO.P,J20,8*%
%TO.N,/nascom_ng_fdc/IINDEX*%
X120650000Y-118745000D03*
%TO.P,J20,6*%
%TO.N,/nascom_ng_fdc/ISLT3*%
X120650000Y-121285000D03*
%TO.P,J20,4*%
%TO.N,N/C*%
X120650000Y-123825000D03*
%TO.P,J20,2*%
X120650000Y-126365000D03*
%TO.P,J20,33*%
%TO.N,GND*%
X123190000Y-85725000D03*
%TO.P,J20,31*%
X123190000Y-88265000D03*
%TO.P,J20,29*%
X123190000Y-90805000D03*
%TO.P,J20,27*%
X123190000Y-93345000D03*
%TO.P,J20,25*%
X123190000Y-95885000D03*
%TO.P,J20,23*%
X123190000Y-98425000D03*
%TO.P,J20,21*%
X123190000Y-100965000D03*
%TO.P,J20,19*%
X123190000Y-103505000D03*
%TO.P,J20,17*%
X123190000Y-106045000D03*
%TO.P,J20,15*%
X123190000Y-108585000D03*
%TO.P,J20,13*%
X123190000Y-111125000D03*
%TO.P,J20,11*%
X123190000Y-113665000D03*
%TO.P,J20,9*%
X123190000Y-116205000D03*
%TO.P,J20,7*%
X123190000Y-118745000D03*
%TO.P,J20,5*%
X123190000Y-121285000D03*
%TO.P,J20,3*%
X123190000Y-123825000D03*
%TO.P,J20,1*%
%TA.AperFunction,ComponentPad*%
G36*
G01*
X124040000Y-125765000D02*
X124040000Y-126965000D01*
G75*
G02*
X123790000Y-127215000I-250000J0D01*
G01*
X122590000Y-127215000D01*
G75*
G02*
X122340000Y-126965000I0J250000D01*
G01*
X122340000Y-125765000D01*
G75*
G02*
X122590000Y-125515000I250000J0D01*
G01*
X123790000Y-125515000D01*
G75*
G02*
X124040000Y-125765000I0J-250000D01*
G01*
G37*
%TD.AperFunction*%
%TD*%
%TO.P,J4,16*%
%TO.N,+5V*%
X43180000Y-38100000D03*
%TO.P,J4,14*%
%TO.N,/nascom_ng_pio/CLK_TRG3*%
X43180000Y-40640000D03*
%TO.P,J4,12*%
%TO.N,/nascom_ng_pio/ZC_TO2*%
X43180000Y-43180000D03*
%TO.P,J4,10*%
%TO.N,/nascom_ng_pio/CLK_TRG2*%
X43180000Y-45720000D03*
%TO.P,J4,8*%
%TO.N,/nascom_ng_pio/ZC_TO1*%
X43180000Y-48260000D03*
%TO.P,J4,6*%
%TO.N,/nascom_ng_pio/CLK_TRG1*%
X43180000Y-50800000D03*
%TO.P,J4,4*%
%TO.N,/nascom_ng_pio/ZC_TO0*%
X43180000Y-53340000D03*
%TO.P,J4,2*%
%TO.N,/nascom_ng_pio/CLK_TRG0*%
X43180000Y-55880000D03*
%TO.P,J4,15*%
%TO.N,GND*%
X45720000Y-38100000D03*
%TO.P,J4,13*%
%TO.N,CLK4_5V*%
X45720000Y-40640000D03*
%TO.P,J4,11*%
%TO.N,/nascom_ng_pio/CLK_TRG0*%
X45720000Y-43180000D03*
%TO.P,J4,9*%
%TO.N,CLK4_5V*%
X45720000Y-45720000D03*
%TO.P,J4,7*%
%TO.N,/nascom_ng_pio/CLK_TRG3*%
X45720000Y-48260000D03*
%TO.P,J4,5*%
%TO.N,CLK4_5V*%
X45720000Y-50800000D03*
%TO.P,J4,3*%
%TO.N,/nascom_ng_pio/CLK_TRG2*%
X45720000Y-53340000D03*
%TO.P,J4,1*%
%TO.N,CLK4_5V*%
%TA.AperFunction,ComponentPad*%
G36*
G01*
X46570000Y-55280000D02*
X46570000Y-56480000D01*
G75*
G02*
X46320000Y-56730000I-250000J0D01*
G01*
X45120000Y-56730000D01*
G75*
G02*
X44870000Y-56480000I0J250000D01*
G01*
X44870000Y-55280000D01*
G75*
G02*
X45120000Y-55030000I250000J0D01*
G01*
X46320000Y-55030000D01*
G75*
G02*
X46570000Y-55280000I0J-250000D01*
G01*
G37*
%TD.AperFunction*%
%TD*%
%TO.P,PL4,26*%
%TO.N,N/C*%
X31750000Y-113030000D03*
%TO.P,PL4,24*%
%TO.N,/nascom_ng_pio/PIO_A7*%
X31750000Y-115570000D03*
%TO.P,PL4,22*%
%TO.N,+5V*%
X31750000Y-118110000D03*
%TO.P,PL4,20*%
X31750000Y-120650000D03*
%TO.P,PL4,18*%
%TO.N,GND*%
X31750000Y-123190000D03*
%TO.P,PL4,16*%
X31750000Y-125730000D03*
%TO.P,PL4,14*%
%TO.N,N/C*%
X31750000Y-128270000D03*
%TO.P,PL4,12*%
%TO.N,/nascom_ng_pio/PIO_BRDY*%
X31750000Y-130810000D03*
%TO.P,PL4,10*%
%TO.N,/nascom_ng_pio/PIO_B0*%
X31750000Y-133350000D03*
%TO.P,PL4,8*%
%TO.N,/nascom_ng_pio/PIO_B1*%
X31750000Y-135890000D03*
%TO.P,PL4,6*%
%TO.N,/nascom_ng_pio/PIO_B2*%
X31750000Y-138430000D03*
%TO.P,PL4,4*%
%TO.N,/nascom_ng_pio/PIO_B3*%
X31750000Y-140970000D03*
%TO.P,PL4,2*%
%TO.N,/nascom_ng_pio/PIO_B4*%
X31750000Y-143510000D03*
%TO.P,PL4,25*%
%TO.N,/nascom_ng_pio/PIO_A6*%
X34290000Y-113030000D03*
%TO.P,PL4,23*%
%TO.N,/nascom_ng_pio/PIO_A5*%
X34290000Y-115570000D03*
%TO.P,PL4,21*%
%TO.N,/nascom_ng_pio/PIO_A4*%
X34290000Y-118110000D03*
%TO.P,PL4,19*%
%TO.N,/nascom_ng_pio/PIO_A3*%
X34290000Y-120650000D03*
%TO.P,PL4,17*%
%TO.N,/nascom_ng_pio/PIO_A2*%
X34290000Y-123190000D03*
%TO.P,PL4,15*%
%TO.N,/nascom_ng_pio/PIO_A1*%
X34290000Y-125730000D03*
%TO.P,PL4,13*%
%TO.N,/nascom_ng_pio/PIO_A0*%
X34290000Y-128270000D03*
%TO.P,PL4,11*%
%TO.N,/nascom_ng_pio/~PIO_ASTB*%
X34290000Y-130810000D03*
%TO.P,PL4,9*%
%TO.N,/nascom_ng_pio/~PIO_BSTB*%
X34290000Y-133350000D03*
%TO.P,PL4,7*%
%TO.N,/nascom_ng_pio/PIO_ARDY*%
X34290000Y-135890000D03*
%TO.P,PL4,5*%
%TO.N,/nascom_ng_pio/PIO_B7*%
X34290000Y-138430000D03*
%TO.P,PL4,3*%
%TO.N,/nascom_ng_pio/PIO_B6*%
X34290000Y-140970000D03*
%TO.P,PL4,1*%
%TO.N,/nascom_ng_pio/PIO_B5*%
%TA.AperFunction,ComponentPad*%
G36*
G01*
X35140000Y-142910000D02*
X35140000Y-144110000D01*
G75*
G02*
X34890000Y-144360000I-250000J0D01*
G01*
X33690000Y-144360000D01*
G75*
G02*
X33440000Y-144110000I0J250000D01*
G01*
X33440000Y-142910000D01*
G75*
G02*
X33690000Y-142660000I250000J0D01*
G01*
X34890000Y-142660000D01*
G75*
G02*
X35140000Y-142910000I0J-250000D01*
G01*
G37*
%TD.AperFunction*%
%TD*%
%TO.P,PL3,16*%
%TO.N,GND*%
X31750000Y-68580000D03*
%TO.P,PL3,14*%
%TO.N,~KBDRST_5V*%
X31750000Y-71120000D03*
%TO.P,PL3,12*%
%TO.N,~KBDCLK_5V*%
X31750000Y-73660000D03*
%TO.P,PL3,10*%
%TO.N,PIN144_RST*%
X31750000Y-76200000D03*
%TO.P,PL3,8*%
%TO.N,N/C*%
X31750000Y-78740000D03*
%TO.P,PL3,6*%
X31750000Y-81280000D03*
%TO.P,PL3,4*%
%TO.N,PIN21_IN_NMI*%
X31750000Y-83820000D03*
%TO.P,PL3,2*%
%TO.N,+5V*%
X31750000Y-86360000D03*
%TO.P,PL3,15*%
%TO.N,/nascom_ng_connectors/~KBDS7*%
X34290000Y-68580000D03*
%TO.P,PL3,13*%
%TO.N,/nascom_ng_connectors/~KBDS6*%
X34290000Y-71120000D03*
%TO.P,PL3,11*%
%TO.N,/nascom_ng_connectors/~KBDS5*%
X34290000Y-73660000D03*
%TO.P,PL3,9*%
%TO.N,/nascom_ng_connectors/~KBDS4*%
X34290000Y-76200000D03*
%TO.P,PL3,7*%
%TO.N,/nascom_ng_connectors/~KBDS3*%
X34290000Y-78740000D03*
%TO.P,PL3,5*%
%TO.N,/nascom_ng_connectors/~KBDS2*%
X34290000Y-81280000D03*
%TO.P,PL3,3*%
%TO.N,/nascom_ng_connectors/~KBDS1*%
X34290000Y-83820000D03*
%TO.P,PL3,1*%
%TO.N,/nascom_ng_connectors/~KBDS0*%
%TA.AperFunction,ComponentPad*%
G36*
G01*
X35140000Y-85760000D02*
X35140000Y-86960000D01*
G75*
G02*
X34890000Y-87210000I-250000J0D01*
G01*
X33690000Y-87210000D01*
G75*
G02*
X33440000Y-86960000I0J250000D01*
G01*
X33440000Y-85760000D01*
G75*
G02*
X33690000Y-85510000I250000J0D01*
G01*
X34890000Y-85510000D01*
G75*
G02*
X35140000Y-85760000I0J-250000D01*
G01*
G37*
%TD.AperFunction*%
%TD*%
%TO.P,PL2,16*%
%TO.N,N/C*%
X31750000Y-38100000D03*
%TO.P,PL2,14*%
X31750000Y-40640000D03*
%TO.P,PL2,12*%
%TO.N,TX_5V*%
X31750000Y-43180000D03*
%TO.P,PL2,10*%
%TO.N,N/C*%
X31750000Y-45720000D03*
%TO.P,PL2,8*%
X31750000Y-48260000D03*
%TO.P,PL2,6*%
X31750000Y-50800000D03*
%TO.P,PL2,4*%
%TO.N,TXBAUDCLK_5V*%
X31750000Y-53340000D03*
%TO.P,PL2,2*%
%TO.N,+5V*%
X31750000Y-55880000D03*
%TO.P,PL2,15*%
%TO.N,GND*%
X34290000Y-38100000D03*
%TO.P,PL2,13*%
%TO.N,N/C*%
X34290000Y-40640000D03*
%TO.P,PL2,11*%
%TO.N,GND*%
X34290000Y-43180000D03*
%TO.P,PL2,9*%
%TO.N,RX_5V*%
X34290000Y-45720000D03*
%TO.P,PL2,7*%
%TO.N,N/C*%
X34290000Y-48260000D03*
%TO.P,PL2,5*%
%TO.N,RXBAUDCLK_5V*%
X34290000Y-50800000D03*
%TO.P,PL2,3*%
%TO.N,RX_5V*%
X34290000Y-53340000D03*
%TO.P,PL2,1*%
%TO.N,TAPE_DRIVE_5V*%
%TA.AperFunction,ComponentPad*%
G36*
G01*
X35140000Y-55280000D02*
X35140000Y-56480000D01*
G75*
G02*
X34890000Y-56730000I-250000J0D01*
G01*
X33690000Y-56730000D01*
G75*
G02*
X33440000Y-56480000I0J250000D01*
G01*
X33440000Y-55280000D01*
G75*
G02*
X33690000Y-55030000I250000J0D01*
G01*
X34890000Y-55030000D01*
G75*
G02*
X35140000Y-55280000I0J-250000D01*
G01*
G37*
%TD.AperFunction*%
%TD*%
D12*
%TO.P,U3,16*%
%TO.N,+5V*%
X83820000Y-44450000D03*
%TO.P,U3,8*%
%TO.N,GND*%
X76200000Y-62230000D03*
%TO.P,U3,15*%
%TO.N,Net-(C8-Pad1)*%
X83820000Y-46990000D03*
%TO.P,U3,7*%
%TO.N,Net-(C10-Pad1)*%
X76200000Y-59690000D03*
%TO.P,U3,14*%
%TO.N,GND*%
X83820000Y-49530000D03*
%TO.P,U3,6*%
X76200000Y-57150000D03*
%TO.P,U3,13*%
%TO.N,DRIVE_ENABLE*%
X83820000Y-52070000D03*
%TO.P,U3,5*%
%TO.N,N/C*%
X76200000Y-54610000D03*
%TO.P,U3,12*%
%TO.N,/nascom_ng_fdc2/MONO_READY*%
X83820000Y-54610000D03*
%TO.P,U3,4*%
%TO.N,N/C*%
X76200000Y-52070000D03*
%TO.P,U3,11*%
%TO.N,+5V*%
X83820000Y-57150000D03*
%TO.P,U3,3*%
%TO.N,~IO_RESET_5V*%
X76200000Y-49530000D03*
%TO.P,U3,10*%
%TO.N,DRIVE_ENABLE*%
X83820000Y-59690000D03*
%TO.P,U3,2*%
%TO.N,+5V*%
X76200000Y-46990000D03*
%TO.P,U3,9*%
%TO.N,GND*%
X83820000Y-62230000D03*
D11*
%TO.P,U3,1*%
%TO.N,PORTE4_WR_5V*%
X76200000Y-44450000D03*
%TD*%
D12*
%TO.P,U4,14*%
%TO.N,+5V*%
X104140000Y-44450000D03*
%TO.P,U4,7*%
%TO.N,GND*%
X96520000Y-59690000D03*
%TO.P,U4,13*%
%TO.N,/nascom_ng_fdc2/DRIVE_READY*%
X104140000Y-46990000D03*
%TO.P,U4,6*%
%TO.N,Net-(J3-Pad1)*%
X96520000Y-57150000D03*
%TO.P,U4,12*%
%TO.N,~READY_5V*%
X104140000Y-49530000D03*
%TO.P,U4,5*%
%TO.N,~DRIVE_READY*%
X96520000Y-54610000D03*
%TO.P,U4,11*%
%TO.N,~READY_5V*%
X104140000Y-52070000D03*
%TO.P,U4,4*%
%TO.N,+5V*%
X96520000Y-52070000D03*
%TO.P,U4,10*%
%TO.N,~READY_5V*%
X104140000Y-54610000D03*
%TO.P,U4,3*%
%TO.N,+5V*%
X96520000Y-49530000D03*
%TO.P,U4,9*%
%TO.N,~READY_5V*%
X104140000Y-57150000D03*
%TO.P,U4,2*%
%TO.N,/nascom_ng_fdc2/MONO_READY*%
X96520000Y-46990000D03*
%TO.P,U4,8*%
%TO.N,READY*%
X104140000Y-59690000D03*
D11*
%TO.P,U4,1*%
%TO.N,DRIVE_ENABLE*%
X96520000Y-44450000D03*
%TD*%
D12*
%TO.P,U14,16*%
%TO.N,+5V*%
X97790000Y-95250000D03*
%TO.P,U14,8*%
%TO.N,GND*%
X90170000Y-113030000D03*
%TO.P,U14,15*%
%TO.N,/nascom_ng_fdc/EIGHTINCH*%
X97790000Y-97790000D03*
%TO.P,U14,7*%
%TO.N,Net-(U14-Pad7)*%
X90170000Y-110490000D03*
%TO.P,U14,14*%
%TO.N,D5_5V*%
X97790000Y-100330000D03*
%TO.P,U14,6*%
%TO.N,D2_5V*%
X90170000Y-107950000D03*
%TO.P,U14,13*%
%TO.N,D4_5V*%
X97790000Y-102870000D03*
%TO.P,U14,5*%
%TO.N,Net-(U14-Pad5)*%
X90170000Y-105410000D03*
%TO.P,U14,12*%
%TO.N,/nascom_ng_fdc/~DDEN*%
X97790000Y-105410000D03*
%TO.P,U14,4*%
%TO.N,D1_5V*%
X90170000Y-102870000D03*
%TO.P,U14,11*%
%TO.N,D3_5V*%
X97790000Y-107950000D03*
%TO.P,U14,3*%
%TO.N,D0_5V*%
X90170000Y-100330000D03*
%TO.P,U14,10*%
%TO.N,Net-(U14-Pad10)*%
X97790000Y-110490000D03*
%TO.P,U14,2*%
%TO.N,Net-(U14-Pad2)*%
X90170000Y-97790000D03*
%TO.P,U14,9*%
%TO.N,PORTE4_WR_5V*%
X97790000Y-113030000D03*
D11*
%TO.P,U14,1*%
%TO.N,~IO_RESET_5V*%
X90170000Y-95250000D03*
%TD*%
D12*
%TO.P,U17,14*%
%TO.N,+5V*%
X113030000Y-128905000D03*
%TO.P,U17,7*%
%TO.N,GND*%
X105410000Y-144145000D03*
%TO.P,U17,13*%
%TO.N,/nascom_ng_fdc/BHEAD_LOAD*%
X113030000Y-131445000D03*
%TO.P,U17,6*%
%TO.N,/nascom_ng_fdc/ISLT1*%
X105410000Y-141605000D03*
%TO.P,U17,12*%
%TO.N,Net-(U14-Pad10)*%
X113030000Y-133985000D03*
%TO.P,U17,5*%
%TO.N,/nascom_ng_fdc/BHEAD_LOAD*%
X105410000Y-139065000D03*
%TO.P,U17,11*%
%TO.N,Net-(J10-Pad1)*%
X113030000Y-136525000D03*
%TO.P,U17,4*%
%TO.N,Net-(U14-Pad5)*%
X105410000Y-136525000D03*
%TO.P,U17,10*%
%TO.N,/nascom_ng_fdc/BHEAD_LOAD*%
X113030000Y-139065000D03*
%TO.P,U17,3*%
%TO.N,/nascom_ng_fdc/ISLT0*%
X105410000Y-133985000D03*
%TO.P,U17,9*%
%TO.N,Net-(U14-Pad7)*%
X113030000Y-141605000D03*
%TO.P,U17,2*%
%TO.N,/nascom_ng_fdc/BHEAD_LOAD*%
X105410000Y-131445000D03*
%TO.P,U17,8*%
%TO.N,/nascom_ng_fdc/ISLT2*%
X113030000Y-144145000D03*
D11*
%TO.P,U17,1*%
%TO.N,Net-(U14-Pad2)*%
X105410000Y-128905000D03*
%TD*%
D12*
%TO.P,U8,20*%
%TO.N,+5V*%
X48260000Y-66040000D03*
%TO.P,U8,10*%
%TO.N,GND*%
X40640000Y-88900000D03*
%TO.P,U8,19*%
%TO.N,PIN87_PORT0RD*%
X48260000Y-68580000D03*
%TO.P,U8,9*%
%TO.N,D0_5V*%
X40640000Y-86360000D03*
%TO.P,U8,18*%
%TO.N,D7_5V*%
X48260000Y-71120000D03*
%TO.P,U8,8*%
%TO.N,/nascom_ng_connectors/~KBDS1*%
X40640000Y-83820000D03*
%TO.P,U8,17*%
%TO.N,/nascom_ng_connectors/~KBDS6*%
X48260000Y-73660000D03*
%TO.P,U8,7*%
%TO.N,D3_5V*%
X40640000Y-81280000D03*
%TO.P,U8,16*%
%TO.N,D5_5V*%
X48260000Y-76200000D03*
%TO.P,U8,6*%
%TO.N,/nascom_ng_connectors/~KBDS2*%
X40640000Y-78740000D03*
%TO.P,U8,15*%
%TO.N,/nascom_ng_connectors/~KBDS4*%
X48260000Y-78740000D03*
%TO.P,U8,5*%
%TO.N,D4_5V*%
X40640000Y-76200000D03*
%TO.P,U8,14*%
%TO.N,D2_5V*%
X48260000Y-81280000D03*
%TO.P,U8,4*%
%TO.N,/nascom_ng_connectors/~KBDS5*%
X40640000Y-73660000D03*
%TO.P,U8,13*%
%TO.N,/nascom_ng_connectors/~KBDS3*%
X48260000Y-83820000D03*
%TO.P,U8,3*%
%TO.N,D6_5V*%
X40640000Y-71120000D03*
%TO.P,U8,12*%
%TO.N,D1_5V*%
X48260000Y-86360000D03*
%TO.P,U8,2*%
%TO.N,/nascom_ng_connectors/~KBDS7*%
X40640000Y-68580000D03*
%TO.P,U8,11*%
%TO.N,/nascom_ng_connectors/~KBDS0*%
X48260000Y-88900000D03*
D11*
%TO.P,U8,1*%
%TO.N,PIN87_PORT0RD*%
X40640000Y-66040000D03*
%TD*%
D12*
%TO.P,U11,16*%
%TO.N,+5V*%
X113030000Y-80645000D03*
%TO.P,U11,8*%
%TO.N,GND*%
X105410000Y-98425000D03*
%TO.P,U11,15*%
X113030000Y-83185000D03*
%TO.P,U11,7*%
%TO.N,/nascom_ng_fdc/BHEAD_LOAD*%
X105410000Y-95885000D03*
%TO.P,U11,14*%
%TO.N,/nascom_ng_fdc/IWPROT*%
X113030000Y-85725000D03*
%TO.P,U11,6*%
%TO.N,/nascom_ng_fdc/HEAD_LOAD*%
X105410000Y-93345000D03*
%TO.P,U11,13*%
%TO.N,/nascom_ng_fdc/BIWPROT*%
X113030000Y-88265000D03*
%TO.P,U11,5*%
%TO.N,/nascom_ng_fdc/BIRDATA*%
X105410000Y-90805000D03*
%TO.P,U11,12*%
%TO.N,/nascom_ng_fdc/IINDEX*%
X113030000Y-90805000D03*
%TO.P,U11,4*%
%TO.N,/nascom_ng_fdc/IRDATA*%
X105410000Y-88265000D03*
%TO.P,U11,11*%
%TO.N,/nascom_ng_fdc/BIINDEX*%
X113030000Y-93345000D03*
%TO.P,U11,3*%
%TO.N,/nascom_ng_fdc/BITRK0*%
X105410000Y-85725000D03*
%TO.P,U11,10*%
%TO.N,N/C*%
X113030000Y-95885000D03*
%TO.P,U11,2*%
%TO.N,/nascom_ng_fdc/ITRK0*%
X105410000Y-83185000D03*
%TO.P,U11,9*%
%TO.N,N/C*%
X113030000Y-98425000D03*
D11*
%TO.P,U11,1*%
%TO.N,GND*%
X105410000Y-80645000D03*
%TD*%
D12*
%TO.P,U2,20*%
%TO.N,+3V3*%
X152400000Y-38100000D03*
%TO.P,U2,10*%
%TO.N,GND*%
X175260000Y-45720000D03*
%TO.P,U2,19*%
%TO.N,~PIN104_IOBUFOE*%
X154940000Y-38100000D03*
%TO.P,U2,9*%
%TO.N,PIN122_D7*%
X172720000Y-45720000D03*
%TO.P,U2,18*%
%TO.N,D3_5V*%
X157480000Y-38100000D03*
%TO.P,U2,8*%
%TO.N,PIN120_D6*%
X170180000Y-45720000D03*
%TO.P,U2,17*%
%TO.N,D2_5V*%
X160020000Y-38100000D03*
%TO.P,U2,7*%
%TO.N,PIN119_D0*%
X167640000Y-45720000D03*
%TO.P,U2,16*%
%TO.N,D4_5V*%
X162560000Y-38100000D03*
%TO.P,U2,6*%
%TO.N,PIN118_D5*%
X165100000Y-45720000D03*
%TO.P,U2,15*%
%TO.N,D1_5V*%
X165100000Y-38100000D03*
%TO.P,U2,5*%
%TO.N,PIN115_D1*%
X162560000Y-45720000D03*
%TO.P,U2,14*%
%TO.N,D5_5V*%
X167640000Y-38100000D03*
%TO.P,U2,4*%
%TO.N,PIN114_D4*%
X160020000Y-45720000D03*
%TO.P,U2,13*%
%TO.N,D0_5V*%
X170180000Y-38100000D03*
%TO.P,U2,3*%
%TO.N,PIN113_D2*%
X157480000Y-45720000D03*
%TO.P,U2,12*%
%TO.N,D6_5V*%
X172720000Y-38100000D03*
%TO.P,U2,2*%
%TO.N,PIN112_D3*%
X154940000Y-45720000D03*
%TO.P,U2,11*%
%TO.N,D7_5V*%
X175260000Y-38100000D03*
D11*
%TO.P,U2,1*%
%TO.N,PIN96_IOBUFWR*%
X152400000Y-45720000D03*
%TD*%
D12*
%TO.P,U13,40*%
%TO.N,/nascom_ng_fdc/HLT*%
X83820000Y-95250000D03*
%TO.P,U13,20*%
%TO.N,GND*%
X68580000Y-143510000D03*
%TO.P,U13,39*%
%TO.N,INTRQ_5V*%
X83820000Y-97790000D03*
%TO.P,U13,19*%
%TO.N,~IO_RESET_5V*%
X68580000Y-140970000D03*
%TO.P,U13,38*%
%TO.N,DRQ_5V*%
X83820000Y-100330000D03*
%TO.P,U13,18*%
%TO.N,Net-(RV2-Pad2)*%
X68580000Y-138430000D03*
%TO.P,U13,37*%
%TO.N,/nascom_ng_fdc/~DDEN*%
X83820000Y-102870000D03*
%TO.P,U13,17*%
%TO.N,/nascom_ng_fdc/EIGHTINCH*%
X68580000Y-135890000D03*
%TO.P,U13,36*%
%TO.N,/nascom_ng_fdc/BIWPROT*%
X83820000Y-105410000D03*
%TO.P,U13,16*%
%TO.N,Net-(U13-Pad16)*%
X68580000Y-133350000D03*
%TO.P,U13,35*%
%TO.N,/nascom_ng_fdc/BIINDEX*%
X83820000Y-107950000D03*
%TO.P,U13,15*%
%TO.N,Net-(U13-Pad15)*%
X68580000Y-130810000D03*
%TO.P,U13,34*%
%TO.N,/nascom_ng_fdc/BITRK0*%
X83820000Y-110490000D03*
%TO.P,U13,14*%
%TO.N,D7_5V*%
X68580000Y-128270000D03*
%TO.P,U13,33*%
%TO.N,Net-(RV1-Pad2)*%
X83820000Y-113030000D03*
%TO.P,U13,13*%
%TO.N,D6_5V*%
X68580000Y-125730000D03*
%TO.P,U13,32*%
%TO.N,READY*%
X83820000Y-115570000D03*
%TO.P,U13,12*%
%TO.N,D5_5V*%
X68580000Y-123190000D03*
%TO.P,U13,31*%
%TO.N,Net-(U13-Pad31)*%
X83820000Y-118110000D03*
%TO.P,U13,11*%
%TO.N,D4_5V*%
X68580000Y-120650000D03*
%TO.P,U13,30*%
%TO.N,Net-(U13-Pad30)*%
X83820000Y-120650000D03*
%TO.P,U13,10*%
%TO.N,D3_5V*%
X68580000Y-118110000D03*
%TO.P,U13,29*%
%TO.N,Net-(J5-Pad3)*%
X83820000Y-123190000D03*
%TO.P,U13,9*%
%TO.N,D2_5V*%
X68580000Y-115570000D03*
%TO.P,U13,28*%
%TO.N,/nascom_ng_fdc/HEAD_LOAD*%
X83820000Y-125730000D03*
%TO.P,U13,8*%
%TO.N,D1_5V*%
X68580000Y-113030000D03*
%TO.P,U13,27*%
%TO.N,/nascom_ng_fdc/~RAW_READ*%
X83820000Y-128270000D03*
%TO.P,U13,7*%
%TO.N,D0_5V*%
X68580000Y-110490000D03*
%TO.P,U13,26*%
%TO.N,Net-(C25-Pad1)*%
X83820000Y-130810000D03*
%TO.P,U13,6*%
%TO.N,A1_5V*%
X68580000Y-107950000D03*
%TO.P,U13,25*%
%TO.N,Net-(U13-Pad25)*%
X83820000Y-133350000D03*
%TO.P,U13,5*%
%TO.N,A0_5V*%
X68580000Y-105410000D03*
%TO.P,U13,24*%
%TO.N,CLK1_5V*%
X83820000Y-135890000D03*
%TO.P,U13,4*%
%TO.N,~RD_5V*%
X68580000Y-102870000D03*
%TO.P,U13,23*%
%TO.N,Net-(C24-Pad2)*%
X83820000Y-138430000D03*
%TO.P,U13,3*%
%TO.N,~FDC_CS_5V*%
X68580000Y-100330000D03*
%TO.P,U13,22*%
%TO.N,Net-(JP1-Pad2)*%
X83820000Y-140970000D03*
%TO.P,U13,2*%
%TO.N,~WR_5V*%
X68580000Y-97790000D03*
%TO.P,U13,21*%
%TO.N,+5V*%
X83820000Y-143510000D03*
D11*
%TO.P,U13,1*%
%TO.N,Net-(J5-Pad1)*%
X68580000Y-95250000D03*
%TD*%
D12*
%TO.P,U12,40*%
%TO.N,D3_5V*%
X58420000Y-95250000D03*
%TO.P,U12,20*%
%TO.N,D1_5V*%
X43180000Y-143510000D03*
%TO.P,U12,39*%
%TO.N,D4_5V*%
X58420000Y-97790000D03*
%TO.P,U12,19*%
%TO.N,D0_5V*%
X43180000Y-140970000D03*
%TO.P,U12,38*%
%TO.N,D5_5V*%
X58420000Y-100330000D03*
%TO.P,U12,18*%
%TO.N,/nascom_ng_pio/PIO_ARDY*%
X43180000Y-138430000D03*
%TO.P,U12,37*%
%TO.N,~M1_5V*%
X58420000Y-102870000D03*
%TO.P,U12,17*%
%TO.N,/nascom_ng_pio/~PIO_BSTB*%
X43180000Y-135890000D03*
%TO.P,U12,36*%
%TO.N,~IORQ_5V*%
X58420000Y-105410000D03*
%TO.P,U12,16*%
%TO.N,/nascom_ng_pio/~PIO_ASTB*%
X43180000Y-133350000D03*
%TO.P,U12,35*%
%TO.N,~RD_5V*%
X58420000Y-107950000D03*
%TO.P,U12,15*%
%TO.N,/nascom_ng_pio/PIO_A0*%
X43180000Y-130810000D03*
%TO.P,U12,34*%
%TO.N,/nascom_ng_pio/PIO_B7*%
X58420000Y-110490000D03*
%TO.P,U12,14*%
%TO.N,/nascom_ng_pio/PIO_A1*%
X43180000Y-128270000D03*
%TO.P,U12,33*%
%TO.N,/nascom_ng_pio/PIO_B6*%
X58420000Y-113030000D03*
%TO.P,U12,13*%
%TO.N,/nascom_ng_pio/PIO_A2*%
X43180000Y-125730000D03*
%TO.P,U12,32*%
%TO.N,/nascom_ng_pio/PIO_B5*%
X58420000Y-115570000D03*
%TO.P,U12,12*%
%TO.N,/nascom_ng_pio/PIO_A3*%
X43180000Y-123190000D03*
%TO.P,U12,31*%
%TO.N,/nascom_ng_pio/PIO_B4*%
X58420000Y-118110000D03*
%TO.P,U12,11*%
%TO.N,GND*%
X43180000Y-120650000D03*
%TO.P,U12,30*%
%TO.N,/nascom_ng_pio/PIO_B3*%
X58420000Y-120650000D03*
%TO.P,U12,10*%
%TO.N,/nascom_ng_pio/PIO_A4*%
X43180000Y-118110000D03*
%TO.P,U12,29*%
%TO.N,/nascom_ng_pio/PIO_B2*%
X58420000Y-123190000D03*
%TO.P,U12,9*%
%TO.N,/nascom_ng_pio/PIO_A5*%
X43180000Y-115570000D03*
%TO.P,U12,28*%
%TO.N,/nascom_ng_pio/PIO_B1*%
X58420000Y-125730000D03*
%TO.P,U12,8*%
%TO.N,/nascom_ng_pio/PIO_A6*%
X43180000Y-113030000D03*
%TO.P,U12,27*%
%TO.N,/nascom_ng_pio/PIO_B0*%
X58420000Y-128270000D03*
%TO.P,U12,7*%
%TO.N,/nascom_ng_pio/PIO_A7*%
X43180000Y-110490000D03*
%TO.P,U12,26*%
%TO.N,+5V*%
X58420000Y-130810000D03*
%TO.P,U12,6*%
%TO.N,A0_5V*%
X43180000Y-107950000D03*
%TO.P,U12,25*%
%TO.N,CLK4_5V*%
X58420000Y-133350000D03*
%TO.P,U12,5*%
%TO.N,A1_5V*%
X43180000Y-105410000D03*
%TO.P,U12,24*%
%TO.N,/nascom_ng_pio/PUP_EIE*%
X58420000Y-135890000D03*
%TO.P,U12,4*%
%TO.N,~PIO_CS_5V*%
X43180000Y-102870000D03*
%TO.P,U12,23*%
%TO.N,~INT_5V*%
X58420000Y-138430000D03*
%TO.P,U12,3*%
%TO.N,D6_5V*%
X43180000Y-100330000D03*
%TO.P,U12,22*%
%TO.N,/nascom_ng_pio/PIO_EIO*%
X58420000Y-140970000D03*
%TO.P,U12,2*%
%TO.N,D7_5V*%
X43180000Y-97790000D03*
%TO.P,U12,21*%
%TO.N,/nascom_ng_pio/PIO_BRDY*%
X58420000Y-143510000D03*
D11*
%TO.P,U12,1*%
%TO.N,D2_5V*%
X43180000Y-95250000D03*
%TD*%
D17*
%TO.P,R7,2*%
%TO.N,/nascom_ng_fdc2/DRIVE_READY*%
X91440000Y-49530000D03*
D18*
%TO.P,R7,1*%
%TO.N,+5V*%
X91440000Y-57150000D03*
%TD*%
D17*
%TO.P,R9,2*%
%TO.N,~DRIVE_READY*%
X88900000Y-49530000D03*
D18*
%TO.P,R9,1*%
%TO.N,+5V*%
X88900000Y-57150000D03*
%TD*%
D17*
%TO.P,R8,2*%
%TO.N,Net-(C8-Pad1)*%
X86360000Y-49530000D03*
D18*
%TO.P,R8,1*%
%TO.N,+5V*%
X86360000Y-57150000D03*
%TD*%
D17*
%TO.P,R6,2*%
%TO.N,Net-(C10-Pad1)*%
X93980000Y-57150000D03*
D18*
%TO.P,R6,1*%
%TO.N,+5V*%
X93980000Y-49530000D03*
%TD*%
D17*
%TO.P,R16,2*%
%TO.N,Net-(C12-Pad1)*%
X86360000Y-80010000D03*
D18*
%TO.P,R16,1*%
%TO.N,+5V*%
X86360000Y-87630000D03*
%TD*%
D17*
%TO.P,R11,2*%
%TO.N,Net-(C15-Pad2)*%
X88900000Y-87630000D03*
D18*
%TO.P,R11,1*%
%TO.N,+5V*%
X88900000Y-80010000D03*
%TD*%
D17*
%TO.P,R20,2*%
%TO.N,GND*%
X94615000Y-144145000D03*
D18*
%TO.P,R20,1*%
%TO.N,Net-(C24-Pad1)*%
X86995000Y-144145000D03*
%TD*%
D17*
%TO.P,R13,2*%
%TO.N,/nascom_ng_fdc/IWPROT*%
X130810000Y-89535000D03*
D18*
%TO.P,R13,1*%
%TO.N,+5V*%
X130810000Y-81915000D03*
%TD*%
D17*
%TO.P,R15,2*%
%TO.N,/nascom_ng_fdc/IINDEX*%
X135890000Y-89535000D03*
D18*
%TO.P,R15,1*%
%TO.N,+5V*%
X135890000Y-81915000D03*
%TD*%
D17*
%TO.P,R12,2*%
%TO.N,/nascom_ng_fdc/IRDATA*%
X128270000Y-89535000D03*
D18*
%TO.P,R12,1*%
%TO.N,+5V*%
X128270000Y-81915000D03*
%TD*%
D17*
%TO.P,R14,2*%
%TO.N,/nascom_ng_fdc/ITRK0*%
X133350000Y-89535000D03*
D18*
%TO.P,R14,1*%
%TO.N,+5V*%
X133350000Y-81915000D03*
%TD*%
D17*
%TO.P,R3,2*%
%TO.N,PIN9_HALT*%
X186690000Y-45720000D03*
D18*
%TO.P,R3,1*%
%TO.N,Net-(D2-Pad1)*%
X186690000Y-38100000D03*
%TD*%
D17*
%TO.P,R4,2*%
%TO.N,PIN3_SDACTIVE*%
X189230000Y-45720000D03*
D18*
%TO.P,R4,1*%
%TO.N,Net-(D3-Pad1)*%
X189230000Y-38100000D03*
%TD*%
D17*
%TO.P,R2,2*%
%TO.N,PIN7_TAPE_DRIVE*%
X184150000Y-45720000D03*
D18*
%TO.P,R2,1*%
%TO.N,Net-(D1-Pad1)*%
X184150000Y-38100000D03*
%TD*%
D17*
%TO.P,R21,2*%
%TO.N,~INT_5V*%
X56515000Y-147320000D03*
D18*
%TO.P,R21,1*%
%TO.N,+5V*%
X48895000Y-147320000D03*
%TD*%
D17*
%TO.P,R26,2*%
%TO.N,PIN52_SEC_VIDEO*%
X127635000Y-155575000D03*
D18*
%TO.P,R26,1*%
%TO.N,/nascom_ng_connectors/SEC_BLUE*%
X120015000Y-155575000D03*
%TD*%
D17*
%TO.P,R27,2*%
%TO.N,PIN52_SEC_VIDEO*%
X137795000Y-155575000D03*
D18*
%TO.P,R27,1*%
%TO.N,/nascom_ng_connectors/SEC_GREEN*%
X130175000Y-155575000D03*
%TD*%
D17*
%TO.P,R28,2*%
%TO.N,PIN52_SEC_VIDEO*%
X147955000Y-155575000D03*
D18*
%TO.P,R28,1*%
%TO.N,/nascom_ng_connectors/SEC_RED*%
X140335000Y-155575000D03*
%TD*%
D17*
%TO.P,R23,2*%
%TO.N,PIN53_PRI_VIDEO*%
X92075000Y-155575000D03*
D18*
%TO.P,R23,1*%
%TO.N,/nascom_ng_connectors/PRI_BLUE*%
X84455000Y-155575000D03*
%TD*%
D17*
%TO.P,R24,2*%
%TO.N,PIN53_PRI_VIDEO*%
X102235000Y-155575000D03*
D18*
%TO.P,R24,1*%
%TO.N,/nascom_ng_connectors/PRE_GREEN*%
X94615000Y-155575000D03*
%TD*%
D17*
%TO.P,R25,2*%
%TO.N,PIN53_PRI_VIDEO*%
X112395000Y-155575000D03*
D18*
%TO.P,R25,1*%
%TO.N,/nascom_ng_connectors/PRI_RED*%
X104775000Y-155575000D03*
%TD*%
%TA.AperFunction,SMDPad,CuDef*%
D28*
%TO.P,JP1,1*%
%TO.N,GND*%
G36*
X87355000Y-147955000D02*
G01*
X87855000Y-147205000D01*
X88855000Y-147205000D01*
X88855000Y-148705000D01*
X87855000Y-148705000D01*
X87355000Y-147955000D01*
G37*
%TD.AperFunction*%
%TA.AperFunction,SMDPad,CuDef*%
%TO.P,JP1,2*%
%TO.N,Net-(JP1-Pad2)*%
G36*
X86405000Y-147205000D02*
G01*
X87555000Y-147205000D01*
X87055000Y-147955000D01*
X87555000Y-148705000D01*
X86405000Y-148705000D01*
X86405000Y-147205000D01*
G37*
%TD.AperFunction*%
%TD*%
D13*
%TO.P,J5,4*%
%TO.N,N/C*%
X71120000Y-90170000D03*
%TO.P,J5,3*%
%TO.N,Net-(J5-Pad3)*%
X68580000Y-90170000D03*
%TO.P,J5,2*%
%TO.N,GND*%
X71120000Y-87630000D03*
D14*
%TO.P,J5,1*%
%TO.N,Net-(J5-Pad1)*%
X68580000Y-87630000D03*
%TD*%
D13*
%TO.P,J3,2*%
%TO.N,/nascom_ng_fdc2/DRIVE_READY*%
X101600000Y-63500000D03*
D14*
%TO.P,J3,1*%
%TO.N,Net-(J3-Pad1)*%
X99060000Y-63500000D03*
%TD*%
D13*
%TO.P,J10,4*%
%TO.N,/nascom_ng_fdc/SPACE_READY*%
X120650000Y-142875000D03*
%TO.P,J10,3*%
%TO.N,~DRIVE_READY*%
X118110000Y-142875000D03*
%TO.P,J10,2*%
%TO.N,/nascom_ng_fdc/ISLT3*%
X120650000Y-140335000D03*
D14*
%TO.P,J10,1*%
%TO.N,Net-(J10-Pad1)*%
X118110000Y-140335000D03*
%TD*%
D13*
%TO.P,J12,3*%
%TO.N,+3V3*%
X166370000Y-149860000D03*
%TO.P,J12,2*%
%TO.N,Net-(J12-Pad2)*%
X163830000Y-149860000D03*
D14*
%TO.P,J12,1*%
%TO.N,+5V*%
X161290000Y-149860000D03*
%TD*%
D29*
%TO.P,J18,0*%
%TO.N,N/C*%
X145980000Y-161435000D03*
X120980000Y-161435000D03*
D10*
%TO.P,J18,15*%
X128635000Y-163345000D03*
%TO.P,J18,14*%
%TO.N,PIN48_SEC_VSYNC*%
X130925000Y-163345000D03*
%TO.P,J18,13*%
%TO.N,PIN47_SEC_HSYNC*%
X133215000Y-163345000D03*
%TO.P,J18,12*%
%TO.N,N/C*%
X135505000Y-163345000D03*
%TO.P,J18,11*%
X137795000Y-163345000D03*
%TO.P,J18,10*%
%TO.N,GND*%
X129780000Y-161365000D03*
%TO.P,J18,9*%
%TO.N,+3V3*%
X132070000Y-161365000D03*
%TO.P,J18,8*%
%TO.N,GND*%
X134360000Y-161365000D03*
%TO.P,J18,7*%
X136650000Y-161365000D03*
%TO.P,J18,6*%
X138940000Y-161365000D03*
%TO.P,J18,5*%
X128635000Y-159385000D03*
%TO.P,J18,4*%
%TO.N,N/C*%
X130925000Y-159385000D03*
%TO.P,J18,3*%
%TO.N,/nascom_ng_connectors/SEC_BLUE*%
X133215000Y-159385000D03*
%TO.P,J18,2*%
%TO.N,/nascom_ng_connectors/SEC_GREEN*%
X135505000Y-159385000D03*
D11*
%TO.P,J18,1*%
%TO.N,/nascom_ng_connectors/SEC_RED*%
X137795000Y-159385000D03*
%TD*%
D29*
%TO.P,J17,0*%
%TO.N,N/C*%
X110420000Y-161435000D03*
X85420000Y-161435000D03*
D10*
%TO.P,J17,15*%
X93075000Y-163345000D03*
%TO.P,J17,14*%
%TO.N,PIN51_PRI_VSYNC*%
X95365000Y-163345000D03*
%TO.P,J17,13*%
%TO.N,PIN55_PRI_HSYNC*%
X97655000Y-163345000D03*
%TO.P,J17,12*%
%TO.N,N/C*%
X99945000Y-163345000D03*
%TO.P,J17,11*%
X102235000Y-163345000D03*
%TO.P,J17,10*%
%TO.N,GND*%
X94220000Y-161365000D03*
%TO.P,J17,9*%
%TO.N,+3V3*%
X96510000Y-161365000D03*
%TO.P,J17,8*%
%TO.N,GND*%
X98800000Y-161365000D03*
%TO.P,J17,7*%
X101090000Y-161365000D03*
%TO.P,J17,6*%
X103380000Y-161365000D03*
%TO.P,J17,5*%
X93075000Y-159385000D03*
%TO.P,J17,4*%
%TO.N,N/C*%
X95365000Y-159385000D03*
%TO.P,J17,3*%
%TO.N,/nascom_ng_connectors/PRI_BLUE*%
X97655000Y-159385000D03*
%TO.P,J17,2*%
%TO.N,/nascom_ng_connectors/PRE_GREEN*%
X99945000Y-159385000D03*
D11*
%TO.P,J17,1*%
%TO.N,/nascom_ng_connectors/PRI_RED*%
X102235000Y-159385000D03*
%TD*%
D13*
%TO.P,J7,28*%
%TO.N,+3V3*%
X190500000Y-129540000D03*
%TO.P,J7,27*%
X193040000Y-129540000D03*
%TO.P,J7,26*%
%TO.N,GND*%
X190500000Y-127000000D03*
%TO.P,J7,25*%
X193040000Y-127000000D03*
%TO.P,J7,24*%
%TO.N,PIN31_A17*%
X190500000Y-124460000D03*
%TO.P,J7,23*%
%TO.N,PIN32_A18*%
X193040000Y-124460000D03*
%TO.P,J7,22*%
%TO.N,PIN28_A12*%
X190500000Y-121920000D03*
%TO.P,J7,21*%
%TO.N,PIN30_A14*%
X193040000Y-121920000D03*
%TO.P,J7,20*%
%TO.N,N/C*%
X190500000Y-119380000D03*
%TO.P,J7,19*%
X193040000Y-119380000D03*
%TO.P,J7,18*%
X190500000Y-116840000D03*
%TO.P,J7,17*%
X193040000Y-116840000D03*
%TO.P,J7,16*%
%TO.N,PIN24_A13*%
X190500000Y-114300000D03*
%TO.P,J7,15*%
%TO.N,PIN25_A16*%
X193040000Y-114300000D03*
%TO.P,J7,14*%
%TO.N,PIN21_IN_NMI*%
X190500000Y-111760000D03*
%TO.P,J7,13*%
%TO.N,~PIN22_IN_READY*%
X193040000Y-111760000D03*
%TO.P,J7,12*%
%TO.N,N/C*%
X190500000Y-109220000D03*
%TO.P,J7,11*%
%TO.N,PIN18_IN_WARMRST*%
X193040000Y-109220000D03*
%TO.P,J7,10*%
%TO.N,GND*%
X190500000Y-106680000D03*
%TO.P,J7,9*%
X193040000Y-106680000D03*
%TO.P,J7,8*%
X190500000Y-104140000D03*
%TO.P,J7,7*%
%TO.N,PIN9_HALT*%
X193040000Y-104140000D03*
%TO.P,J7,6*%
%TO.N,PIN8_A15*%
X190500000Y-101600000D03*
%TO.P,J7,5*%
%TO.N,PIN7_TAPE_DRIVE*%
X193040000Y-101600000D03*
%TO.P,J7,4*%
%TO.N,PIN4_WR*%
X190500000Y-99060000D03*
%TO.P,J7,3*%
%TO.N,PIN3_SDACTIVE*%
X193040000Y-99060000D03*
%TO.P,J7,2*%
%TO.N,GND*%
X190500000Y-96520000D03*
D14*
%TO.P,J7,1*%
X193040000Y-96520000D03*
%TD*%
D13*
%TO.P,J6,28*%
%TO.N,+3V3*%
X185420000Y-91440000D03*
%TO.P,J6,27*%
%TO.N,GND*%
X185420000Y-88900000D03*
%TO.P,J6,26*%
X182880000Y-91440000D03*
%TO.P,J6,25*%
%TO.N,PIN144_RST*%
X182880000Y-88900000D03*
%TO.P,J6,24*%
%TO.N,PIN143_A7*%
X180340000Y-91440000D03*
%TO.P,J6,23*%
%TO.N,PIN142_A8*%
X180340000Y-88900000D03*
%TO.P,J6,22*%
%TO.N,PIN141_A6*%
X177800000Y-91440000D03*
%TO.P,J6,21*%
%TO.N,PIN139_A9*%
X177800000Y-88900000D03*
%TO.P,J6,20*%
%TO.N,PIN137_A5*%
X175260000Y-91440000D03*
%TO.P,J6,19*%
%TO.N,PIN136_A11*%
X175260000Y-88900000D03*
%TO.P,J6,18*%
%TO.N,PIN135_A4*%
X172720000Y-91440000D03*
%TO.P,J6,17*%
%TO.N,PIN134_RD*%
X172720000Y-88900000D03*
%TO.P,J6,16*%
%TO.N,PIN133_A3*%
X170180000Y-91440000D03*
%TO.P,J6,15*%
%TO.N,PIN132_A10*%
X170180000Y-88900000D03*
%TO.P,J6,14*%
%TO.N,PIN129_A2*%
X167640000Y-91440000D03*
%TO.P,J6,13*%
%TO.N,PIN126_CS1*%
X167640000Y-88900000D03*
%TO.P,J6,12*%
%TO.N,PIN125_A1*%
X165100000Y-91440000D03*
%TO.P,J6,11*%
%TO.N,PIN122_D7*%
X165100000Y-88900000D03*
%TO.P,J6,10*%
%TO.N,PIN121_A0*%
X162560000Y-91440000D03*
%TO.P,J6,9*%
%TO.N,PIN120_D6*%
X162560000Y-88900000D03*
%TO.P,J6,8*%
%TO.N,PIN119_D0*%
X160020000Y-91440000D03*
%TO.P,J6,7*%
%TO.N,PIN118_D5*%
X160020000Y-88900000D03*
%TO.P,J6,6*%
%TO.N,PIN115_D1*%
X157480000Y-91440000D03*
%TO.P,J6,5*%
%TO.N,PIN114_D4*%
X157480000Y-88900000D03*
%TO.P,J6,4*%
%TO.N,PIN113_D2*%
X154940000Y-91440000D03*
%TO.P,J6,3*%
%TO.N,PIN112_D3*%
X154940000Y-88900000D03*
%TO.P,J6,2*%
%TO.N,GND*%
X152400000Y-91440000D03*
D14*
%TO.P,J6,1*%
X152400000Y-88900000D03*
%TD*%
D13*
%TO.P,J8,28*%
%TO.N,+3V3*%
X147320000Y-96520000D03*
%TO.P,J8,27*%
%TO.N,GND*%
X144780000Y-96520000D03*
%TO.P,J8,26*%
X147320000Y-99060000D03*
%TO.P,J8,25*%
%TO.N,~PIN104_IOBUFOE*%
X144780000Y-99060000D03*
%TO.P,J8,24*%
%TO.N,PIN103_TX*%
X147320000Y-101600000D03*
%TO.P,J8,23*%
%TO.N,PIN101_RX*%
X144780000Y-101600000D03*
%TO.P,J8,22*%
%TO.N,~PIN100_KBDCLK*%
X147320000Y-104140000D03*
%TO.P,J8,21*%
%TO.N,~PIN99_KBDRST*%
X144780000Y-104140000D03*
%TO.P,J8,20*%
%TO.N,~PIN97_INT*%
X147320000Y-106680000D03*
%TO.P,J8,19*%
%TO.N,PIN96_IOBUFWR*%
X144780000Y-106680000D03*
%TO.P,J8,18*%
%TO.N,PIN94_TXBAUDCLK*%
X147320000Y-109220000D03*
%TO.P,J8,17*%
%TO.N,PIN93_RXBAUDCLK*%
X144780000Y-109220000D03*
%TO.P,J8,16*%
%TO.N,PIN92_TVSYNCH*%
X147320000Y-111760000D03*
%TO.P,J8,15*%
%TO.N,PIN91_IN_DRQ*%
X144780000Y-111760000D03*
%TO.P,J8,14*%
%TO.N,PIN90_IN_NC*%
X147320000Y-114300000D03*
%TO.P,J8,13*%
%TO.N,PIN89_IN_NC*%
X144780000Y-114300000D03*
%TO.P,J8,12*%
%TO.N,PIN88_IN_INTRQ*%
X147320000Y-116840000D03*
%TO.P,J8,11*%
%TO.N,PIN87_PORT0RD*%
X144780000Y-116840000D03*
%TO.P,J8,10*%
%TO.N,PIN86_TX*%
X147320000Y-119380000D03*
%TO.P,J8,9*%
%TO.N,N/C*%
X144780000Y-119380000D03*
%TO.P,J8,8*%
X147320000Y-121920000D03*
%TO.P,J8,7*%
%TO.N,PIN79_CS2*%
X144780000Y-121920000D03*
%TO.P,J8,6*%
%TO.N,N/C*%
X147320000Y-124460000D03*
%TO.P,J8,5*%
%TO.N,PIN75_RCLK*%
X144780000Y-124460000D03*
D30*
%TO.P,J8,4*%
%TO.N,PIN74_RX*%
X147320000Y-127000000D03*
%TO.P,J8,3*%
%TO.N,N/C*%
X144780000Y-127000000D03*
%TO.P,J8,2*%
%TO.N,GND*%
X147320000Y-129540000D03*
D31*
%TO.P,J8,1*%
X144780000Y-129540000D03*
%TD*%
D13*
%TO.P,J9,28*%
%TO.N,+3V3*%
X152400000Y-134620000D03*
%TO.P,J9,27*%
X152400000Y-137160000D03*
%TO.P,J9,26*%
%TO.N,GND*%
X154940000Y-134620000D03*
%TO.P,J9,25*%
X154940000Y-137160000D03*
%TO.P,J9,24*%
%TO.N,~PIN72_IO_RESET*%
X157480000Y-134620000D03*
%TO.P,J9,23*%
%TO.N,~PIN71_CTC_CS*%
X157480000Y-137160000D03*
%TO.P,J9,22*%
%TO.N,PIN70_PORTE4_WR*%
X160020000Y-134620000D03*
%TO.P,J9,21*%
%TO.N,PIN69_CLK4*%
X160020000Y-137160000D03*
%TO.P,J9,20*%
%TO.N,PIN67_CLK1*%
X162560000Y-134620000D03*
%TO.P,J9,19*%
%TO.N,PIN65_TVVID*%
X162560000Y-137160000D03*
%TO.P,J9,18*%
%TO.N,~PIN64_FDC_CS*%
X165100000Y-134620000D03*
%TO.P,J9,17*%
%TO.N,~PIN63_IORQ*%
X165100000Y-137160000D03*
%TO.P,J9,16*%
%TO.N,~PIN60_WR*%
X167640000Y-134620000D03*
%TO.P,J9,15*%
%TO.N,~PIN59_RD*%
X167640000Y-137160000D03*
%TO.P,J9,14*%
%TO.N,~PIN58_PIO_CS*%
X170180000Y-134620000D03*
%TO.P,J9,13*%
%TO.N,~PIN57_M1*%
X170180000Y-137160000D03*
%TO.P,J9,12*%
%TO.N,PIN55_PRI_HSYNC*%
X172720000Y-134620000D03*
%TO.P,J9,11*%
%TO.N,PIN53_PRI_VIDEO*%
X172720000Y-137160000D03*
%TO.P,J9,10*%
%TO.N,PIN52_SEC_VIDEO*%
X175260000Y-134620000D03*
%TO.P,J9,9*%
%TO.N,PIN51_PRI_VSYNC*%
X175260000Y-137160000D03*
%TO.P,J9,8*%
%TO.N,PIN48_SEC_VSYNC*%
X177800000Y-134620000D03*
%TO.P,J9,7*%
%TO.N,PIN47_SEC_HSYNC*%
X177800000Y-137160000D03*
%TO.P,J9,6*%
%TO.N,PIN45_KDAT*%
X180340000Y-134620000D03*
%TO.P,J9,5*%
%TO.N,PIN44_KCLK*%
X180340000Y-137160000D03*
%TO.P,J9,4*%
%TO.N,PIN43_SDCLK*%
X182880000Y-134620000D03*
%TO.P,J9,3*%
%TO.N,PIN42_SDDI*%
X182880000Y-137160000D03*
%TO.P,J9,2*%
%TO.N,PIN41_SDCS*%
X185420000Y-134620000D03*
D14*
%TO.P,J9,1*%
%TO.N,PIN40_SDDO*%
X185420000Y-137160000D03*
%TD*%
D12*
%TO.P,D7,2*%
%TO.N,GND*%
X94615000Y-141605000D03*
D11*
%TO.P,D7,1*%
%TO.N,Net-(C24-Pad1)*%
X86995000Y-141605000D03*
%TD*%
D21*
%TO.P,D2,2*%
%TO.N,+3V3*%
X165100000Y-27940000D03*
D20*
%TO.P,D2,1*%
%TO.N,Net-(D2-Pad1)*%
X167640000Y-27940000D03*
%TD*%
D21*
%TO.P,D3,2*%
%TO.N,+3V3*%
X172720000Y-27940000D03*
D20*
%TO.P,D3,1*%
%TO.N,Net-(D3-Pad1)*%
X175260000Y-27940000D03*
%TD*%
D21*
%TO.P,D1,2*%
%TO.N,+3V3*%
X157480000Y-27940000D03*
D20*
%TO.P,D1,1*%
%TO.N,Net-(D1-Pad1)*%
X160020000Y-27940000D03*
%TD*%
D10*
%TO.P,C15,2*%
%TO.N,Net-(C15-Pad2)*%
X91440000Y-86360000D03*
%TO.P,C15,1*%
%TO.N,GND*%
X91440000Y-88860000D03*
%TD*%
D32*
%TO.N,GND*%
X156845000Y-164465000D03*
X156845000Y-163195000D03*
X156845000Y-161925000D03*
X107950000Y-149860000D03*
X68620000Y-149820000D03*
%TO.N,PIN3_SDACTIVE*%
X194310000Y-71755000D03*
%TO.N,PIN7_TAPE_DRIVE*%
X125730000Y-43815000D03*
X195580000Y-73660000D03*
%TO.N,PIN9_HALT*%
X195580000Y-72390000D03*
%TO.N,+3V3*%
X152400000Y-41910000D03*
X153670000Y-41910000D03*
X154940000Y-41910000D03*
X154940000Y-96520000D03*
X153670000Y-96520000D03*
X152400000Y-96520000D03*
X194310000Y-41275000D03*
X194310000Y-40005000D03*
X194310000Y-38735000D03*
X194310000Y-37465000D03*
X152400000Y-146685000D03*
X152400000Y-146685000D03*
X152400000Y-145415000D03*
%TO.N,PIN103_TX*%
X118900000Y-48260000D03*
X118745000Y-78740000D03*
X137160000Y-78740000D03*
X137160000Y-102870000D03*
%TO.N,PIN101_RX*%
X122555000Y-77470000D03*
X138430000Y-77470000D03*
X138430000Y-101600000D03*
%TO.N,PIN79_CS2*%
X166370000Y-93980000D03*
X166370000Y-120650000D03*
%TO.N,PIN144_RST*%
X33020000Y-35560000D03*
X180340000Y-58420000D03*
X176530000Y-35560000D03*
%TO.N,PIN125_A1*%
X166370000Y-57150000D03*
X138430000Y-57150000D03*
%TO.N,PIN121_A0*%
X137160000Y-52070000D03*
X137160000Y-48260000D03*
%TO.N,PIN120_D6*%
X160020000Y-55245000D03*
%TO.N,PIN118_D5*%
X157480000Y-53975000D03*
%TO.N,PIN114_D4*%
X154940000Y-52070000D03*
%TO.N,PIN31_A17*%
X187960000Y-124460000D03*
%TO.N,PIN32_A18*%
X190500000Y-76200000D03*
%TO.N,PIN28_A12*%
X182880000Y-80010000D03*
%TO.N,PIN30_A14*%
X185420000Y-78105000D03*
%TO.N,PIN24_A13*%
X179070000Y-114300000D03*
X179070000Y-94615000D03*
%TO.N,PIN21_IN_NMI*%
X171450000Y-35560000D03*
X172720000Y-58420000D03*
X175260000Y-111760000D03*
X175260000Y-94615000D03*
X35560000Y-35560000D03*
%TO.N,PIN4_WR*%
X187325000Y-99060000D03*
%TO.N,/nascom_ng_fdc/ISSLT*%
X121920000Y-97155000D03*
%TO.N,/nascom_ng_fdc/IWPROT*%
X118110000Y-92710000D03*
X118110000Y-85725000D03*
%TO.N,/nascom_ng_fdc/ITRK0*%
X109220000Y-92075000D03*
X109220000Y-84455000D03*
%TO.N,/nascom_ng_fdc/ISLT2*%
X125095000Y-112395000D03*
X125095000Y-144145000D03*
%TO.N,/nascom_ng_fdc/ISLT1*%
X126365000Y-125095000D03*
X126365000Y-114935000D03*
X109220000Y-126365000D03*
X109220000Y-141605000D03*
%TO.N,/nascom_ng_fdc/ISLT0*%
X121920000Y-132715000D03*
%TO.N,/nascom_ng_fdc/IINDEX*%
X118110000Y-93980000D03*
X118110000Y-118745000D03*
X118110000Y-102235000D03*
%TO.N,+5V*%
X31750000Y-63500000D03*
X31750000Y-62230000D03*
X33020000Y-62230000D03*
X33020000Y-63500000D03*
X95885000Y-118110000D03*
X81280000Y-78740000D03*
X122555000Y-151765000D03*
X123825000Y-151765000D03*
X125095000Y-151765000D03*
%TO.N,~DRIVE_READY*%
X114935000Y-75565000D03*
X100330000Y-75565000D03*
X114935000Y-142875000D03*
%TO.N,Net-(JP1-Pad2)*%
X85090000Y-147955000D03*
%TO.N,TX_5V*%
X36830000Y-44450000D03*
X36830000Y-35560000D03*
X111125000Y-30480000D03*
X111125000Y-52070000D03*
%TO.N,RX_5V*%
X37465000Y-53340000D03*
X39370000Y-35560000D03*
X108585000Y-31750000D03*
X108585000Y-53340000D03*
%TO.N,RXBAUDCLK_5V*%
X36830000Y-50800000D03*
X38100000Y-35560000D03*
X109855000Y-31115000D03*
X109855000Y-63500000D03*
%TO.N,TXBAUDCLK_5V*%
X38100000Y-54610000D03*
X40640000Y-35560000D03*
X107315000Y-32385000D03*
X107315000Y-58420000D03*
%TO.N,TAPE_DRIVE_5V*%
X38100000Y-55880000D03*
X41910000Y-35560000D03*
X106045000Y-33020000D03*
X106045000Y-60960000D03*
%TO.N,/nascom_ng_pio/PIO_BRDY*%
X52070000Y-132080000D03*
X52070000Y-143510000D03*
%TO.N,/nascom_ng_pio/PIO_B0*%
X45720000Y-128270000D03*
X45720000Y-134620000D03*
%TO.N,/nascom_ng_pio/PIO_B1*%
X46990000Y-137160000D03*
X46990000Y-125730000D03*
%TO.N,/nascom_ng_pio/PIO_B2*%
X48260000Y-123190000D03*
X48260000Y-139700000D03*
%TO.N,/nascom_ng_pio/PIO_B7*%
X39370000Y-138430000D03*
X39370000Y-111760000D03*
%TO.N,/nascom_ng_pio/PIO_B3*%
X38100000Y-139700000D03*
X38100000Y-121920000D03*
%TO.N,/nascom_ng_pio/PIO_B6*%
X36830000Y-140970000D03*
X36830000Y-114300000D03*
%TO.N,/nascom_ng_pio/PIO_B4*%
X48895000Y-118110000D03*
X48895000Y-142240000D03*
%TO.N,/nascom_ng_pio/PIO_B5*%
X40640000Y-116840000D03*
X40640000Y-143510000D03*
%TO.N,~INT_5V*%
X56515000Y-138430000D03*
X107315000Y-59690000D03*
X107315000Y-66675000D03*
%TO.N,/nascom_ng_pio/CLK_TRG3*%
X67945000Y-50800000D03*
%TO.N,/nascom_ng_pio/CLK_TRG0*%
X41275000Y-55880000D03*
X41275000Y-44450000D03*
%TO.N,/nascom_ng_pio/ZC_TO1*%
X41910000Y-54610000D03*
%TO.N,/nascom_ng_pio/ZC_TO2*%
X51494992Y-41910000D03*
%TO.N,CLK4_5V*%
X67310000Y-55880000D03*
X79375000Y-58420000D03*
X79375000Y-69215000D03*
X57150000Y-71120000D03*
%TO.N,D3_5V*%
X50800000Y-82550000D03*
X50800000Y-95250000D03*
X59690000Y-36830000D03*
X157480000Y-34290000D03*
X100330000Y-107950000D03*
X100330000Y-119380000D03*
X43180000Y-62230000D03*
X59690000Y-63500000D03*
X69850000Y-93345000D03*
%TO.N,D1_5V*%
X60960000Y-86360000D03*
X60960000Y-41910000D03*
X49530000Y-143510000D03*
X49530000Y-113030000D03*
X78740000Y-113030000D03*
X78740000Y-104140000D03*
%TO.N,D4_5V*%
X52070000Y-80010000D03*
X52070000Y-97790000D03*
X162560000Y-35070001D03*
X70485000Y-96520000D03*
X94615000Y-96520000D03*
X94615000Y-102870000D03*
X40005000Y-39370000D03*
%TO.N,D0_5V*%
X62230000Y-44450000D03*
X62230000Y-85090000D03*
X50800000Y-140970000D03*
X50800000Y-109220000D03*
X77470000Y-110490000D03*
X77470000Y-101600000D03*
%TO.N,D5_5V*%
X53340000Y-78740000D03*
X53340000Y-100330000D03*
X58420000Y-74930000D03*
X71120000Y-99060000D03*
%TO.N,~M1_5V*%
X59690000Y-69850000D03*
X62865000Y-104140000D03*
X127635000Y-146050000D03*
X65405000Y-145415000D03*
%TO.N,~IORQ_5V*%
X54610000Y-105410000D03*
X61595000Y-105410000D03*
X64135000Y-134620000D03*
X97790000Y-130175000D03*
X97790000Y-135890000D03*
%TO.N,~RD_5V*%
X60325000Y-102870000D03*
X60325000Y-51435000D03*
X60325000Y-129540000D03*
X134620000Y-127635000D03*
%TO.N,A0_5V*%
X64770000Y-62230000D03*
X137795000Y-62230000D03*
%TO.N,A1_5V*%
X63500000Y-59690000D03*
X63500000Y-99060000D03*
%TO.N,~PIO_CS_5V*%
X46990000Y-106680000D03*
X73025000Y-106680000D03*
X46990000Y-102870000D03*
X73015001Y-146685000D03*
%TO.N,D6_5V*%
X41910000Y-60960000D03*
X57150000Y-60960000D03*
X44450000Y-71120000D03*
X45720000Y-127000000D03*
%TO.N,D7_5V*%
X45720000Y-97790000D03*
X49530000Y-44450000D03*
X71755000Y-101600000D03*
X52070000Y-101600000D03*
X50165000Y-97155000D03*
%TO.N,D2_5V*%
X48260000Y-95250000D03*
X160020000Y-35560000D03*
X48260000Y-115570000D03*
X81280000Y-109220000D03*
X81280000Y-115570000D03*
X50800000Y-40640000D03*
%TO.N,/nascom_ng_fdc/HLT*%
X80010000Y-80010000D03*
%TO.N,~IO_RESET_5V*%
X74295000Y-64770000D03*
X74295000Y-140970000D03*
X74295000Y-93345000D03*
X78105000Y-43180000D03*
X126365000Y-40005000D03*
X126365000Y-54610000D03*
%TO.N,/nascom_ng_fdc/EIGHTINCH*%
X80010000Y-135890000D03*
X80010000Y-92710000D03*
%TO.N,/nascom_ng_fdc/BIWPROT*%
X100330000Y-106680000D03*
X100330000Y-86995000D03*
%TO.N,/nascom_ng_fdc/BIINDEX*%
X93345000Y-92710000D03*
X93345000Y-106680000D03*
%TO.N,/nascom_ng_fdc/BITRK0*%
X103505000Y-85725000D03*
X103505000Y-90805000D03*
X85725000Y-90805000D03*
X85725000Y-110490000D03*
%TO.N,READY*%
X102870000Y-111760000D03*
%TO.N,/nascom_ng_fdc/HEAD_LOAD*%
X101600000Y-125730000D03*
X102235000Y-93345000D03*
%TO.N,/nascom_ng_fdc/~RAW_READ*%
X78740000Y-82550000D03*
%TO.N,~FDC_CS_5V*%
X74930000Y-100330000D03*
X74930000Y-139700000D03*
%TO.N,~WR_5V*%
X76200000Y-97790000D03*
X76200000Y-142240000D03*
%TO.N,DRIVE_ENABLE*%
X86360000Y-71120000D03*
X114300000Y-74295000D03*
%TO.N,/nascom_ng_fdc/BHEAD_LOAD*%
X104140000Y-78740000D03*
%TO.N,PORTE4_WR_5V*%
X100965000Y-113030000D03*
X130175000Y-39370000D03*
X128905000Y-76835000D03*
X100965000Y-76835000D03*
%TO.N,PIN18_IN_WARMRST*%
X173990000Y-35560000D03*
X175260000Y-58420000D03*
X177800000Y-107950000D03*
X177800000Y-94615000D03*
%TO.N,/nascom_ng_pio/PUP_EIE*%
X53975000Y-135890000D03*
%TO.N,/nascom_ng_pio/PIO_EIO*%
X55245000Y-140970000D03*
%TO.N,INTRQ_5V*%
X86995000Y-97790000D03*
X86995000Y-114300000D03*
X116205000Y-128905000D03*
X116203590Y-114300000D03*
%TO.N,DRQ_5V*%
X87630000Y-100330000D03*
X87630000Y-69850000D03*
X127635000Y-52070000D03*
X127635000Y-73025000D03*
%TO.N,~KBDRST_5V*%
X38735000Y-69850000D03*
X38735000Y-91440000D03*
X73025000Y-91440000D03*
X73025000Y-68580000D03*
X123825000Y-71120000D03*
%TO.N,~KBDCLK_5V*%
X37465000Y-77470000D03*
X108585000Y-57150000D03*
X37465000Y-64770000D03*
X108585000Y-67310000D03*
%TO.N,PIN69_CLK4*%
X161290000Y-93345000D03*
X147955000Y-93345000D03*
X147955000Y-68580000D03*
%TO.N,~PIN100_KBDCLK*%
X120015000Y-55880000D03*
X120015000Y-76200000D03*
X139700000Y-105410000D03*
X139700000Y-76200000D03*
%TO.N,~PIN99_KBDRST*%
X140970000Y-74930000D03*
X140970000Y-104140000D03*
X121285000Y-66040000D03*
X121285000Y-74930000D03*
%TO.N,PIN87_PORT0RD*%
X127635000Y-116840000D03*
X125095000Y-73660000D03*
%TO.N,PIN86_TX*%
X136525000Y-118110000D03*
X136525000Y-112395000D03*
%TO.N,PIN65_TVVID*%
X140335000Y-137795000D03*
X139065000Y-115570000D03*
%TO.N,~PIN71_CTC_CS*%
X158750000Y-94615000D03*
X146685000Y-94615000D03*
X146685000Y-64770000D03*
%TO.N,PIN70_PORTE4_WR*%
X160020000Y-93980000D03*
X147320000Y-93980000D03*
X147320000Y-59690000D03*
%TO.N,~PIN22_IN_READY*%
X151130000Y-50800000D03*
X152400000Y-113030000D03*
%TO.N,PIN88_IN_INTRQ*%
X149225000Y-116840000D03*
X149225000Y-131445000D03*
%TO.N,~PIN72_IO_RESET*%
X157480000Y-95250000D03*
X146050000Y-95250000D03*
X146050000Y-54610000D03*
%TO.N,Net-(U13-Pad16)*%
X81280000Y-133350000D03*
X81280000Y-116840000D03*
%TO.N,Net-(U13-Pad15)*%
X109855000Y-122555000D03*
X109855000Y-113030000D03*
%TO.N,Net-(U13-Pad31)*%
X109220000Y-116840000D03*
X109220000Y-107950000D03*
%TO.N,Net-(U13-Pad30)*%
X99695000Y-121920000D03*
X99695000Y-109220000D03*
%TO.N,Net-(U13-Pad25)*%
X102235000Y-134620000D03*
X102235000Y-105410000D03*
%TO.N,Net-(U14-Pad7)*%
X96520000Y-141605000D03*
%TO.N,Net-(U14-Pad5)*%
X100330000Y-135890000D03*
X92710000Y-105410000D03*
%TO.N,Net-(U14-Pad10)*%
X103505000Y-110490000D03*
X103505000Y-135255000D03*
%TO.N,Net-(U14-Pad2)*%
X97790000Y-128905000D03*
%TO.N,PIN75_RCLK*%
X141605000Y-124460000D03*
%TO.N,~PIN97_INT*%
X145415000Y-60960000D03*
X143510000Y-107950000D03*
%TO.N,PIN74_RX*%
X140335000Y-125730000D03*
%TO.N,PIN93_RXBAUDCLK*%
X142875000Y-109220000D03*
X130175000Y-66040000D03*
X130175000Y-73025000D03*
X144780000Y-73025000D03*
%TO.N,PIN94_TXBAUDCLK*%
X126365000Y-60960000D03*
X126365000Y-73660000D03*
X144145000Y-73660000D03*
X142240000Y-110490000D03*
%TO.N,PIN90_IN_NC*%
X150495000Y-100330000D03*
X150495000Y-114300000D03*
%TO.N,PIN91_IN_DRQ*%
X135890000Y-50800000D03*
X135890000Y-80010000D03*
X142875000Y-80010000D03*
X141605000Y-111760000D03*
%TO.N,Net-(J5-Pad3)*%
X72390000Y-123190000D03*
%TD*%
D33*
%TO.N,GND*%
X77325001Y-89044999D02*
X76200000Y-90170000D01*
X83860000Y-77430000D02*
X83820000Y-77470000D01*
D34*
X190500000Y-96520000D02*
X193040000Y-96520000D01*
X190500000Y-106680000D02*
X193040000Y-106680000D01*
X190500000Y-127000000D02*
X193040000Y-127000000D01*
X185420000Y-88900000D02*
X182880000Y-91440000D01*
X144780000Y-96520000D02*
X147320000Y-99060000D01*
X35590001Y-39400001D02*
X35590001Y-41879999D01*
X35590001Y-41879999D02*
X34290000Y-43180000D01*
X34290000Y-38100000D02*
X35590001Y-39400001D01*
X31750000Y-123190000D02*
X29210000Y-123190000D01*
X31750000Y-125730000D02*
X29210000Y-125730000D01*
X29210000Y-123190000D02*
X29210000Y-125730000D01*
X83900000Y-62150000D02*
X83820000Y-62230000D01*
X83820000Y-62230000D02*
X76200000Y-62230000D01*
X91400000Y-62190000D02*
X88900000Y-64690000D01*
X93980000Y-62190000D02*
X91400000Y-62190000D01*
X86280000Y-64690000D02*
X83820000Y-62230000D01*
X88900000Y-64690000D02*
X86280000Y-64690000D01*
X86360000Y-46990000D02*
X83820000Y-49530000D01*
X88900000Y-46990000D02*
X86360000Y-46990000D01*
X83820000Y-49530000D02*
X76200000Y-57150000D01*
D33*
X78740000Y-62230000D02*
X77470000Y-62230000D01*
D34*
X175300000Y-45680000D02*
X175260000Y-45720000D01*
X98800000Y-161215000D02*
X101090000Y-161215000D01*
X101090000Y-161215000D02*
X103380000Y-161215000D01*
X128635000Y-160220000D02*
X129780000Y-161365000D01*
X128635000Y-159385000D02*
X128635000Y-160220000D01*
X134360000Y-161365000D02*
X136650000Y-161365000D01*
X136650000Y-161365000D02*
X138940000Y-161365000D01*
X42525998Y-36830000D02*
X42555999Y-36799999D01*
X34290000Y-36830000D02*
X42525998Y-36830000D01*
X34290000Y-38100000D02*
X34290000Y-36830000D01*
X44450000Y-36830000D02*
X45720000Y-36830000D01*
X44419999Y-36799999D02*
X44450000Y-36830000D01*
X45720000Y-36830000D02*
X45720000Y-38100000D01*
X32374001Y-36799999D02*
X32404002Y-36830000D01*
X30510001Y-36799999D02*
X32374001Y-36799999D01*
X30449999Y-36860001D02*
X30510001Y-36799999D01*
X32404002Y-36830000D02*
X34290000Y-36830000D01*
X45720000Y-35560000D02*
X45720000Y-36830000D01*
X78700000Y-62270000D02*
X78740000Y-62230000D01*
X81280000Y-77470000D02*
X76200000Y-72390000D01*
X83820000Y-77470000D02*
X81280000Y-77470000D01*
X91480000Y-88900000D02*
X91440000Y-88860000D01*
X91400000Y-88900000D02*
X91440000Y-88860000D01*
X105410000Y-80645000D02*
X106680000Y-80645000D01*
X106680000Y-80645000D02*
X109220000Y-83185000D01*
X123190000Y-83185000D02*
X123190000Y-85725000D01*
X109220000Y-83185000D02*
X123190000Y-83185000D01*
X151239999Y-44469999D02*
X151130000Y-44579998D01*
X175260000Y-45720000D02*
X174009999Y-44469999D01*
X174009999Y-44469999D02*
X151239999Y-44469999D01*
X151130000Y-49530000D02*
X152400000Y-49530000D01*
X190480001Y-96500001D02*
X190500000Y-96520000D01*
X182920000Y-95250000D02*
X184170001Y-96500001D01*
X93075000Y-160070000D02*
X94220000Y-161215000D01*
X93075000Y-159235000D02*
X93075000Y-160070000D01*
X127127000Y-162886630D02*
X127127000Y-165227000D01*
X128648630Y-161365000D02*
X127127000Y-162886630D01*
X129780000Y-161365000D02*
X128648630Y-161365000D01*
X138940000Y-161365000D02*
X139065000Y-161490000D01*
X139065000Y-161490000D02*
X139065000Y-165100000D01*
X139065000Y-165100000D02*
X138938000Y-165227000D01*
X103380000Y-161365000D02*
X103505000Y-161490000D01*
D35*
X147193000Y-165862000D02*
X148590000Y-165862000D01*
D34*
X190460000Y-88900000D02*
X190500000Y-88940000D01*
X185420000Y-88900000D02*
X190460000Y-88900000D01*
X45720000Y-35560000D02*
X45720000Y-29210000D01*
X43210001Y-36799999D02*
X44419999Y-36799999D01*
X42555999Y-36799999D02*
X43210001Y-36799999D01*
X48260000Y-35560000D02*
X48260000Y-29210000D01*
X45720000Y-35560000D02*
X48260000Y-35560000D01*
X50800000Y-29210000D02*
X48260000Y-29210000D01*
X48260000Y-29210000D02*
X45720000Y-29210000D01*
D35*
X30480000Y-154940000D02*
X33020000Y-154940000D01*
X33020000Y-154940000D02*
X35560000Y-154940000D01*
X35560000Y-154940000D02*
X38100000Y-154940000D01*
D34*
X30419998Y-36830000D02*
X30449999Y-36860001D01*
X29210000Y-36830000D02*
X30419998Y-36830000D01*
D35*
X186563000Y-156932000D02*
X189230000Y-154265000D01*
X186563000Y-165862000D02*
X186563000Y-156932000D01*
D34*
X94220000Y-161365000D02*
X93088630Y-161365000D01*
X91440000Y-162560000D02*
X91440000Y-164849999D01*
X93088630Y-161365000D02*
X91440000Y-162560000D01*
X91440000Y-164849999D02*
X91440000Y-165735000D01*
X91440000Y-165735000D02*
X91567000Y-165862000D01*
D35*
X95123000Y-165862000D02*
X91567000Y-165862000D01*
D34*
X172720000Y-165100000D02*
X173482000Y-165862000D01*
D35*
X172720000Y-148590000D02*
X172720000Y-165100000D01*
X156718000Y-165862000D02*
X173482000Y-165862000D01*
X173482000Y-165862000D02*
X186563000Y-165862000D01*
D34*
X140335000Y-48260000D02*
X151130000Y-48260000D01*
X151130000Y-44579998D02*
X151130000Y-48260000D01*
X151130000Y-48260000D02*
X151130000Y-49530000D01*
X91440000Y-88860000D02*
X93980000Y-88860000D01*
X93980000Y-88860000D02*
X96520000Y-88860000D01*
X88820000Y-77470000D02*
X88900000Y-77390000D01*
X83820000Y-77470000D02*
X88820000Y-77470000D01*
X50800000Y-29210000D02*
X53340000Y-29210000D01*
X53340000Y-29210000D02*
X53340000Y-35560000D01*
X48260000Y-35560000D02*
X53340000Y-35560000D01*
X131545490Y-69749510D02*
X132715000Y-68580000D01*
X117374510Y-69749510D02*
X131545490Y-69749510D01*
X116205000Y-68580000D02*
X117374510Y-69749510D01*
X103505000Y-165735000D02*
X103378000Y-165862000D01*
X103505000Y-164465000D02*
X103505000Y-165735000D01*
X103505000Y-164465000D02*
X103505000Y-164719000D01*
D35*
X95123000Y-165862000D02*
X103378000Y-165862000D01*
D34*
X103505000Y-161490000D02*
X103505000Y-164465000D01*
X176490000Y-45720000D02*
X178435000Y-43775000D01*
X175260000Y-45720000D02*
X176490000Y-45720000D01*
X59055000Y-165735000D02*
X59182000Y-165862000D01*
X66040000Y-165735000D02*
X65913000Y-165862000D01*
D35*
X65913000Y-165862000D02*
X59182000Y-165862000D01*
D34*
X96520000Y-59690000D02*
X96480000Y-59690000D01*
X123190000Y-88265000D02*
X137795000Y-88265000D01*
X72390000Y-88900000D02*
X71120000Y-87630000D01*
X98425000Y-80645000D02*
X105410000Y-80645000D01*
X96520000Y-88860000D02*
X98425000Y-86995000D01*
X98425000Y-86995000D02*
X98425000Y-80645000D01*
X73660000Y-90170000D02*
X72390000Y-88900000D01*
X76200000Y-90170000D02*
X73660000Y-90170000D01*
X91380001Y-88919999D02*
X91440000Y-88860000D01*
X76200000Y-90170000D02*
X77450001Y-88919999D01*
X77450001Y-88919999D02*
X91380001Y-88919999D01*
X147320000Y-129540000D02*
X153670000Y-129540000D01*
X153670000Y-129540000D02*
X154940000Y-130810000D01*
X137160000Y-128905000D02*
X137795000Y-128905000D01*
X138430000Y-129540000D02*
X144780000Y-129540000D01*
X137795000Y-128905000D02*
X138430000Y-129540000D01*
X95151370Y-62190000D02*
X96520000Y-60821370D01*
X96520000Y-60821370D02*
X96520000Y-59690000D01*
X93980000Y-62190000D02*
X95151370Y-62190000D01*
X144780000Y-96520000D02*
X144780000Y-91440000D01*
X144780000Y-91440000D02*
X150495000Y-91440000D01*
X150495000Y-91440000D02*
X152400000Y-91440000D01*
X144780000Y-91440000D02*
X137795000Y-91440000D01*
X137795000Y-91440000D02*
X137795000Y-88265000D01*
X67945000Y-165735000D02*
X68072000Y-165862000D01*
X67945000Y-156210000D02*
X67945000Y-165735000D01*
D35*
X70993000Y-165862000D02*
X68072000Y-165862000D01*
X68072000Y-165862000D02*
X65913000Y-165862000D01*
D34*
X73025000Y-156170000D02*
X73025000Y-165100000D01*
X73025000Y-165100000D02*
X73787000Y-165862000D01*
D35*
X73787000Y-165862000D02*
X70993000Y-165862000D01*
X91567000Y-165862000D02*
X77343000Y-165862000D01*
X77343000Y-165862000D02*
X73787000Y-165862000D01*
D34*
X186055000Y-103389999D02*
X186055000Y-96595003D01*
X184170001Y-96500001D02*
X187305001Y-96500001D01*
X187305001Y-96500001D02*
X190480001Y-96500001D01*
X190500000Y-106680000D02*
X186055000Y-103389999D01*
X38100000Y-165227000D02*
X37465000Y-165862000D01*
D35*
X38100000Y-154940000D02*
X38100000Y-165227000D01*
X36195000Y-147320000D02*
X43180000Y-147320000D01*
X30480000Y-147320000D02*
X36195000Y-147320000D01*
X29210000Y-146050000D02*
X30480000Y-147320000D01*
D34*
X31750000Y-68580000D02*
X29210000Y-68580000D01*
D35*
X29210000Y-31750000D02*
X29210000Y-68580000D01*
D34*
X31790000Y-96520000D02*
X29250000Y-96520000D01*
X29210000Y-123190000D02*
X29210000Y-93980000D01*
X29250000Y-94020000D02*
X29210000Y-93980000D01*
X29210000Y-93980000D02*
X29210000Y-36830000D01*
X40640000Y-88900000D02*
X29210000Y-88900000D01*
D35*
X59182000Y-165862000D02*
X37465000Y-165862000D01*
X35560000Y-151765000D02*
X35560000Y-154940000D01*
X35560000Y-147320000D02*
X35560000Y-151765000D01*
X123190000Y-149225000D02*
X120650000Y-151765000D01*
X129540000Y-149225000D02*
X123190000Y-149225000D01*
D34*
X81280000Y-153035000D02*
X81280000Y-151765000D01*
X81280000Y-165227000D02*
X81280000Y-153035000D01*
X88265000Y-148045000D02*
X88355000Y-147955000D01*
X62230000Y-148590000D02*
X62230000Y-151765000D01*
X62230000Y-140970000D02*
X62230000Y-148590000D01*
D35*
X35560000Y-151765000D02*
X68580000Y-151765000D01*
X68580000Y-151765000D02*
X93980000Y-151765000D01*
D34*
X115570000Y-151765000D02*
X115570000Y-165735000D01*
D35*
X115697000Y-165862000D02*
X156718000Y-165862000D01*
D34*
X115570000Y-165735000D02*
X115697000Y-165862000D01*
D35*
X103378000Y-165862000D02*
X115697000Y-165862000D01*
D34*
X29805000Y-102830000D02*
X29210000Y-102235000D01*
X31750000Y-102830000D02*
X29805000Y-102830000D01*
D35*
X29210000Y-68580000D02*
X29210000Y-102235000D01*
X29210000Y-102235000D02*
X29210000Y-146050000D01*
D34*
X156845000Y-165100000D02*
X156718000Y-165862000D01*
X156845000Y-163195000D02*
X156845000Y-165100000D01*
X156845000Y-161925000D02*
X156845000Y-161925000D01*
X156845000Y-161925000D02*
X156845000Y-163195000D01*
X144780000Y-129540000D02*
X147320000Y-129540000D01*
X107950000Y-147995000D02*
X107990000Y-147955000D01*
D35*
X107950000Y-151765000D02*
X120650000Y-151765000D01*
X107950000Y-151765000D02*
X107950000Y-149860000D01*
X93980000Y-151765000D02*
X107950000Y-151765000D01*
X107950000Y-149860000D02*
X107950000Y-147995000D01*
D34*
X94575000Y-151170000D02*
X93980000Y-151765000D01*
X94575000Y-147955000D02*
X94575000Y-151170000D01*
X88265000Y-151765000D02*
X88265000Y-148590000D01*
X68620000Y-151725000D02*
X68580000Y-151765000D01*
D35*
X68620000Y-147955000D02*
X68620000Y-151725000D01*
D34*
X123190000Y-126365000D02*
X129540000Y-126365000D01*
X102910000Y-42545000D02*
X116245000Y-42545000D01*
X101640000Y-41275000D02*
X102910000Y-42545000D01*
X116245000Y-45680000D02*
X116205000Y-45720000D01*
X116245000Y-42545000D02*
X116245000Y-45680000D01*
D33*
%TO.N,PIN3_SDACTIVE*%
X191489998Y-71755000D02*
X194310000Y-71755000D01*
X189230000Y-45720000D02*
X189230000Y-69850000D01*
X189230000Y-69850000D02*
X191489998Y-71755000D01*
%TO.N,PIN7_TAPE_DRIVE*%
X187325000Y-73660000D02*
X184150000Y-69850000D01*
X195580000Y-73660000D02*
X187325000Y-73660000D01*
X184150000Y-69850000D02*
X184150000Y-45720000D01*
X180975000Y-42545000D02*
X184150000Y-45720000D01*
X176530000Y-42545000D02*
X180975000Y-42545000D01*
X175260000Y-43815000D02*
X176530000Y-42545000D01*
X125730000Y-43815000D02*
X175260000Y-43815000D01*
%TO.N,PIN9_HALT*%
X186690000Y-46990000D02*
X186690000Y-45720000D01*
X186690000Y-69850000D02*
X186690000Y-46990000D01*
X195580000Y-72390000D02*
X189230000Y-72390000D01*
X189230000Y-72390000D02*
X186690000Y-69850000D01*
D34*
%TO.N,+3V3*%
X190500000Y-129540000D02*
X193040000Y-129540000D01*
X163749999Y-26589999D02*
X165100000Y-27940000D01*
X158830001Y-26589999D02*
X163749999Y-26589999D01*
X157480000Y-27940000D02*
X158830001Y-26589999D01*
X171369999Y-26589999D02*
X172720000Y-27940000D01*
X166450001Y-26589999D02*
X171369999Y-26589999D01*
X165100000Y-27940000D02*
X166450001Y-26589999D01*
X178989999Y-26589999D02*
X180340000Y-27940000D01*
X174070001Y-26589999D02*
X178989999Y-26589999D01*
X172720000Y-27940000D02*
X174070001Y-26589999D01*
X194270000Y-64770000D02*
X194310000Y-64730000D01*
X190500000Y-64770000D02*
X194270000Y-64770000D01*
X184119999Y-149890001D02*
X185420000Y-148590000D01*
X166370000Y-149860000D02*
X166400001Y-149890001D01*
X177800000Y-41910000D02*
X152400000Y-41910000D01*
X178435000Y-41275000D02*
X177800000Y-41910000D01*
X185420000Y-91440000D02*
X190500000Y-91440000D01*
X191750001Y-90189999D02*
X190500000Y-91440000D01*
X190500000Y-86995000D02*
X191750001Y-88245001D01*
X191750001Y-88245001D02*
X191750001Y-90189999D01*
X190500000Y-86995000D02*
X190500000Y-83820000D01*
X149403186Y-38100000D02*
X149314093Y-38010907D01*
X152400000Y-38100000D02*
X149403186Y-38100000D01*
X194945000Y-129540000D02*
X193040000Y-129540000D01*
X184150000Y-149860000D02*
X184119999Y-149890001D01*
X185420000Y-148590000D02*
X186690000Y-149860000D01*
X186690000Y-149860000D02*
X184150000Y-149860000D01*
X193675000Y-149860000D02*
X193675000Y-151765000D01*
X193675000Y-149860000D02*
X191770000Y-149860000D01*
X194945000Y-149860000D02*
X193675000Y-149860000D01*
X189230000Y-149860000D02*
X189230000Y-151765000D01*
X189230000Y-149860000D02*
X186690000Y-149860000D01*
X191770000Y-149860000D02*
X189230000Y-149860000D01*
X166370000Y-149860000D02*
X169545000Y-146685000D01*
X194945000Y-149860000D02*
X194945000Y-146685000D01*
X169545000Y-146685000D02*
X194945000Y-146685000D01*
X194945000Y-146685000D02*
X194945000Y-129540000D01*
X184169999Y-93999999D02*
X185420000Y-95250000D01*
X180975000Y-93999999D02*
X184169999Y-93999999D01*
X179070000Y-96520000D02*
X180975000Y-93999999D01*
X158750000Y-96520000D02*
X179070000Y-96520000D01*
X152419990Y-128250010D02*
X154940000Y-125730000D01*
X137160000Y-126365000D02*
X139045010Y-128250010D01*
X139045010Y-128250010D02*
X152419990Y-128250010D01*
X154940000Y-96520000D02*
X158750000Y-96520000D01*
X147320000Y-96520000D02*
X154940000Y-96520000D01*
X193059999Y-63479999D02*
X194310000Y-64730000D01*
X193059999Y-60940001D02*
X193059999Y-63479999D01*
X194310000Y-59690000D02*
X193059999Y-60940001D01*
X194310000Y-34290000D02*
X194310000Y-59690000D01*
X180340000Y-27940000D02*
X186690000Y-34290000D01*
X186690000Y-34290000D02*
X194310000Y-34290000D01*
X152400000Y-146685000D02*
X152400000Y-146685000D01*
X152400000Y-146685000D02*
X152400000Y-145415000D01*
X152400000Y-147320000D02*
X152400000Y-146685000D01*
X153639999Y-148559999D02*
X152400000Y-147320000D01*
X166370000Y-149860000D02*
X165069999Y-148559999D01*
X165069999Y-148559999D02*
X153639999Y-148559999D01*
X152400000Y-145415000D02*
X152400000Y-144780000D01*
X123825000Y-42545000D02*
X123825000Y-45720000D01*
X118745000Y-42545000D02*
X123825000Y-42545000D01*
X139065000Y-41275000D02*
X140335000Y-42545000D01*
X123825000Y-42545000D02*
X125095000Y-41275000D01*
X130175000Y-41275000D02*
X131445000Y-40005000D01*
X125095000Y-41275000D02*
X130175000Y-41275000D01*
X131445000Y-40005000D02*
X133985000Y-40005000D01*
X133985000Y-40005000D02*
X135255000Y-41275000D01*
X135255000Y-41275000D02*
X139065000Y-41275000D01*
D33*
%TO.N,PIN103_TX*%
X116205000Y-48260000D02*
X118900000Y-48260000D01*
X118745000Y-78740000D02*
X137160000Y-78740000D01*
X146050000Y-102870000D02*
X147320000Y-101600000D01*
X137160000Y-102870000D02*
X146050000Y-102870000D01*
%TO.N,PIN101_RX*%
X138430000Y-77470000D02*
X122555000Y-77470000D01*
X144780000Y-101600000D02*
X138430000Y-101600000D01*
%TO.N,PIN79_CS2*%
X166370000Y-93980000D02*
X166370000Y-86360000D01*
X164559999Y-84945001D02*
X163830000Y-84215002D01*
X166370000Y-86360000D02*
X164955001Y-84945001D01*
X164955001Y-84945001D02*
X164559999Y-84945001D01*
X163830000Y-68184998D02*
X165100000Y-66914998D01*
X163830000Y-84215002D02*
X163830000Y-68184998D01*
X165100000Y-66914998D02*
X165100000Y-64770000D01*
X145580998Y-121920000D02*
X144780000Y-121920000D01*
X146050000Y-120650000D02*
X144780000Y-121920000D01*
X166370000Y-120650000D02*
X146050000Y-120650000D01*
%TO.N,PIN144_RST*%
X149915000Y-24765000D02*
X151820000Y-26670000D01*
X74295000Y-24765000D02*
X149915000Y-24765000D01*
X73025000Y-23495000D02*
X74295000Y-24765000D01*
X40640000Y-23495000D02*
X73025000Y-23495000D01*
X36195000Y-27940000D02*
X40640000Y-23495000D01*
X33020000Y-35560000D02*
X36195000Y-32385000D01*
X36195000Y-32385000D02*
X36195000Y-27940000D01*
X180340000Y-58420000D02*
X180340000Y-62230000D01*
X180340000Y-62230000D02*
X181610000Y-63500000D01*
X181610000Y-84215002D02*
X181610000Y-63500000D01*
X182880000Y-88900000D02*
X182880000Y-85485002D01*
X182880000Y-85485002D02*
X181610000Y-84215002D01*
X157338563Y-29986437D02*
X152753002Y-26670000D01*
X152753002Y-26670000D02*
X151820000Y-26670000D01*
X170321437Y-29986437D02*
X157338563Y-29986437D01*
X176530000Y-35560000D02*
X175895000Y-35560000D01*
X175895000Y-35560000D02*
X170321437Y-29986437D01*
%TO.N,PIN142_A8*%
X177800000Y-83820000D02*
X180340000Y-86360000D01*
X180340000Y-86360000D02*
X180340000Y-88900000D01*
%TO.N,PIN139_A9*%
X175260000Y-83820000D02*
X177800000Y-86360000D01*
X177800000Y-86360000D02*
X177800000Y-88900000D01*
%TO.N,PIN136_A11*%
X172720000Y-83820000D02*
X175260000Y-86360000D01*
X175260000Y-86360000D02*
X175260000Y-88900000D01*
%TO.N,PIN134_RD*%
X170180000Y-83820000D02*
X172720000Y-86360000D01*
X172720000Y-86360000D02*
X172720000Y-88900000D01*
%TO.N,PIN132_A10*%
X167640000Y-83820000D02*
X170180000Y-86360000D01*
X170180000Y-86360000D02*
X170180000Y-88900000D01*
%TO.N,PIN126_CS1*%
X165100000Y-83820000D02*
X167640000Y-86360000D01*
X167640000Y-86360000D02*
X167640000Y-88900000D01*
%TO.N,PIN125_A1*%
X165735000Y-57150000D02*
X166370000Y-57150000D01*
X138430000Y-57150000D02*
X165735000Y-57150000D01*
%TO.N,PIN122_D7*%
X162560000Y-83820000D02*
X165100000Y-86360000D01*
X165100000Y-86360000D02*
X165100000Y-88900000D01*
X162560000Y-63500000D02*
X162560000Y-64770000D01*
X170180000Y-55880000D02*
X162560000Y-63500000D01*
X170180000Y-52070000D02*
X170180000Y-55880000D01*
X171450000Y-50800000D02*
X170180000Y-52070000D01*
X171450000Y-46990000D02*
X171450000Y-50800000D01*
X172720000Y-45720000D02*
X171450000Y-46990000D01*
%TO.N,PIN121_A0*%
X154014998Y-52070000D02*
X137160000Y-52070000D01*
X154639999Y-52695001D02*
X154014998Y-52070000D01*
X162560000Y-49530000D02*
X159394999Y-52695001D01*
X159394999Y-52695001D02*
X154639999Y-52695001D01*
X137160000Y-48260000D02*
X132715000Y-48260000D01*
%TO.N,PIN120_D6*%
X160020000Y-83820000D02*
X162560000Y-86360000D01*
X162560000Y-86360000D02*
X162560000Y-88900000D01*
X166370000Y-50800000D02*
X165100000Y-52070000D01*
X166370000Y-49134998D02*
X166370000Y-50800000D01*
X169784998Y-45720000D02*
X166370000Y-49134998D01*
X170180000Y-45720000D02*
X169784998Y-45720000D01*
X160020000Y-55245000D02*
X165100000Y-55245000D01*
X165100000Y-52070000D02*
X165100000Y-55245000D01*
%TO.N,PIN118_D5*%
X157480000Y-83820000D02*
X160020000Y-86360000D01*
X160020000Y-86360000D02*
X160020000Y-88900000D01*
X163830000Y-50800000D02*
X162560000Y-52070000D01*
X163830000Y-46990000D02*
X163830000Y-50800000D01*
X165100000Y-45720000D02*
X163830000Y-46990000D01*
X157480000Y-53975000D02*
X162560000Y-53975000D01*
X162560000Y-53975000D02*
X162560000Y-52070000D01*
%TO.N,PIN114_D4*%
X154940000Y-83820000D02*
X157480000Y-86360000D01*
X157480000Y-86360000D02*
X157480000Y-88900000D01*
X159624998Y-45720000D02*
X156210000Y-48895000D01*
X160020000Y-45720000D02*
X159624998Y-45720000D01*
X156210000Y-48895000D02*
X156210000Y-50800000D01*
X156210000Y-50800000D02*
X154940000Y-52070000D01*
%TO.N,PIN112_D3*%
X152400000Y-83820000D02*
X154940000Y-86360000D01*
X154940000Y-86360000D02*
X154940000Y-88900000D01*
X153670000Y-66040000D02*
X153670000Y-69850000D01*
X152400000Y-64770000D02*
X153670000Y-66040000D01*
X153670000Y-69850000D02*
X152400000Y-71120000D01*
X152400000Y-71120000D02*
X152400000Y-83820000D01*
%TO.N,PIN31_A17*%
X187960000Y-124460000D02*
X190500000Y-124460000D01*
%TO.N,PIN32_A18*%
X194310000Y-76200000D02*
X190500000Y-76200000D01*
X196215000Y-77550029D02*
X194310000Y-76200000D01*
X193040000Y-124460000D02*
X196215000Y-121920000D01*
X196215000Y-121920000D02*
X196215000Y-77550029D01*
%TO.N,PIN28_A12*%
X191864999Y-120650000D02*
X190500000Y-121920000D01*
X193675000Y-120650000D02*
X191864999Y-120650000D01*
X194945000Y-80645000D02*
X194945000Y-119380000D01*
X194945000Y-119380000D02*
X193675000Y-120650000D01*
X182880000Y-80010000D02*
X194310000Y-80010000D01*
X194310000Y-80010000D02*
X194945000Y-80645000D01*
%TO.N,PIN30_A14*%
X195580000Y-79375000D02*
X195580000Y-120015000D01*
X185420000Y-78105000D02*
X194310000Y-78105000D01*
X194310000Y-78105000D02*
X195580000Y-79375000D01*
X193675000Y-121920000D02*
X195580000Y-120015000D01*
X193040000Y-121920000D02*
X193675000Y-121920000D01*
%TO.N,PIN24_A13*%
X179070000Y-114300000D02*
X190500000Y-114300000D01*
X181610000Y-85090000D02*
X180340000Y-83820000D01*
X179070000Y-94615000D02*
X181610000Y-92075000D01*
X181610000Y-92075000D02*
X181610000Y-85090000D01*
%TO.N,PIN21_IN_NMI*%
X190500000Y-111760000D02*
X184150000Y-111760000D01*
X128960000Y-26670000D02*
X129754557Y-26670000D01*
X176530000Y-86755002D02*
X176530000Y-93345000D01*
X173990000Y-84335001D02*
X176530000Y-86755002D01*
X184150000Y-111760000D02*
X175260000Y-111760000D01*
X176530000Y-93345000D02*
X175260000Y-94615000D01*
X127690000Y-25400000D02*
X128960000Y-26670000D01*
X73660000Y-25400000D02*
X127690000Y-25400000D01*
X35560000Y-35560000D02*
X37465000Y-33655000D01*
X72390000Y-24130000D02*
X73660000Y-25400000D01*
X41275000Y-24130000D02*
X72390000Y-24130000D01*
X37465000Y-27940000D02*
X41275000Y-24130000D01*
X37465000Y-33655000D02*
X37465000Y-27940000D01*
X172720000Y-58420000D02*
X172720000Y-62230000D01*
X172720000Y-62230000D02*
X173990000Y-63500000D01*
X173990000Y-63500000D02*
X173990000Y-84335001D01*
X132715000Y-29210000D02*
X130232792Y-26670000D01*
X130232792Y-26670000D02*
X128960000Y-26670000D01*
X132715000Y-30480000D02*
X132715000Y-29210000D01*
X133350000Y-31115000D02*
X132715000Y-30480000D01*
X171450000Y-35560000D02*
X167005000Y-31115000D01*
X167005000Y-31115000D02*
X133350000Y-31115000D01*
%TO.N,PIN4_WR*%
X190500000Y-99060000D02*
X187325000Y-99060000D01*
%TO.N,/nascom_ng_connectors/PRI_BLUE*%
X97655000Y-159235000D02*
X95265000Y-156845000D01*
X85725000Y-156845000D02*
X84455000Y-155575000D01*
X95265000Y-156845000D02*
X85725000Y-156845000D01*
%TO.N,/nascom_ng_connectors/PRE_GREEN*%
X96285000Y-155575000D02*
X94615000Y-155575000D01*
X99945000Y-159235000D02*
X96285000Y-155575000D01*
%TO.N,/nascom_ng_connectors/PRI_RED*%
X102235000Y-159235000D02*
X102385000Y-159235000D01*
X104775000Y-156845000D02*
X104775000Y-155575000D01*
X102385000Y-159235000D02*
X104775000Y-156845000D01*
%TO.N,/nascom_ng_connectors/SEC_BLUE*%
X133215000Y-159385000D02*
X130675000Y-156845000D01*
X121285000Y-156845000D02*
X120015000Y-155575000D01*
X130675000Y-156845000D02*
X121285000Y-156845000D01*
%TO.N,/nascom_ng_connectors/SEC_GREEN*%
X131695000Y-155575000D02*
X130175000Y-155575000D01*
X135505000Y-159385000D02*
X131695000Y-155575000D01*
%TO.N,/nascom_ng_connectors/SEC_RED*%
X137795000Y-159385000D02*
X140335000Y-156845000D01*
X140335000Y-156845000D02*
X140335000Y-155575000D01*
%TO.N,/nascom_ng_fdc/ISSLT*%
X105410000Y-107950000D02*
X106680000Y-106680000D01*
X106680000Y-106680000D02*
X114300000Y-106680000D01*
X115570000Y-101600000D02*
X120180998Y-97155000D01*
X120180998Y-97155000D02*
X121920000Y-97155000D01*
X114300000Y-106680000D02*
X114935000Y-106045000D01*
X114935000Y-106045000D02*
X115570000Y-105410000D01*
X115570000Y-105410000D02*
X115570000Y-101600000D01*
%TO.N,/nascom_ng_fdc/IRDATA*%
X121920000Y-89535000D02*
X120650000Y-90805000D01*
X128270000Y-89535000D02*
X121920000Y-89535000D01*
X119380000Y-89535000D02*
X120650000Y-90805000D01*
X105410000Y-88265000D02*
X106680000Y-89535000D01*
X106680000Y-89535000D02*
X119380000Y-89535000D01*
%TO.N,/nascom_ng_fdc/IWPROT*%
X128270000Y-92075000D02*
X121920000Y-92075000D01*
X121920000Y-92075000D02*
X120650000Y-93345000D01*
X120650000Y-93345000D02*
X118745000Y-93345000D01*
X118745000Y-93345000D02*
X118110000Y-92710000D01*
X118110000Y-85725000D02*
X112395000Y-85725000D01*
X112395000Y-85725000D02*
X113030000Y-85725000D01*
X128270000Y-92075000D02*
X130810000Y-89535000D01*
%TO.N,/nascom_ng_fdc/ITRK0*%
X118745000Y-95885000D02*
X120650000Y-95885000D01*
X109220000Y-92075000D02*
X109220000Y-92075000D01*
X114935000Y-92075000D02*
X118745000Y-95885000D01*
X109220000Y-92075000D02*
X114935000Y-92075000D01*
X105410000Y-83185000D02*
X107950000Y-83185000D01*
X107950000Y-83185000D02*
X109220000Y-84455000D01*
X121920000Y-94615000D02*
X120650000Y-95885000D01*
X133350000Y-89535000D02*
X128270000Y-94615000D01*
X128270000Y-94615000D02*
X121920000Y-94615000D01*
%TO.N,/nascom_ng_fdc/IWAT*%
X114300000Y-109220000D02*
X116205000Y-107315000D01*
X105410000Y-113030000D02*
X109220000Y-109220000D01*
X109220000Y-109220000D02*
X114300000Y-109220000D01*
X116205000Y-102870000D02*
X120650000Y-98425000D01*
X116205000Y-107315000D02*
X116205000Y-102870000D01*
%TO.N,/nascom_ng_fdc/IWDATA*%
X113030000Y-110490000D02*
X114300000Y-110490000D01*
X114300000Y-110490000D02*
X116840000Y-107950000D01*
X116840000Y-107950000D02*
X116840000Y-104775000D01*
X117209980Y-104405020D02*
X120650000Y-100965000D01*
X116840000Y-104775000D02*
X117209980Y-104405020D01*
%TO.N,/nascom_ng_fdc/ISTEP*%
X117659990Y-106495010D02*
X120650000Y-103505000D01*
X117475000Y-113665000D02*
X117475000Y-106680000D01*
X113030000Y-115570000D02*
X116205000Y-115570000D01*
X117475000Y-106680000D02*
X117659990Y-106495010D01*
X116205000Y-115570000D02*
X117475000Y-113665000D01*
%TO.N,/nascom_ng_fdc/IDIR*%
X111125000Y-116840000D02*
X109855000Y-118110000D01*
X109855000Y-118110000D02*
X105410000Y-118110000D01*
X120650000Y-106045000D02*
X118110000Y-108585000D01*
X118110000Y-114935000D02*
X116205000Y-116840000D01*
X116205000Y-116840000D02*
X111125000Y-116840000D01*
X118110000Y-107950000D02*
X118110000Y-114935000D01*
%TO.N,/nascom_ng_fdc/IDEN*%
X113030000Y-120650000D02*
X114300000Y-120650000D01*
X114300000Y-120650000D02*
X118745000Y-116205000D01*
X118745000Y-110490000D02*
X120650000Y-108585000D01*
X118745000Y-116205000D02*
X118745000Y-110490000D01*
%TO.N,/nascom_ng_fdc/ISLT2*%
X121920000Y-112395000D02*
X120650000Y-111125000D01*
X125095000Y-112395000D02*
X121920000Y-112395000D01*
X113030000Y-144145000D02*
X125095000Y-144145000D01*
%TO.N,/nascom_ng_fdc/ISLT1*%
X121920000Y-114935000D02*
X120650000Y-113665000D01*
X126365000Y-114935000D02*
X121920000Y-114935000D01*
X118110000Y-125095000D02*
X126365000Y-125095000D01*
X116839873Y-126365127D02*
X118110000Y-125095000D01*
X109220000Y-126365000D02*
X116839873Y-126365127D01*
X106777273Y-141605000D02*
X105410000Y-141605000D01*
X109220000Y-141605000D02*
X106777273Y-141605000D01*
%TO.N,/nascom_ng_fdc/ISLT0*%
X106680000Y-132715000D02*
X121920000Y-132715000D01*
X105410000Y-133985000D02*
X106680000Y-132715000D01*
%TO.N,/nascom_ng_fdc/IINDEX*%
X114935000Y-90805000D02*
X118110000Y-93980000D01*
X113030000Y-90805000D02*
X114935000Y-90805000D01*
X119380000Y-118745000D02*
X120650000Y-118745000D01*
X118110000Y-118745000D02*
X119380000Y-118745000D01*
X120085999Y-99695000D02*
X125635001Y-99695000D01*
X118110000Y-102235000D02*
X118827999Y-101517001D01*
X125635001Y-99695000D02*
X135890000Y-89535000D01*
X118827999Y-101047999D02*
X120085999Y-99695000D01*
X118827999Y-101517001D02*
X118827999Y-101047999D01*
%TO.N,+5V*%
X88900000Y-57545002D02*
X88900000Y-57150000D01*
D36*
X83780000Y-72350000D02*
X83820000Y-72390000D01*
X81280000Y-46990000D02*
X83820000Y-44450000D01*
X76200000Y-46990000D02*
X81280000Y-46990000D01*
X93980000Y-49530000D02*
X96520000Y-49530000D01*
X99060000Y-49530000D02*
X104140000Y-44450000D01*
X96520000Y-49530000D02*
X99060000Y-49530000D01*
X86360000Y-57150000D02*
X83820000Y-57150000D01*
X86360000Y-57150000D02*
X88900000Y-57150000D01*
X88900000Y-57150000D02*
X91440000Y-57150000D01*
X91440000Y-57150000D02*
X96520000Y-52070000D01*
X33020000Y-62230000D02*
X33020000Y-63500000D01*
X31750000Y-62230000D02*
X31750000Y-63500000D01*
X83820000Y-87630000D02*
X86360000Y-87630000D01*
X91440000Y-57150000D02*
X93980000Y-59690000D01*
X76149998Y-46990000D02*
X76200000Y-46990000D01*
X96520000Y-49530000D02*
X96520000Y-52070000D01*
X93980000Y-86360000D02*
X96520000Y-86360000D01*
X88900000Y-80010000D02*
X88900000Y-85090000D01*
X88900000Y-85090000D02*
X83820000Y-85090000D01*
X97790000Y-92075000D02*
X97790000Y-95250000D01*
X91440000Y-83820000D02*
X93980000Y-86360000D01*
X88900000Y-83820000D02*
X91440000Y-83820000D01*
X88265000Y-118110000D02*
X95885000Y-118110000D01*
X31750000Y-63500000D02*
X33020000Y-63500000D01*
X33020000Y-63500000D02*
X48260000Y-63500000D01*
X48260000Y-63500000D02*
X48260000Y-66040000D01*
X114300000Y-81915000D02*
X113030000Y-80645000D01*
X128270000Y-81915000D02*
X114300000Y-81915000D01*
X77470000Y-78740000D02*
X76200000Y-77470000D01*
X81280000Y-78740000D02*
X77470000Y-78740000D01*
X159385000Y-151765000D02*
X161290000Y-149860000D01*
X122555000Y-151765000D02*
X122555000Y-151765000D01*
X122555000Y-151765000D02*
X123825000Y-151765000D01*
X123825000Y-151765000D02*
X125095000Y-151765000D01*
X125095000Y-151765000D02*
X159385000Y-151765000D01*
D33*
%TO.N,~DRIVE_READY*%
X118110000Y-142875000D02*
X114935000Y-142875000D01*
X114935000Y-75565000D02*
X100330000Y-75565000D01*
%TO.N,Net-(JP1-Pad2)*%
X86905000Y-147955000D02*
X85090000Y-147955000D01*
%TO.N,TX_5V*%
X31750000Y-43180000D02*
X33020000Y-44450000D01*
X33020000Y-44450000D02*
X36830000Y-44450000D01*
X122555000Y-52070000D02*
X123825000Y-50800000D01*
X111125000Y-52070000D02*
X122555000Y-52070000D01*
X41910000Y-24765000D02*
X38735000Y-27940000D01*
X38735000Y-33655000D02*
X36830000Y-35560000D01*
X38735000Y-27940000D02*
X38735000Y-33655000D01*
X71755000Y-24765000D02*
X41910000Y-24765000D01*
X77470000Y-30480000D02*
X71755000Y-24765000D01*
X110145002Y-30480000D02*
X111125000Y-30480000D01*
X77470000Y-30480000D02*
X110145002Y-30480000D01*
%TO.N,RX_5V*%
X37465000Y-53340000D02*
X34290000Y-53340000D01*
X108585000Y-53340000D02*
X116205000Y-53340000D01*
X41275000Y-27940000D02*
X41275000Y-33655000D01*
X43180000Y-26035000D02*
X41275000Y-27940000D01*
X70485000Y-26035000D02*
X43180000Y-26035000D01*
X41275000Y-33655000D02*
X39370000Y-35560000D01*
X108585000Y-31750000D02*
X76200000Y-31750000D01*
X76200000Y-31750000D02*
X70485000Y-26035000D01*
%TO.N,RXBAUDCLK_5V*%
X34290000Y-50800000D02*
X36830000Y-50800000D01*
X109855000Y-63500000D02*
X116205000Y-63500000D01*
X40005000Y-33655000D02*
X38100000Y-35560000D01*
X40005000Y-27940000D02*
X40005000Y-33655000D01*
X42545000Y-25400000D02*
X40005000Y-27940000D01*
X71120000Y-25400000D02*
X42545000Y-25400000D01*
X109855000Y-31115000D02*
X76835000Y-31115000D01*
X76835000Y-31115000D02*
X71120000Y-25400000D01*
%TO.N,TXBAUDCLK_5V*%
X31750000Y-53340000D02*
X33020000Y-54610000D01*
X33020000Y-54610000D02*
X38100000Y-54610000D01*
X107315000Y-58420000D02*
X116205000Y-58420000D01*
X43815000Y-26670000D02*
X42545000Y-27940000D01*
X42545000Y-33655000D02*
X40640000Y-35560000D01*
X69850000Y-26670000D02*
X43815000Y-26670000D01*
X107315000Y-32385000D02*
X75565000Y-32385000D01*
X42545000Y-27940000D02*
X42545000Y-33655000D01*
X75565000Y-32385000D02*
X69850000Y-26670000D01*
%TO.N,TAPE_DRIVE_5V*%
X38100000Y-55880000D02*
X34290000Y-55880000D01*
X106045000Y-60960000D02*
X116205000Y-60960000D01*
X43815000Y-33655000D02*
X41910000Y-35560000D01*
X44450000Y-27305000D02*
X43815000Y-27940000D01*
X43815000Y-27940000D02*
X43815000Y-33655000D01*
X69215000Y-27305000D02*
X44450000Y-27305000D01*
X106045000Y-33020000D02*
X74930000Y-33020000D01*
X74930000Y-33020000D02*
X69215000Y-27305000D01*
%TO.N,/nascom_ng_connectors/~KBDS7*%
X34290000Y-68580000D02*
X40640000Y-68580000D01*
%TO.N,/nascom_ng_connectors/~KBDS6*%
X35415001Y-72245001D02*
X46845001Y-72245001D01*
X46845001Y-72245001D02*
X48260000Y-73660000D01*
X34290000Y-71120000D02*
X35415001Y-72245001D01*
%TO.N,/nascom_ng_connectors/~KBDS5*%
X34290000Y-73660000D02*
X40640000Y-73660000D01*
%TO.N,/nascom_ng_connectors/~KBDS4*%
X34290000Y-76200000D02*
X36830000Y-76200000D01*
X36830000Y-76200000D02*
X38100000Y-74930000D01*
X44450000Y-74930000D02*
X48260000Y-78740000D01*
X38100000Y-74930000D02*
X44450000Y-74930000D01*
%TO.N,/nascom_ng_connectors/~KBDS3*%
X33915997Y-82644999D02*
X47084999Y-82644999D01*
X33114999Y-81844001D02*
X33915997Y-82644999D01*
X47084999Y-82644999D02*
X48260000Y-83820000D01*
X33114999Y-79915001D02*
X33114999Y-81844001D01*
X34290000Y-78740000D02*
X33114999Y-79915001D01*
%TO.N,/nascom_ng_connectors/~KBDS2*%
X36830000Y-78740000D02*
X34290000Y-81280000D01*
X40640000Y-78740000D02*
X36830000Y-78740000D01*
%TO.N,/nascom_ng_connectors/~KBDS1*%
X40640000Y-83820000D02*
X34290000Y-83820000D01*
%TO.N,/nascom_ng_connectors/~KBDS0*%
X35415001Y-87485001D02*
X44305001Y-87485001D01*
X34290000Y-86360000D02*
X35415001Y-87485001D01*
X45720000Y-88900000D02*
X48260000Y-88900000D01*
X44305001Y-87485001D02*
X45720000Y-88900000D01*
%TO.N,/nascom_ng_pio/PIO_A1*%
X40640000Y-125730000D02*
X43180000Y-128270000D01*
X34290000Y-125730000D02*
X40640000Y-125730000D01*
%TO.N,/nascom_ng_pio/PIO_A0*%
X40640000Y-128270000D02*
X43180000Y-130810000D01*
X34290000Y-128270000D02*
X40640000Y-128270000D01*
%TO.N,/nascom_ng_pio/PIO_BRDY*%
X32925001Y-129634999D02*
X31750000Y-130810000D01*
X40101409Y-129634999D02*
X32925001Y-129634999D01*
X42546410Y-132080000D02*
X40101409Y-129634999D01*
X52070000Y-132080000D02*
X42546410Y-132080000D01*
X52070000Y-143510000D02*
X58420000Y-143510000D01*
%TO.N,/nascom_ng_pio/~PIO_ASTB*%
X40640000Y-130810000D02*
X43180000Y-133350000D01*
X34290000Y-130810000D02*
X40640000Y-130810000D01*
%TO.N,/nascom_ng_pio/PIO_B0*%
X45720000Y-128270000D02*
X58420000Y-128270000D01*
X33020000Y-132080000D02*
X31750000Y-133350000D01*
X42784998Y-134620000D02*
X40244998Y-132080000D01*
X40244998Y-132080000D02*
X33020000Y-132080000D01*
X45720000Y-134620000D02*
X42784998Y-134620000D01*
%TO.N,/nascom_ng_pio/~PIO_BSTB*%
X40640000Y-133350000D02*
X43180000Y-135890000D01*
X34290000Y-133350000D02*
X40640000Y-133350000D01*
%TO.N,/nascom_ng_pio/PIO_B1*%
X46990000Y-137160000D02*
X42784998Y-137160000D01*
X40640000Y-135015002D02*
X40640000Y-134620000D01*
X40640000Y-134620000D02*
X33020000Y-134620000D01*
X42784998Y-137160000D02*
X40640000Y-135015002D01*
X33020000Y-134620000D02*
X31750000Y-135890000D01*
X46990000Y-125730000D02*
X58420000Y-125730000D01*
%TO.N,/nascom_ng_pio/PIO_ARDY*%
X40640000Y-135890000D02*
X43180000Y-138430000D01*
X34290000Y-135890000D02*
X40640000Y-135890000D01*
%TO.N,/nascom_ng_pio/PIO_B2*%
X48260000Y-123190000D02*
X58420000Y-123190000D01*
X33020000Y-137160000D02*
X31750000Y-138430000D01*
X40244998Y-137160000D02*
X33020000Y-137160000D01*
X42639999Y-139700000D02*
X40244998Y-137160000D01*
X48260000Y-139700000D02*
X42639999Y-139700000D01*
%TO.N,/nascom_ng_pio/PIO_B7*%
X34290000Y-138430000D02*
X39370000Y-138430000D01*
X57150000Y-111760000D02*
X58420000Y-110490000D01*
X39370000Y-111760000D02*
X57150000Y-111760000D01*
%TO.N,/nascom_ng_pio/PIO_B3*%
X33020000Y-139700000D02*
X31750000Y-140970000D01*
X38100000Y-139700000D02*
X33020000Y-139700000D01*
X57150000Y-121920000D02*
X58420000Y-120650000D01*
X38100000Y-121920000D02*
X57150000Y-121920000D01*
%TO.N,/nascom_ng_pio/PIO_B6*%
X34290000Y-140970000D02*
X36830000Y-140970000D01*
X57150000Y-114300000D02*
X58420000Y-113030000D01*
X36830000Y-114300000D02*
X57150000Y-114300000D01*
%TO.N,/nascom_ng_pio/PIO_B4*%
X48895000Y-118110000D02*
X58420000Y-118110000D01*
X33020000Y-142240000D02*
X31750000Y-143510000D01*
X48895000Y-142240000D02*
X33020000Y-142240000D01*
%TO.N,/nascom_ng_pio/PIO_B5*%
X57150000Y-116840000D02*
X58420000Y-115570000D01*
X40640000Y-143510000D02*
X34290000Y-143510000D01*
X40640000Y-116840000D02*
X57150000Y-116840000D01*
%TO.N,~INT_5V*%
X58420000Y-138430000D02*
X56515000Y-138430000D01*
X77470000Y-66675000D02*
X74295000Y-63500000D01*
X107315000Y-66675000D02*
X77470000Y-66675000D01*
X54610000Y-64770000D02*
X66040000Y-64770000D01*
X66040000Y-64770000D02*
X67310000Y-63500000D01*
X74295000Y-63500000D02*
X67310000Y-63500000D01*
X128270000Y-59690000D02*
X107315000Y-59690000D01*
X129540000Y-58420000D02*
X128270000Y-59690000D01*
X132715000Y-58420000D02*
X129540000Y-58420000D01*
%TO.N,Net-(RV2-Pad2)*%
X62230000Y-138430000D02*
X68580000Y-138430000D01*
%TO.N,/nascom_ng_pio/CLK_TRG3*%
X56515000Y-48260000D02*
X45720000Y-48260000D01*
X59055000Y-50800000D02*
X56515000Y-48260000D01*
X67945000Y-50800000D02*
X59055000Y-50800000D01*
%TO.N,/nascom_ng_pio/CLK_TRG2*%
X68580000Y-53340000D02*
X69850000Y-54610000D01*
X45720000Y-53340000D02*
X68580000Y-53340000D01*
%TO.N,/nascom_ng_pio/CLK_TRG1*%
X52070000Y-50800000D02*
X56515000Y-50800000D01*
X50800000Y-49530000D02*
X52070000Y-50800000D01*
X43180000Y-50800000D02*
X44450000Y-49530000D01*
X44450000Y-49530000D02*
X50800000Y-49530000D01*
X69850000Y-52070000D02*
X57785000Y-52070000D01*
X57785000Y-52070000D02*
X56515000Y-50800000D01*
%TO.N,/nascom_ng_pio/CLK_TRG0*%
X63500000Y-49530000D02*
X69850000Y-49530000D01*
X56515000Y-45720000D02*
X60325000Y-49530000D01*
X45720000Y-43180000D02*
X48260000Y-45720000D01*
X48260000Y-45720000D02*
X56515000Y-45720000D01*
X60325000Y-49530000D02*
X63500000Y-49530000D01*
X43180000Y-55880000D02*
X41275000Y-55880000D01*
X44450000Y-44450000D02*
X45720000Y-43180000D01*
X41275000Y-44450000D02*
X44450000Y-44450000D01*
%TO.N,/nascom_ng_pio/ZC_TO1*%
X54610000Y-54610000D02*
X41910000Y-54610000D01*
X41910000Y-54610000D02*
X41910000Y-54610000D01*
%TO.N,/nascom_ng_pio/ZC_TO0*%
X43180000Y-53340000D02*
X44450000Y-52070000D01*
X44450000Y-52070000D02*
X54610000Y-52070000D01*
%TO.N,/nascom_ng_pio/ZC_TO2*%
X49435001Y-41910000D02*
X51494992Y-41910000D01*
X43180000Y-43180000D02*
X44450000Y-41910000D01*
X44450000Y-41910000D02*
X49435001Y-41910000D01*
%TO.N,CLK4_5V*%
X45720000Y-55880000D02*
X67310000Y-55880000D01*
X79518463Y-58420000D02*
X73025000Y-58420000D01*
X47134999Y-58420000D02*
X79375000Y-58420000D01*
X45720000Y-55880000D02*
X45720000Y-57150000D01*
X45720000Y-57150000D02*
X47134999Y-58420000D01*
X79375000Y-58420000D02*
X79518463Y-58420000D01*
X68580000Y-71120000D02*
X69850000Y-69850000D01*
X57150000Y-71120000D02*
X68580000Y-71120000D01*
X113665000Y-69215000D02*
X79375000Y-69215000D01*
X125095000Y-71755000D02*
X116205000Y-71755000D01*
X116205000Y-71755000D02*
X113665000Y-69215000D01*
D34*
%TO.N,D3_5V*%
X69850000Y-37425000D02*
X69810000Y-37465000D01*
D33*
X46594998Y-81280000D02*
X47864998Y-82550000D01*
X40640000Y-81280000D02*
X46594998Y-81280000D01*
X47864998Y-82550000D02*
X50800000Y-82550000D01*
X50800000Y-95250000D02*
X58420000Y-95250000D01*
X59690000Y-36830000D02*
X69850000Y-36830000D01*
X74930000Y-34290000D02*
X72390000Y-36830000D01*
X72390000Y-36830000D02*
X69850000Y-36830000D01*
X157480000Y-34290000D02*
X74930000Y-34290000D01*
X68580000Y-118110000D02*
X69215000Y-118745000D01*
X69215000Y-118745000D02*
X69850000Y-119380000D01*
X69850000Y-119380000D02*
X83185000Y-119380000D01*
X83185000Y-119380000D02*
X100330000Y-119380000D01*
X97790000Y-107950000D02*
X100330000Y-107950000D01*
X57150000Y-63500000D02*
X59690000Y-63500000D01*
X53340000Y-63500000D02*
X57150000Y-63500000D01*
X43180000Y-62230000D02*
X52070000Y-62230000D01*
X52070000Y-62230000D02*
X53340000Y-63500000D01*
X60325000Y-93345000D02*
X58420000Y-95250000D01*
X69850000Y-93345000D02*
X60325000Y-93345000D01*
%TO.N,D1_5V*%
X48260000Y-86360000D02*
X60960000Y-86360000D01*
X60960000Y-41910000D02*
X69850000Y-41910000D01*
X46356410Y-143510000D02*
X43180000Y-143510000D01*
X49530000Y-143510000D02*
X46356410Y-143510000D01*
X68580000Y-113030000D02*
X67454999Y-111904999D01*
X57879999Y-111904999D02*
X56754998Y-113030000D01*
X67454999Y-111904999D02*
X57879999Y-111904999D01*
X56754998Y-113030000D02*
X49530000Y-113030000D01*
X68580000Y-113030000D02*
X78740000Y-113030000D01*
X88900000Y-104140000D02*
X90170000Y-102870000D01*
X78740000Y-104140000D02*
X88900000Y-104140000D01*
X163830000Y-39370000D02*
X165100000Y-38100000D01*
X146050000Y-36830000D02*
X148590000Y-39370000D01*
X148590000Y-39370000D02*
X163830000Y-39370000D01*
X77470000Y-36830000D02*
X146050000Y-36830000D01*
X69850000Y-41910000D02*
X72390000Y-41910000D01*
X72390000Y-41910000D02*
X77470000Y-36830000D01*
%TO.N,D4_5V*%
X40640000Y-76200000D02*
X44450000Y-80010000D01*
X44450000Y-80010000D02*
X52070000Y-80010000D01*
X52070000Y-97790000D02*
X58420000Y-97790000D01*
X55880000Y-36830000D02*
X57150000Y-38100000D01*
X54610000Y-36830000D02*
X55880000Y-36830000D01*
X72390000Y-38100000D02*
X75565000Y-34925000D01*
X57150000Y-38100000D02*
X72390000Y-38100000D01*
X75565000Y-34925000D02*
X146050000Y-34925000D01*
X162414999Y-34925000D02*
X162560000Y-35070001D01*
X146050000Y-34925000D02*
X162414999Y-34925000D01*
X70485000Y-96520000D02*
X66040000Y-96520000D01*
X64770000Y-97790000D02*
X58420000Y-97790000D01*
X66040000Y-96520000D02*
X64770000Y-97790000D01*
X70485000Y-96520000D02*
X94615000Y-96520000D01*
X94615000Y-102870000D02*
X97790000Y-102870000D01*
X40005000Y-39370000D02*
X50800000Y-39370000D01*
X53340000Y-36830000D02*
X54610000Y-36830000D01*
X50800000Y-39370000D02*
X53340000Y-36830000D01*
%TO.N,D0_5V*%
X66040000Y-44450000D02*
X69850000Y-44450000D01*
X62230000Y-44450000D02*
X66040000Y-44450000D01*
X40640000Y-86360000D02*
X41910000Y-85090000D01*
X41910000Y-85090000D02*
X62230000Y-85090000D01*
X43180000Y-140970000D02*
X50800000Y-140970000D01*
X67310000Y-109220000D02*
X68580000Y-110490000D01*
X50800000Y-109220000D02*
X67310000Y-109220000D01*
X68580000Y-110490000D02*
X77470000Y-110490000D01*
X88265000Y-101600000D02*
X90170000Y-100330000D01*
X77470000Y-101600000D02*
X88265000Y-101600000D01*
X168275000Y-40640000D02*
X170180000Y-38100000D01*
X146685000Y-40640000D02*
X168275000Y-40640000D01*
X144145000Y-38100000D02*
X146685000Y-40640000D01*
X78740000Y-38100000D02*
X144145000Y-38100000D01*
X69850000Y-44450000D02*
X72390000Y-44450000D01*
X72390000Y-44450000D02*
X78740000Y-38100000D01*
%TO.N,D5_5V*%
X48260000Y-76200000D02*
X50800000Y-76200000D01*
X50800000Y-76200000D02*
X53340000Y-78740000D01*
X53340000Y-100330000D02*
X58420000Y-100330000D01*
X48260000Y-76200000D02*
X49530000Y-76200000D01*
X49530000Y-76200000D02*
X50800000Y-74930000D01*
X50800000Y-74930000D02*
X58420000Y-74930000D01*
X76835000Y-36195000D02*
X165735000Y-36195000D01*
X72390000Y-40640000D02*
X76835000Y-36195000D01*
X165735000Y-36195000D02*
X167640000Y-38100000D01*
X54610000Y-39370000D02*
X55880000Y-40640000D01*
X55880000Y-40640000D02*
X72390000Y-40640000D01*
X71120000Y-99060000D02*
X67310000Y-99060000D01*
X66040000Y-100330000D02*
X58420000Y-100330000D01*
X67310000Y-99060000D02*
X66040000Y-100330000D01*
X96520000Y-99060000D02*
X97790000Y-100330000D01*
X71120000Y-99060000D02*
X96520000Y-99060000D01*
%TO.N,~M1_5V*%
X54610000Y-69850000D02*
X59690000Y-69850000D01*
X58420000Y-102870000D02*
X59690000Y-104140000D01*
X59690000Y-104140000D02*
X62865000Y-104140000D01*
X100674998Y-146050000D02*
X127635000Y-146050000D01*
X97155000Y-146050000D02*
X100674998Y-146050000D01*
X65405000Y-145415000D02*
X96520000Y-145415000D01*
X96520000Y-145415000D02*
X97155000Y-146050000D01*
%TO.N,~IORQ_5V*%
X54610000Y-105410000D02*
X58420000Y-105410000D01*
X58420000Y-105410000D02*
X61595000Y-105410000D01*
X129540000Y-131445000D02*
X128270000Y-130175000D01*
X128270000Y-130175000D02*
X97790000Y-130175000D01*
X92710000Y-135890000D02*
X97790000Y-135890000D01*
X85485002Y-135890000D02*
X92710000Y-135890000D01*
X64135000Y-134620000D02*
X84215002Y-134620000D01*
X84215002Y-134620000D02*
X85485002Y-135890000D01*
%TO.N,~RD_5V*%
X60325000Y-102870000D02*
X68580000Y-102870000D01*
X56515000Y-49530000D02*
X54610000Y-49530000D01*
X60325000Y-51435000D02*
X58420000Y-51435000D01*
X58420000Y-51435000D02*
X56515000Y-49530000D01*
X89535000Y-127635000D02*
X118110000Y-127635000D01*
X88900000Y-126744999D02*
X89535000Y-127635000D01*
X118110000Y-127635000D02*
X134620000Y-127635000D01*
X61595000Y-129540000D02*
X64135000Y-132080000D01*
X60325000Y-129540000D02*
X61595000Y-129540000D01*
X76835000Y-132080000D02*
X81915000Y-127000000D01*
X86262999Y-126744999D02*
X88900000Y-126744999D01*
X64135000Y-132080000D02*
X76835000Y-132080000D01*
X81915000Y-127000000D02*
X86007998Y-127000000D01*
X86007998Y-127000000D02*
X86262999Y-126744999D01*
%TO.N,A0_5V*%
X64770000Y-62230000D02*
X69850000Y-62230000D01*
X43180000Y-107950000D02*
X45720000Y-105410000D01*
X45720000Y-105410000D02*
X50165000Y-105410000D01*
X59698589Y-104784999D02*
X66049999Y-104784999D01*
X59198589Y-104284999D02*
X59698589Y-104784999D01*
X50165000Y-105410000D02*
X51290001Y-104284999D01*
X51290001Y-104284999D02*
X59198589Y-104284999D01*
X66675000Y-105410000D02*
X68580000Y-105410000D01*
X66049999Y-104784999D02*
X66675000Y-105410000D01*
X74295000Y-62230000D02*
X69850000Y-62230000D01*
X78105000Y-66040000D02*
X74295000Y-62230000D01*
X137795000Y-62230000D02*
X130810000Y-62230000D01*
X113665000Y-66040000D02*
X78105000Y-66040000D01*
X130810000Y-62230000D02*
X128270000Y-64770000D01*
X128270000Y-64770000D02*
X114935000Y-64770000D01*
X114935000Y-64770000D02*
X113665000Y-66040000D01*
%TO.N,A1_5V*%
X63500000Y-59690000D02*
X69850000Y-59690000D01*
X105419999Y-58720001D02*
X105419999Y-61260001D01*
X105119998Y-58420000D02*
X105419999Y-58720001D01*
X71120000Y-60960000D02*
X94541813Y-60960000D01*
X69850000Y-59690000D02*
X71120000Y-60960000D01*
X95250000Y-59961815D02*
X95250000Y-59055000D01*
X95250000Y-59055000D02*
X95885000Y-58420000D01*
X105419999Y-61260001D02*
X106389998Y-62230000D01*
X94541813Y-60960000D02*
X95250000Y-59961815D01*
X95885000Y-58420000D02*
X105119998Y-58420000D01*
X48895000Y-104140000D02*
X48895000Y-99695000D01*
X43180000Y-105410000D02*
X45085000Y-104140000D01*
X45085000Y-104140000D02*
X48895000Y-104140000D01*
X63500000Y-99060000D02*
X49530000Y-99060000D01*
X48895000Y-99695000D02*
X49530000Y-99060000D01*
X132715000Y-60960000D02*
X130175000Y-60960000D01*
X130175000Y-60960000D02*
X129540000Y-60960000D01*
X129540000Y-60960000D02*
X128270000Y-62230000D01*
X106389998Y-62230000D02*
X128270000Y-62230000D01*
%TO.N,~PIO_CS_5V*%
X46990000Y-106680000D02*
X61595000Y-106680000D01*
X61595000Y-106680000D02*
X73025000Y-106680000D01*
X45085000Y-102870000D02*
X43180000Y-102870000D01*
X46990000Y-102870000D02*
X45085000Y-102870000D01*
X129540000Y-146685000D02*
X97174998Y-146685000D01*
X97155000Y-146685000D02*
X73015001Y-146685000D01*
%TO.N,D6_5V*%
X44450000Y-71120000D02*
X40640000Y-71120000D01*
X41910000Y-60960000D02*
X57150000Y-60960000D01*
X45720000Y-127000000D02*
X60325000Y-127000000D01*
X60325000Y-127000000D02*
X61595000Y-125730000D01*
X68580000Y-125730000D02*
X61595000Y-125730000D01*
X168910000Y-37465000D02*
X169545000Y-36830000D01*
X167638590Y-40005000D02*
X168910000Y-38588591D01*
X55880000Y-43180000D02*
X72390000Y-43180000D01*
X169545000Y-36830000D02*
X171450000Y-36830000D01*
X168910000Y-38588591D02*
X168910000Y-37465000D01*
X54610000Y-41910000D02*
X55880000Y-43180000D01*
X72390000Y-43180000D02*
X78105000Y-37465000D01*
X171450000Y-36830000D02*
X172720000Y-38100000D01*
X145415000Y-37465000D02*
X147955000Y-40005000D01*
X78105000Y-37465000D02*
X145415000Y-37465000D01*
X147955000Y-40005000D02*
X167638590Y-40005000D01*
%TO.N,D7_5V*%
X43180000Y-97790000D02*
X45720000Y-97790000D01*
X49530000Y-44450000D02*
X54610000Y-44450000D01*
X175260000Y-38736410D02*
X175260000Y-38100000D01*
X71755000Y-101600000D02*
X52070000Y-101600000D01*
X49530000Y-97790000D02*
X45720000Y-97790000D01*
X50165000Y-97155000D02*
X49530000Y-97790000D01*
X173355000Y-40005000D02*
X175260000Y-38100000D01*
X172085000Y-41275000D02*
X173355000Y-40005000D01*
X57785000Y-44450000D02*
X59055000Y-45720000D01*
X54610000Y-44450000D02*
X57785000Y-44450000D01*
X145415000Y-41275000D02*
X172085000Y-41275000D01*
X79375000Y-38735000D02*
X142875000Y-38735000D01*
X59055000Y-45720000D02*
X72390000Y-45720000D01*
X142875000Y-38735000D02*
X145415000Y-41275000D01*
X72390000Y-45720000D02*
X79375000Y-38735000D01*
%TO.N,D2_5V*%
X48260000Y-95250000D02*
X43180000Y-95250000D01*
X62230000Y-39370000D02*
X69850000Y-39370000D01*
X55880000Y-38100000D02*
X57150000Y-39370000D01*
X69850000Y-39370000D02*
X72390000Y-39370000D01*
X72390000Y-39370000D02*
X76200000Y-35560000D01*
X146051410Y-35560000D02*
X146685000Y-35560000D01*
X146685000Y-35560000D02*
X143510000Y-35560000D01*
X160020000Y-35560000D02*
X146685000Y-35560000D01*
X76200000Y-35560000D02*
X146051410Y-35560000D01*
X57150000Y-39370000D02*
X62230000Y-39370000D01*
X54265002Y-38100000D02*
X54610000Y-38100000D01*
X54610000Y-38100000D02*
X55880000Y-38100000D01*
X56754998Y-115570000D02*
X48260000Y-115570000D01*
X57879999Y-114444999D02*
X56754998Y-115570000D01*
X68580000Y-115570000D02*
X67454999Y-114444999D01*
X67454999Y-114444999D02*
X57879999Y-114444999D01*
X88900000Y-109220000D02*
X90170000Y-107950000D01*
X81280000Y-109220000D02*
X88900000Y-109220000D01*
X68580000Y-115570000D02*
X81280000Y-115570000D01*
X53340000Y-38100000D02*
X54610000Y-38100000D01*
X50800000Y-40640000D02*
X53340000Y-38100000D01*
%TO.N,/nascom_ng_fdc/HLT*%
X76200000Y-80010000D02*
X80010000Y-80010000D01*
%TO.N,~IO_RESET_5V*%
X69850000Y-64770000D02*
X74295000Y-64770000D01*
X68580000Y-140970000D02*
X74295000Y-140970000D01*
X88265000Y-93345000D02*
X90170000Y-95250000D01*
X74295000Y-93345000D02*
X88265000Y-93345000D01*
X140335000Y-55880000D02*
X135890000Y-55880000D01*
X135890000Y-55880000D02*
X134620000Y-54610000D01*
X78105000Y-42545000D02*
X78105000Y-43180000D01*
X80645000Y-40005000D02*
X78105000Y-42545000D01*
X126365000Y-40005000D02*
X80645000Y-40005000D01*
X126365000Y-54610000D02*
X134620000Y-54610000D01*
%TO.N,/nascom_ng_fdc/~DDEN*%
X89535000Y-101600000D02*
X92075000Y-101600000D01*
X88265000Y-102870000D02*
X89535000Y-101600000D01*
X83820000Y-102870000D02*
X88265000Y-102870000D01*
X96229998Y-105410000D02*
X97790000Y-105410000D01*
X92075000Y-101600000D02*
X96229998Y-105410000D01*
%TO.N,/nascom_ng_fdc/EIGHTINCH*%
X68580000Y-135890000D02*
X80010000Y-135890000D01*
X92075000Y-92710000D02*
X97790000Y-97790000D01*
X80010000Y-92710000D02*
X92075000Y-92710000D01*
%TO.N,/nascom_ng_fdc/BIWPROT*%
X107950000Y-88265000D02*
X113030000Y-88265000D01*
X107950000Y-88265000D02*
X106680000Y-86995000D01*
X106680000Y-86995000D02*
X100330000Y-86995000D01*
X89629999Y-104140000D02*
X88265000Y-105410000D01*
X93980000Y-104140000D02*
X89629999Y-104140000D01*
X100330000Y-106680000D02*
X96520000Y-106680000D01*
X88265000Y-105410000D02*
X83820000Y-105410000D01*
X96520000Y-106680000D02*
X93980000Y-104140000D01*
%TO.N,/nascom_ng_fdc/BIINDEX*%
X85090000Y-106680000D02*
X83820000Y-107950000D01*
X93345000Y-106680000D02*
X85090000Y-106680000D01*
X97155000Y-96520000D02*
X93345000Y-92710000D01*
X104140000Y-96520000D02*
X97155000Y-96520000D01*
X104775000Y-97155000D02*
X104140000Y-96520000D01*
X113030000Y-93345000D02*
X109220000Y-97155000D01*
X109220000Y-97155000D02*
X104775000Y-97155000D01*
%TO.N,/nascom_ng_fdc/BITRK0*%
X105410000Y-86360000D02*
X105410000Y-85725000D01*
X103505000Y-85725000D02*
X105410000Y-85725000D01*
X85725000Y-90805000D02*
X103505000Y-90805000D01*
X83820000Y-110490000D02*
X85725000Y-110490000D01*
%TO.N,READY*%
X87630000Y-111760000D02*
X83820000Y-115570000D01*
X102870000Y-111760000D02*
X87630000Y-111760000D01*
%TO.N,/nascom_ng_fdc/HEAD_LOAD*%
X83820000Y-125730000D02*
X101600000Y-125730000D01*
X102235000Y-93345000D02*
X105410000Y-93345000D01*
%TO.N,/nascom_ng_fdc/~RAW_READ*%
X78740000Y-82550000D02*
X83820000Y-82550000D01*
%TO.N,CLK1_5V*%
X112395000Y-135255000D02*
X116205000Y-135255000D01*
X85034999Y-137104999D02*
X100274999Y-137104999D01*
X83820000Y-135890000D02*
X85034999Y-137104999D01*
X100274999Y-137104999D02*
X100965000Y-137795000D01*
X100965000Y-137795000D02*
X108585000Y-137795000D01*
X108585000Y-137795000D02*
X111125000Y-135255000D01*
X111125000Y-135255000D02*
X112395000Y-135255000D01*
%TO.N,~FDC_CS_5V*%
X68580000Y-100330000D02*
X74930000Y-100330000D01*
X74930000Y-139700000D02*
X85090000Y-139700000D01*
X86438999Y-139755001D02*
X88209999Y-139755001D01*
X85090000Y-139700000D02*
X86383998Y-139700000D01*
X86383998Y-139700000D02*
X86438999Y-139755001D01*
X88209999Y-139755001D02*
X92654999Y-139755001D01*
X124554999Y-141510001D02*
X129540000Y-136525000D01*
X100330000Y-139700000D02*
X100965000Y-140335000D01*
X92766002Y-139700000D02*
X100330000Y-139700000D01*
X100965000Y-140335000D02*
X115570000Y-140335000D01*
X92711001Y-139755001D02*
X92766002Y-139700000D01*
X115570000Y-140335000D02*
X116745001Y-141510001D01*
X116745001Y-141510001D02*
X124554999Y-141510001D01*
%TO.N,~WR_5V*%
X68580000Y-97790000D02*
X76200000Y-97790000D01*
X99060000Y-145415000D02*
X135255000Y-145415000D01*
X135255000Y-145415000D02*
X137160000Y-146685000D01*
X96520000Y-142875000D02*
X99060000Y-145415000D01*
X85725000Y-142875000D02*
X96520000Y-142875000D01*
X76200000Y-142240000D02*
X85090000Y-142240000D01*
X85090000Y-142240000D02*
X85725000Y-142875000D01*
%TO.N,DRIVE_ENABLE*%
X90701587Y-48115001D02*
X94366588Y-44450000D01*
X88797997Y-48115001D02*
X90701587Y-48115001D01*
X87874999Y-49037999D02*
X88797997Y-48115001D01*
X87874999Y-49532003D02*
X87874999Y-49037999D01*
X85337002Y-52070000D02*
X87874999Y-49532003D01*
X94366588Y-44450000D02*
X96520000Y-44450000D01*
X83820000Y-52070000D02*
X85337002Y-52070000D01*
X91440000Y-71120000D02*
X86360000Y-71120000D01*
X103477979Y-71147021D02*
X91440000Y-71120000D01*
X114300000Y-74295000D02*
X106680000Y-74295000D01*
X106680000Y-74295000D02*
X103477979Y-71147021D01*
%TO.N,/nascom_ng_fdc/BHEAD_LOAD*%
X105410000Y-131445000D02*
X113030000Y-131445000D01*
X105410000Y-139065000D02*
X113030000Y-139065000D01*
X79315010Y-78045010D02*
X76200000Y-74930000D01*
X82550000Y-78045010D02*
X79315010Y-78045010D01*
X104140000Y-78740000D02*
X83185000Y-78740000D01*
X83185000Y-78740000D02*
X82550000Y-78045010D01*
%TO.N,/nascom_ng_fdc/BIRDATA*%
X104140000Y-89535000D02*
X105410000Y-90805000D01*
X102235000Y-89535000D02*
X104140000Y-89535000D01*
X83820000Y-90170000D02*
X101600000Y-90170000D01*
X101600000Y-90170000D02*
X102235000Y-89535000D01*
%TO.N,PORTE4_WR_5V*%
X97790000Y-113030000D02*
X100965000Y-113030000D01*
X76200000Y-43180000D02*
X76200000Y-44450000D01*
X130175000Y-39370000D02*
X80010000Y-39370000D01*
X80010000Y-39370000D02*
X76200000Y-43180000D01*
X100965000Y-76835000D02*
X128905000Y-76835000D01*
%TO.N,~CTC_CS_5V*%
X114300000Y-67310000D02*
X139065000Y-67310000D01*
X113665000Y-67945000D02*
X114300000Y-67310000D01*
X139065000Y-67310000D02*
X140335000Y-66040000D01*
X69850000Y-67310000D02*
X71120000Y-67945000D01*
X71120000Y-67945000D02*
X113665000Y-67945000D01*
%TO.N,/nascom_ng_fdc2/MONO_READY*%
X85337002Y-54610000D02*
X90170000Y-49777002D01*
X83820000Y-54610000D02*
X85337002Y-54610000D01*
X92462998Y-46990000D02*
X96520000Y-46990000D01*
X90170000Y-49282998D02*
X92462998Y-46990000D01*
X90170000Y-49777002D02*
X90170000Y-49282998D01*
%TO.N,/nascom_ng_pio/PIO_A7*%
X33114999Y-112465999D02*
X35090998Y-110490000D01*
X31750000Y-115570000D02*
X33114999Y-114205001D01*
X35090998Y-110490000D02*
X43180000Y-110490000D01*
X33114999Y-114205001D02*
X33114999Y-112465999D01*
%TO.N,/nascom_ng_pio/PIO_A6*%
X34290000Y-113030000D02*
X43180000Y-113030000D01*
%TO.N,/nascom_ng_pio/PIO_A5*%
X34290000Y-115570000D02*
X43180000Y-115570000D01*
%TO.N,/nascom_ng_pio/PIO_A4*%
X43180000Y-118110000D02*
X34290000Y-118110000D01*
%TO.N,/nascom_ng_pio/PIO_A3*%
X41910000Y-122555000D02*
X43180000Y-123190000D01*
X34290000Y-120650000D02*
X36195000Y-122555000D01*
X36195000Y-122555000D02*
X41910000Y-122555000D01*
%TO.N,/nascom_ng_pio/PIO_A2*%
X40640000Y-123190000D02*
X43180000Y-125730000D01*
X34290000Y-123190000D02*
X40640000Y-123190000D01*
%TO.N,~READY_5V*%
X104140000Y-49530000D02*
X104140000Y-52070000D01*
X104140000Y-52070000D02*
X104140000Y-54610000D01*
X104140000Y-54610000D02*
X104140000Y-57150000D01*
X123825000Y-53340000D02*
X122555000Y-54610000D01*
X122555000Y-54610000D02*
X121920000Y-54610000D01*
X121920000Y-54610000D02*
X104140000Y-54610000D01*
%TO.N,PIN18_IN_WARMRST*%
X193040000Y-109220000D02*
X191770000Y-107950000D01*
X191770000Y-107950000D02*
X184150000Y-107950000D01*
X184150000Y-107950000D02*
X177800000Y-107950000D01*
X175260000Y-58420000D02*
X175260000Y-62230000D01*
X175260000Y-62230000D02*
X176530000Y-63500000D01*
X176530000Y-84335001D02*
X176530000Y-63500000D01*
X179070000Y-86755002D02*
X176530000Y-84335001D01*
X177800000Y-94615000D02*
X179070000Y-93345000D01*
X179070000Y-93345000D02*
X179070000Y-86755002D01*
X173355000Y-35560000D02*
X173990000Y-35560000D01*
X172720000Y-34925000D02*
X173355000Y-35560000D01*
X169545000Y-31815010D02*
X172720000Y-34925000D01*
X168275000Y-30545010D02*
X169545000Y-31815010D01*
X152400453Y-30545010D02*
X168275000Y-30545010D01*
X142240000Y-26670000D02*
X144780000Y-30545010D01*
X140370000Y-26670000D02*
X142240000Y-26670000D01*
X144780000Y-30545010D02*
X147254990Y-30545010D01*
X147320000Y-30480000D02*
X152335443Y-30480000D01*
X147254990Y-30545010D02*
X147320000Y-30480000D01*
X152335443Y-30480000D02*
X152400453Y-30545010D01*
%TO.N,/nascom_ng_pio/PUP_EIE*%
X58420000Y-135890000D02*
X53975000Y-135890000D01*
%TO.N,/nascom_ng_pio/PIO_EIO*%
X55245000Y-140970000D02*
X58420000Y-140970000D01*
%TO.N,PIN40_SDDO*%
X185420000Y-137160000D02*
X185420000Y-136523590D01*
%TO.N,PIN44_KCLK*%
X179070000Y-128270000D02*
X162560000Y-128270000D01*
X181610000Y-130810000D02*
X179070000Y-128270000D01*
X180340000Y-137160000D02*
X181610000Y-135984999D01*
X181610000Y-135984999D02*
X181610000Y-130810000D01*
X162560000Y-128270000D02*
X163195000Y-128270000D01*
X163195000Y-128270000D02*
X164465000Y-127000000D01*
X162560000Y-123190000D02*
X164465000Y-125095000D01*
X164465000Y-127000000D02*
X164465000Y-125095000D01*
%TO.N,PIN45_KDAT*%
X180340000Y-133417919D02*
X180340000Y-134620000D01*
X162560000Y-130810000D02*
X177732081Y-130810000D01*
X177732081Y-130810000D02*
X180340000Y-133417919D01*
X162560000Y-130810000D02*
X160655000Y-128905000D01*
X162560000Y-125730000D02*
X160655000Y-127635000D01*
X160655000Y-128905000D02*
X160655000Y-127635000D01*
%TO.N,PIN52_SEC_VIDEO*%
X136769999Y-154549999D02*
X137795000Y-155575000D01*
X128660001Y-154549999D02*
X136769999Y-154549999D01*
X127635000Y-155575000D02*
X128660001Y-154549999D01*
X146929999Y-154549999D02*
X147955000Y-155575000D01*
X138820001Y-154549999D02*
X146929999Y-154549999D01*
X137795000Y-155575000D02*
X138820001Y-154549999D01*
%TO.N,PIN53_PRI_VIDEO*%
X101209999Y-154549999D02*
X102235000Y-155575000D01*
X93100001Y-154549999D02*
X101209999Y-154549999D01*
X92075000Y-155575000D02*
X93100001Y-154549999D01*
X111369999Y-154549999D02*
X112395000Y-155575000D01*
X103260001Y-154549999D02*
X111369999Y-154549999D01*
X102235000Y-155575000D02*
X103260001Y-154549999D01*
%TO.N,INTRQ_5V*%
X83820000Y-97790000D02*
X86995000Y-97790000D01*
X116205000Y-128905000D02*
X129540000Y-128905000D01*
X116203590Y-114300000D02*
X86995000Y-114300000D01*
%TO.N,DRQ_5V*%
X83820000Y-100330000D02*
X87630000Y-100330000D01*
X137160000Y-53340000D02*
X138430000Y-53340000D01*
X138430000Y-53340000D02*
X140335000Y-53340000D01*
X135890000Y-52070000D02*
X137160000Y-53340000D01*
X127635000Y-52070000D02*
X135890000Y-52070000D01*
X112395000Y-69850000D02*
X87630000Y-69850000D01*
X115570000Y-73025000D02*
X112395000Y-69850000D01*
X127635000Y-73025000D02*
X115570000Y-73025000D01*
%TO.N,~KBDRST_5V*%
X31750000Y-71120000D02*
X33020000Y-69850000D01*
X33020000Y-69850000D02*
X38735000Y-69850000D01*
X38735000Y-91440000D02*
X73025000Y-91440000D01*
X116840000Y-71120000D02*
X123825000Y-71120000D01*
X73025000Y-68580000D02*
X114300000Y-68580000D01*
X114300000Y-68580000D02*
X116840000Y-71120000D01*
%TO.N,~KBDCLK_5V*%
X33820998Y-77470000D02*
X37465000Y-77470000D01*
X33114999Y-76764001D02*
X33820998Y-77470000D01*
X31750000Y-73660000D02*
X33114999Y-75024999D01*
X33114999Y-75024999D02*
X33114999Y-76764001D01*
X122555000Y-57150000D02*
X123825000Y-58420000D01*
X108585000Y-57150000D02*
X122555000Y-57150000D01*
X45085000Y-64770000D02*
X47719999Y-67310000D01*
X47719999Y-67310000D02*
X53089997Y-67310000D01*
X37465000Y-64770000D02*
X45085000Y-64770000D01*
X53089997Y-67310000D02*
X53975000Y-66040000D01*
X54610000Y-66040000D02*
X55243590Y-66040000D01*
X53975000Y-66040000D02*
X54610000Y-66040000D01*
X108585000Y-67310000D02*
X72390000Y-67310000D01*
X72390000Y-67310000D02*
X71120000Y-66040000D01*
X54610000Y-66040000D02*
X71120000Y-66040000D01*
%TO.N,PIN69_CLK4*%
X147955000Y-93345000D02*
X147955000Y-93345000D01*
X147955000Y-93345000D02*
X161290000Y-93345000D01*
X140335000Y-68580000D02*
X147955000Y-68580000D01*
%TO.N,~PIN100_KBDCLK*%
X116205000Y-55880000D02*
X120015000Y-55880000D01*
X146050000Y-105410000D02*
X147320000Y-104140000D01*
X139700000Y-105410000D02*
X146050000Y-105410000D01*
X126462692Y-76200000D02*
X120015000Y-76200000D01*
X139700000Y-76200000D02*
X126462692Y-76200000D01*
%TO.N,~PIN99_KBDRST*%
X144780000Y-104140000D02*
X140970000Y-104140000D01*
X116205000Y-66040000D02*
X121285000Y-66040000D01*
X121285000Y-74930000D02*
X140970000Y-74930000D01*
%TO.N,~PIN58_PIO_CS*%
X171450000Y-139065000D02*
X171450000Y-135890000D01*
X166370000Y-144145000D02*
X171450000Y-139065000D01*
X142875000Y-144145000D02*
X166370000Y-144145000D01*
X137160000Y-149225000D02*
X139700000Y-149225000D01*
X171450000Y-135890000D02*
X170180000Y-134620000D01*
X139700000Y-149225000D02*
X142875000Y-144145000D01*
%TO.N,~PIN57_M1*%
X165735000Y-143510000D02*
X170180000Y-139065000D01*
X140335000Y-143510000D02*
X165735000Y-143510000D01*
X170180000Y-139065000D02*
X170180000Y-137160000D01*
X137160000Y-144145000D02*
X139700000Y-144145000D01*
X139700000Y-144145000D02*
X140335000Y-143510000D01*
%TO.N,~PIN60_WR*%
X168910000Y-139065000D02*
X168910000Y-135890000D01*
X168910000Y-135890000D02*
X167640000Y-134620000D01*
X132080000Y-142875000D02*
X165100000Y-142875000D01*
X165100000Y-142875000D02*
X168910000Y-139065000D01*
X129540000Y-144145000D02*
X130810000Y-144145000D01*
X130810000Y-144145000D02*
X132080000Y-142875000D01*
%TO.N,PIN87_PORT0RD*%
X45720000Y-66040000D02*
X48260000Y-68580000D01*
X40640000Y-66040000D02*
X45720000Y-66040000D01*
X144780000Y-116840000D02*
X127635000Y-116840000D01*
X71120000Y-68580000D02*
X48260000Y-68580000D01*
X73804999Y-71264999D02*
X71120000Y-68580000D01*
X81770001Y-71264999D02*
X73804999Y-71264999D01*
X114935000Y-73660000D02*
X114300000Y-73025000D01*
X125095000Y-73660000D02*
X114935000Y-73660000D01*
X114300000Y-73025000D02*
X107315000Y-73025000D01*
X82550000Y-70485000D02*
X81770001Y-71264999D01*
X104775000Y-70485000D02*
X82550000Y-70485000D01*
X107315000Y-73025000D02*
X104775000Y-70485000D01*
%TO.N,~PIN59_RD*%
X167640000Y-139065000D02*
X167640000Y-137160000D01*
X164465000Y-142240000D02*
X167640000Y-139065000D01*
X137795000Y-140335000D02*
X139700000Y-142240000D01*
X139700000Y-142240000D02*
X164465000Y-142240000D01*
X132080000Y-140335000D02*
X137795000Y-140335000D01*
X129540000Y-139065000D02*
X130810000Y-139065000D01*
X130810000Y-139065000D02*
X132080000Y-140335000D01*
%TO.N,~PIN64_FDC_CS*%
X166370000Y-135890000D02*
X165100000Y-134620000D01*
X166370000Y-139065000D02*
X166370000Y-135890000D01*
X137795000Y-139065000D02*
X140335000Y-141605000D01*
X163830000Y-141605000D02*
X166370000Y-139065000D01*
X140335000Y-141605000D02*
X163830000Y-141605000D01*
%TO.N,~PIN63_IORQ*%
X137160000Y-133985000D02*
X139065000Y-135890000D01*
X163195000Y-140970000D02*
X165100000Y-139065000D01*
X165100000Y-139065000D02*
X165100000Y-137160000D01*
X140970000Y-140970000D02*
X163195000Y-140970000D01*
X139065000Y-135890000D02*
X139065000Y-139065000D01*
X139065000Y-139065000D02*
X140970000Y-140970000D01*
%TO.N,PIN86_TX*%
X147320000Y-119380000D02*
X146050000Y-118110000D01*
X146050000Y-118110000D02*
X136525000Y-118110000D01*
X136525000Y-112395000D02*
X134620000Y-110490000D01*
%TO.N,PIN65_TVVID*%
X140335000Y-137795000D02*
X140335000Y-137795000D01*
X142240000Y-139700000D02*
X140335000Y-137795000D01*
X161925000Y-139700000D02*
X142240000Y-139700000D01*
X162560000Y-137160000D02*
X162560000Y-139065000D01*
X162560000Y-139065000D02*
X161925000Y-139700000D01*
X139065000Y-115570000D02*
X134620000Y-115570000D01*
%TO.N,~PIN71_CTC_CS*%
X146685000Y-94615000D02*
X146685000Y-94615000D01*
X146685000Y-94615000D02*
X158750000Y-94615000D01*
X132715000Y-63500000D02*
X133985000Y-64770000D01*
X133985000Y-64770000D02*
X146685000Y-64770000D01*
%TO.N,PIN70_PORTE4_WR*%
X147320000Y-93980000D02*
X147320000Y-93980000D01*
X147320000Y-93980000D02*
X160020000Y-93980000D01*
X140335000Y-58420000D02*
X141605000Y-59690000D01*
X141605000Y-59690000D02*
X147320000Y-59690000D01*
%TO.N,~PIN22_IN_READY*%
X191770000Y-113030000D02*
X193040000Y-111760000D01*
X117475000Y-49530000D02*
X116205000Y-50800000D01*
X151130000Y-50800000D02*
X149860000Y-49530000D01*
X149860000Y-49530000D02*
X117475000Y-49530000D01*
X152400000Y-113030000D02*
X191770000Y-113030000D01*
%TO.N,PIN89_IN_NC*%
X134620000Y-113030000D02*
X136525000Y-114300000D01*
X140970000Y-114300000D02*
X144780000Y-114300000D01*
X136525000Y-114300000D02*
X140970000Y-114300000D01*
%TO.N,PIN88_IN_INTRQ*%
X147320000Y-116840000D02*
X149225000Y-116840000D01*
X137160000Y-131445000D02*
X149225000Y-131445000D01*
%TO.N,~PIN72_IO_RESET*%
X146050000Y-95250000D02*
X146050000Y-95250000D01*
X146050000Y-95250000D02*
X157480000Y-95250000D01*
X132715000Y-53340000D02*
X135255000Y-53340000D01*
X135255000Y-53340000D02*
X136525000Y-54610000D01*
X136525000Y-54610000D02*
X146050000Y-54610000D01*
%TO.N,PIN67_CLK1*%
X139700000Y-133350000D02*
X139065000Y-132715000D01*
X163830000Y-135890000D02*
X163830000Y-139065000D01*
X163830000Y-139065000D02*
X162560000Y-140335000D01*
X141605000Y-140335000D02*
X139700000Y-138430000D01*
X162560000Y-134620000D02*
X163830000Y-135890000D01*
X162560000Y-140335000D02*
X141605000Y-140335000D01*
X139700000Y-138430000D02*
X139700000Y-133350000D01*
X130810000Y-132715000D02*
X129540000Y-133985000D01*
X139065000Y-132715000D02*
X130810000Y-132715000D01*
%TO.N,Net-(C10-Pad1)*%
X82154998Y-59690000D02*
X83279999Y-58564999D01*
X87774999Y-58564999D02*
X88900000Y-59690000D01*
X83279999Y-58564999D02*
X87774999Y-58564999D01*
X76200000Y-59690000D02*
X82154998Y-59690000D01*
%TO.N,Net-(J10-Pad1)*%
X114300000Y-136525000D02*
X118110000Y-140335000D01*
X113030000Y-136525000D02*
X114300000Y-136525000D01*
%TO.N,Net-(R19-Pad1)*%
X135890000Y-135255000D02*
X137160000Y-136525000D01*
X123825000Y-135255000D02*
X135890000Y-135255000D01*
%TO.N,Net-(U13-Pad16)*%
X68580000Y-133350000D02*
X81280000Y-133350000D01*
X104775000Y-115570000D02*
X105410000Y-116205000D01*
X85723590Y-115570000D02*
X104775000Y-115570000D01*
X81280000Y-116840000D02*
X84453590Y-116840000D01*
X84453590Y-116840000D02*
X85723590Y-115570000D01*
%TO.N,Net-(U13-Pad15)*%
X69705001Y-129540000D02*
X68580000Y-130810000D01*
X78105000Y-129540000D02*
X69705001Y-129540000D01*
X100965000Y-124460000D02*
X83185000Y-124460000D01*
X83185000Y-124460000D02*
X78105000Y-129540000D01*
X109855000Y-122555000D02*
X102870000Y-122555000D01*
X102870000Y-122555000D02*
X100965000Y-124460000D01*
X113030000Y-113030000D02*
X109855000Y-113030000D01*
%TO.N,Net-(U13-Pad31)*%
X85090000Y-116840000D02*
X83820000Y-118110000D01*
X109220000Y-116840000D02*
X85090000Y-116840000D01*
X109220000Y-107950000D02*
X113030000Y-107950000D01*
%TO.N,Net-(U13-Pad30)*%
X85090000Y-121920000D02*
X99695000Y-121920000D01*
X83820000Y-120650000D02*
X85090000Y-121920000D01*
X99695000Y-109220000D02*
X104140000Y-109220000D01*
X104140000Y-109220000D02*
X105410000Y-110490000D01*
%TO.N,Net-(U13-Pad25)*%
X85268801Y-134798801D02*
X83820000Y-133350000D01*
X88900000Y-134620000D02*
X88721199Y-134798801D01*
X88721199Y-134798801D02*
X85268801Y-134798801D01*
X102235000Y-134620000D02*
X88900000Y-134620000D01*
X105410000Y-105410000D02*
X102235000Y-105410000D01*
%TO.N,Net-(U14-Pad7)*%
X113030000Y-141605000D02*
X111760000Y-142875000D01*
X111760000Y-142875000D02*
X110490000Y-142875000D01*
X110490000Y-142875000D02*
X102235000Y-142875000D01*
X96520000Y-141605000D02*
X97790000Y-142875000D01*
X97790000Y-142875000D02*
X102235000Y-142875000D01*
%TO.N,Net-(U14-Pad5)*%
X105410000Y-136525000D02*
X100965000Y-136525000D01*
X100965000Y-136525000D02*
X100330000Y-135890000D01*
X92710000Y-105410000D02*
X90170000Y-105410000D01*
%TO.N,Net-(U14-Pad10)*%
X97790000Y-110490000D02*
X103505000Y-110490000D01*
X113030000Y-133985000D02*
X109855000Y-133985000D01*
X109855000Y-133985000D02*
X108585000Y-135255000D01*
X103505000Y-135255000D02*
X108585000Y-135255000D01*
%TO.N,Net-(U14-Pad2)*%
X105410000Y-128905000D02*
X97790000Y-128905000D01*
%TO.N,PIN75_RCLK*%
X142240000Y-124460000D02*
X142240000Y-124460000D01*
X144780000Y-124460000D02*
X141605000Y-124460000D01*
%TO.N,~PIN97_INT*%
X146050000Y-107950000D02*
X147320000Y-106680000D01*
X143510000Y-107950000D02*
X146050000Y-107950000D01*
X140335000Y-60960000D02*
X145415000Y-60960000D01*
%TO.N,PIN74_RX*%
X140970000Y-125730000D02*
X140970000Y-125730000D01*
X146050000Y-125730000D02*
X147320000Y-127000000D01*
X140335000Y-125730000D02*
X146050000Y-125730000D01*
%TO.N,PIN93_RXBAUDCLK*%
X144780000Y-109220000D02*
X142875000Y-109220000D01*
X123825000Y-66040000D02*
X130175000Y-66040000D01*
X142875000Y-73025000D02*
X130175000Y-73025000D01*
X144780000Y-73025000D02*
X142875000Y-73025000D01*
%TO.N,PIN92_TVSYNCH*%
X146050000Y-113030000D02*
X141605000Y-113030000D01*
X147320000Y-111760000D02*
X146050000Y-113030000D01*
X141605000Y-113030000D02*
X136525000Y-107950000D01*
X136525000Y-104775000D02*
X134620000Y-102870000D01*
X136525000Y-107950000D02*
X136525000Y-104775000D01*
%TO.N,PIN94_TXBAUDCLK*%
X123825000Y-60960000D02*
X126365000Y-60960000D01*
X126365000Y-73660000D02*
X142875000Y-73660000D01*
X142875000Y-73660000D02*
X144145000Y-73660000D01*
X146050000Y-110490000D02*
X142240000Y-110490000D01*
X147320000Y-109220000D02*
X146050000Y-110490000D01*
%TO.N,PIN90_IN_NC*%
X134620000Y-100330000D02*
X150495000Y-100330000D01*
X147320000Y-114300000D02*
X150495000Y-114300000D01*
%TO.N,PIN91_IN_DRQ*%
X132715000Y-50800000D02*
X135890000Y-50800000D01*
X135890000Y-80010000D02*
X142875000Y-80010000D01*
X144780000Y-111760000D02*
X141605000Y-111760000D01*
%TO.N,Net-(C8-Pad1)*%
X88820000Y-41990000D02*
X88900000Y-41990000D01*
%TO.N,Net-(C12-Pad1)*%
X86360000Y-74930000D02*
X88900000Y-72390000D01*
X83820000Y-74930000D02*
X86360000Y-74930000D01*
%TO.N,Net-(C15-Pad2)*%
X76200000Y-87630000D02*
X77325001Y-86504999D01*
X87774999Y-86504999D02*
X88900000Y-87630000D01*
X87485001Y-86504999D02*
X87774999Y-86504999D01*
X87485001Y-86504999D02*
X87734999Y-86504999D01*
X77325001Y-86504999D02*
X87485001Y-86504999D01*
X90170000Y-87630000D02*
X91440000Y-86360000D01*
X88900000Y-87630000D02*
X90170000Y-87630000D01*
%TO.N,Net-(C24-Pad2)*%
X83820000Y-138430000D02*
X87075000Y-138430000D01*
%TO.N,Net-(C25-Pad1)*%
X86283800Y-133273800D02*
X86995000Y-133273800D01*
X83820000Y-130810000D02*
X86283800Y-133273800D01*
%TO.N,Net-(J5-Pad3)*%
X72390000Y-123190000D02*
X83820000Y-123190000D01*
%TO.N,Net-(J12-Pad2)*%
X163390000Y-157565002D02*
X163390000Y-157480000D01*
D34*
X165735000Y-154940000D02*
X163390000Y-157480000D01*
X165735000Y-151765000D02*
X165735000Y-154940000D01*
X163830000Y-149860000D02*
X165735000Y-151765000D01*
D33*
%TO.N,Net-(J13-Pad7)*%
X159190000Y-160330000D02*
X159990000Y-161130000D01*
X153140000Y-160330000D02*
X159190000Y-160330000D01*
X159990000Y-161130000D02*
X160815000Y-161130000D01*
X161615000Y-160330000D02*
X166840000Y-160330000D01*
X160815000Y-161130000D02*
X161615000Y-160330000D01*
%TD*%
M02*
